<svg xmlns="http://www.w3.org/2000/svg" width="316.312" height="394.665"><g data-name="Group 443"><path data-name="Path 291" d="M293.704 197.329c-37.975 0-122.837-9.151-177.633 45.644-20.3 20.3-35.109 47.974-39.4 76.114-2.185 14.336-1.921 29.483 4 42.723 9.265 20.742 32.6 33.952 55.25 32.188 22.027-1.716 42.651-17.607 48.618-38.881 6.746-24.051-5.058-49.928-22.15-68.146-32.956-35.128-80.98-47.716-120.619-72.97C4.852 190.48-7.13 142.406 5.541 101.936q1.542-4.925 3.55-9.686C21.6 62.619 47.348 41.189 74.772 25.761A196.071 196.071 0 01169.252.505" fill="none" stroke="#161615" stroke-miterlimit="10"/></g><g data-name="Group 444"><path data-name="Path 292" d="M316.312 197.348l-23.7-7.32.032 14.592z" fill="#161615"/></g></svg>