<svg xmlns="http://www.w3.org/2000/svg" width="103.348" height="15.744"><path d="M67.528 0h-1.737l-2 2.089h1.715zM44.462 3.276c2.2 0 3.342 1.033 3.65 2.639h1.341c-.33-2.573-2.441-3.826-5.079-3.826-2.771 0-4.618 1.5-4.618 3.738 0 1.759 1.209 2.969 3.606 3.408l2.265.44c1.693.308 2.463 1.125 2.463 2.225 0 1.561-1.319 2.573-3.408 2.573-2.4 0-3.826-1.187-4.134-3.232h-1.342c.308 2.815 2.309 4.442 5.431 4.442 2.925 0 4.86-1.583 4.86-3.958 0-1.869-1.3-2.947-3.628-3.386L43.89 7.96c-1.737-.308-2.661-1.033-2.661-2.221-.044-1.5 1.253-2.463 3.232-2.463zm8.84-.9h1.363v13.038H53.3zM14.931 9.059l6.355-6.619H19.57l-4.64 4.816V2.375h-1.363v13.061h8.356V14.2h-6.992zM79.27 3.276c2.2 0 3.342 1.033 3.65 2.639h1.341c-.33-2.573-2.441-3.826-5.079-3.826-2.771 0-4.618 1.5-4.618 3.738 0 1.759 1.209 2.969 3.606 3.408l2.265.44C82.129 9.983 82.9 10.8 82.9 11.9c0 1.561-1.319 2.573-3.408 2.573-2.4 0-3.826-1.187-4.134-3.232h-1.343c.308 2.815 2.309 4.442 5.431 4.442 2.925 0 4.86-1.583 4.86-3.958 0-1.869-1.3-2.947-3.628-3.386L78.7 7.96c-1.737-.308-2.661-1.033-2.661-2.221-.066-1.5 1.253-2.463 3.232-2.463zm22.715-.9h1.363v13.038h-1.363zm-71.948-.265a6.817 6.817 0 106.817 6.817 6.794 6.794 0 00-6.817-6.817zm0 12.358a5.481 5.481 0 01-5.431-5.541 5.443 5.443 0 1110.885 0 5.5 5.5 0 01-5.454 5.541zM10.489 2.375H8.818l-7.455 7.762V2.375H0v13.061h1.363v-3.43l2.287-2.4 5.673 5.827h1.869L4.574 8.62zm88.088 0h-1.671l-7.476 7.762V2.375h-1.364v13.061h1.363v-3.43l2.287-2.4 5.7 5.827h1.847L92.64 8.62zM70.519 15.436h-1.166l-8.51-10.6v10.6H59.48V2.375h1.12l8.554 10.709V2.375h1.363v13.061z"/></svg>