<svg xmlns="http://www.w3.org/2000/svg" viewBox="0 0 103.3 15.7"><path d="M67.5 0h-1.7l-2 2.1h1.7l2-2.1zm-23 3.3c2.2 0 3.3 1 3.7 2.6h1.3c-.3-2.6-2.4-3.8-5.1-3.8-2.8 0-4.6 1.5-4.6 3.7 0 1.8 1.2 3 3.6 3.4l2.3.4c1.7.3 2.5 1.1 2.5 2.2 0 1.6-1.3 2.6-3.4 2.6-2.4 0-3.8-1.2-4.1-3.2h-1.3c.3 2.8 2.3 4.4 5.4 4.4 2.9 0 4.9-1.6 4.9-4 0-1.9-1.3-2.9-3.6-3.4l-2-.4c-1.7-.3-2.7-1-2.7-2.2-.2-1.4 1.1-2.3 3.1-2.3zm8.8-.9h1.4v13h-1.4v-13zM14.9 9.1l6.4-6.6h-1.7L15 7.3V2.4h-1.4v13.1H22v-1.2h-7V9.1zm64.4-5.8c2.2 0 3.3 1 3.7 2.6h1.3c-.3-2.6-2.4-3.8-5.1-3.8-2.8 0-4.6 1.5-4.6 3.7 0 1.8 1.2 3 3.6 3.4l2.3.4c1.7.3 2.5 1.1 2.5 2.2 0 1.6-1.3 2.6-3.4 2.6-2.4 0-3.8-1.2-4.1-3.2H74c.3 2.8 2.3 4.4 5.4 4.4 2.9 0 4.9-1.6 4.9-4 0-1.9-1.3-2.9-3.6-3.4l-2-.4C77 7.7 76 6.9 76 5.7c0-1.5 1.3-2.4 3.3-2.4zm22.7-.9h1.4v13H102v-13zm-72-.3c-3.8 0-6.8 3.1-6.8 6.8s3.1 6.8 6.8 6.8 6.8-3.1 6.8-6.8c.1-3.7-3-6.8-6.8-6.8.1 0 .1 0 0 0zm0 12.4c-3 0-5.5-2.5-5.4-5.5 0-3 2.4-5.5 5.4-5.5 3 0 5.5 2.4 5.5 5.4V9c0 3-2.4 5.4-5.5 5.5zM10.5 2.4H8.8l-7.5 7.8V2.4H0v13.1h1.4V12l2.3-2.4 5.7 5.8h1.9L4.6 8.6l5.9-6.2zm88.1 0h-1.7l-7.5 7.8V2.4H88v13.1h1.4V12l2.3-2.4 5.7 5.8h1.8l-6.6-6.8 6-6.2zm-28.1 13h-1.2L60.8 4.8v10.6h-1.4v-13h1.1l8.6 10.7V2.4h1.4v13z" fill="#fff"/></svg>