<svg xmlns="http://www.w3.org/2000/svg" width="209.767" height="46"><defs><clipPath id="a"><circle cx="23" cy="23" r="23"/></clipPath></defs><path d="M173.946 15h-1.737l-2 2.089h1.715zm-23.066 3.276c2.2 0 3.342 1.033 3.65 2.639h1.341c-.33-2.573-2.441-3.826-5.079-3.826-2.771 0-4.618 1.5-4.618 3.738 0 1.759 1.209 2.969 3.606 3.408l2.265.44c1.693.308 2.463 1.125 2.463 2.225 0 1.561-1.319 2.573-3.408 2.573-2.4 0-3.826-1.187-4.134-3.232h-1.342c.308 2.815 2.309 4.442 5.431 4.442 2.925 0 4.86-1.583 4.86-3.958 0-1.869-1.3-2.947-3.628-3.386l-1.979-.379c-1.737-.308-2.661-1.033-2.661-2.221-.044-1.5 1.253-2.463 3.232-2.463zm8.84-.9h1.363v13.038h-1.365zm-38.371 6.683l6.355-6.619h-1.716l-4.64 4.816v-4.881h-1.363v13.061h8.356V29.2h-6.992zm64.339-5.783c2.2 0 3.342 1.033 3.65 2.639h1.341c-.33-2.573-2.441-3.826-5.079-3.826-2.771 0-4.618 1.5-4.618 3.738 0 1.759 1.209 2.969 3.606 3.408l2.265.44c1.694.308 2.465 1.125 2.465 2.225 0 1.561-1.319 2.573-3.408 2.573-2.4 0-3.826-1.187-4.134-3.232h-1.343c.308 2.815 2.309 4.442 5.431 4.442 2.925 0 4.86-1.583 4.86-3.958 0-1.869-1.3-2.947-3.628-3.386l-1.978-.379c-1.737-.308-2.661-1.033-2.661-2.221-.066-1.5 1.253-2.463 3.232-2.463zm22.715-.9h1.363v13.038h-1.363zm-71.948-.265a6.817 6.817 0 106.817 6.817 6.794 6.794 0 00-6.817-6.817zm0 12.358a5.481 5.481 0 01-5.431-5.541 5.443 5.443 0 1110.885 0 5.5 5.5 0 01-5.454 5.541zm-19.548-12.094h-1.671l-7.455 7.762v-7.762h-1.363v13.061h1.363v-3.43l2.287-2.4 5.673 5.827h1.869l-6.618-6.813zm88.088 0h-1.671l-7.476 7.762v-7.762h-1.364v13.061h1.363v-3.43l2.287-2.4 5.7 5.827h1.847l-6.623-6.813zm-28.058 13.061h-1.166l-8.51-10.6v10.6h-1.363V17.375h1.12l8.554 10.709V17.375h1.363v13.061z"/><path d="M76 38.5v-30" fill="none" stroke="#fff"/><g clip-path="url(#a)"><path d="M40.624 38.257l-2.369 2.369a23.41 23.41 0 002.369-2.369zm-7.119 5.558l-3.218 1.335a23.138 23.138 0 003.218-1.335zm11.644-13.543l-1.332 3.22a23.159 23.159 0 001.332-3.22zm-29.42 14.884l-3.22-1.333a23.117 23.117 0 003.22 1.333zm21.825-26.235q-.1-.347-.21-.686l-6.5 2.7q-.075-.284-.169-.559l-5.1 2.115h5.519q-.018-.294-.057-.581h7.036q-.026-.359-.069-.714h8.236a23.206 23.206 0 00-1.075-5.427zm.701-13.548l2.369 2.369a23.55 23.55 0 00-2.369-2.369zm5.556 7.119l1.335 3.219a23.184 23.184 0 00-1.335-3.219zM7.745 40.626l-2.369-2.369a23.421 23.421 0 002.369 2.369zM30.27.844l3.22 1.333A23.086 23.086 0 0030.27.844zm-17.776 1.34L15.712.849a23.143 23.143 0 00-3.218 1.335zM2.187 33.508L.853 30.289a23.178 23.178 0 001.334 3.219zM.847 15.729l1.332-3.221a23.131 23.131 0 00-1.332 3.221zm4.529-7.987l2.369-2.369a23.549 23.549 0 00-2.369 2.369zm31.135 22.033l-6.5-2.691q.146-.252.276-.514l-5.1-2.111 3.9 3.9q.193-.219.37-.451l4.976 4.977q.235-.271.457-.554l5.823 5.824a23.361 23.361 0 003.076-4.6l-7.612-3.15q.172-.309.334-.63zm-20.285 6.739l2.691-6.5q.252.147.514.276l2.111-5.1-3.9 3.9q.219.193.451.37l-4.976 4.976q.271.235.554.457l-5.825 5.821a23.328 23.328 0 004.6 3.076l3.15-7.613q.309.176.63.337zm5.68-5.476q.287.039.581.057V25.58l-2.109 5.1q.275.094.559.169l-2.691 6.5q.339.113.686.209l-3.15 7.613a23.2 23.2 0 005.409 1.07v-8.237q.355.042.714.069zm5.858 6.309l-2.7-6.5q.284-.075.559-.169l-2.115-5.1v5.52c.2-.012.389-.031.581-.057v7.037q.359-.025.714-.069v8.237a23.244 23.244 0 005.426-1.075l-3.155-7.611q.35-.1.69-.213zm6.667-24.233l-4.976 4.976q-.177-.233-.37-.451l-3.9 3.9 5.095-2.113q-.129-.263-.277-.514l6.5-2.7q-.162-.321-.338-.633l7.61-3.156a23.361 23.361 0 00-3.068-4.582l-5.823 5.824q-.218-.28-.453-.551zm-4.658-3.628l-2.691 6.5q-.252-.147-.514-.276l-2.111 5.1 3.9-3.9q-.219-.193-.451-.37l4.976-4.976q-.271-.235-.554-.457l5.829-5.82a23.328 23.328 0 00-4.6-3.076l-3.15 7.613q-.313-.176-.634-.338zm8.299 14.607h-7.036q.039-.287.057-.581h-5.514l5.1 2.109q.094-.276.169-.559l6.5 2.691q.113-.34.209-.687l7.612 3.151a23.207 23.207 0 001.07-5.415h-8.236q.043-.349.069-.709zM7.927 21.906h7.036q-.039.287-.057.581h5.514l-5.1-2.109a8.6 8.6 0 00-.169.559l-6.5-2.691q-.113.339-.209.686L.83 15.781a23.206 23.206 0 00-1.07 5.411h8.236q-.042.359-.069.714zM18.235 8.653l2.7 6.5q-.284.075-.559.169l2.115 5.1v-5.52c-.2.012-.389.031-.581.057V7.925q-.359.025-.714.069V-.244A23.243 23.243 0 0015.77.831l3.155 7.611q-.35.098-.69.211zm-8.747 7.572l6.5 2.691q-.146.252-.276.514l5.1 2.111-3.9-3.9q-.193.219-.37.451l-4.973-4.979q-.235.271-.457.554L5.29 7.843a23.363 23.363 0 00-3.076 4.6l7.612 3.15q-.176.311-.338.632zm23.397 18.208l-4.976-4.976c.155-.118.306-.241.451-.37l-3.9-3.9 2.113 5.1q.263-.129.514-.277l2.7 6.5q.321-.162.633-.338l3.155 7.611a23.36 23.36 0 004.582-3.069l-5.822-5.824c.184-.149.366-.301.55-.457zM13.114 11.567l4.976 4.976a7.643 7.643 0 00-.451.37l3.9 3.9-2.113-5.1q-.263.129-.514.277l-2.7-6.5q-.321.162-.633.338l-3.155-7.611a23.356 23.356 0 00-4.582 3.069l5.822 5.824c-.184.148-.368.301-.55.457zm-1.545 21.319l4.976-4.977q.177.233.37.451l3.9-3.9-5.1 2.113q.129.263.277.514l-6.5 2.7q.162.321.338.633l-7.61 3.156a23.356 23.356 0 003.068 4.582l5.822-5.824q.224.281.459.552zm-2.914-5.121l6.5-2.7q.075.284.169.559l5.1-2.115H14.91q.018.294.057.581h-7.04q.025.359.069.714H-.24a23.211 23.211 0 001.075 5.427l7.61-3.156q.097.35.21.69zm15.438-12.803q-.287-.039-.581-.057v5.515l2.109-5.1a8.6 8.6 0 00-.559-.169l2.691-6.5q-.339-.113-.687-.209l3.15-7.613a23.2 23.2 0 00-5.414-1.073v8.237q-.355-.042-.714-.069v7.037z" fill="#eaeaea"/><path d="M46.239 21.192h-8.235q.042.355.069.714h-7.037q.039.287.057.581h-5.519l5.1-2.115q.094.275.169.559l6.5-2.7c.075.226.146.455.21.686l7.61-3.156-.022-.052-1.33-3.217-.029-.069-7.61 3.156q.176.312.338.633l-6.5 2.7q.147.252.277.514l-5.095 2.113 3.9-3.9q.193.219.37.451l4.969-4.973q.235.271.457.554l5.822-5.824.007-.007-.093-.093-2.373-2.374-.094-.094-.007.007-5.819 5.824q.282.222.554.457l-4.976 4.976c.155.118.306.241.451.37l-3.9 3.9 2.111-5.1q.263.129.514.276l2.691-6.5q.321.161.633.337l3.15-7.613-.069-.029L30.27.851 30.218.83l-3.15 7.613c.231.064.46.135.686.209l-2.691 6.5c.189.05.375.106.559.169l-2.109 5.1v-5.516c.2.012.389.031.581.057V7.925q.359.025.714.069V-.253h-3.616v8.246q.355-.042.714-.069v7.037q.287-.039.581-.057v5.52l-2.115-5.1a8.02 8.02 0 01.559-.169l-2.7-6.5q.339-.113.686-.21L15.766.832l-.052.022-3.22 1.331-.07.032 3.155 7.611q.312-.176.633-.338l2.7 6.5q.251-.147.514-.277l2.113 5.1-3.9-3.9q.219-.193.451-.37l-4.975-4.976q.271-.235.554-.457L7.846 5.287l-.007-.007-.094.094-2.369 2.369-.093.093.007.007 5.822 5.824q.222-.282.457-.554l4.976 4.976q.177-.233.37-.451l3.9 3.9-5.1-2.111q.129-.263.276-.514l-6.5-2.691q.161-.321.337-.633l-7.615-3.148h-.005l-.029.069-1.328 3.218-.021.052 7.612 3.15c.064-.231.135-.46.209-.686l6.5 2.691q.075-.284.169-.559l5.1 2.109h-5.514q.018-.294.057-.581H7.927q.025-.359.069-.714H-.249v3.616h8.245q-.043-.355-.069-.714h7.036q-.039-.287-.057-.581h5.519l-5.1 2.115a8.6 8.6 0 01-.169-.559l-6.5 2.7q-.113-.339-.21-.686l-7.61 3.157.022.053 1.334 3.219.029.069 7.61-3.162q-.176-.312-.338-.633l6.5-2.7q-.147-.252-.277-.514l5.1-2.113-3.9 3.9q-.193-.219-.37-.451l-4.978 4.981q-.235-.271-.457-.554l-5.822 5.824-.007.007.093.093 2.369 2.37.094.094.007-.007 5.822-5.824q-.282-.222-.554-.457l4.976-4.976a7.643 7.643 0 01-.451-.37l3.9-3.9-2.111 5.1q-.263-.129-.514-.276l-2.69 6.5q-.321-.161-.633-.337l-3.15 7.613.069.028 3.22 1.333.052.021 3.15-7.613c-.231-.064-.46-.135-.686-.209l2.691-6.5a8.187 8.187 0 01-.559-.169l2.109-5.1v5.515a7.723 7.723 0 01-.581-.057v7.037q-.359-.025-.714-.069v8.246h3.615v-8.244q-.355.042-.714.069v-7.037q-.287.039-.581.057v-5.52l2.115 5.1a8.02 8.02 0 01-.559.169l2.7 6.5q-.339.113-.686.21l3.155 7.611.052-.022 3.216-1.326.069-.029-3.155-7.611q-.312.176-.633.338l-2.7-6.5q-.251.147-.514.277l-2.113-5.1 3.9 3.9q-.219.193-.451.37l4.976 4.976q-.271.235-.554.457l5.822 5.822.007.007.094-.094 2.369-2.369.093-.093-.007-.007-5.822-5.824q-.222.282-.457.554l-4.977-4.981q-.177.233-.37.451l-3.9-3.9 5.1 2.111q-.129.263-.276.514l6.5 2.691q-.161.321-.337.633l7.612 3.15h.005l.028-.069 1.332-3.22.021-.052-7.612-3.15c-.064.231-.135.46-.209.686l-6.5-2.691c-.05.189-.106.375-.169.559l-5.1-2.109h5.515q-.018.294-.057.581h7.038q-.025.359-.069.714h8.248v-3.617h-.009z" fill="#100c08"/></g></svg>