<svg xmlns="http://www.w3.org/2000/svg" width="800" height="820"><defs><clipPath id="a"><path data-name="Rectangle 533" transform="translate(818 80)" fill="#fff" d="M0 0h800v820H0z"/></clipPath><clipPath id="b"><circle data-name="Ellipse 86" cx="574.793" cy="574.793" r="574.793"/></clipPath></defs><g transform="translate(-818 -80)" clip-path="url(#a)"><g data-name="Group 432" transform="translate(643.371 -84.629)" clip-path="url(#b)"><g data-name="Group 431"><g data-name="Group 430" fill="#eaeaea"><path data-name="Path 220" d="M1015.231 956.094l-59.2 59.213a585.463 585.463 0 0059.2-59.213z"/><path data-name="Path 221" d="M837.334 1094.996l-80.416 33.357a578.313 578.313 0 0080.416-33.357z"/><path data-name="Path 222" d="M1128.399 756.524l-33.3 80.477a578.56 578.56 0 0033.3-80.477z"/><path data-name="Path 223" d="M393.092 1128.489l-80.477-33.311a577.638 577.638 0 0080.477 33.311z"/><path data-name="Path 224" d="M938.527 472.856q-2.432-8.661-5.243-17.141L770.8 523.097q-1.864-7.093-4.213-13.973l-127.459 52.862h137.931q-.454-7.343-1.424-14.519H951.47q-.637-8.979-1.713-17.853h205.815a580.055 580.055 0 00-26.871-135.628z"/><path data-name="Path 225" d="M956.033 134.279l59.212 59.213a588.73 588.73 0 00-59.212-59.213z"/><path data-name="Path 226" d="M1094.904 312.191l33.36 80.446a579.41 579.41 0 00-33.36-80.446z"/><path data-name="Path 227" d="M193.552 1015.307l-59.198-59.213a585.3 585.3 0 0059.198 59.213z"/><path data-name="Path 228" d="M756.494 21.096l80.477 33.312a576.887 576.887 0 00-80.477-33.312z"/><path data-name="Path 229" d="M312.251 54.591l80.431-33.358a578.374 578.374 0 00-80.431 33.358z"/><path data-name="Path 230" d="M54.681 837.398l-33.342-80.45a579.234 579.234 0 0033.342 80.45z"/><path data-name="Path 231" d="M21.187 393.077l33.3-80.492a578.082 578.082 0 00-33.3 80.492z"/><path data-name="Path 232" d="M134.354 193.492l59.2-59.213a588.506 588.506 0 00-59.2 59.213z"/><path data-name="Path 233" d="M912.461 744.112l-162.529-67.261q3.659-6.3 6.9-12.851l-127.494-52.758 97.527 97.541q4.82-5.479 9.245-11.275l124.352 124.367q5.865-6.775 11.412-13.837l145.514 145.54a583.82 583.82 0 0076.87-114.91l-190.224-78.736q4.389-7.8 8.427-15.82z"/><path data-name="Path 234" d="M405.503 912.521l67.245-162.545q6.3 3.683 12.852 6.9l52.757-127.5-97.527 97.542q5.479 4.819 11.276 9.245L327.755 860.522q6.774 5.866 13.837 11.412l-145.509 145.54a583.021 583.021 0 00114.88 76.884l78.718-190.26q7.798 4.383 15.822 8.423z"/><path data-name="Path 235" d="M547.467 775.665q7.184.977 14.519 1.425V639.265l-52.711 127.414q6.866 2.342 13.974 4.213l-67.262 162.544q8.479 2.819 17.156 5.229l-78.718 190.264a579.654 579.654 0 00135.188 26.736V949.819q8.866 1.046 17.854 1.712z"/><path data-name="Path 236" d="M693.855 933.346l-67.366-162.5q7.093-1.864 13.959-4.213l-52.849-127.489v137.947c4.88-.3 9.73-.773 14.519-1.425v175.866q8.979-.636 17.854-1.713v205.86a580.882 580.882 0 00135.617-26.871l-78.855-190.2q8.634-2.436 17.121-5.262z"/><path data-name="Path 237" d="M860.462 327.726L736.11 452.093q-4.434-5.82-9.245-11.276l-97.436 97.451 127.323-52.8q-3.228-6.57-6.911-12.852l162.469-67.382q-4.047-8.025-8.442-15.822l190.173-78.87a583.714 583.714 0 00-76.673-114.519l-145.509 145.54q-5.524-7.07-11.397-13.837z"/><path data-name="Path 238" d="M744.081 237.079l-67.245 162.545q-6.3-3.683-12.852-6.9l-52.757 127.509 97.526-97.541q-5.479-4.82-11.275-9.245l124.349-124.368q-6.775-5.865-13.837-11.412l145.51-145.54a583.055 583.055 0 00-114.873-76.885l-78.723 190.264q-7.798-4.387-15.823-8.427z"/><path data-name="Path 239" d="M951.472 602.118H775.636q.978-7.184 1.425-14.519H639.265l127.383 52.711q2.342-6.888 4.213-13.973l162.529 67.261q2.818-8.5 5.228-17.156l190.234 78.734a579.912 579.912 0 0026.734-135.218H949.774q1.046-8.845 1.698-17.84z"/><path data-name="Path 240" d="M198.114 547.465H373.95q-.978 7.184-1.425 14.519h137.8l-127.388-52.709a203.35 203.35 0 00-4.213 13.974l-162.529-67.261q-2.819 8.477-5.232 17.156L20.748 394.395A579.931 579.931 0 00-5.987 529.614h205.814q-1.046 8.866-1.713 17.851z"/><path data-name="Path 241" d="M455.731 216.24l67.367 162.5q-7.093 1.864-13.958 4.213l52.846 127.474V372.48c-4.88.3-9.73.773-14.519 1.425V198.054q-8.979.636-17.853 1.713V-6.093a580.857 580.857 0 00-135.613 26.871l78.855 190.2q-8.639 2.459-17.125 5.262z"/><path data-name="Path 242" d="M237.123 405.478l162.529 67.261q-3.66 6.3-6.9 12.852l127.489 52.757-97.518-97.546q-4.82 5.479-9.245 11.276L289.123 327.711q-5.865 6.775-11.412 13.837l-145.509-145.54a583.851 583.851 0 00-76.869 114.91l190.234 78.733q-4.411 7.798-8.444 15.827z"/><path data-name="Path 243" d="M821.83 860.522L697.478 736.155a206.024 206.024 0 0011.275-9.245l-97.435-97.451 52.8 127.354q6.57-3.228 12.852-6.911l67.367 162.5q8.025-4.047 15.823-8.442l78.855 190.2a583.693 583.693 0 00114.5-76.688L808.008 871.934a399.263 399.263 0 0013.822-11.412z"/><path data-name="Path 244" d="M327.756 289.079l124.352 124.367a206.046 206.046 0 00-11.276 9.245l97.436 97.451-52.8-127.353q-6.57 3.228-12.852 6.911l-67.367-162.5q-8.025 4.047-15.822 8.442L310.569 55.439a583.7 583.7 0 00-114.5 76.688l145.509 145.54a394.57 394.57 0 00-13.822 11.412z"/><path data-name="Path 245" d="M289.124 821.858l124.352-124.365q4.433 5.82 9.245 11.276l97.436-97.451-127.338 52.8q3.228 6.57 6.911 12.852l-162.468 67.388q4.047 8.024 8.442 15.823L55.515 839.058a583.723 583.723 0 0076.67 114.52l145.512-145.54q5.57 7.048 11.427 13.82z"/><path data-name="Path 246" d="M216.301 693.886l162.484-67.382q1.864 7.092 4.213 13.974l127.459-52.863H372.525q.455 7.343 1.425 14.519H198.114q.636 8.98 1.713 17.854H-5.987a580.056 580.056 0 0026.871 135.627l190.173-78.87q2.433 8.639 5.244 17.141z"/><path data-name="Path 247" d="M602.118 373.92q-7.184-.978-14.519-1.425v137.826l52.711-127.414q-6.866-2.342-13.973-4.213l67.245-162.56q-8.48-2.819-17.156-5.229l78.718-190.263A579.672 579.672 0 00619.956-6.093v205.859q-8.866-1.046-17.854-1.713V373.92z"/></g><path data-name="Path 248" d="M1155.573 529.614H949.759q1.046 8.866 1.713 17.853H775.636q.978 7.184 1.425 14.519H639.129l127.457-52.862q2.341 6.866 4.213 13.974l162.487-67.383a367.971 367.971 0 015.244 17.141l190.173-78.87.091-.045-.546-1.3-33.362-80.45-.712-1.713-.121.045-190.167 78.871q4.41 7.8 8.442 15.822l-162.472 67.383q3.683 6.3 6.911 12.852L629.444 538.25l97.436-97.451q4.819 5.479 9.245 11.276l124.352-124.364q5.865 6.774 11.409 13.839l145.509-145.54.182-.182-2.334-2.334-59.213-59.213-2.344-2.351-.182.182L807.993 277.65q7.047 5.547 13.837 11.412L697.478 413.431a206.427 206.427 0 0111.276 9.245l-97.527 97.542 52.757-127.5q6.57 3.228 12.852 6.9l67.25-162.553q8.025 4.024 15.823 8.427l78.714-190.265.046-.121-1.713-.712-80.477-33.313-1.293-.531-.046.091-78.713 190.265a386.17 386.17 0 0117.156 5.229l-67.246 162.56a198.365 198.365 0 0113.974 4.213L587.6 510.321V372.495c4.88.3 9.73.773 14.519 1.425V198.05q8.98.637 17.853 1.713V-6.32h-90.358v206.087q8.866-1.046 17.853-1.713V373.92q7.184-.978 14.519-1.425v137.947l-52.847-127.474a197.944 197.944 0 0113.958-4.213L455.73 216.241q8.48-2.819 17.141-5.244L394.016 20.793l-.045-.091-1.3.546-80.434 33.358-1.728.712.061.121 78.855 190.2q7.8-4.41 15.822-8.442l67.367 162.5q6.274-3.683 12.852-6.911l52.8 127.353-97.436-97.451q5.479-4.819 11.276-9.245l-124.35-124.364q6.775-5.865 13.837-11.412l-145.507-145.54-.182-.182-2.349 2.349-59.2 59.213-2.334 2.334.182.182 145.509 145.54q5.547-7.047 11.412-13.837l124.352 124.367q4.433-5.82 9.245-11.276l97.527 97.542-127.489-52.757q3.228-6.57 6.9-12.852l-162.534-67.261q4.024-8.025 8.427-15.823L55.318 310.918l-.136-.061-.712 1.713-33.3 80.492-.53 1.288.091.046 190.235 78.733a386.17 386.17 0 015.229-17.156l162.529 67.261q1.864-7.093 4.213-13.974l127.383 52.711H372.526q.455-7.343 1.425-14.519H198.115q.637-8.98 1.713-17.853H-6.214v90.373h206.041q-1.069-8.866-1.713-17.853H373.95q-.978-7.184-1.425-14.519h137.932l-127.459 52.863a203.35 203.35 0 01-4.213-13.974l-162.484 67.382q-2.819-8.48-5.244-17.156L20.886 755.6l-.091.045.546 1.319 33.345 80.446.712 1.713.121-.061 190.167-78.87q-4.41-7.8-8.442-15.823l162.469-67.382q-3.683-6.3-6.911-12.852l127.338-52.8-97.434 97.449q-4.819-5.479-9.245-11.276L289.109 821.876q-5.865-6.775-11.412-13.837L132.186 953.578l-.182.182 2.334 2.334 59.2 59.213 2.349 2.349.182-.182 145.509-145.54q-7.048-5.547-13.837-11.412l124.352-124.367a206.427 206.427 0 01-11.276-9.245l97.527-97.542-52.758 127.505q-6.57-3.228-12.852-6.9l-67.23 162.545q-8.025-4.024-15.823-8.427l-78.718 190.264-.061.121 1.713.712 80.477 33.312 1.288.531.045-.091 78.719-190.26a387.505 387.505 0 01-17.156-5.229l67.246-162.56q-7.093-1.864-13.974-4.213l52.711-127.414v137.827c-4.88-.3-9.73-.773-14.519-1.425v175.866q-8.98-.637-17.853-1.713v206.087h90.343V949.82q-8.866 1.046-17.853 1.713V775.666q-7.184.978-14.519 1.425V639.144l52.848 127.489a197.944 197.944 0 01-13.958 4.213l67.366 162.504q-8.48 2.819-17.141 5.244l78.855 190.2.045.091 1.3-.545 80.416-33.358 1.728-.712-.061-.121-78.855-190.2q-7.8 4.41-15.822 8.442l-67.367-162.5q-6.274 3.683-12.852 6.911l-52.8-127.353 97.436 97.451q-5.479 4.82-11.276 9.245l124.354 124.363q-6.775 5.865-13.837 11.412l145.509 145.54.182.182 2.349-2.349 59.2-59.213 2.334-2.334-.182-.182-145.512-145.54q-5.547 7.047-11.412 13.837L736.064 697.493q-4.433 5.82-9.245 11.276l-97.527-97.542 127.494 52.757q-3.228 6.57-6.9 12.852l162.53 67.261q-4.024 8.025-8.427 15.822l190.234 78.731.136.061.712-1.728 33.3-80.477.531-1.288-.091-.045-190.237-78.731a386.17 386.17 0 01-5.229 17.156l-162.529-67.26q-1.864 7.093-4.213 13.974L639.22 587.6h137.8q-.455 7.343-1.425 14.519h175.877q-.637 8.98-1.713 17.853H1155.8v-90.358h-.228z" fill="#100c08"/></g></g></g></svg>