<svg xmlns="http://www.w3.org/2000/svg" width="103.348" height="15.744" viewBox="0 0 103.348 15.744">
  <path id="logo_klosinski2" d="M67.528,0H65.791l-2,2.089h1.715ZM44.462,3.276c2.2,0,3.342,1.033,3.65,2.639h1.341c-.33-2.573-2.441-3.826-5.079-3.826-2.771,0-4.618,1.5-4.618,3.738,0,1.759,1.209,2.969,3.606,3.408l2.265.44C47.32,9.983,48.09,10.8,48.09,11.9c0,1.561-1.319,2.573-3.408,2.573-2.4,0-3.826-1.187-4.134-3.232H39.206c.308,2.815,2.309,4.442,5.431,4.442,2.925,0,4.86-1.583,4.86-3.958,0-1.869-1.3-2.947-3.628-3.386L43.89,7.96c-1.737-.308-2.661-1.033-2.661-2.221-.044-1.5,1.253-2.463,3.232-2.463Zm8.84-.9h1.363V15.414H53.3ZM14.931,9.059l6.355-6.619H19.57l-4.64,4.816V2.375H13.567V15.436h8.356V14.2H14.931ZM79.27,3.276c2.2,0,3.342,1.033,3.65,2.639h1.341c-.33-2.573-2.441-3.826-5.079-3.826-2.771,0-4.618,1.5-4.618,3.738,0,1.759,1.209,2.969,3.606,3.408l2.265.44C82.129,9.983,82.9,10.8,82.9,11.9c0,1.561-1.319,2.573-3.408,2.573-2.4,0-3.826-1.187-4.134-3.232H74.015c.308,2.815,2.309,4.442,5.431,4.442,2.925,0,4.86-1.583,4.86-3.958,0-1.869-1.3-2.947-3.628-3.386L78.7,7.96c-1.737-.308-2.661-1.033-2.661-2.221-.066-1.5,1.253-2.463,3.232-2.463Zm22.715-.9h1.363V15.414h-1.363ZM30.037,2.111a6.817,6.817,0,1,0,6.817,6.817,6.794,6.794,0,0,0-6.817-6.817Zm0,12.358a5.481,5.481,0,0,1-5.431-5.541,5.443,5.443,0,1,1,10.885,0A5.5,5.5,0,0,1,30.037,14.469ZM10.489,2.375H8.818L1.363,10.137V2.375H0V15.436H1.363v-3.43l2.287-2.4,5.673,5.827h1.869L4.574,8.62Zm88.088,0H96.906l-7.476,7.762V2.375H88.066V15.436h1.363v-3.43l2.287-2.4,5.7,5.827h1.847L92.64,8.62ZM70.519,15.436H69.353l-8.51-10.6v10.6H59.48V2.375H60.6l8.554,10.709V2.375h1.363V15.436Z"/>
</svg>
