<?xml version="1.0" encoding="utf-8"?>
<!-- Generator: Adobe Illustrator 23.0.6, SVG Export Plug-In . SVG Version: 6.00 Build 0)  -->
<svg version="1.1" id="Warstwa_1" xmlns="http://www.w3.org/2000/svg" xmlns:xlink="http://www.w3.org/1999/xlink" x="0px" y="0px"
	 viewBox="0 0 103.3 15.7" style="enable-background:new 0 0 103.3 15.7;" xml:space="preserve">
<style type="text/css">
	.st0{fill:#FFFFFF;}
</style>
<path id="logo_klosinski2" class="st0" d="M67.5,0h-1.7l-2,2.1h1.7L67.5,0z M44.5,3.3c2.2,0,3.3,1,3.7,2.6h1.3
	c-0.3-2.6-2.4-3.8-5.1-3.8c-2.8,0-4.6,1.5-4.6,3.7c0,1.8,1.2,3,3.6,3.4l2.3,0.4c1.7,0.3,2.5,1.1,2.5,2.2c0,1.6-1.3,2.6-3.4,2.6
	c-2.4,0-3.8-1.2-4.1-3.2h-1.3c0.3,2.8,2.3,4.4,5.4,4.4c2.9,0,4.9-1.6,4.9-4c0-1.9-1.3-2.9-3.6-3.4l-2-0.4c-1.7-0.3-2.7-1-2.7-2.2
	C41.2,4.2,42.5,3.3,44.5,3.3L44.5,3.3z M53.3,2.4h1.4v13h-1.4L53.3,2.4z M14.9,9.1l6.4-6.6h-1.7l-4.6,4.8V2.4h-1.4v13.1h8.4v-1.2h-7
	V9.1z M79.3,3.3c2.2,0,3.3,1,3.7,2.6h1.3c-0.3-2.6-2.4-3.8-5.1-3.8c-2.8,0-4.6,1.5-4.6,3.7c0,1.8,1.2,3,3.6,3.4l2.3,0.4
	c1.7,0.3,2.5,1.1,2.5,2.2c0,1.6-1.3,2.6-3.4,2.6c-2.4,0-3.8-1.2-4.1-3.2H74c0.3,2.8,2.3,4.4,5.4,4.4c2.9,0,4.9-1.6,4.9-4
	c0-1.9-1.3-2.9-3.6-3.4l-2-0.4C77,7.7,76,6.9,76,5.7C76,4.2,77.3,3.3,79.3,3.3L79.3,3.3z M102,2.4h1.4v13H102V2.4z M30,2.1
	c-3.8,0-6.8,3.1-6.8,6.8s3.1,6.8,6.8,6.8s6.8-3.1,6.8-6.8c0,0,0,0,0,0C36.9,5.2,33.8,2.1,30,2.1C30.1,2.1,30.1,2.1,30,2.1z M30,14.5
	c-3,0-5.5-2.5-5.4-5.5c0,0,0,0,0,0c0-3,2.4-5.5,5.4-5.5c3,0,5.5,2.4,5.5,5.4c0,0,0,0.1,0,0.1C35.5,12,33.1,14.4,30,14.5z M10.5,2.4
	H8.8l-7.5,7.8V2.4H0v13.1h1.4V12l2.3-2.4l5.7,5.8h1.9L4.6,8.6L10.5,2.4z M98.6,2.4h-1.7l-7.5,7.8V2.4h-1.4v13.1h1.4V12l2.3-2.4
	l5.7,5.8h1.8l-6.6-6.8L98.6,2.4z M70.5,15.4h-1.2L60.8,4.8v10.6h-1.4V2.4h1.1l8.6,10.7V2.4h1.4L70.5,15.4L70.5,15.4z"/>
</svg>
