<svg xmlns="http://www.w3.org/2000/svg" xmlns:xlink="http://www.w3.org/1999/xlink" width="209.767" height="46" viewBox="0 0 209.767 46"><defs><clipPath id="a"><circle cx="23" cy="23" r="23" transform="translate(0 0)"/></clipPath></defs><g transform="translate(-30 -17)"><path d="M67.528,0H65.791l-2,2.089h1.715ZM44.462,3.276c2.2,0,3.342,1.033,3.65,2.639h1.341c-.33-2.573-2.441-3.826-5.079-3.826-2.771,0-4.618,1.5-4.618,3.738,0,1.759,1.209,2.969,3.606,3.408l2.265.44C47.32,9.983,48.09,10.8,48.09,11.9c0,1.561-1.319,2.573-3.408,2.573-2.4,0-3.826-1.187-4.134-3.232H39.206c.308,2.815,2.309,4.442,5.431,4.442,2.925,0,4.86-1.583,4.86-3.958,0-1.869-1.3-2.947-3.628-3.386L43.89,7.96c-1.737-.308-2.661-1.033-2.661-2.221-.044-1.5,1.253-2.463,3.232-2.463Zm8.84-.9h1.363V15.414H53.3ZM14.931,9.059l6.355-6.619H19.57l-4.64,4.816V2.375H13.567V15.436h8.356V14.2H14.931ZM79.27,3.276c2.2,0,3.342,1.033,3.65,2.639h1.341c-.33-2.573-2.441-3.826-5.079-3.826-2.771,0-4.618,1.5-4.618,3.738,0,1.759,1.209,2.969,3.606,3.408l2.265.44C82.129,9.983,82.9,10.8,82.9,11.9c0,1.561-1.319,2.573-3.408,2.573-2.4,0-3.826-1.187-4.134-3.232H74.015c.308,2.815,2.309,4.442,5.431,4.442,2.925,0,4.86-1.583,4.86-3.958,0-1.869-1.3-2.947-3.628-3.386L78.7,7.96c-1.737-.308-2.661-1.033-2.661-2.221-.066-1.5,1.253-2.463,3.232-2.463Zm22.715-.9h1.363V15.414h-1.363ZM30.037,2.111a6.817,6.817,0,1,0,6.817,6.817,6.794,6.794,0,0,0-6.817-6.817Zm0,12.358a5.481,5.481,0,0,1-5.431-5.541,5.443,5.443,0,1,1,10.885,0A5.5,5.5,0,0,1,30.037,14.469ZM10.489,2.375H8.818L1.363,10.137V2.375H0V15.436H1.363v-3.43l2.287-2.4,5.673,5.827h1.869L4.574,8.62Zm88.088,0H96.906l-7.476,7.762V2.375H88.066V15.436h1.363v-3.43l2.287-2.4,5.7,5.827h1.847L92.64,8.62ZM70.519,15.436H69.353l-8.51-10.6v10.6H59.48V2.375H60.6l8.554,10.709V2.375h1.363V15.436Z" transform="translate(136.418 32)"/><path d="M0,2.1H30" transform="translate(103.9 55.5) rotate(-90)" fill="none" stroke="#fff" stroke-width="1"/><g transform="translate(30 17)"><g clip-path="url(#a)"><g transform="translate(-0.249 -0.253)"><g transform="translate(0.009 0.009)"><path d="M633.179,630.85l-2.369,2.369A23.41,23.41,0,0,0,633.179,630.85Z" transform="translate(-592.315 -592.349)" fill="#eaeaea"/><path d="M502.648,722.5l-3.218,1.335A23.138,23.138,0,0,0,502.648,722.5Z" transform="translate(-468.903 -678.441)" fill="#eaeaea"/><path d="M723.9,499.17l-1.332,3.22A23.159,23.159,0,0,0,723.9,499.17Z" transform="translate(-678.511 -468.654)" fill="#eaeaea"/><path d="M209.49,723.953l-3.22-1.333A23.117,23.117,0,0,0,209.49,723.953Z" transform="translate(-193.521 -678.553)" fill="#eaeaea"/><path d="M433.69,263.116q-.1-.347-.21-.686l-6.5,2.7q-.075-.284-.169-.559l-5.1,2.115h5.519q-.018-.294-.057-.581h7.036q-.026-.359-.069-.714h8.236a23.206,23.206,0,0,0-1.075-5.427Z" transform="translate(-395.896 -243.951)" fill="#eaeaea"/><path d="M630.81,88.6l2.369,2.369A23.55,23.55,0,0,0,630.81,88.6Z" transform="translate(-592.315 -82.983)" fill="#eaeaea"/><path d="M722.44,205.99l1.335,3.219A23.184,23.184,0,0,0,722.44,205.99Z" transform="translate(-678.389 -193.254)" fill="#eaeaea"/><path d="M91.019,633.219,88.65,630.85A23.421,23.421,0,0,0,91.019,633.219Z" transform="translate(-83.034 -592.349)" fill="#eaeaea"/><path d="M499.15,13.92l3.22,1.333A23.086,23.086,0,0,0,499.15,13.92Z" transform="translate(-468.64 -12.832)" fill="#eaeaea"/><path d="M206.03,15.345l3.218-1.335A23.143,23.143,0,0,0,206.03,15.345Z" transform="translate(-193.296 -12.917)" fill="#eaeaea"/><path d="M15.414,502.669,14.08,499.45A23.178,23.178,0,0,0,15.414,502.669Z" transform="translate(-12.987 -468.917)" fill="#eaeaea"/><path d="M13.98,209.471l1.332-3.221A23.131,23.131,0,0,0,13.98,209.471Z" transform="translate(-12.893 -193.498)" fill="#eaeaea"/><path d="M88.65,90.969,91.019,88.6A23.549,23.549,0,0,0,88.65,90.969Z" transform="translate(-83.034 -82.983)" fill="#eaeaea"/><path d="M426.579,408.627l-6.5-2.691q.146-.252.276-.514l-5.1-2.111,3.9,3.9q.193-.219.37-.451l4.976,4.977q.235-.271.457-.554l5.823,5.824a23.361,23.361,0,0,0,3.076-4.6l-7.612-3.15Q426.417,408.948,426.579,408.627Z" transform="translate(-389.828 -378.608)" fill="#eaeaea"/><path d="M137.76,426.6l2.691-6.5q.252.147.514.276l2.111-5.1-3.9,3.9q.219.193.451.37l-4.976,4.976q.271.235.554.457L129.38,430.8a23.328,23.328,0,0,0,4.6,3.076l3.15-7.613Q137.439,426.439,137.76,426.6Z" transform="translate(-121.294 -389.842)" fill="#eaeaea"/><path d="M266.374,427.258q.287.039.581.057V421.8l-2.109,5.1q.275.094.559.169l-2.691,6.5q.339.113.686.209l-3.15,7.613a23.2,23.2,0,0,0,5.409,1.07v-8.237q.355.042.714.069Z" transform="translate(-244.228 -395.976)" fill="#eaeaea"/><path d="M391.962,433.492l-2.7-6.5q.284-.075.559-.169l-2.115-5.1v5.52c.2-.012.389-.031.581-.057v7.037q.359-.025.714-.069v8.237a23.244,23.244,0,0,0,5.426-1.075l-3.155-7.611Q391.622,433.605,391.962,433.492Z" transform="translate(-363.958 -395.901)" fill="#eaeaea"/><path d="M424.555,134.61l-4.976,4.976q-.177-.233-.37-.451l-3.9,3.9,5.095-2.113q-.129-.263-.277-.514l6.5-2.7q-.162-.321-.338-.633l7.61-3.156a23.361,23.361,0,0,0-3.068-4.582l-5.823,5.824Q424.79,134.881,424.555,134.61Z" transform="translate(-389.884 -121.252)" fill="#eaeaea"/><path d="M408.616,43.726l-2.691,6.5q-.252-.147-.514-.276l-2.111,5.1,3.9-3.9q-.219-.193-.451-.37l4.976-4.976q-.271-.235-.554-.457L417,39.527a23.328,23.328,0,0,0-4.6-3.076l-3.15,7.613Q408.937,43.888,408.616,43.726Z" transform="translate(-378.603 -33.996)" fill="#eaeaea"/><path d="M434.293,388.291h-7.036q.039-.287.057-.581H421.8l5.1,2.109q.094-.276.169-.559l6.5,2.691q.113-.34.209-.687l7.612,3.151A23.207,23.207,0,0,0,442.46,389h-8.236Q434.267,388.651,434.293,388.291Z" transform="translate(-395.981 -363.954)" fill="#eaeaea"/><path d="M4.217,266.355h7.036q-.039.287-.057.581H16.71l-5.1-2.109c-.062.183-.119.37-.169.559l-6.5-2.691q-.113.339-.209.686L-2.88,260.23a23.206,23.206,0,0,0-1.07,5.411H4.286Q4.244,266,4.217,266.355Z" transform="translate(3.95 -244.205)" fill="#eaeaea"/><path d="M262.44,4.877l2.7,6.5q-.284.075-.559.169l2.115,5.1v-5.52c-.2.012-.389.031-.581.057V4.149q-.359.025-.714.069V-4.02a23.243,23.243,0,0,0-5.426,1.075l3.155,7.611Q262.78,4.764,262.44,4.877Z" transform="translate(-243.965 4.02)" fill="#eaeaea"/><path d="M43.784,137.712l6.5,2.691q-.146.252-.276.514l5.1,2.111-3.9-3.9q-.193.219-.37.451L45.865,134.6q-.235.271-.457.554l-5.822-5.824a23.363,23.363,0,0,0-3.076,4.6l7.612,3.15Q43.946,137.391,43.784,137.712Z" transform="translate(-34.056 -121.243)" fill="#eaeaea"/><path d="M411.784,424.576l-4.976-4.976c.155-.118.306-.241.451-.37l-3.9-3.9,2.113,5.1q.263-.129.514-.277l2.7,6.5q.321-.162.633-.338l3.155,7.611a23.36,23.36,0,0,0,4.582-3.069l-5.822-5.824C411.418,424.884,411.6,424.732,411.784,424.576Z" transform="translate(-378.659 -389.899)" fill="#eaeaea"/><path d="M134.639,45.929l4.976,4.976c-.155.118-.306.241-.451.37l3.9,3.9-2.113-5.1q-.263.129-.514.277l-2.7-6.5q-.321.162-.633.338l-3.155-7.611a23.356,23.356,0,0,0-4.582,3.069l5.822,5.824C135.005,45.62,134.821,45.773,134.639,45.929Z" transform="translate(-121.285 -34.118)" fill="#eaeaea"/><path d="M45.978,411.785l4.976-4.977q.177.233.37.451l3.9-3.9-5.1,2.113q.129.263.277.514l-6.5,2.7q.162.321.338.633l-7.61,3.156a23.356,23.356,0,0,0,3.068,4.582l5.822-5.824Q45.743,411.514,45.978,411.785Z" transform="translate(-34.169 -378.655)" fill="#eaeaea"/><path d="M4.945,391.972l6.5-2.7q.075.284.169.559l5.1-2.115H11.2q.018.294.057.581H4.217q.025.359.069.714H-3.95a23.211,23.211,0,0,0,1.075,5.427l7.61-3.156Q4.832,391.632,4.945,391.972Z" transform="translate(3.95 -363.963)" fill="#eaeaea"/><path d="M388.291,11.186q-.287-.039-.581-.057v5.515l2.109-5.1c-.183-.062-.37-.119-.559-.169l2.691-6.5q-.339-.113-.687-.209l3.15-7.613A23.2,23.2,0,0,0,389-4.02V4.217q-.355-.042-.714-.069v7.037Z" transform="translate(-363.958 4.02)" fill="#eaeaea"/></g><path d="M42.388,17.275H34.153q.042.355.069.714H27.185q.039.287.057.581H21.723l5.1-2.115q.094.275.169.559l6.5-2.7c.075.226.146.455.21.686l7.61-3.156,0,0-.022-.052L39.96,8.575l-.029-.069,0,0-7.61,3.156q.176.312.338.633l-6.5,2.7q.147.252.277.514l-5.095,2.113,3.9-3.9q.193.219.37.451L30.58,9.2q.235.271.457.554l5.822-5.824.007-.007-.093-.093L34.4,1.456l-.094-.094-.007.007L28.48,7.193q.282.222.554.457l-4.976,4.976c.155.118.306.241.451.37l-3.9,3.9,2.111-5.1q.263.129.514.276l2.691-6.5q.321.161.633.337l3.15-7.613,0,0-.069-.029-3.22-1.333-.052-.021,0,0-3.15,7.613c.231.064.46.135.686.209l-2.691,6.5c.189.05.375.106.559.169l-2.109,5.1V10.988c.2.012.389.031.581.057V4.008q.359.025.714.069V-4.17H17.341V4.076q.355-.042.714-.069v7.037q.287-.039.581-.057v5.52l-2.115-5.1c.183-.063.37-.119.559-.169l-2.7-6.5q.339-.113.686-.21L11.915-3.085l0,0-.052.022L8.643-1.732,8.573-1.7l0,0,3.155,7.611q.312-.176.633-.338l2.7,6.5q.251-.147.514-.277l2.113,5.1-3.9-3.9q.219-.193.451-.37L9.264,7.65q.271-.235.554-.457L3.995,1.37l-.007-.007-.094.094L1.525,3.826l-.093.093.007.007L7.261,9.75q.222-.282.457-.554l4.976,4.976q.177-.233.37-.451l3.9,3.9-5.1-2.111q.129-.263.276-.514l-6.5-2.691q.161-.321.337-.633L-1.638,8.524l-.005,0-.029.069L-3,11.811l-.021.052,0,0,7.612,3.15c.064-.231.135-.46.209-.686l6.5,2.691q.075-.284.169-.559l5.1,2.109H11.055q.018-.294.057-.581H4.076q.025-.359.069-.714H-4.1v3.616H4.145q-.043-.355-.069-.714h7.036q-.039-.287-.057-.581h5.519l-5.1,2.115c-.062-.183-.119-.37-.169-.559l-6.5,2.7q-.113-.339-.21-.686l-7.61,3.157,0,0,.022.053,1.334,3.219.029.069,0,0L5.98,26.5q-.176-.312-.338-.633l6.5-2.7q-.147-.252-.277-.514l5.1-2.113-3.9,3.9q-.193-.219-.37-.451L7.717,28.97q-.235-.271-.457-.554L1.438,34.24l-.007.007.093.093L3.893,36.71l.094.094.007-.007,5.822-5.824q-.282-.222-.554-.457l4.976-4.976c-.155-.118-.306-.241-.451-.37l3.9-3.9-2.111,5.1q-.263-.129-.514-.276l-2.69,6.5q-.321-.161-.633-.337l-3.15,7.613,0,0,.069.028,3.22,1.333.052.021,0,0,3.15-7.613c-.231-.064-.46-.135-.686-.209l2.691-6.5c-.189-.05-.375-.106-.559-.169l2.109-5.1v5.515c-.2-.012-.389-.031-.581-.057v7.037q-.359-.025-.714-.069v8.246h3.615V34.089q-.355.042-.714.069V27.121q-.287.039-.581.057v-5.52l2.115,5.1c-.183.063-.37.119-.559.169l2.7,6.5q-.339.113-.686.21l3.155,7.611,0,0,.052-.022L29.653,39.9l.069-.029,0,0-3.155-7.611q-.312.176-.633.338l-2.7-6.5q-.251.147-.514.277l-2.113-5.1,3.9,3.9q-.219.193-.451.37l4.976,4.976q-.271.235-.554.457L34.3,36.8l.007.007.094-.094,2.369-2.369.093-.093-.007-.007-5.822-5.824q-.222.282-.457.554L25.6,23.993q-.177.233-.37.451l-3.9-3.9,5.1,2.111q-.129.263-.276.514l6.5,2.691q-.161.321-.337.633l7.612,3.15.005,0,.028-.069,1.332-3.22.021-.052,0,0-7.612-3.15c-.064.231-.135.46-.209.686l-6.5-2.691c-.05.189-.106.375-.169.559l-5.1-2.109H27.24q-.018.294-.057.581h7.038q-.025.359-.069.714H42.4V17.275h-.009Z" transform="translate(4.1 4.17)" fill="#100c08"/></g></g></g></g></svg>