<svg xmlns="http://www.w3.org/2000/svg" xmlns:xlink="http://www.w3.org/1999/xlink" width="800" height="820" viewBox="0 0 800 820">
  <defs>
    <clipPath id="clip-path">
      <rect id="Rectangle_533" data-name="Rectangle 533" width="800" height="820" transform="translate(818 80)" fill="#fff"/>
    </clipPath>
    <clipPath id="clip-path-2">
      <circle id="Ellipse_86" data-name="Ellipse 86" cx="574.793" cy="574.793" r="574.793" transform="translate(0 0)"/>
    </clipPath>
  </defs>
  <g id="shape_metodateczowki" transform="translate(-818 -80)" clip-path="url(#clip-path)">
    <g id="metodateczowki_ksiazka_grafika" transform="translate(643.371 -84.629)">
      <g id="Group_432" data-name="Group 432" transform="translate(0 0)" clip-path="url(#clip-path-2)">
        <g id="Group_431" data-name="Group 431" transform="translate(-6.214 -6.32)">
          <g id="Group_430" data-name="Group 430" transform="translate(0.227 0.227)">
            <path id="Path_220" data-name="Path 220" d="M690.008,630.85l-59.2,59.213A585.463,585.463,0,0,0,690.008,630.85Z" transform="translate(331.21 331.337)" fill="#eaeaea"/>
            <path id="Path_221" data-name="Path 221" d="M579.846,722.5,499.43,755.857A578.313,578.313,0,0,0,579.846,722.5Z" transform="translate(263.475 378.589)" fill="#eaeaea"/>
            <path id="Path_222" data-name="Path 222" d="M755.867,499.17l-33.3,80.477A578.56,578.56,0,0,0,755.867,499.17Z" transform="translate(378.519 263.447)" fill="#eaeaea"/>
            <path id="Path_223" data-name="Path 223" d="M286.747,755.931,206.27,722.62A577.638,577.638,0,0,0,286.747,755.931Z" transform="translate(112.332 378.651)" fill="#eaeaea"/>
            <path id="Path_224" data-name="Path 224" d="M721.109,338.83q-2.432-8.661-5.243-17.141L553.382,389.071q-1.864-7.093-4.213-13.973L421.71,427.96H559.641q-.454-7.343-1.424-14.519H734.052q-.637-8.979-1.713-17.853H938.154A580.055,580.055,0,0,0,911.283,259.96Z" transform="translate(223.405 140.119)" fill="#eaeaea"/>
            <path id="Path_225" data-name="Path 225" d="M630.81,88.6l59.212,59.213A588.73,588.73,0,0,0,630.81,88.6Z" transform="translate(331.21 51.772)" fill="#eaeaea"/>
            <path id="Path_226" data-name="Path 226" d="M722.44,205.99,755.8,286.436A579.41,579.41,0,0,0,722.44,205.99Z" transform="translate(378.451 112.294)" fill="#eaeaea"/>
            <path id="Path_227" data-name="Path 227" d="M147.848,690.063,88.65,630.85A585.3,585.3,0,0,0,147.848,690.063Z" transform="translate(51.691 331.337)" fill="#eaeaea"/>
            <path id="Path_228" data-name="Path 228" d="M499.15,13.92l80.477,33.312A576.887,576.887,0,0,0,499.15,13.92Z" transform="translate(263.331 13.269)" fill="#eaeaea"/>
            <path id="Path_229" data-name="Path 229" d="M206.03,47.368,286.461,14.01A578.374,578.374,0,0,0,206.03,47.368Z" transform="translate(112.208 13.316)" fill="#eaeaea"/>
            <path id="Path_230" data-name="Path 230" d="M47.422,579.9,14.08,499.45A579.234,579.234,0,0,0,47.422,579.9Z" transform="translate(13.246 263.591)" fill="#eaeaea"/>
            <path id="Path_231" data-name="Path 231" d="M13.98,286.742l33.3-80.492A578.082,578.082,0,0,0,13.98,286.742Z" transform="translate(13.194 112.428)" fill="#eaeaea"/>
            <path id="Path_232" data-name="Path 232" d="M88.65,147.813l59.2-59.213A588.506,588.506,0,0,0,88.65,147.813Z" transform="translate(51.691 51.772)" fill="#eaeaea"/>
            <path id="Path_233" data-name="Path 233" d="M698.373,536.18,535.844,468.919q3.659-6.3,6.9-12.851L415.25,403.31l97.527,97.541q4.82-5.479,9.245-11.275L646.374,613.943q5.865-6.775,11.412-13.837L803.3,745.646a583.82,583.82,0,0,0,76.87-114.91L689.946,552Q694.335,544.2,698.373,536.18Z" transform="translate(220.075 214.025)" fill="#eaeaea"/>
            <path id="Path_234" data-name="Path 234" d="M338.8,698.423l67.245-162.545q6.3,3.683,12.852,6.9l52.757-127.5-97.527,97.542q5.479,4.819,11.276,9.245L261.052,646.424q6.774,5.866,13.837,11.412L129.38,803.376A583.021,583.021,0,0,0,244.26,880.26L322.978,690Q330.776,694.383,338.8,698.423Z" transform="translate(72.69 220.191)" fill="#eaeaea"/>
            <path id="Path_235" data-name="Path 235" d="M413.292,558.2q7.184.977,14.519,1.425V421.8L375.1,549.214q6.866,2.342,13.974,4.213L321.812,715.971q8.479,2.819,17.156,5.229L260.25,911.464A579.654,579.654,0,0,0,395.438,938.2V732.354q8.866,1.046,17.854,1.712Z" transform="translate(140.162 223.558)" fill="#eaeaea"/>
            <path id="Path_236" data-name="Path 236" d="M493.966,715.922,426.6,553.422q7.093-1.864,13.959-4.213L387.71,421.72V559.667c4.88-.3,9.73-.773,14.519-1.425V734.108q8.979-.636,17.854-1.713v205.86A580.882,580.882,0,0,0,555.7,911.384l-78.855-190.2Q485.479,718.748,493.966,715.922Z" transform="translate(205.876 223.517)" fill="#eaeaea"/>
            <path id="Path_237" data-name="Path 237" d="M646.343,261.043,521.991,385.41q-4.434-5.82-9.245-11.276L415.31,471.585l127.323-52.8q-3.228-6.57-6.911-12.852l162.469-67.382q-4.047-8.025-8.442-15.822l190.173-78.87A583.714,583.714,0,0,0,803.249,129.34L657.74,274.88Q652.216,267.81,646.343,261.043Z" transform="translate(220.106 72.776)" fill="#eaeaea"/>
            <path id="Path_238" data-name="Path 238" d="M536.154,218.287,468.909,380.832q-6.3-3.683-12.852-6.9L403.3,501.441,500.826,403.9q-5.479-4.82-11.275-9.245L613.9,270.287q-6.775-5.865-13.837-11.412l145.51-145.54A583.055,583.055,0,0,0,630.7,36.45L551.977,226.714Q544.179,222.327,536.154,218.287Z" transform="translate(213.914 24.885)" fill="#eaeaea"/>
            <path id="Path_239" data-name="Path 239" d="M734.007,402.229H558.171q.978-7.184,1.425-14.519H421.8l127.383,52.711q2.342-6.888,4.213-13.973l162.529,67.261q2.818-8.5,5.228-17.156l190.234,78.734a579.912,579.912,0,0,0,26.734-135.218H732.309Q733.355,411.224,734.007,402.229Z" transform="translate(223.452 205.982)" fill="#eaeaea"/>
            <path id="Path_240" data-name="Path 240" d="M200.151,413.3H375.987q-.978,7.184-1.425,14.519h137.8L384.974,375.11c-1.561,4.577-2.971,9.245-4.213,13.974L218.232,321.823Q215.413,330.3,213,338.979L22.785,260.23A579.931,579.931,0,0,0-3.95,395.449H201.864Q200.818,404.315,200.151,413.3Z" transform="translate(3.95 140.258)" fill="#eaeaea"/>
            <path id="Path_241" data-name="Path 241" d="M321.7,218.313l67.367,162.5q-7.093,1.864-13.958,4.213L427.955,512.5V374.553c-4.88.3-9.73.773-14.519,1.425V200.127q-8.979.636-17.853,1.713V-4.02A580.857,580.857,0,0,0,259.97,22.851l78.855,190.2Q330.186,215.51,321.7,218.313Z" transform="translate(140.018 4.02)" fill="#eaeaea"/>
            <path id="Path_242" data-name="Path 242" d="M218.3,338.8l162.529,67.261q-3.66,6.3-6.9,12.852l127.489,52.757L403.9,374.124q-4.82,5.479-9.245,11.276L270.3,261.033q-5.865,6.775-11.412,13.837L113.379,129.33A583.851,583.851,0,0,0,36.51,244.24l190.234,78.733Q222.333,330.771,218.3,338.8Z" transform="translate(24.81 72.771)" fill="#eaeaea"/>
            <path id="Path_243" data-name="Path 243" d="M613.872,646.393,489.52,522.026c3.865-2.955,7.638-6.032,11.275-9.245L403.36,415.33l52.8,127.354q6.57-3.228,12.852-6.911l67.367,162.5q8.025-4.047,15.823-8.442l78.855,190.2a583.693,583.693,0,0,0,114.5-76.688L600.05,657.805C604.733,654.108,609.356,650.3,613.872,646.393Z" transform="translate(213.945 220.222)" fill="#eaeaea"/>
            <path id="Path_244" data-name="Path 244" d="M261.058,270.22,385.41,394.587c-3.865,2.955-7.639,6.032-11.276,9.245l97.436,97.451-52.8-127.353q-6.57,3.228-12.852,6.911l-67.367-162.5q-8.025,4.047-15.822,8.442L243.871,36.58a583.7,583.7,0,0,0-114.5,76.688l145.509,145.54C270.2,262.49,265.589,266.309,261.058,270.22Z" transform="translate(72.685 24.952)" fill="#eaeaea"/>
            <path id="Path_245" data-name="Path 245" d="M270.239,613.9,394.591,489.535q4.433,5.82,9.245,11.276l97.436-97.451-127.338,52.8q3.228,6.57,6.911,12.852L218.377,536.4q4.047,8.024,8.442,15.823L36.63,631.1A583.723,583.723,0,0,0,113.3,745.62L258.812,600.08Q264.382,607.128,270.239,613.9Z" transform="translate(24.872 214.051)" fill="#eaeaea"/>
            <path id="Path_246" data-name="Path 246" d="M218.338,493.991l162.484-67.382q1.864,7.092,4.213,13.974L512.494,387.72H374.562q.455,7.343,1.425,14.519H200.151q.636,8.98,1.713,17.854H-3.95A580.056,580.056,0,0,0,22.921,555.72l190.173-78.87Q215.527,485.489,218.338,493.991Z" transform="translate(3.95 205.988)" fill="#eaeaea"/>
            <path id="Path_247" data-name="Path 247" d="M402.229,375.993q-7.184-.978-14.519-1.425V512.394L440.421,384.98q-6.866-2.342-13.973-4.213l67.245-162.56q-8.48-2.819-17.156-5.229L555.255,22.715A579.672,579.672,0,0,0,420.067-4.02V201.839q-8.866-1.046-17.854-1.713V375.993Z" transform="translate(205.876 4.02)" fill="#eaeaea"/>
          </g>
          <path id="Path_248" data-name="Path 248" d="M1157.687,531.764H951.873q1.046,8.866,1.713,17.853H777.75q.978,7.184,1.425,14.519H641.243L768.7,511.274q2.341,6.866,4.213,13.974L935.4,457.865c1.879,5.653,3.637,11.382,5.244,17.141l190.173-78.87.091-.045-.546-1.3L1097,314.341l-.712-1.713-.121.045L906,391.544q4.41,7.8,8.442,15.822L751.97,474.749q3.683,6.3,6.911,12.852L631.558,540.4l97.436-97.451q4.819,5.479,9.245,11.276L862.591,329.861Q868.456,336.635,874,343.7l145.509-145.54.182-.182-2.334-2.334-59.213-59.213L955.8,134.08l-.182.182L810.107,279.8q7.047,5.547,13.837,11.412L699.592,415.581c3.865,2.955,7.638,6.032,11.276,9.245l-97.527,97.542,52.757-127.5q6.57,3.228,12.852,6.9L746.2,239.215q8.025,4.024,15.823,8.427L840.737,57.377l.046-.121-1.713-.712L758.593,23.231,757.3,22.7l-.046.091L678.541,213.056c5.774,1.606,11.488,3.365,17.156,5.229l-67.246,162.56c4.729,1.243,9.381,2.637,13.974,4.213L589.714,512.471V374.645c4.88.3,9.73.773,14.519,1.425V200.2q8.98.637,17.853,1.713V-4.17H531.728V201.917q8.866-1.046,17.853-1.713V376.07q7.184-.978,14.519-1.425V512.592L511.253,385.118c4.577-1.576,9.245-2.97,13.958-4.213L457.844,218.391q8.48-2.819,17.141-5.244L396.13,22.943l-.045-.091-1.3.546L314.351,56.756l-1.728.712.061.121,78.855,190.2q7.8-4.41,15.822-8.442l67.367,162.5q6.274-3.683,12.852-6.911l52.8,127.353-97.436-97.451q5.479-4.819,11.276-9.245L329.87,291.229q6.775-5.865,13.837-11.412L198.2,134.277l-.182-.182-2.349,2.349-59.2,59.213-2.334,2.334.182.182,145.509,145.54q5.547-7.047,11.412-13.837L415.59,454.243q4.433-5.82,9.245-11.276l97.527,97.542L394.873,487.752q3.228-6.57,6.9-12.852L239.239,407.639q4.024-8.025,8.427-15.823L57.432,313.068l-.136-.061-.712,1.713-33.3,80.492-.53,1.288.091.046L213.08,475.279c1.606-5.774,3.365-11.488,5.229-17.156l162.529,67.261q1.864-7.093,4.213-13.974l127.383,52.711H374.64q.455-7.343,1.425-14.519H200.229q.637-8.98,1.713-17.853H-4.1v90.373H201.941q-1.069-8.866-1.713-17.853H376.064q-.978-7.184-1.425-14.519H512.571L385.112,642.613c-1.561-4.577-2.971-9.245-4.213-13.974L218.415,696.021q-2.819-8.48-5.244-17.156L23,757.75l-.091.045.546,1.319L56.8,839.56l.712,1.713.121-.061L247.8,762.342q-4.41-7.8-8.442-15.823l162.469-67.382q-3.683-6.3-6.911-12.852l127.338-52.8L424.82,710.934q-4.819-5.479-9.245-11.276L291.223,824.026q-5.865-6.775-11.412-13.837L134.3,955.728l-.182.182,2.334,2.334,59.2,59.213,2.349,2.349.182-.182,145.509-145.54q-7.048-5.547-13.837-11.412L454.207,738.305c-3.865-2.955-7.638-6.032-11.276-9.245l97.527-97.542L487.7,759.023q-6.57-3.228-12.852-6.9l-67.23,162.545q-8.025-4.024-15.823-8.427l-78.718,190.264-.061.121,1.713.712,80.477,33.312,1.288.531.045-.091L475.258,940.83c-5.774-1.607-11.488-3.365-17.156-5.229l67.246-162.56q-7.093-1.864-13.974-4.213l52.711-127.414V779.241c-4.88-.3-9.73-.773-14.519-1.425V953.682q-8.98-.637-17.853-1.713v206.087h90.343V951.97q-8.866,1.046-17.853,1.713V777.816q-7.184.978-14.519,1.425V641.294l52.848,127.489c-4.577,1.576-9.245,2.97-13.958,4.213L695.94,935.5q-8.48,2.819-17.141,5.244l78.855,190.2.045.091,1.3-.545,80.416-33.358,1.728-.712-.061-.121-78.855-190.2q-7.8,4.41-15.822,8.442l-67.367-162.5q-6.274,3.683-12.852,6.911l-52.8-127.353,97.436,97.451q-5.479,4.82-11.276,9.245L823.9,862.658q-6.775,5.865-13.837,11.412l145.509,145.54.182.182,2.349-2.349,59.2-59.213,2.334-2.334-.182-.182L873.943,810.174q-5.547,7.047-11.412,13.837L738.178,699.643q-4.433,5.82-9.245,11.276l-97.527-97.542L758.9,666.134q-3.228,6.57-6.9,12.852L914.53,746.247q-4.024,8.025-8.427,15.822L1096.337,840.8l.136.061.712-1.728,33.3-80.477.531-1.288-.091-.045L940.688,678.592c-1.606,5.774-3.365,11.488-5.229,17.156L772.93,628.488q-1.864,7.093-4.213,13.974L641.334,589.75h137.8q-.455,7.343-1.425,14.519H953.586q-.637,8.98-1.713,17.853h206.041V531.764h-.228Z" transform="translate(4.1 4.17)" fill="#100c08"/>
        </g>
      </g>
    </g>
  </g>
</svg>
