<svg xmlns="http://www.w3.org/2000/svg" width="1149.252" height="631.578"><path d="M229.437 204.792L164.883 6.36H85.065v7.632c29.574 0 34.026 5.724 34.026 25.122v188.892c0 19.4-4.452 25.122-34.026 25.122v7.632h81.09v-7.632c-29.892 0-34.026-5.724-34.026-25.122l-.636-200.022h.954l76.638 240.09h15.9l77.592-243.27h.954v203.2c0 19.4-4.452 25.122-34.026 25.122v7.634h103.672v-7.632c-29.574 0-34.026-5.724-34.026-25.122V39.114c0-19.4 4.452-25.122 34.026-25.122V6.36h-78.228l-64.558 198.432zm248.358-10.812c-8.9 37.524-23.532 49.608-38.8 49.608-25.122 0-38.16-31.164-38.16-74.412v-1.272h84.27c0-46.428-17.808-81.408-54.06-81.408-38.8 0-61.056 42.612-61.056 91.584 0 54.378 21.942 89.04 58.194 89.04 29.574 0 50.562-24.168 57.24-73.14zm-48.018-94.128c19.08 0 24.8 24.486 24.8 55.014h-53.42c1.59-32.118 9.858-55.014 28.62-55.014zM584.961 190.8c-.636 41.976-6.36 57.56-20.984 57.56-17.49 0-19.4-19.08-19.4-50.244v-91.9h36.886V92.86h-36.886V47.386h-9.86c-2.862 33.072-15.264 44.52-44.52 45.474v13.356h24.8V208.29c0 42.612 14.946 58.83 40.068 58.83 30.212 0 36.892-26.712 37.212-76.32zm89.994 76.32c44.2 0 71.55-38.8 71.55-90.312 0-51.2-27.348-90.312-71.55-90.312-44.52 0-71.868 39.114-71.868 90.312 0 51.516 27.348 90.312 71.868 90.312zm6.678-13.36c-24.486 1.908-39.432-22.9-44.2-73.458-4.134-50.88 6.36-77.91 30.528-80.136 24.486-2.226 39.75 22.578 44.2 73.458 4.134 50.884-6.36 77.914-30.528 80.136zm229.6-16.218c-17.172 8.586-16.536 4.452-16.536-15.9V4.452L890.245 0l-45.474 22.9 3.5 6.678c17.172-8.586 16.536-4.77 16.536 15.9v61.374h-.636c-7.632-10.176-20.352-20.352-38.16-20.352-40.068 0-63.6 42.294-63.6 96.99 0 51.2 21.306 83.634 55.332 83.634 20.67 0 33.39-12.084 45.792-32.118h1.272v27.662l4.452 4.452 45.474-22.9zm-46.432-17.482c-8.9 14.31-18.126 28.3-34.98 28.3-23.85 0-33.072-32.754-33.072-74.412 0-38.478 7.95-74.094 35.934-74.094 18.444 0 32.118 20.034 32.118 58.194zm191.754 19.08c-3.816 10.176-6.042 14.946-11.448 14.946-6.042 0-7-5.088-7-14.946V137.06c0-34.662-20.034-50.562-51.834-50.562-30.846 0-53.424 13.992-53.424 36.888 0 13.992 6.36 21.942 17.49 21.942 10.176 0 16.854-5.088 16.854-12.72 0-8.586-5.088-12.084-5.088-19.716 0-9.54 9.54-15.264 21.942-15.264 21.306 0 24.168 14.946 24.168 38.8v14.946l-14.946 7c-33.708 15.264-69.324 27.984-69.324 68.688 0 24.486 13.674 40.068 35.934 40.068 27.666 0 41.658-22.9 47.7-32.754h.636v1.272c0 19.716 8.268 31.482 27.03 31.482 18.444 0 24.168-11.766 28.62-27.984zm-82.044 5.72c-12.4 0-20.988-8.586-20.988-25.758 0-22.578 16.218-37.842 40.7-49.29l13.992-6.678v58.826c-12.08 15.586-21.302 22.9-33.704 22.9zm-788.163 61.086l-.636-8.586H4.77l-.636 8.586L0 357.78l7.314.636c3.5-41.34 9.858-48.018 29.256-48.018h41.022v208.608c0 19.4-4.452 25.122-34.026 25.122v7.632h103.668v-7.632c-29.574 0-34.026-5.724-34.026-25.122V310.398h40.7c19.4 0 25.758 6.678 29.256 48.018l7.632-.636zm41.658 311.322c-13.992 0-21.306-8.268-21.306-20.67 0-21.942 18.762-27.03 32.118-41.658h-.636c20.352-7.95 34.344-31.164 39.75-69.96H270.3c-8.9 37.524-23.532 49.608-38.8 49.608-25.122 0-38.16-31.164-38.16-74.412v-1.272h84.27c0-46.428-17.808-81.408-54.06-81.408-38.8 0-61.056 42.612-61.056 91.584 0 54.378 21.942 89.04 58.194 89.04a29.1 29.1 0 005.406-.318c-14.946 8.268-42.93 14.628-42.93 42.93 0 20.352 16.536 30.846 35.3 30.846 14.946 0 26.712-5.406 37.524-13.992l-1.908-7.632c-11.764 5.406-18.442 7.314-26.074 7.314zm-5.729-226.416c19.08 0 24.8 24.486 24.8 55.014h-53.424c1.599-32.118 9.867-55.014 28.624-55.014zm153.276 27.984c.954 11.766 7.632 17.49 18.444 17.49s16.218-6.36 16.218-17.172c0-20.988-20.67-41.658-48.972-41.658-39.432 0-67.1 35.934-67.1 93.492 0 52.47 22.9 87.132 62.328 87.132 32.436 0 52.152-24.168 58.83-72.5h-7.624c-9.54 39.432-21.624 52.47-38.16 52.47-25.44 0-41.022-28.62-41.022-75.048 0-43.248 9.54-72.186 30.846-72.186 11.447-.004 14.945 10.804 16.217 27.98zm129.431 119.886h-46.428l79.182-147.234v-7.628H426.12v51.516h7.632c0-33.072 4.77-38.16 25.122-38.16h39.114l-79.5 146.916v7.628h119.25v-57.876h-7.314c0 38.476-4.77 44.838-25.44 44.838zM608.97 352.06h12.084l41.023-58.2h-31.8zm13.356 206.06c44.2 0 71.55-38.8 71.55-90.312 0-51.2-27.348-90.312-71.55-90.312-44.52 0-71.868 39.114-71.868 90.312 0 51.516 27.348 90.312 71.868 90.312zm6.678-13.36c-24.486 1.908-39.432-22.9-44.2-73.458-4.134-50.88 6.36-77.91 30.528-80.136 24.486-2.226 39.75 22.578 44.2 73.458 4.134 50.884-6.36 77.914-30.528 80.136zm291.606-160.9h-52.152v7.632c20.352 0 20.034 4.452 14.31 24.168l-26.391 92.216h-.954l-26.079-92.216c-5.724-19.716-6.042-24.168 13.038-24.168v-7.632H769.56v7.632c13.674 0 19.4 4.134 25.122 24.168l7.95 26.712-22.578 70.914h-.954l-31.8-97.944c-6.678-19.716-7-23.85 13.356-23.85v-7.632h-74.412v7.632c13.356 0 19.4 4.134 26.076 23.85l47.382 143.736h18.444l30.531-96.04 28.3 96.036h18.126l41.021-143.414c5.406-19.716 11.13-24.168 24.486-24.168zm39.75 135.15V295.452L955.908 291l-22.578 11.13-23.853 12.084 3.5 6.678c17.808-8.9 17.49-5.088 17.49 15.582v182.532c0 20.352-3.18 25.122-22.578 25.122v7.632h74.73v-7.632c-19.397 0-22.259-4.768-22.259-25.122zm81.09 4.134l-44.52-80.136 30.528-34.348c13.674-15.582 23.85-17.172 37.524-17.172v-7.628h-60.105v7.632c23.214 0 18.762 1.59 4.77 16.854l-42.93 47.382 37.524 67.416c9.858 17.808 12.4 20.988-9.222 20.988v7.628h78.228v-7.632c-13.353 0-21.621-3.18-31.797-20.988zm69.006-194.938a18.6 18.6 0 10-18.444-18.446 18.528 18.528 0 0018.444 18.446zm16.536 190.8V381.948l-4.452-4.452-22.578 11.448-23.85 11.766 3.5 6.678c17.808-8.9 17.49-4.77 17.49 15.9v95.718c0 20.352-3.18 25.122-22.578 25.122v7.632h74.73v-7.632c-19.4 0-22.262-4.768-22.262-25.122z"/></svg>