<?xml version="1.0" standalone="no"?>
<!DOCTYPE svg PUBLIC "-//W3C//DTD SVG 1.1//EN" "http://www.w3.org/Graphics/SVG/1.1/DTD/svg11.dtd" >
<svg>
<metadata>
Created by FontForge 20090622 at Thu Oct 24 19:34:57 2019
 By deploy user
Copyright (c) 2012 by TypeTogether. All rights reserved.
</metadata>
<defs>
<font id="AdelleSans-SemiBold" horiz-adv-x="570" >
  <font-face 
    font-family="Adelle Sans"
    font-weight="600"
    font-stretch="normal"
    units-per-em="1000"
    panose-1="2 0 5 3 0 0 0 2 0 4"
    ascent="772"
    descent="-228"
    x-height="517"
    cap-height="724"
    bbox="-155 -292 1196 1082"
    underline-thickness="50"
    underline-position="-50"
    unicode-range="U+0020-U+FB06"
  />
<missing-glyph horiz-adv-x="500" 
 />
    <glyph glyph-name="ij" unicode="ij" horiz-adv-x="512" 
d="M73 517h115v-517h-115v517zM206 680q0 -37 -19.5 -56.5t-55.5 -19.5q-35 0 -55 20t-20 56t20 55.5t55 19.5q36 0 55.5 -19.5t19.5 -55.5zM282 -223q-70 0 -107 23l10 88q45 -17 78 -17q67 0 67 80v566h115v-573q0 -167 -163 -167zM464 685q0 -36 -20 -56t-55 -20
q-36 0 -55.5 20t-19.5 56q0 37 19.5 56.5t55.5 19.5q35 0 55 -19.5t20 -56.5z" />
    <glyph glyph-name="ff" unicode="ff" horiz-adv-x="663" 
d="M347 747l-5 -83q-36 12 -68 12q-73 0 -73 -85v-74h205v74q0 86 43.5 130t125.5 44q65 0 102 -18l-5 -83q-36 13 -71 13q-41 0 -60.5 -20t-19.5 -69v-71h141v-85h-141v-432h-115v432h-205v-432h-115v432h-74v85h74v74q0 174 162 174q62 0 99 -18z" />
    <glyph glyph-name="fi" unicode="fi" horiz-adv-x="591" 
d="M201 517h321v-517h-115v432h-206v-432h-115v432h-74v85h74v74q0 174 162 174q45 0 87 -14l-4 -86q-30 10 -60 10q-70 0 -70 -84v-74zM520 739q20 -20 20 -55q0 -36 -20 -56t-55 -20t-55 20t-20 56q0 35 20 55t55 20t55 -20z" />
    <glyph glyph-name="fl" unicode="fl" horiz-adv-x="591" 
d="M347 747l-5 -83q-36 12 -68 12q-73 0 -73 -85v-74h133v-85h-133v-432h-115v432h-74v85h74v74q0 174 162 174q62 0 99 -18zM407 755h115v-755h-115v755z" />
    <glyph glyph-name="ffi" unicode="ffi" horiz-adv-x="912" 
d="M522 517h321v-517h-115v432h-206v-432h-115v432h-206v-432h-115v432h-74v85h74v74q0 174 162 174q62 0 99 -18l-5 -83q-36 12 -68 12q-73 0 -73 -85v-74h206v74q0 174 162 174q45 0 87 -14l-4 -86q-30 10 -60 10q-70 0 -70 -84v-74zM841 739q20 -20 20 -55q0 -36 -20 -56
t-55 -20t-55 20t-20 56q0 35 20 55t55 20t55 -20z" />
    <glyph glyph-name="ffl" unicode="ffl" horiz-adv-x="912" 
d="M668 747l-5 -83q-36 12 -68 12q-73 0 -73 -85v-74h133v-85h-133v-432h-115v432h-206v-432h-115v432h-74v85h74v74q0 174 162 174q62 0 99 -18l-5 -83q-36 12 -68 12q-73 0 -73 -85v-74h206v74q0 174 162 174q61 0 99 -18zM728 755h115v-755h-115v755z" />
    <glyph glyph-name="f_k" unicode="fk" horiz-adv-x="879" 
d="M347 747l-5 -83q-36 12 -68 12q-73 0 -73 -85v-74h133v-85h-133v-432h-115v432h-74v85h74v74q0 174 162 174q62 0 99 -18zM407 755h115v-447l201 209h129l-176 -186l189 -331h-127l-149 255l-67 -67v-188h-115v755z" />
    <glyph glyph-name="f_b" unicode="fb" horiz-adv-x="920" 
d="M347 747l-5 -83q-36 12 -68 12q-73 0 -73 -85v-74h133v-85h-133v-432h-115v432h-74v85h74v74q0 174 162 174q62 0 99 -18zM511 43l-7 -43h-98v755h113v-288q67 61 167 61q89 0 139 -63.5t50 -193.5q0 -140 -58 -211.5t-158 -71.5q-84 0 -146 56zM521 379v-251
q59 -44 116 -44q119 0 119 185q0 84 -26.5 124.5t-84.5 40.5q-32 0 -66.5 -16t-57.5 -39z" />
    <glyph glyph-name="f_h" unicode="fh" horiz-adv-x="918" 
d="M347 747l-5 -83q-36 12 -68 12q-73 0 -73 -85v-74h133v-85h-133v-432h-115v432h-74v85h74v74q0 174 162 174q62 0 99 -18zM853 352v-352h-115v333q0 51 -20 75t-65 24q-34 0 -71 -16.5t-60 -38.5v-377h-115v755h114v-289q77 62 173 62q81 0 120 -43t39 -133z" />
    <glyph glyph-name="f_t" unicode="ft" horiz-adv-x="707" 
d="M679 107l18 -83q-22 -15 -60.5 -25.5t-76.5 -10.5q-78 0 -115.5 38t-37.5 118v288h-206v-432h-115v432h-74v85h74v74q0 174 162 174q62 0 99 -18l-5 -83q-36 12 -68 12q-73 0 -73 -85v-74h206v151l115 16v-167h140v-85h-140v-271q0 -43 14.5 -60.5t54.5 -17.5q46 0 88 24
z" />
    <glyph glyph-name="f_j" unicode="fj" horiz-adv-x="588" 
d="M359 -223q-71 0 -107 23l10 89q43 -17 78 -17q67 0 67 80v480h-206v-432h-115v432h-74v85h74v74q0 174 162 174q55 0 91 -15l-4 -86q-36 11 -64 11q-70 0 -70 -84v-74h321v-573q0 -167 -163 -167zM541 690q0 -37 -20 -56.5t-56 -19.5q-35 0 -54.5 19.5t-19.5 56.5
q0 36 19.5 55.5t54.5 19.5q36 0 56 -19.5t20 -55.5z" />
    <glyph glyph-name="f_f_j" unicode="ffj" horiz-adv-x="909" 
d="M679 -223q-71 0 -107 23l10 89q43 -17 78 -17q67 0 67 80v480h-206v-432h-115v432h-205v-432h-115v432h-74v85h74v74q0 174 162 174q62 0 99 -18l-5 -83q-36 12 -68 12q-73 0 -73 -85v-74h205v74q0 174 162 174q55 0 91 -15l-4 -86q-36 11 -64 11q-70 0 -70 -84v-74h321
v-573q0 -167 -163 -167zM861 690q0 -37 -20 -56.5t-56 -19.5q-35 0 -54.5 19.5t-19.5 56.5q0 36 19.5 55.5t54.5 19.5q36 0 56 -19.5t20 -55.5z" />
    <glyph glyph-name="f_f_k" unicode="ffk" horiz-adv-x="1200" 
d="M668 747l-5 -83q-36 12 -68 12q-73 0 -73 -85v-74h133v-85h-133v-432h-115v432h-206v-432h-115v432h-74v85h74v74q0 174 162 174q62 0 99 -18l-5 -83q-36 12 -68 12q-73 0 -73 -85v-74h206v74q0 174 162 174q61 0 99 -18zM728 755h115v-447l201 209h129l-176 -186
l189 -331h-127l-149 255l-67 -67v-188h-115v755z" />
    <glyph glyph-name="f_f_b" unicode="ffb" horiz-adv-x="1242" 
d="M832 43l-7 -43h-98v755h113v-288q67 61 167 61q89 0 139 -63.5t50 -193.5q0 -140 -58 -211.5t-158 -71.5q-84 0 -146 56zM668 747l-5 -83q-36 12 -68 12q-73 0 -73 -85v-74h133v-85h-133v-432h-115v432h-206v-432h-115v432h-74v85h74v74q0 174 162 174q62 0 99 -18
l-5 -83q-36 12 -68 12q-73 0 -73 -85v-74h206v74q0 174 162 174q61 0 99 -18zM842 379v-251q59 -44 116 -44q119 0 119 185q0 84 -26.5 124.5t-84.5 40.5q-32 0 -66.5 -16t-57.5 -39z" />
    <glyph glyph-name="f_f_h" unicode="ffh" horiz-adv-x="1239" 
d="M668 747l-5 -83q-36 12 -68 12q-73 0 -73 -85v-74h133v-85h-133v-432h-115v432h-206v-432h-115v432h-74v85h74v74q0 174 162 174q62 0 99 -18l-5 -83q-36 12 -68 12q-73 0 -73 -85v-74h206v74q0 174 162 174q61 0 99 -18zM1174 352v-352h-115v333q0 51 -20 75t-65 24
q-34 0 -71 -16.5t-60 -38.5v-377h-115v755h114v-289q79 62 173 62q81 0 120 -43t39 -133z" />
    <glyph glyph-name="f_f_t" unicode="fft" horiz-adv-x="1027" 
d="M668 747l-5 -83q-36 12 -68 12q-73 0 -73 -85v-74h206v151l115 16v-167h140v-85h-140v-271q0 -43 14.5 -60.5t54.5 -17.5q46 0 88 24l18 -83q-22 -15 -60.5 -25.5t-76.5 -10.5q-78 0 -115.5 38t-37.5 118v288h-206v-432h-115v432h-206v-432h-115v432h-74v85h74v74
q0 174 162 174q62 0 99 -18l-5 -83q-36 12 -68 12q-73 0 -73 -85v-74h206v74q0 174 162 174q61 0 99 -18z" />
    <glyph glyph-name="f_iacute" unicode="f&#xed;" horiz-adv-x="591" 
d="M201 517h321v-517h-115v432h-206v-432h-115v432h-74v85h74v74q0 174 162 174q55 0 91 -15l-4 -86q-36 11 -64 11q-70 0 -70 -84v-74zM495 746h130l-138 -174l-80 10z" />
    <glyph glyph-name="t_t" unicode="tt" horiz-adv-x="713" 
d="M685 107l19 -83q-55 -36 -137 -36q-154 0 -154 159v285h-206v-271q0 -43 14 -61t53 -18q36 0 78 21l20 -83q-55 -32 -126 -32q-78 0 -116 38t-38 118v288h-79v85h79v151l115 16v-167h206v151l115 16v-167h140v-85h-140v-271q0 -42 15 -60t54 -18q46 0 88 24z" />
    <glyph glyph-name=".notdef" horiz-adv-x="500" 
 />
    <glyph glyph-name=".null" horiz-adv-x="0" 
 />
    <glyph glyph-name="nonmarkingreturn" horiz-adv-x="333" 
 />
    <glyph glyph-name="space" unicode=" " horiz-adv-x="198" 
 />
    <glyph glyph-name="exclam" unicode="!" horiz-adv-x="276" 
d="M201 724l-17 -533h-91l-18 533h126zM214 58q0 -70 -75 -70q-76 0 -76 70q0 71 76 71q75 0 75 -71z" />
    <glyph glyph-name="quotedbl" unicode="&#x22;" horiz-adv-x="392" 
d="M337 724v-259h-108v259h108zM163 724v-259h-108v259h108z" />
    <glyph glyph-name="numbersign" unicode="#" horiz-adv-x="607" 
d="M418 142l-21 -142h-85l22 142h-108l-21 -142h-85l21 142h-109l18 83h104l21 131h-109l17 84h104l19 133h85l-20 -133h106l20 133h85l-20 -133h110l-16 -84h-106l-19 -131h108l-16 -83h-105zM239 225h107l19 131h-106z" />
    <glyph glyph-name="dollar" unicode="$" horiz-adv-x="537" 
d="M489 522l-105 -14q-7 45 -23.5 69.5t-48.5 33.5v-211q83 -22 129 -58q58 -43 58 -139q0 -85 -48 -137t-134 -64v-83h-89v83q-184 16 -204 197l102 19q10 -62 34 -91.5t75 -35.5v216q-78 21 -127 57q-60 44 -60 143q0 79 50 131.5t131 67.5v86h88v-85q155 -17 172 -185z
M387 188q0 67 -75 97v-190q75 18 75 93zM161 523q0 -68 74 -100v189q-74 -17 -74 -89z" />
    <glyph glyph-name="percent" unicode="%" horiz-adv-x="813" 
d="M612 -12q-83 0 -123 47t-40 129q0 88 44 137.5t127 49.5q162 0 162 -174q0 -88 -44 -138.5t-126 -50.5zM689 173q0 53 -16.5 79.5t-54.5 26.5q-75 0 -75 -109q0 -111 73 -111q39 0 56 28t17 86zM667 724l-438 -739h-104l439 739h103zM185 375q-83 0 -123 47t-40 129
q0 88 44 137.5t127 49.5q162 0 162 -174q0 -88 -44 -138.5t-126 -50.5zM262 560q0 53 -16.5 79.5t-54.5 26.5q-75 0 -75 -109q0 -111 73 -111q39 0 56 28t17 86z" />
    <glyph glyph-name="ampersand" unicode="&#x26;" horiz-adv-x="717" 
d="M508 560q0 -114 -154 -181l-28 -11q59 -90 155 -195q39 58 42 176h102q0 -141 -71 -235q41 -31 83 -31q19 0 42 9l16 -86q-32 -16 -76 -16q-73 0 -144 51q-71 -53 -190 -53q-108 0 -173 56q-64 57 -64 145q0 135 140 200q-37 64 -37 135q0 78 55 127t141 49q67 0 114 -33
q47 -32 47 -107zM305 75q59 0 99 24q-92 85 -177 219q-62 -41 -62 -117q0 -55 37 -90.5t103 -35.5zM263 540q0 -49 28 -106q1 1 14 6.5t14 5.5q90 40 90 108q0 29 -18 46.5t-50 17.5q-36 0 -57 -21t-21 -57z" />
    <glyph glyph-name="quotesingle" unicode="'" horiz-adv-x="218" 
d="M163 724v-259h-108v259h108z" />
    <glyph glyph-name="parenleft" unicode="(" horiz-adv-x="335" 
d="M313 -153l-119 1q-145 214 -145 432q0 220 156 444h118q-78 -118 -115.5 -223t-37.5 -219q0 -124 37 -223q37 -100 106 -212z" />
    <glyph glyph-name="parenright" unicode=")" horiz-adv-x="335" 
d="M143 -152l-119 -1q69 112 106 212q37 99 37 223q0 114 -37.5 219t-115.5 223h118q156 -224 156 -444q0 -218 -145 -432z" />
    <glyph glyph-name="asterisk" unicode="*" horiz-adv-x="473" 
d="M208 755h54l19 -131l120 30l17 -55l-114 -57l76 -116l-44 -34l-102 96l-101 -99l-44 36l75 116l-116 57l17 55l121 -27z" />
    <glyph glyph-name="plus" unicode="+" 
d="M333 274v-149h-98v149h-141v97h141v145h98v-145h142v-97h-142z" />
    <glyph glyph-name="comma" unicode="," horiz-adv-x="229" 
d="M104 -132l-92 10l58 238h124z" />
    <glyph glyph-name="hyphen" unicode="-" horiz-adv-x="315" 
d="M291 345v-103h-271v103h271z" />
    <glyph glyph-name="period" unicode="." horiz-adv-x="244" 
d="M200 63q0 -75 -78 -75t-78 75q0 76 78 76t78 -76z" />
    <glyph glyph-name="slash" unicode="/" horiz-adv-x="404" 
d="M393 755l-280 -847h-105l281 847h104z" />
    <glyph glyph-name="zero" unicode="0" horiz-adv-x="571" 
d="M283 -12q-143 0 -198 103q-48 95 -48 271q0 187 60 281t196 94q113 0 170 -67q26 -29 43 -78q28 -85 28 -220q0 -189 -56 -287q-55 -97 -195 -97zM286 80q78 0 103 75q24 66 24 211q0 146 -24 210q-24 65 -99 65q-74 0 -103 -65.5t-29 -215.5t27.5 -215t100.5 -65z" />
    <glyph glyph-name="one" unicode="1" horiz-adv-x="424" 
d="M312 724v-724h-114v579q-20 -12 -75 -23q-51 -9 -80 -9l-7 93q140 12 204 84h72z" />
    <glyph glyph-name="two" unicode="2" horiz-adv-x="531" 
d="M271 737q99 0 152.5 -47t53.5 -136q0 -76 -36 -137q-33 -58 -121 -159l-138 -158v-2h305v-98h-436v96l163 194q64 77 84 103q63 84 63 157q0 93 -101 93q-56 0 -82.5 -28t-35.5 -88l-102 18q12 95 73.5 143.5t157.5 48.5z" />
    <glyph glyph-name="three" unicode="3" horiz-adv-x="546" 
d="M31 165l104 20q9 -54 35 -78.5t83 -24.5q56 0 89.5 32t33.5 95q0 124 -138 124h-67v91h46q70 0 109.5 33.5t39.5 91.5q0 95 -101 95q-53 0 -78.5 -22.5t-37.5 -74.5l-100 21q31 169 228 169q97 0 150 -45.5t53 -127.5q0 -67 -38 -111t-100 -63v-3q152 -30 152 -183
q0 -99 -67 -157q-67 -59 -175 -59q-95 0 -152.5 44t-68.5 133z" />
    <glyph glyph-name="four" unicode="4" 
d="M465 172v-172h-111v172h-330v83l300 469h142v-457h84v-95h-85zM355 616l-224 -349h224v349z" />
    <glyph glyph-name="five" unicode="5" horiz-adv-x="549" 
d="M145 313l-77 33l28 378h360v-98h-274l-20 -214q58 48 141 48q84 0 140 -53t56 -168q0 -114 -69 -183q-68 -68 -182 -68q-90 0 -150.5 45t-72.5 132l103 21q18 -104 122 -104q59 0 95.5 39.5t36.5 113.5q0 131 -118 131q-63 0 -119 -53z" />
    <glyph glyph-name="six" unicode="6" 
d="M522 577l-102 -29q-11 53 -35 75t-66 22q-53 0 -89 -43q-62 -74 -64 -229q29 30 75 50t95 20q91 0 142 -55t51 -153q0 -117 -63.5 -182t-171.5 -65t-168 68q-73 90 -71 285q0 114 33 209q65 187 242 187q159 0 192 -160zM172 287q5 -87 24 -140q26 -68 101 -68
q54 0 84.5 38t30.5 109q0 125 -105 125q-71 0 -135 -64z" />
    <glyph glyph-name="seven" unicode="7" horiz-adv-x="520" 
d="M497 637l-287 -637h-122l288 626h-343v98h464v-87z" />
    <glyph glyph-name="eight" unicode="8" horiz-adv-x="551" 
d="M376 385q76 -35 111 -79t35 -116q0 -86 -69 -145q-69 -57 -183 -57q-116 0 -177.5 51t-61.5 136q0 133 145 197q-120 56 -120 172q0 90 64 141q64 52 169 52q102 0 159.5 -44.5t57.5 -122.5q0 -112 -130 -185zM256 326q-56 -28 -83.5 -61t-27.5 -80q0 -50 32 -78.5
t96 -28.5q62 0 96 30.5t34 78.5q0 60 -49 91q-34 24 -98 48zM291 426q101 56 101 136q0 90 -107 90q-51 0 -81.5 -25t-30.5 -68q0 -82 118 -133z" />
    <glyph glyph-name="nine" unicode="9" 
d="M40 153l102 30q12 -54 40.5 -79t76.5 -25q76 0 112 74q37 75 38 191q-28 -29 -75 -47.5t-97 -18.5q-91 0 -141.5 56.5t-50.5 157.5q0 116 65 181q64 64 171 64q68 0 116 -27t73.5 -78t36.5 -111t11 -137q0 -396 -266 -396q-182 0 -212 165zM401 433q-4 89 -26 145
q-24 67 -100 67q-54 0 -84 -38t-30 -109q0 -131 104 -131q75 0 136 66z" />
    <glyph glyph-name="colon" unicode=":" horiz-adv-x="244" 
d="M200 63q0 -75 -78 -75t-78 75q0 76 78 76t78 -76zM200 428q0 -75 -78 -75t-78 75q0 76 78 76t78 -76z" />
    <glyph glyph-name="semicolon" unicode=";" horiz-adv-x="256" 
d="M224 428q0 -75 -78 -75t-78 75q0 76 78 76t78 -76zM105 -132l-92 10l58 238h124z" />
    <glyph glyph-name="less" unicode="&#x3c;" 
d="M461 189v-100l-383 142v115l383 148v-100l-282 -103z" />
    <glyph glyph-name="equal" unicode="=" 
d="M474 244v-99h-378v99h378zM474 418v-99h-378v99h378z" />
    <glyph glyph-name="greater" unicode="&#x3e;" 
d="M477 346v-112l-383 -141v97l281 101l-281 102v101z" />
    <glyph glyph-name="question" unicode="?" horiz-adv-x="524" 
d="M270 298v-107h-112v180q205 18 205 151q0 107 -109 107q-103 0 -124 -110l-109 18q12 89 73.5 141t166.5 52q99 0 160 -48q63 -48 63 -155q0 -184 -214 -229zM288 58q0 -70 -76 -70t-76 70q0 71 76 71t76 -71z" />
    <glyph glyph-name="at" unicode="@" horiz-adv-x="847" 
d="M630 -52l33 -68q-79 -63 -235 -63q-169 0 -277 96q-107 95 -107 274q0 174 110 282q111 108 291 108q159 0 258 -87q100 -85 100 -240q0 -126 -48 -191t-134 -65q-41 0 -72.5 15.5t-43.5 39.5q-43 -57 -116 -57q-72 0 -109 49.5t-37 136.5q0 96 46 157q47 62 123 62
q54 0 89 -35l7 29h70v-257q0 -38 10 -54.5t39 -16.5q42 0 65.5 49t23.5 127q0 127 -70 193.5t-207 66.5q-147 0 -227 -89q-79 -88 -79 -219q0 -148 83 -222t222 -74q115 0 192 53zM496 116v186q-32 27 -70 27q-44 0 -70 -36.5t-26 -105.5q0 -125 78 -125q54 0 88 54z" />
    <glyph glyph-name="A" unicode="A" horiz-adv-x="696" 
d="M27 0l241 724h149l254 -724h-128l-68 198h-263l-66 -198h-119zM235 296h213l-105 320h-2z" />
    <glyph glyph-name="B" unicode="B" horiz-adv-x="631" 
d="M329 0h-242v724h266q219 0 219 -177q0 -67 -39 -110t-105 -59v-3q171 -19 171 -177q0 -198 -270 -198zM203 321v-227h107q86 0 126 24.5t40 87.5q0 115 -148 115h-125zM203 630v-214h86q166 0 166 114q0 58 -32 79t-107 21h-113z" />
    <glyph glyph-name="C" unicode="C" horiz-adv-x="693" 
d="M370 -12q-164 0 -244.5 94t-80.5 270q0 178 90 282q91 103 252 103q123 0 195.5 -64t80.5 -189l-108 -10q-9 84 -49 123t-120 39q-107 0 -164 -69.5t-57 -206.5q0 -141 52.5 -207t158.5 -66q77 0 120 35.5t59 108.5l104 -20q-12 -78 -58 -130q-82 -93 -231 -93z" />
    <glyph glyph-name="D" unicode="D" horiz-adv-x="726" 
d="M305 0h-218v724h235q180 0 269.5 -90t89.5 -261q0 -173 -94 -273t-282 -100zM204 629v-534h100q257 0 257 267q0 149 -61 207q-61 60 -187 60h-109z" />
    <glyph glyph-name="E" unicode="E" horiz-adv-x="578" 
d="M505 315h-301v-217h336v-98h-453v724h438v-98h-321v-214h301v-97z" />
    <glyph glyph-name="F" unicode="F" horiz-adv-x="550" 
d="M499 302h-295v-302h-117v724h436v-98h-319v-226h295v-98z" />
    <glyph glyph-name="G" unicode="G" horiz-adv-x="737" 
d="M667 0h-86l-14 94q-21 -47 -81 -77q-61 -29 -133 -29q-155 0 -232 98q-76 97 -76 266q0 183 90 284t254 101q257 0 275 -247l-109 -12q-8 80 -49 120t-120 40q-107 0 -163.5 -71.5t-56.5 -203.5q0 -145 53 -211t160 -66q83 0 129 45q46 46 46 110v47h-169v88h282v-376z
" />
    <glyph glyph-name="H" unicode="H" horiz-adv-x="730" 
d="M526 724h117v-724h-117v316h-322v-316h-117v724h117v-305h322v305z" />
    <glyph glyph-name="I" unicode="I" horiz-adv-x="291" 
d="M87 724h117v-724h-117v724z" />
    <glyph glyph-name="J" unicode="J" horiz-adv-x="511" 
d="M315 187v537h117v-534q0 -202 -211 -202q-193 0 -200 183l113 18q6 -57 24.5 -80.5t65.5 -23.5t69 23t22 79z" />
    <glyph glyph-name="K" unicode="K" horiz-adv-x="655" 
d="M87 724h117v-338l307 338h127l-276 -307l283 -417h-137l-228 327l-76 -82v-245h-117v724z" />
    <glyph glyph-name="L" unicode="L" horiz-adv-x="558" 
d="M87 724h117v-625h320v-99h-437v724z" />
    <glyph glyph-name="M" unicode="M" horiz-adv-x="904" 
d="M643 724h174v-724h-109v602h-3l-199 -602h-114l-195 604h-2v-604h-108v724h176l189 -582h3z" />
    <glyph glyph-name="N" unicode="N" horiz-adv-x="745" 
d="M658 724v-724h-138l-325 569v-569h-108v724h147l317 -566v566h107z" />
    <glyph glyph-name="O" unicode="O" horiz-adv-x="760" 
d="M375 -12q-165 0 -248 101q-82 100 -82 271q0 168 90 272q90 105 255 105q162 0 243 -101q82 -100 82 -261q0 -181 -87 -284q-85 -103 -253 -103zM380 88q101 0 158 70t57 207q0 133 -54 201.5t-154 68.5q-103 0 -162 -70.5t-59 -202.5q0 -135 56 -204.5t158 -69.5z" />
    <glyph glyph-name="P" unicode="P" horiz-adv-x="618" 
d="M300 253h-97v-253h-116v724h252q129 0 185 -62t56 -158q0 -251 -280 -251zM203 628v-278h87q82 0 125 30q44 30 44 116q0 70 -38 101t-118 31h-100z" />
    <glyph glyph-name="Q" unicode="Q" horiz-adv-x="760" 
d="M375 -12q-164 0 -247 101t-83 271q0 168 90 272q90 105 255 105q162 0 243 -101q82 -100 82 -261q0 -183 -91 -283l87 -92l-67 -62l-91 96q-68 -46 -178 -46zM380 83q64 0 107 25l-124 135l67 63l120 -132q47 74 47 191q0 132 -55 201t-155 69q-103 0 -162 -70.5
t-59 -202.5q0 -135 56.5 -207t157.5 -72z" />
    <glyph glyph-name="R" unicode="R" horiz-adv-x="639" 
d="M451 321l173 -321h-127l-156 291h-138v-291h-116v724h262q125 0 180 -57q56 -56 56 -143q0 -150 -134 -203zM203 628v-243h113q73 0 110.5 30.5t37.5 100.5q0 61 -37 86.5t-114 25.5h-110z" />
    <glyph glyph-name="S" unicode="S" horiz-adv-x="599" 
d="M306 642q-134 0 -134 -98q0 -35 21.5 -59.5t55.5 -38.5t75.5 -25.5t82.5 -26.5t75 -36t55.5 -59.5t21.5 -91.5q0 -111 -76 -165q-75 -54 -188 -54q-249 0 -270 215l108 16q15 -71 51.5 -104.5t112.5 -33.5q66 0 105.5 27t39.5 83q0 37 -21.5 61.5t-55.5 38t-75.5 24
t-82.5 25t-75 35t-55.5 60t-21.5 95.5q0 95 71 151t181 56q228 0 246 -208l-108 -13q-10 64 -41 95t-98 31z" />
    <glyph glyph-name="T" unicode="T" horiz-adv-x="571" 
d="M345 626v-626h-117v626h-217v98h549v-98h-215z" />
    <glyph glyph-name="U" unicode="U" horiz-adv-x="711" 
d="M514 262v462h117v-474q0 -130 -72 -196t-208 -66q-140 0 -205.5 64.5t-65.5 200.5v471h117v-459q0 -94 38 -136.5t122 -42.5t120.5 40t36.5 136z" />
    <glyph glyph-name="V" unicode="V" horiz-adv-x="637" 
d="M632 724l-229 -724h-158l-240 724h131l190 -611h3l184 611h119z" />
    <glyph glyph-name="W" unicode="W" horiz-adv-x="919" 
d="M905 724l-153 -724h-149l-140 557h-2l-141 -557h-149l-158 724h123l115 -594h2l147 594h127l150 -599h2l109 599h117z" />
    <glyph glyph-name="X" unicode="X" horiz-adv-x="635" 
d="M488 724h122l-226 -355l243 -369h-134l-183 275l-175 -275h-127l236 366l-224 358h130l168 -270z" />
    <glyph glyph-name="Y" unicode="Y" horiz-adv-x="582" 
d="M592 724l-237 -445l1 -279h-118v277l-248 447h128l180 -336h2l174 336h118z" />
    <glyph glyph-name="Z" unicode="Z" horiz-adv-x="589" 
d="M538 724v-87l-365 -539h380v-98h-522v84l369 542h-359v98h497z" />
    <glyph glyph-name="bracketleft" unicode="[" horiz-adv-x="290" 
d="M252 -62v-81h-191v867h191v-81h-81v-705h81z" />
    <glyph glyph-name="backslash" unicode="\" horiz-adv-x="406" 
d="M118 755l281 -847h-105l-280 847h104z" />
    <glyph glyph-name="bracketright" unicode="]" horiz-adv-x="290" 
d="M229 724v-867h-191v81h81v705h-81v81h191z" />
    <glyph glyph-name="asciicircum" unicode="^" horiz-adv-x="616" 
d="M366 664l200 -365h-112l-148 264l-145 -264h-109l197 365h117z" />
    <glyph glyph-name="underscore" unicode="_" horiz-adv-x="500" 
d="M500 -95v-86h-500v86h500z" />
    <glyph glyph-name="grave" unicode="`" horiz-adv-x="500" 
d="M340 582l-80 -10l-138 174h130z" />
    <glyph glyph-name="a" unicode="a" horiz-adv-x="550" 
d="M466 348v-239q0 -22 6.5 -31t24.5 -9q11 0 31 6l4 -68q-36 -17 -81 -17q-74 0 -87 61q-58 -63 -164 -63q-93 0 -126 51q-27 42 -27 88q0 91 66.5 134.5t186.5 43.5q15 0 53 -2v39q0 54 -19 76.5t-71 22.5q-44 0 -65 -18t-30 -62l-101 18q26 149 205 149
q101 0 147.5 -42.5t46.5 -137.5zM354 122v102q-26 2 -48 2q-142 0 -142 -83q0 -69 77 -69q67 0 113 48z" />
    <glyph glyph-name="b" unicode="b" horiz-adv-x="586" 
d="M177 43l-7 -43h-98v755h113v-288q67 61 167 61q89 0 139 -63.5t50 -193.5q0 -140 -58 -211.5t-158 -71.5q-84 0 -146 56zM187 379v-251q59 -44 116 -44q119 0 119 185q0 84 -26.5 124.5t-84.5 40.5q-32 0 -66.5 -16t-57.5 -39z" />
    <glyph glyph-name="c" unicode="c" horiz-adv-x="541" 
d="M285 -12q-120 0 -181 69.5t-61 194.5q0 133 67 204.5t189 71.5q88 0 142.5 -50t61.5 -139l-106 -15q-13 112 -103 112q-131 0 -131 -171q0 -183 128 -183q98 0 114 103l100 -20q-12 -87 -70.5 -132t-149.5 -45z" />
    <glyph glyph-name="d" unicode="d" horiz-adv-x="583" 
d="M402 755h112v-755h-96l-8 52h-2q-67 -64 -163 -64t-148 65t-52 197q0 142 62 210t156 68q87 0 139 -45v272zM399 134v260q-52 40 -112 40q-123 0 -123 -183q0 -170 118 -170q66 0 117 53z" />
    <glyph glyph-name="e" unicode="e" horiz-adv-x="547" 
d="M287 -12q-67 0 -116 21.5t-76 60t-39.5 85.5t-12.5 103q0 134 69 201q70 69 178 69q106 0 159 -60t53 -169q0 -33 -3 -69h-335q4 -148 130 -148q88 0 106 84l98 -24q-15 -73 -71 -113.5t-140 -40.5zM166 310h217q0 66 -24 96.5t-76 30.5q-50 0 -81.5 -32t-35.5 -95z" />
    <glyph glyph-name="f" unicode="f" horiz-adv-x="342" 
d="M356 747l-4 -83q-36 13 -71 13q-41 0 -60.5 -20t-19.5 -69v-71h141v-85h-141v-432h-115v432h-74v85h74v74q0 86 43.5 130t124.5 44q64 0 102 -18z" />
    <glyph glyph-name="g" unicode="g" horiz-adv-x="555" 
d="M271 528q96 0 145 -41q30 71 86 71q23 0 41 -6v-85q-48 3 -90 -10q40 -46 40 -114q0 -87 -61 -136t-157 -49q-55 0 -88 10q-25 -19 -25 -39q0 -16 11.5 -24t41.5 -10l147 -9q89 -6 130.5 -37t41.5 -98q0 -49 -22 -84.5t-61 -55t-84.5 -28.5t-100.5 -9q-240 0 -240 129
q0 75 86 104v3q-61 21 -61 78q0 31 17 54t56 52q-76 43 -76 143q0 86 60.5 138.5t162.5 52.5zM385 342q0 97 -111 97q-53 0 -83.5 -24t-30.5 -71q0 -97 113 -97q51 0 81.5 25.5t30.5 69.5zM416 -72q0 27 -17 39t-61 14l-159 8q-42 -30 -42 -67q0 -61 140 -61q139 0 139 67z
" />
    <glyph glyph-name="h" unicode="h" horiz-adv-x="583" 
d="M517 352v-352h-115v333q0 51 -20 75t-65 24q-34 0 -71 -16.5t-60 -38.5v-377h-115v755h114v-289q77 62 173 62q81 0 120 -43t39 -133z" />
    <glyph glyph-name="i" unicode="i" horiz-adv-x="257" 
d="M73 517h115v-517h-115v517zM206 680q0 -37 -19.5 -56.5t-55.5 -19.5q-35 0 -55 20t-20 56t20 55.5t55 19.5q36 0 55.5 -19.5t19.5 -55.5z" />
    <glyph glyph-name="j" unicode="j" horiz-adv-x="255" 
d="M25 -223q-70 0 -107 23l10 88q43 -17 78 -17q67 0 67 80v566h115v-573q0 -167 -163 -167zM207 685q0 -36 -20 -56t-55 -20q-36 0 -55.5 20t-19.5 56q0 37 19.5 56.5t55.5 19.5t55.5 -19.5t19.5 -56.5z" />
    <glyph glyph-name="k" unicode="k" horiz-adv-x="544" 
d="M72 755h115v-447l201 209h129l-176 -186l189 -331h-126l-149 255l-68 -67v-188h-115v755z" />
    <glyph glyph-name="l" unicode="l" horiz-adv-x="257" 
d="M73 755h115v-755h-115v755z" />
    <glyph glyph-name="m" unicode="m" horiz-adv-x="861" 
d="M186 380v-380h-115v517h99l4 -53q80 64 169 64q99 0 130 -67q76 67 173 67q77 0 113.5 -43t36.5 -132v-353h-115v336q0 50 -16 73t-56 23q-28 0 -61.5 -15t-55.5 -35q1 -5 1 -27v-355h-115v336q0 51 -15.5 73.5t-55.5 22.5q-28 0 -63 -16t-58 -36z" />
    <glyph glyph-name="n" unicode="n" horiz-adv-x="583" 
d="M517 352v-352h-115v333q0 51 -20 75t-65 24q-34 0 -71 -16.5t-60 -38.5v-377h-115v517h102l5 -54q82 65 179 65q83 0 121.5 -43t38.5 -133z" />
    <glyph glyph-name="o" unicode="o" horiz-adv-x="582" 
d="M287 -12q-244 0 -244 268q0 128 66.5 200t190.5 72q120 0 179.5 -68t59.5 -192q0 -135 -62.5 -207.5t-189.5 -72.5zM293 77q126 0 126 185q0 92 -29.5 132.5t-93.5 40.5q-133 0 -133 -175q0 -95 31.5 -139t98.5 -44z" />
    <glyph glyph-name="p" unicode="p" horiz-adv-x="585" 
d="M183 -212h-111v729h99l6 -55q71 66 173 66q91 0 141 -63.5t50 -193.5q0 -144 -60 -214q-60 -69 -154 -69q-82 0 -144 50v-250zM186 379v-251q58 -46 116 -46q119 0 119 187q0 87 -26 126t-83 39q-68 0 -126 -55z" />
    <glyph glyph-name="q" unicode="q" horiz-adv-x="581" 
d="M416 517h98v-729h-110v261q-67 -61 -161 -61q-95 0 -146.5 65.5t-51.5 197.5q0 141 62 209q63 68 156 68q88 0 144 -53zM399 134v257q-52 43 -113 43q-122 0 -122 -181q0 -172 118 -172q64 0 117 53z" />
    <glyph glyph-name="r" unicode="r" horiz-adv-x="376" 
d="M367 527v-115q-48 6 -98 -9t-83 -44v-359h-115v517h97l9 -77q61 88 169 88q2 0 10 -0.5t11 -0.5z" />
    <glyph glyph-name="s" unicode="s" horiz-adv-x="493" 
d="M252 528q163 0 196 -147l-100 -26q-10 46 -32 66.5t-66 20.5t-66.5 -16.5t-22.5 -44.5q0 -32 26 -48t86 -26q65 -12 102 -28q77 -29 82 -127q0 -78 -57.5 -121t-155.5 -43q-187 0 -211 146l98 32q13 -48 38 -70t79 -22q97 0 97 62q0 25 -15 40q-14 14 -30 19.5t-63 14.5
l-37 7l-36 10q-27 8 -36 13q-42 25 -54 46q-21 36 -21 82q0 77 56 118q57 42 143 42z" />
    <glyph glyph-name="t" unicode="t" horiz-adv-x="392" 
d="M364 106l19 -82q-55 -36 -137 -36q-78 0 -116 38t-38 118v288h-79v85h79v151l115 16v-167h140v-85h-140v-272q0 -42 15 -60t54 -18q46 0 88 24z" />
    <glyph glyph-name="u" unicode="u" horiz-adv-x="580" 
d="M70 164v353h115v-333q0 -52 18.5 -75t62.5 -23q33 0 70 16t60 38v377h115v-517h-100l-8 57q-76 -68 -177 -68q-156 0 -156 175z" />
    <glyph glyph-name="v" unicode="v" horiz-adv-x="517" 
d="M515 517l-189 -517h-133l-191 517h125l135 -404h2l134 404h117z" />
    <glyph glyph-name="w" unicode="w" horiz-adv-x="781" 
d="M390 379l-93 -379h-137l-158 517h116l113 -398h1l104 398h116l104 -396h1l110 396h112l-158 -517h-132l-97 379h-2z" />
    <glyph glyph-name="x" unicode="x" horiz-adv-x="508" 
d="M376 517h112l-171 -251l179 -266h-124l-125 185l-119 -185h-114l172 264l-173 253h125l117 -177z" />
    <glyph glyph-name="y" unicode="y" horiz-adv-x="502" 
d="M176 -62l21 54l-194 525h124l127 -388h1l127 388h118l-216 -583q-32 -87 -72 -122t-108 -35q-61 0 -104 20l11 86q42 -16 81 -16q55 0 84 71z" />
    <glyph glyph-name="z" unicode="z" horiz-adv-x="462" 
d="M426 517v-83l-267 -340h279v-94h-409v82l269 345h-265v90h393z" />
    <glyph glyph-name="braceleft" unicode="{" horiz-adv-x="318" 
d="M263 -64h23v-81h-62q-145 0 -145 122q0 34 7 96t7 100q0 81 -70 81h-20v76h19q71 0 71 80q0 41 -7 107q-7 67 -7 98q0 122 144 122h63v-83h-31q-30 0 -42.5 -12t-12.5 -39q0 -34 7 -98t7 -102q0 -48 -18 -71.5t-60 -39.5q41 -16 59.5 -40t18.5 -72q0 -37 -7 -97
q-7 -59 -7 -90q0 -29 14.5 -43t48.5 -14z" />
    <glyph glyph-name="bar" unicode="|" horiz-adv-x="280" 
d="M192 755v-898h-104v898h104z" />
    <glyph glyph-name="braceright" unicode="}" horiz-adv-x="318" 
d="M55 656h-23v81h62q145 0 145 -122q0 -34 -7 -96t-7 -100q0 -81 70 -81h20v-76h-19q-71 0 -71 -80q0 -41 7 -108q7 -66 7 -97q0 -122 -144 -122h-63v83h31q30 0 42.5 12t12.5 39q0 34 -7 98t-7 102q0 48 18 71.5t60 39.5q-41 16 -59.5 40t-18.5 72q0 37 7 96q7 60 7 91
q0 29 -14.5 43t-48.5 14z" />
    <glyph glyph-name="asciitilde" unicode="~" horiz-adv-x="550" 
d="M160 432q32 0 126 -23q89 -22 112 -22q19 0 27 10.5t8 37.5l67 -3q7 -61 -18 -96.5t-73 -35.5q-37 0 -129 22q-95 23 -112 23q-37 0 -33 -52l-70 3q-7 62 19.5 99t75.5 37z" />
    <glyph glyph-name="uni00A0" unicode="&#xa0;" horiz-adv-x="198" 
 />
    <glyph glyph-name="exclamdown" unicode="&#xa1;" horiz-adv-x="276" 
d="M81 -209l17 533h91l18 -533h-126zM68 457q0 70 75 70q76 0 76 -70q0 -71 -76 -71q-75 0 -75 71z" />
    <glyph glyph-name="cent" unicode="&#xa2;" horiz-adv-x="524" 
d="M244 601v104h84v-102q69 -10 112.5 -55t48.5 -116l-103 -15q-9 78 -58 93v-309q51 13 66 89l96 -18q-10 -69 -53 -111.5t-109 -52.5v-108h-84v108q-90 14 -140.5 78.5t-50.5 163.5q0 103 51 168t140 83zM171 362q0 -134 73 -159v304q-73 -25 -73 -145z" />
    <glyph glyph-name="sterling" unicode="&#xa3;" horiz-adv-x="574" 
d="M20 0v93h58q75 67 75 144q0 41 -21 81h-101v88h72q-42 80 -42 134q0 86 65 142q64 55 171 55q99 0 153.5 -45.5t67.5 -142.5l-103 -16q-9 59 -35 86t-83 27q-119 0 -119 -103q0 -46 44 -137h212v-88h-185q16 -39 16 -76q0 -84 -68 -149h143q57 0 82 24.5t35 84.5l98 -18
q-10 -94 -60.5 -139t-146.5 -45h-328z" />
    <glyph glyph-name="currency" unicode="&#xa4;" 
d="M468 161l92 -91l-69 -69l-89 89q-53 -35 -126 -35q-76 0 -130 36l-46 -46l-43 -44l-65 68l93 92q-28 52 -28 120q0 59 29 112l-91 90l69 70l87 -87q53 39 131 39q80 0 131 -36l83 83l65 -68l-87 -87q27 -49 27 -112q0 -70 -33 -124zM280 145q56 0 87.5 37.5t31.5 98.5
q0 64 -31 98.5t-90 34.5q-56 0 -87.5 -36t-31.5 -97q0 -63 31 -99.5t90 -36.5z" />
    <glyph glyph-name="yen" unicode="&#xa5;" horiz-adv-x="548" 
d="M414 724h117l-159 -296h95v-84h-131v-83h131v-84h-131v-177h-115v177h-131v84h131v83h-131v84h91l-163 296h125l137 -262h2z" />
    <glyph glyph-name="brokenbar" unicode="&#xa6;" horiz-adv-x="280" 
d="M192 245v-388h-104v388h104zM192 755v-341h-104v341h104z" />
    <glyph glyph-name="section" unicode="&#xa7;" horiz-adv-x="556" 
d="M45 243q0 89 93 147q-60 50 -60 132q0 88 63 137q65 50 159 50q93 0 148.5 -46.5t62.5 -135.5l-106 -14q-5 56 -30.5 83.5t-77.5 27.5q-50 0 -78.5 -23.5t-28.5 -63.5q0 -26 11.5 -45t34.5 -32t45 -20.5t55 -17.5q12 -3 18 -5q37 -11 79 -29q38 -16 62 -51.5t24 -84.5
q0 -86 -93 -148q61 -49 61 -131q0 -88 -64 -137q-64 -50 -159 -50t-149.5 47.5t-61.5 138.5l103 13q6 -55 32.5 -82.5t79.5 -27.5q50 0 77 23t27 63q0 13 -2.5 23.5t-9 19.5l-12 16t-17.5 13.5l-20 10.5t-24 9l-24.5 7.5t-27.5 7.5l-27 7q-46 15 -79 28q-38 16 -61 52.5
t-23 87.5zM154 266q0 -27 18.5 -47.5t43.5 -30.5q29 -10 68 -21t68 -21q54 34 54 86q0 25 -18 45t-44 29l-67 21q-54 17 -68 22q-55 -37 -55 -83z" />
    <glyph glyph-name="dieresis" unicode="&#xa8;" horiz-adv-x="500" 
d="M214 675q0 -33 -20 -52t-53 -19t-53.5 19t-20.5 52q0 31 20.5 50.5t53.5 19.5q32 0 52.5 -19.5t20.5 -50.5zM434 675q0 -33 -20 -52t-53 -19q-34 0 -54 19t-20 52q0 32 20 51t54 19q32 0 52.5 -19.5t20.5 -50.5z" />
    <glyph glyph-name="copyright" unicode="&#xa9;" horiz-adv-x="784" 
d="M734 332q0 -154 -95 -249t-248 -95q-164 0 -253 92t-89 237q0 157 98 250q99 93 246 93q157 0 249 -89t92 -239zM393 52q127 0 199 73q73 73 73 201t-75 199q-74 71 -197 71q-121 0 -197 -75q-76 -73 -76 -203q0 -125 72.5 -195.5t200.5 -70.5zM491 270l61 -10
q-8 -48 -34 -79q-44 -50 -121 -50q-90 0 -135 51.5t-45 143.5q0 88 48.5 141t133.5 53q65 0 105 -33t44 -97l-65 -8q-8 80 -86 80q-50 0 -78.5 -34.5t-28.5 -103.5q0 -62 26.5 -98.5t78.5 -36.5q43 0 65 19.5t31 61.5z" />
    <glyph glyph-name="ordfeminine" unicode="&#xaa;" horiz-adv-x="385" 
d="M326 506v-142q0 -18 8 -23.5t27 -2.5l3 -53q-28 -12 -54 -12q-27 0 -45.5 12t-21.5 30q-40 -43 -107 -43q-54 0 -78.5 27t-24.5 67q0 112 169 112q27 0 34 -1v17q0 34 -11.5 48t-43.5 14q-27 0 -40.5 -11t-18.5 -38l-77 13q16 103 144 103q71 0 104 -27.5t33 -89.5z
M237 364v57q-5 1 -30 1q-80 0 -80 -46q0 -38 43 -38q38 0 67 26z" />
    <glyph glyph-name="guillemotleft" unicode="&#xab;" horiz-adv-x="447" 
d="M150 261l83 -158h-97l-87 155l89 150h98zM320 261l83 -158h-97l-87 155l89 150h98z" />
    <glyph glyph-name="logicalnot" unicode="&#xac;" 
d="M472 374v-192h-93v94h-288v98h381z" />
    <glyph glyph-name="uni00AD" unicode="&#xad;" horiz-adv-x="311" 
d="M291 345v-103h-271v103h271z" />
    <glyph glyph-name="registered" unicode="&#xae;" horiz-adv-x="457" 
d="M417 477q0 -84 -53 -137q-52 -52 -136 -52q-88 0 -138 49.5t-50 131.5q0 85 54 138q53 52 135 52q87 0 137.5 -49.5t50.5 -132.5zM372 474q0 67 -39 104.5t-104 37.5q-63 0 -103 -39.5t-40 -105.5t38.5 -103t104.5 -37t104.5 38t38.5 105zM269 468l51 -85h-46l-44 73h-22
v-73h-42v190h69q69 0 69 -55q0 -33 -35 -50zM208 541v-53h14q38 0 38 28q0 25 -33 25h-19z" />
    <glyph glyph-name="overscore" unicode="&#xaf;" horiz-adv-x="500" 
d="M399 699v-83h-299v83h299z" />
    <glyph glyph-name="degree" unicode="&#xb0;" horiz-adv-x="291" 
d="M146 579q35 -4 48 34.5t-11 61.5q-16 14 -37 15t-38 -15.5t-15 -42.5q0 -24 14 -38.5t39 -14.5zM260 635q0 -52 -31.5 -83.5t-82.5 -31.5q-52 0 -83.5 30.5t-31.5 81.5q0 53 32 84.5t83 31.5t82.5 -30.5t31.5 -82.5z" />
    <glyph glyph-name="plusminus" unicode="&#xb1;" 
d="M475 97v-97h-381v97h381zM333 274v-135h-98v135h-141v97h141v145h98v-145h142v-97h-142z" />
    <glyph glyph-name="twosuperior" unicode="&#xb2;" horiz-adv-x="393" 
d="M199 805q70 0 107 -30.5t37 -85.5q0 -49 -27 -89q-28 -40 -96 -104l-54 -59v-3h184v-85h-302v84l100 107q53 56 73 85q19 28 19 58q0 45 -50 45q-53 0 -62 -64l-88 13q7 62 49.5 95t109.5 33z" />
    <glyph glyph-name="threesuperior" unicode="&#xb3;" horiz-adv-x="384" 
d="M31 458l90 16q5 -30 19.5 -43t43.5 -13q64 0 64 63t-72 63h-47v70h30q39 0 61 18.5t22 49.5q0 47 -51 47t-62 -53l-87 17q22 112 159 112q68 0 105 -28t37 -79q0 -80 -87 -108v-2q96 -20 96 -110q0 -62 -45.5 -99t-120.5 -37q-139 0 -155 116z" />
    <glyph glyph-name="acute" unicode="&#xb4;" horiz-adv-x="500" 
d="M248 746h130l-138 -174l-80 10z" />
    <glyph glyph-name="mu" unicode="&#xb5;" horiz-adv-x="629" 
d="M211 -176h-118v693h115v-333q0 -55 15.5 -78t55.5 -23q69 0 135 68v366h115v-517h-98l-4 62h-2q-75 -69 -153 -69q-36 0 -68 16l-2 -1z" />
    <glyph glyph-name="paragraph" unicode="&#xb6;" horiz-adv-x="578" 
d="M309 724h185l1 -857h-89v779h-75v-779h-89v380q-102 7 -157 67.5t-55 162.5q0 128 77 187q77 60 202 60z" />
    <glyph glyph-name="middot" unicode="&#xb7;" horiz-adv-x="212" 
d="M106 376q74 0 74 -70t-74 -70t-74 70t74 70z" />
    <glyph glyph-name="cedilla" unicode="&#xb8;" horiz-adv-x="500" 
d="M134 -214l17 59q27 -11 52 -11q50 0 50 41q0 23 -16.5 32.5t-53.5 10.5l16 112l63 -8l-9 -60q81 -15 81 -89q0 -48 -33 -76.5t-85 -28.5q-44 0 -82 18z" />
    <glyph glyph-name="onesuperior" unicode="&#xb9;" horiz-adv-x="305" 
d="M238 795v-448h-103v334q-13 -7 -48 -13q-37 -5 -51 -5l-5 80q93 6 136 52h71z" />
    <glyph glyph-name="ordmasculine" unicode="&#xba;" horiz-adv-x="406" 
d="M199 272q-85 0 -127 46t-42 129q0 84 46 130t133 46q83 0 124.5 -44t41.5 -125q0 -182 -176 -182zM202 346q77 0 77 104q0 54 -17 77t-56 23q-79 0 -79 -101q0 -54 17.5 -78.5t57.5 -24.5z" />
    <glyph glyph-name="guillemotright" unicode="&#xbb;" horiz-adv-x="447" 
d="M127 254l-85 154h98l88 -154l-87 -151h-98zM297 254l-85 154h98l88 -154l-87 -151h-98z" />
    <glyph glyph-name="onequarter" unicode="&#xbc;" horiz-adv-x="945" 
d="M838 98v-98h-100v98h-208v70l183 280h125v-271h52v-79h-52zM739 360l-120 -183h120v183zM261 727v-448h-103v334q-13 -7 -48 -13q-37 -5 -51 -5l-5 80q93 6 136 52h71zM679 724l-354 -736h-107l356 736h105z" />
    <glyph glyph-name="onehalf" unicode="&#xbd;" horiz-adv-x="945" 
d="M735 456q70 0 107 -30.5t37 -85.5q0 -48 -27 -89q-28 -40 -96 -104l-54 -59v-3h184v-85h-302v84l100 107q53 56 73 85q19 28 19 58q0 45 -50 45q-53 0 -62 -64l-88 13q7 62 49.5 95t109.5 33zM267 727v-448h-103v334q-13 -7 -48 -13q-37 -5 -51 -5l-5 80q93 6 136 52h71z
M669 724l-354 -736h-107l356 736h105z" />
    <glyph glyph-name="threequarters" unicode="&#xbe;" horiz-adv-x="945" 
d="M45 390l90 16q5 -30 19.5 -43t43.5 -13q64 0 64 63t-72 63h-47v70h30q39 0 61 18.5t22 49.5q0 47 -51 47t-62 -53l-87 17q22 112 159 112q68 0 105 -28t37 -79q0 -80 -87 -108v-2q96 -20 96 -110q0 -62 -45.5 -99t-120.5 -37q-139 0 -155 116zM856 98v-98h-100v98h-208
v70l183 280h125v-271h52v-79h-52zM757 360l-120 -183h120v183zM713 724l-354 -736h-107l356 736h105z" />
    <glyph glyph-name="questiondown" unicode="&#xbf;" horiz-adv-x="502" 
d="M243 217v107h112v-180q-205 -18 -205 -151q0 -107 109 -107q103 0 124 110l109 -18q-12 -89 -73.5 -141t-166.5 -52q-98 0 -161 48q-62 48 -62 155q0 184 214 229zM225 457q0 70 76 70t76 -70q0 -71 -76 -71t-76 71z" />
    <glyph glyph-name="Agrave" unicode="&#xc0;" horiz-adv-x="696" 
d="M27 0l241 724h149l254 -724h-128l-68 198h-263l-66 -198h-119zM235 296h213l-105 320h-2zM422 778l-84 -11l-142 148h131z" />
    <glyph glyph-name="Aacute" unicode="&#xc1;" horiz-adv-x="696" 
d="M27 0l241 724h149l254 -724h-128l-68 198h-263l-66 -198h-119zM235 296h213l-105 320h-2zM360 915h130l-142 -148l-84 11z" />
    <glyph glyph-name="Acircumflex" unicode="&#xc2;" horiz-adv-x="696" 
d="M27 0l241 724h149l254 -724h-128l-68 198h-263l-66 -198h-119zM235 296h213l-105 320h-2zM506 776l-83 -7l-79 76l-81 -78l-82 9l112 133h103z" />
    <glyph glyph-name="Atilde" unicode="&#xc3;" horiz-adv-x="696" 
d="M27 0l241 724h149l254 -724h-128l-68 198h-263l-66 -198h-119zM235 296h213l-105 320h-2zM268 915q33 0 82 -23q47 -22 68 -22q19 0 26.5 10.5t7.5 37.5l64 -3q7 -61 -16.5 -95t-70.5 -34q-37 0 -85 22q-51 23 -68 23q-38 0 -33 -51l-66 3q-8 61 18 96.5t73 35.5z" />
    <glyph glyph-name="Adieresis" unicode="&#xc4;" horiz-adv-x="696" 
d="M27 0l241 724h149l254 -724h-128l-68 198h-263l-66 -198h-119zM235 296h213l-105 320h-2zM307 848q0 -33 -20 -51.5t-53 -18.5t-53.5 18.5t-20.5 51.5q0 32 20.5 51t53.5 19t53 -19t20 -51zM527 848q0 -33 -20 -51.5t-53 -18.5q-34 0 -54 18.5t-20 51.5q0 32 20 51t54 19
q33 0 53 -19t20 -51z" />
    <glyph glyph-name="Aring" unicode="&#xc5;" horiz-adv-x="696" 
d="M459 801q0 -57 -39 -87l251 -714h-128l-68 198h-263l-66 -198h-119l238 716q-36 28 -36 81q0 52 32 81.5t83 29.5q52 0 83.5 -28t31.5 -79zM235 296h213l-105 320h-2zM343 749q52 0 52 54q0 50 -51 50q-24 0 -38.5 -14.5t-14.5 -38.5t14 -37.5t38 -13.5z" />
    <glyph glyph-name="AE" unicode="&#xc6;" horiz-adv-x="1001" 
d="M922 307h-301v-209h335v-98h-453v305h-201l-159 -305h-120l378 724h540v-98h-320v-223h301v-96zM341 400h162v226h-41z" />
    <glyph glyph-name="Ccedilla" unicode="&#xc7;" horiz-adv-x="693" 
d="M274 -214l17 59q27 -11 52 -11q50 0 50 41q0 23 -16.5 32.5t-53.5 10.5l10 72q-288 20 -288 362q0 178 90 282q91 103 252 103q123 0 195.5 -64t80.5 -189l-108 -10q-9 84 -49 123t-120 39q-107 0 -164 -69.5t-57 -206.5q0 -141 52.5 -207t158.5 -66q77 0 120 35.5
t59 108.5l104 -20q-17 -107 -90 -161q-73 -53 -172 -61l-4 -27q81 -15 81 -89q0 -48 -33 -76.5t-85 -28.5q-44 0 -82 18z" />
    <glyph glyph-name="Egrave" unicode="&#xc8;" horiz-adv-x="578" 
d="M505 315h-301v-217h336v-98h-453v724h438v-98h-321v-214h301v-97zM386 778l-84 -11l-142 148h131z" />
    <glyph glyph-name="Eacute" unicode="&#xc9;" horiz-adv-x="578" 
d="M505 315h-301v-217h336v-98h-453v724h438v-98h-321v-214h301v-97zM332 915h130l-142 -148l-84 11z" />
    <glyph glyph-name="Ecircumflex" unicode="&#xca;" horiz-adv-x="578" 
d="M505 315h-301v-217h336v-98h-453v724h438v-98h-321v-214h301v-97zM470 776l-83 -7l-79 76l-81 -78l-82 9l112 133h103z" />
    <glyph glyph-name="Edieresis" unicode="&#xcb;" horiz-adv-x="578" 
d="M505 315h-301v-217h336v-98h-453v724h438v-98h-321v-214h301v-97zM271 848q0 -33 -20 -51.5t-53 -18.5t-53.5 18.5t-20.5 51.5q0 32 20.5 51t53.5 19t53 -19t20 -51zM491 848q0 -33 -20 -51.5t-53 -18.5q-34 0 -54 18.5t-20 51.5q0 32 20 51t54 19q33 0 53 -19t20 -51z
" />
    <glyph glyph-name="Igrave" unicode="&#xcc;" horiz-adv-x="291" 
d="M87 724h117v-724h-117v724zM224 778l-84 -11l-142 148h131z" />
    <glyph glyph-name="Iacute" unicode="&#xcd;" horiz-adv-x="291" 
d="M87 724h117v-724h-117v724zM162 915h130l-142 -148l-84 11z" />
    <glyph glyph-name="Icircumflex" unicode="&#xce;" horiz-adv-x="291" 
d="M308 776l-83 -7l-79 76l-81 -78l-82 9l112 133h103zM87 724h117v-724h-117v724z" />
    <glyph glyph-name="Idieresis" unicode="&#xcf;" horiz-adv-x="291" 
d="M109 848q0 -33 -20 -51.5t-53 -18.5t-53.5 18.5t-20.5 51.5q0 32 20.5 51t53.5 19t53 -19t20 -51zM329 848q0 -33 -20 -51.5t-53 -18.5q-34 0 -54 18.5t-20 51.5q0 32 20 51t54 19q33 0 53 -19t20 -51zM87 724h117v-724h-117v724z" />
    <glyph glyph-name="Eth" unicode="&#xd0;" horiz-adv-x="726" 
d="M305 0h-218v327h-73v91h73v306h235q180 0 269.5 -90t89.5 -261q0 -173 -94 -273t-282 -100zM204 327v-232h100q257 0 257 267q0 149 -61 207q-61 60 -187 60h-109v-211h196v-91h-196z" />
    <glyph glyph-name="Ntilde" unicode="&#xd1;" horiz-adv-x="745" 
d="M306 915q33 0 82 -23q47 -22 68 -22q19 0 26.5 10.5t7.5 37.5l64 -3q7 -61 -16.5 -95t-70.5 -34q-37 0 -85 22q-51 23 -68 23q-38 0 -33 -51l-66 3q-8 61 18 96.5t73 35.5zM658 724v-724h-138l-325 569v-569h-108v724h147l317 -566v566h107z" />
    <glyph glyph-name="Ograve" unicode="&#xd2;" horiz-adv-x="760" 
d="M375 -12q-165 0 -248 101q-82 100 -82 271q0 168 90 272q90 105 255 105q162 0 243 -101q82 -100 82 -261q0 -181 -87 -284q-85 -103 -253 -103zM380 88q101 0 158 70t57 207q0 133 -54 201.5t-154 68.5q-103 0 -162 -70.5t-59 -202.5q0 -135 56 -204.5t158 -69.5z
M476 778l-84 -11l-142 148h131z" />
    <glyph glyph-name="Oacute" unicode="&#xd3;" horiz-adv-x="760" 
d="M375 -12q-165 0 -248 101q-82 100 -82 271q0 168 90 272q90 105 255 105q162 0 243 -101q82 -100 82 -261q0 -181 -87 -284q-85 -103 -253 -103zM380 88q101 0 158 70t57 207q0 133 -54 201.5t-154 68.5q-103 0 -162 -70.5t-59 -202.5q0 -135 56 -204.5t158 -69.5z
M396 915h130l-142 -148l-84 11z" />
    <glyph glyph-name="Ocircumflex" unicode="&#xd4;" horiz-adv-x="760" 
d="M375 -12q-165 0 -248 101q-82 100 -82 271q0 168 90 272q90 105 255 105q162 0 243 -101q82 -100 82 -261q0 -181 -87 -284q-85 -103 -253 -103zM380 88q101 0 158 70t57 207q0 133 -54 201.5t-154 68.5q-103 0 -162 -70.5t-59 -202.5q0 -135 56 -204.5t158 -69.5z
M551 776l-83 -7l-79 76l-81 -78l-82 9l112 133h103z" />
    <glyph glyph-name="Otilde" unicode="&#xd5;" horiz-adv-x="760" 
d="M375 -12q-165 0 -248 101q-82 100 -82 271q0 168 90 272q90 105 255 105q162 0 243 -101q82 -100 82 -261q0 -181 -87 -284q-85 -103 -253 -103zM380 88q101 0 158 70t57 207q0 133 -54 201.5t-154 68.5q-103 0 -162 -70.5t-59 -202.5q0 -135 56 -204.5t158 -69.5z
M313 915q33 0 82 -23q47 -22 68 -22q19 0 26.5 10.5t7.5 37.5l64 -3q7 -61 -16.5 -95t-70.5 -34q-37 0 -85 22q-51 23 -68 23q-37 0 -33 -51l-66 3q-8 61 18 96.5t73 35.5z" />
    <glyph glyph-name="Odieresis" unicode="&#xd6;" horiz-adv-x="760" 
d="M375 -12q-165 0 -248 101q-82 100 -82 271q0 168 90 272q90 105 255 105q162 0 243 -101q82 -100 82 -261q0 -181 -87 -284q-85 -103 -253 -103zM380 88q101 0 158 70t57 207q0 133 -54 201.5t-154 68.5q-103 0 -162 -70.5t-59 -202.5q0 -135 56 -204.5t158 -69.5z
M352 848q0 -33 -20 -51.5t-53 -18.5t-53.5 18.5t-20.5 51.5q0 32 20.5 51t53.5 19t53 -19t20 -51zM572 848q0 -33 -20 -51.5t-53 -18.5q-34 0 -54 18.5t-20 51.5q0 32 20 51t54 19q33 0 53 -19t20 -51z" />
    <glyph glyph-name="multiply" unicode="&#xd7;" 
d="M456 218l-69 -71l-103 103l-102 -103l-69 71l103 103l-103 103l69 71l102 -103l103 103l69 -71l-103 -103z" />
    <glyph glyph-name="Oslash" unicode="&#xd8;" horiz-adv-x="760" 
d="M375 -12q-48 0 -90 9l-28 -69h-113l45 107q-144 90 -144 325q0 168 90 272q90 105 255 105q44 0 87 -10l28 67h112l-44 -106q70 -44 106 -125.5t36 -187.5q0 -181 -87 -284q-85 -103 -253 -103zM380 88q101 0 158 70t57 207q0 147 -67 215l-202 -486q26 -6 54 -6z
M166 362q0 -147 68 -218l202 486q-28 5 -49 5q-103 0 -162 -70.5t-59 -202.5z" />
    <glyph glyph-name="Ugrave" unicode="&#xd9;" horiz-adv-x="711" 
d="M514 262v462h117v-474q0 -130 -72 -196t-208 -66q-140 0 -205.5 64.5t-65.5 200.5v471h117v-459q0 -94 38 -136.5t122 -42.5t120.5 40t36.5 136zM435 778l-84 -11l-142 148h131z" />
    <glyph glyph-name="Uacute" unicode="&#xda;" horiz-adv-x="711" 
d="M514 262v462h117v-474q0 -130 -72 -196t-208 -66q-140 0 -205.5 64.5t-65.5 200.5v471h117v-459q0 -94 38 -136.5t122 -42.5t120.5 40t36.5 136zM383 915h130l-142 -148l-84 11z" />
    <glyph glyph-name="Ucircumflex" unicode="&#xdb;" horiz-adv-x="711" 
d="M514 262v462h117v-474q0 -130 -72 -196t-208 -66q-140 0 -205.5 64.5t-65.5 200.5v471h117v-459q0 -94 38 -136.5t122 -42.5t120.5 40t36.5 136zM518 776l-83 -7l-79 76l-81 -78l-82 9l112 133h103z" />
    <glyph glyph-name="Udieresis" unicode="&#xdc;" horiz-adv-x="711" 
d="M319 848q0 -33 -20 -51.5t-53 -18.5t-53.5 18.5t-20.5 51.5q0 32 20.5 51t53.5 19t53 -19t20 -51zM539 848q0 -33 -20 -51.5t-53 -18.5q-34 0 -54 18.5t-20 51.5q0 32 20 51t54 19q33 0 53 -19t20 -51zM514 262v462h117v-474q0 -130 -72 -196t-208 -66
q-140 0 -205.5 64.5t-65.5 200.5v471h117v-459q0 -94 38 -136.5t122 -42.5t120.5 40t36.5 136z" />
    <glyph glyph-name="Yacute" unicode="&#xdd;" horiz-adv-x="582" 
d="M592 724l-237 -445l1 -279h-118v277l-248 447h128l180 -336h2l174 336h118zM312 915h130l-142 -148l-84 11z" />
    <glyph glyph-name="Thorn" unicode="&#xde;" horiz-adv-x="618" 
d="M300 141h-97v-141h-116v724h118v-122h134q129 0 184 -61q57 -60 57 -154q0 -246 -280 -246zM203 506v-268h87q87 0 128 30.5t41 110.5q0 67 -38 97t-118 30h-100z" />
    <glyph glyph-name="germandbls" unicode="&#xdf;" horiz-adv-x="660" 
d="M186 530v-530h-115v528q0 239 250 239q112 0 172.5 -48t60.5 -137q0 -122 -114 -167v-4q85 -16 130 -64t45 -140q0 -98 -56.5 -158t-157.5 -60q-147 0 -184 127l87 37q32 -76 94 -76q99 0 99 132q0 147 -164 147h-39v83h16q64 0 96 33.5t32 89.5q0 120 -121 120
q-68 0 -99.5 -34t-31.5 -118z" />
    <glyph glyph-name="agrave" unicode="&#xe0;" horiz-adv-x="550" 
d="M466 348v-239q0 -22 6.5 -31t24.5 -9q11 0 31 6l4 -68q-36 -17 -81 -17q-74 0 -87 61q-58 -63 -164 -63q-93 0 -126 51q-27 42 -27 88q0 91 66.5 134.5t186.5 43.5q15 0 53 -2v39q0 54 -19 76.5t-71 22.5q-44 0 -65 -18t-30 -62l-101 18q26 149 205 149
q101 0 147.5 -42.5t46.5 -137.5zM354 122v102q-26 2 -48 2q-142 0 -142 -83q0 -69 77 -69q67 0 113 48zM361 582l-80 -10l-138 174h130z" />
    <glyph glyph-name="aacute" unicode="&#xe1;" horiz-adv-x="550" 
d="M466 348v-239q0 -22 6.5 -31t24.5 -9q11 0 31 6l4 -68q-36 -17 -81 -17q-74 0 -87 61q-58 -63 -164 -63q-93 0 -126 51q-27 42 -27 88q0 91 66.5 134.5t186.5 43.5q15 0 53 -2v39q0 54 -19 76.5t-71 22.5q-44 0 -65 -18t-30 -62l-101 18q26 149 205 149
q101 0 147.5 -42.5t46.5 -137.5zM354 122v102q-26 2 -48 2q-142 0 -142 -83q0 -69 77 -69q67 0 113 48zM269 746h130l-138 -174l-80 10z" />
    <glyph glyph-name="acircumflex" unicode="&#xe2;" horiz-adv-x="550" 
d="M466 348v-239q0 -22 6.5 -31t24.5 -9q11 0 31 6l4 -68q-36 -17 -81 -17q-74 0 -87 61q-58 -63 -164 -63q-93 0 -126 51q-27 42 -27 88q0 91 66.5 134.5t186.5 43.5q15 0 53 -2v39q0 54 -19 76.5t-71 22.5q-44 0 -65 -18t-30 -62l-101 18q26 149 205 149
q101 0 147.5 -42.5t46.5 -137.5zM354 122v102q-26 2 -48 2q-142 0 -142 -83q0 -69 77 -69q67 0 113 48zM326 747l109 -165l-81 -5l-83 105l-83 -107l-82 7l109 165h111z" />
    <glyph glyph-name="atilde" unicode="&#xe3;" horiz-adv-x="550" 
d="M466 348v-239q0 -22 6.5 -31t24.5 -9q11 0 31 6l4 -68q-36 -17 -81 -17q-74 0 -87 61q-58 -63 -164 -63q-93 0 -126 51q-27 42 -27 88q0 91 66.5 134.5t186.5 43.5q15 0 53 -2v39q0 54 -19 76.5t-71 22.5q-44 0 -65 -18t-30 -62l-101 18q26 149 205 149
q101 0 147.5 -42.5t46.5 -137.5zM354 122v102q-26 2 -48 2q-142 0 -142 -83q0 -69 77 -69q67 0 113 48zM194 722q33 0 82 -23q47 -22 68 -22q19 0 26.5 10t7.5 39l64 -4q7 -61 -16.5 -95t-70.5 -34q-34 0 -85 23t-68 23q-37 0 -33 -52l-66 3q-7 61 18.5 96.5t72.5 35.5z" />
    <glyph glyph-name="adieresis" unicode="&#xe4;" horiz-adv-x="550" 
d="M466 348v-239q0 -22 6.5 -31t24.5 -9q11 0 31 6l4 -68q-36 -17 -81 -17q-74 0 -87 61q-58 -63 -164 -63q-93 0 -126 51q-27 42 -27 88q0 91 66.5 134.5t186.5 43.5q15 0 53 -2v39q0 54 -19 76.5t-71 22.5q-44 0 -65 -18t-30 -62l-101 18q26 149 205 149
q101 0 147.5 -42.5t46.5 -137.5zM354 122v102q-26 2 -48 2q-142 0 -142 -83q0 -69 77 -69q67 0 113 48zM235 675q0 -33 -20 -52t-53 -19t-53.5 19t-20.5 52q0 31 20.5 50.5t53.5 19.5q32 0 52.5 -19.5t20.5 -50.5zM455 675q0 -33 -20 -52t-53 -19q-34 0 -54 19t-20 52
q0 32 20 51t54 19q32 0 52.5 -19.5t20.5 -50.5z" />
    <glyph glyph-name="aring" unicode="&#xe5;" horiz-adv-x="550" 
d="M466 348v-239q0 -22 6.5 -31t24.5 -9q11 0 31 6l4 -68q-36 -17 -81 -17q-74 0 -87 61q-58 -63 -164 -63q-93 0 -126 51q-27 42 -27 88q0 91 66.5 134.5t186.5 43.5q15 0 53 -2v39q0 54 -19 76.5t-71 22.5q-44 0 -65 -18t-30 -62l-101 18q26 149 205 149
q101 0 147.5 -42.5t46.5 -137.5zM354 122v102q-26 2 -48 2q-142 0 -142 -83q0 -69 77 -69q67 0 113 48zM380 674q0 -48 -29 -75t-80 -27q-49 0 -79 26.5t-30 71.5q0 49 31 77.5t78 28.5q49 0 79 -26.5t30 -75.5zM317 674q0 46 -46 46q-48 0 -48 -47t47 -47t47 48z" />
    <glyph glyph-name="ae" unicode="&#xe6;" horiz-adv-x="851" 
d="M591 -12q-129 0 -188 78q-75 -78 -201 -78q-92 0 -127 51q-28 43 -28 89q0 91 63 133t187 45q16 0 56 -2v34q0 55 -19.5 79t-71.5 24q-45 0 -67.5 -19t-29.5 -61l-98 18q23 149 198 149q64 0 100.5 -18.5t57.5 -61.5q63 80 180 80q100 0 151.5 -61.5t51.5 -169.5
q0 -39 -3 -68h-335q2 -79 34 -112.5t96 -33.5q87 0 107 83l99 -23q-16 -73 -72 -114t-141 -41zM242 73q76 0 129 56q-15 41 -18 101h-48q-141 -2 -141 -87q0 -70 78 -70zM470 309h217q3 129 -100 129q-50 0 -83 -34t-34 -95z" />
    <glyph glyph-name="ccedilla" unicode="&#xe7;" horiz-adv-x="541" 
d="M187 -214l17 59q27 -11 52 -11q50 0 50 41q0 23 -16.5 32.5t-53.5 10.5l10 72q-101 11 -152 79.5t-51 182.5q0 133 67 204.5t189 71.5q88 0 142.5 -50t61.5 -139l-106 -15q-13 112 -103 112q-131 0 -131 -171q0 -183 128 -183q98 0 114 103l100 -20q-11 -80 -62.5 -125
t-132.5 -51l-4 -27q81 -15 81 -89q0 -48 -33 -76.5t-85 -28.5q-45 0 -82 18z" />
    <glyph glyph-name="egrave" unicode="&#xe8;" horiz-adv-x="547" 
d="M287 -12q-67 0 -116 21.5t-76 60t-39.5 85.5t-12.5 103q0 134 69 201q70 69 178 69q106 0 159 -60t53 -169q0 -33 -3 -69h-335q4 -148 130 -148q88 0 106 84l98 -24q-15 -73 -71 -113.5t-140 -40.5zM166 310h217q0 66 -24 96.5t-76 30.5q-50 0 -81.5 -32t-35.5 -95z
M375 582l-80 -10l-138 174h130z" />
    <glyph glyph-name="eacute" unicode="&#xe9;" horiz-adv-x="547" 
d="M287 -12q-67 0 -116 21.5t-76 60t-39.5 85.5t-12.5 103q0 134 69 201q70 69 178 69q106 0 159 -60t53 -169q0 -33 -3 -69h-335q4 -148 130 -148q88 0 106 84l98 -24q-15 -73 -71 -113.5t-140 -40.5zM166 310h217q0 66 -24 96.5t-76 30.5q-50 0 -81.5 -32t-35.5 -95z
M283 746h130l-138 -174l-80 10z" />
    <glyph glyph-name="ecircumflex" unicode="&#xea;" horiz-adv-x="547" 
d="M287 -12q-67 0 -116 21.5t-76 60t-39.5 85.5t-12.5 103q0 134 69 201q70 69 178 69q106 0 159 -60t53 -169q0 -33 -3 -69h-335q4 -148 130 -148q88 0 106 84l98 -24q-15 -73 -71 -113.5t-140 -40.5zM166 310h217q0 66 -24 96.5t-76 30.5q-50 0 -81.5 -32t-35.5 -95z
M340 747l109 -165l-81 -5l-83 105l-83 -107l-82 7l109 165h111z" />
    <glyph glyph-name="edieresis" unicode="&#xeb;" horiz-adv-x="547" 
d="M287 -12q-67 0 -116 21.5t-76 60t-39.5 85.5t-12.5 103q0 134 69 201q70 69 178 69q106 0 159 -60t53 -169q0 -33 -3 -69h-335q4 -148 130 -148q88 0 106 84l98 -24q-15 -73 -71 -113.5t-140 -40.5zM166 310h217q0 66 -24 96.5t-76 30.5q-50 0 -81.5 -32t-35.5 -95z
M249 675q0 -33 -20 -52t-53 -19t-53.5 19t-20.5 52q0 31 20.5 50.5t53.5 19.5q32 0 52.5 -19.5t20.5 -50.5zM469 675q0 -33 -20 -52t-53 -19q-34 0 -54 19t-20 52q0 32 20 51t54 19q32 0 52.5 -19.5t20.5 -50.5z" />
    <glyph glyph-name="igrave" unicode="&#xec;" horiz-adv-x="257" 
d="M73 517h115v-517h-115v517zM210 582l-80 -10l-138 174h130z" />
    <glyph glyph-name="iacute" unicode="&#xed;" horiz-adv-x="257" 
d="M73 517h115v-517h-115v517zM143 746h130l-138 -174l-80 10z" />
    <glyph glyph-name="icircumflex" unicode="&#xee;" horiz-adv-x="257" 
d="M185 747l109 -165l-81 -5l-83 105l-83 -107l-82 7l109 165h111zM73 517h115v-517h-115v517z" />
    <glyph glyph-name="idieresis" unicode="&#xef;" horiz-adv-x="257" 
d="M94 675q0 -33 -20 -52t-53 -19t-53.5 19t-20.5 52q0 31 20.5 50.5t53.5 19.5q32 0 52.5 -19.5t20.5 -50.5zM314 675q0 -33 -20 -52t-53 -19q-34 0 -54 19t-20 52q0 32 20 51t54 19q32 0 52.5 -19.5t20.5 -50.5zM73 517h115v-517h-115v517z" />
    <glyph glyph-name="eth" unicode="&#xf0;" horiz-adv-x="581" 
d="M41 245q0 116 58 189q59 75 167 75q71 0 133 -35l4 3q-23 73 -72 119l-91 -51l-44 70l73 41q-54 28 -126 38l39 78q103 -15 174 -64l98 59l50 -75l-77 -44q108 -120 108 -332q0 -136 -53 -228q-59 -100 -202 -100q-116 0 -177.5 68.5t-61.5 188.5zM160 249
q0 -172 125 -172q136 0 136 230q0 26 -4 65q-47 48 -126 48q-131 0 -131 -171z" />
    <glyph glyph-name="ntilde" unicode="&#xf1;" horiz-adv-x="583" 
d="M517 352v-352h-115v333q0 51 -20 75t-65 24q-34 0 -71 -16.5t-60 -38.5v-377h-115v517h102l5 -54q82 65 179 65q83 0 121.5 -43t38.5 -133zM217 722q33 0 82 -23q47 -22 68 -22q19 0 26.5 10t7.5 39l64 -4q7 -61 -16.5 -95t-70.5 -34q-34 0 -85 23t-68 23q-37 0 -33 -52
l-66 3q-7 61 18.5 96.5t72.5 35.5z" />
    <glyph glyph-name="ograve" unicode="&#xf2;" horiz-adv-x="582" 
d="M287 -12q-244 0 -244 268q0 128 66.5 200t190.5 72q120 0 179.5 -68t59.5 -192q0 -135 -62.5 -207.5t-189.5 -72.5zM293 77q126 0 126 185q0 92 -29.5 132.5t-93.5 40.5q-133 0 -133 -175q0 -95 31.5 -139t98.5 -44zM387 582l-80 -10l-138 174h130z" />
    <glyph glyph-name="oacute" unicode="&#xf3;" horiz-adv-x="582" 
d="M287 -12q-244 0 -244 268q0 128 66.5 200t190.5 72q120 0 179.5 -68t59.5 -192q0 -135 -62.5 -207.5t-189.5 -72.5zM293 77q126 0 126 185q0 92 -29.5 132.5t-93.5 40.5q-133 0 -133 -175q0 -95 31.5 -139t98.5 -44zM295 746h130l-138 -174l-80 10z" />
    <glyph glyph-name="ocircumflex" unicode="&#xf4;" horiz-adv-x="582" 
d="M287 -12q-244 0 -244 268q0 128 66.5 200t190.5 72q120 0 179.5 -68t59.5 -192q0 -135 -62.5 -207.5t-189.5 -72.5zM293 77q126 0 126 185q0 92 -29.5 132.5t-93.5 40.5q-133 0 -133 -175q0 -95 31.5 -139t98.5 -44zM352 747l109 -165l-81 -5l-83 105l-83 -107l-82 7
l109 165h111z" />
    <glyph glyph-name="otilde" unicode="&#xf5;" horiz-adv-x="582" 
d="M220 722q33 0 82 -23q47 -22 68 -22q19 0 26.5 10t7.5 39l64 -4q7 -61 -16.5 -95t-70.5 -34q-34 0 -85 23t-68 23q-37 0 -33 -52l-66 3q-7 61 18.5 96.5t72.5 35.5zM287 -12q-244 0 -244 268q0 128 66.5 200t190.5 72q120 0 179.5 -68t59.5 -192q0 -135 -62.5 -207.5
t-189.5 -72.5zM293 77q126 0 126 185q0 92 -29.5 132.5t-93.5 40.5q-133 0 -133 -175q0 -95 31.5 -139t98.5 -44z" />
    <glyph glyph-name="odieresis" unicode="&#xf6;" horiz-adv-x="582" 
d="M287 -12q-244 0 -244 268q0 128 66.5 200t190.5 72q120 0 179.5 -68t59.5 -192q0 -135 -62.5 -207.5t-189.5 -72.5zM293 77q126 0 126 185q0 92 -29.5 132.5t-93.5 40.5q-133 0 -133 -175q0 -95 31.5 -139t98.5 -44zM261 675q0 -33 -20 -52t-53 -19t-53.5 19t-20.5 52
q0 31 20.5 50.5t53.5 19.5q32 0 52.5 -19.5t20.5 -50.5zM481 675q0 -33 -20 -52t-53 -19q-34 0 -54 19t-20 52q0 32 20 51t54 19q32 0 52.5 -19.5t20.5 -50.5z" />
    <glyph glyph-name="divide" unicode="&#xf7;" 
d="M350 161q0 -66 -70 -66t-70 66q0 31 18.5 49t51.5 18t51.5 -18t18.5 -49zM475 370v-98h-381v98h381zM350 481q0 -66 -70 -66t-70 66q0 31 18.5 49t51.5 18t51.5 -18t18.5 -49z" />
    <glyph glyph-name="oslash" unicode="&#xf8;" horiz-adv-x="582" 
d="M287 -12q-35 0 -65 6l-29 -66h-106l45 102q-89 65 -89 226q0 128 66.5 200t190.5 72q32 0 51 -4l27 62h105l-42 -94q98 -62 98 -224q0 -135 -62.5 -207.5t-189.5 -72.5zM293 77q126 0 126 185q0 84 -24 124l-135 -306q15 -3 33 -3zM163 260q0 -76 19 -117l129 291
q-2 0 -8 0.5t-7 0.5q-133 0 -133 -175z" />
    <glyph glyph-name="ugrave" unicode="&#xf9;" horiz-adv-x="580" 
d="M70 164v353h115v-333q0 -52 18.5 -75t62.5 -23q33 0 70 16t60 38v377h115v-517h-100l-8 57q-76 -68 -177 -68q-156 0 -156 175zM369 582l-80 -10l-138 174h130z" />
    <glyph glyph-name="uacute" unicode="&#xfa;" horiz-adv-x="580" 
d="M70 164v353h115v-333q0 -52 18.5 -75t62.5 -23q33 0 70 16t60 38v377h115v-517h-100l-8 57q-76 -68 -177 -68q-156 0 -156 175zM300 746h130l-138 -174l-80 10z" />
    <glyph glyph-name="ucircumflex" unicode="&#xfb;" horiz-adv-x="580" 
d="M70 164v353h115v-333q0 -52 18.5 -75t62.5 -23q33 0 70 16t60 38v377h115v-517h-100l-8 57q-76 -68 -177 -68q-156 0 -156 175zM347 747l109 -165l-81 -5l-83 105l-83 -107l-82 7l109 165h111z" />
    <glyph glyph-name="udieresis" unicode="&#xfc;" horiz-adv-x="580" 
d="M70 164v353h115v-333q0 -52 18.5 -75t62.5 -23q33 0 70 16t60 38v377h115v-517h-100l-8 57q-76 -68 -177 -68q-156 0 -156 175zM256 675q0 -33 -20 -52t-53 -19t-53.5 19t-20.5 52q0 31 20.5 50.5t53.5 19.5q32 0 52.5 -19.5t20.5 -50.5zM476 675q0 -33 -20 -52t-53 -19
q-34 0 -54 19t-20 52q0 32 20 51t54 19q32 0 52.5 -19.5t20.5 -50.5z" />
    <glyph glyph-name="yacute" unicode="&#xfd;" horiz-adv-x="502" 
d="M176 -62l21 54l-194 525h124l127 -388h1l127 388h118l-216 -583q-32 -87 -72 -122t-108 -35q-61 0 -104 20l11 86q42 -16 81 -16q55 0 84 71zM286 746h130l-138 -174l-80 10z" />
    <glyph glyph-name="thorn" unicode="&#xfe;" horiz-adv-x="586" 
d="M187 379v-251q58 -46 116 -46q119 0 119 187q0 87 -26.5 126t-84.5 39q-32 0 -66.5 -16t-57.5 -39zM184 -212h-112v967h113v-288q67 61 166 61q91 0 141 -63.5t50 -193.5q0 -144 -60 -214q-60 -69 -154 -69q-82 0 -144 50v-250z" />
    <glyph glyph-name="ydieresis" unicode="&#xff;" horiz-adv-x="502" 
d="M176 -62l21 54l-194 525h124l127 -388h1l127 388h118l-216 -583q-32 -87 -72 -122t-108 -35q-61 0 -104 20l11 86q42 -16 81 -16q55 0 84 71zM219 675q0 -33 -20 -52t-53 -19t-53.5 19t-20.5 52q0 31 20.5 50.5t53.5 19.5q32 0 52.5 -19.5t20.5 -50.5zM439 675
q0 -33 -20 -52t-53 -19q-34 0 -54 19t-20 52q0 32 20 51t54 19q32 0 52.5 -19.5t20.5 -50.5z" />
    <glyph glyph-name="Amacron" unicode="&#x100;" horiz-adv-x="696" 
d="M27 0l241 724h149l254 -724h-128l-68 198h-263l-66 -198h-119zM235 296h213l-105 320h-2zM500 873v-83h-311v83h311z" />
    <glyph glyph-name="amacron" unicode="&#x101;" horiz-adv-x="550" 
d="M466 348v-239q0 -22 6.5 -31t24.5 -9q11 0 31 6l4 -68q-36 -17 -81 -17q-74 0 -87 61q-58 -63 -164 -63q-93 0 -126 51q-27 42 -27 88q0 91 66.5 134.5t186.5 43.5q15 0 53 -2v39q0 54 -19 76.5t-71 22.5q-44 0 -65 -18t-30 -62l-101 18q26 149 205 149
q101 0 147.5 -42.5t46.5 -137.5zM354 122v102q-26 2 -48 2q-142 0 -142 -83q0 -69 77 -69q67 0 113 48zM420 699v-83h-299v83h299z" />
    <glyph glyph-name="Abreve" unicode="&#x102;" horiz-adv-x="696" 
d="M27 0l241 724h149l254 -724h-128l-68 198h-263l-66 -198h-119zM235 296h213l-105 320h-2zM346 850q36 0 55 16t26 54l79 -6q-15 -139 -164 -139q-141 0 -152 137l80 8q7 -38 24.5 -54t51.5 -16z" />
    <glyph glyph-name="abreve" unicode="&#x103;" horiz-adv-x="550" 
d="M466 348v-239q0 -22 6.5 -31t24.5 -9q11 0 31 6l4 -68q-36 -17 -81 -17q-74 0 -87 61q-58 -63 -164 -63q-93 0 -126 51q-27 42 -27 88q0 91 66.5 134.5t186.5 43.5q15 0 53 -2v39q0 54 -19 76.5t-71 22.5q-44 0 -65 -18t-30 -62l-101 18q26 149 205 149
q101 0 147.5 -42.5t46.5 -137.5zM354 122v102q-26 2 -48 2q-142 0 -142 -83q0 -69 77 -69q67 0 113 48zM358 734l78 -6q-4 -77 -46.5 -117t-118.5 -40q-149 0 -155 155l80 9q4 -48 22 -68.5t57 -20.5q40 0 59.5 20t23.5 68z" />
    <glyph glyph-name="Aogonek" unicode="&#x104;" horiz-adv-x="696" 
d="M654 -117l55 -27q-16 -41 -50 -64.5t-77 -23.5q-50 0 -78 24t-28 67q0 71 67 141l-68 198h-263l-66 -198h-119l241 724h149l254 -724q-56 -36 -79.5 -63.5t-23.5 -57.5q0 -37 35 -37q31 0 51 41zM235 296h213l-105 320h-2z" />
    <glyph glyph-name="aogonek" unicode="&#x105;" horiz-adv-x="550" 
d="M498 -117l55 -27q-16 -41 -50 -64.5t-77 -23.5q-50 0 -78 24t-28 67q0 71 93 136q-40 10 -49 56q-58 -63 -164 -63q-93 0 -126 51q-27 42 -27 88q0 91 66.5 134.5t186.5 43.5q15 0 53 -2v39q0 54 -19 76.5t-71 22.5q-44 0 -65 -18t-30 -62l-101 18q26 149 205 149
q101 0 147.5 -42.5t46.5 -137.5v-239q0 -22 6.5 -31t24.5 -9q11 0 31 6l4 -68q-45 -19 -84 -58q-36 -37 -36 -70q0 -37 35 -37q31 0 51 41zM354 122v102q-26 2 -48 2q-142 0 -142 -83q0 -69 77 -69q67 0 113 48z" />
    <glyph glyph-name="Cacute" unicode="&#x106;" horiz-adv-x="693" 
d="M370 -12q-164 0 -244.5 94t-80.5 270q0 178 90 282q91 103 252 103q123 0 195.5 -64t80.5 -189l-108 -10q-9 84 -49 123t-120 39q-107 0 -164 -69.5t-57 -206.5q0 -141 52.5 -207t158.5 -66q77 0 120 35.5t59 108.5l104 -20q-12 -78 -58 -130q-82 -93 -231 -93zM394 915
h130l-142 -148l-84 11z" />
    <glyph glyph-name="cacute" unicode="&#x107;" horiz-adv-x="541" 
d="M285 -12q-120 0 -181 69.5t-61 194.5q0 133 67 204.5t189 71.5q88 0 142.5 -50t61.5 -139l-106 -15q-13 112 -103 112q-131 0 -131 -171q0 -183 128 -183q98 0 114 103l100 -20q-12 -87 -70.5 -132t-149.5 -45zM293 746h130l-138 -174l-80 10z" />
    <glyph glyph-name="Ccircumflex" unicode="&#x108;" horiz-adv-x="693" 
d="M370 -12q-164 0 -244.5 94t-80.5 270q0 178 90 282q91 103 252 103q123 0 195.5 -64t80.5 -189l-108 -10q-9 84 -49 123t-120 39q-107 0 -164 -69.5t-57 -206.5q0 -141 52.5 -207t158.5 -66q77 0 120 35.5t59 108.5l104 -20q-12 -78 -58 -130q-82 -93 -231 -93zM540 776
l-83 -7l-79 76l-81 -78l-82 9l112 133h103z" />
    <glyph glyph-name="ccircumflex" unicode="&#x109;" horiz-adv-x="541" 
d="M285 -12q-120 0 -181 69.5t-61 194.5q0 133 67 204.5t189 71.5q88 0 142.5 -50t61.5 -139l-106 -15q-13 112 -103 112q-131 0 -131 -171q0 -183 128 -183q98 0 114 103l100 -20q-12 -87 -70.5 -132t-149.5 -45zM350 747l109 -165l-81 -5l-83 105l-83 -107l-82 7l109 165
h111z" />
    <glyph glyph-name="Cdotaccent" unicode="&#x10a;" horiz-adv-x="693" 
d="M370 -12q-164 0 -244.5 94t-80.5 270q0 178 90 282q91 103 252 103q123 0 195.5 -64t80.5 -189l-108 -10q-9 84 -49 123t-120 39q-107 0 -164 -69.5t-57 -206.5q0 -141 52.5 -207t158.5 -66q77 0 120 35.5t59 108.5l104 -20q-12 -78 -58 -130q-82 -93 -231 -93zM377 778
q-36 0 -55.5 20t-19.5 56t19.5 55.5t55.5 19.5q35 0 55 -19.5t20 -55.5t-20 -56t-55 -20z" />
    <glyph glyph-name="cdotaccent" unicode="&#x10b;" horiz-adv-x="541" 
d="M285 -12q-120 0 -181 69.5t-61 194.5q0 133 67 204.5t189 71.5q88 0 142.5 -50t61.5 -139l-106 -15q-13 112 -103 112q-131 0 -131 -171q0 -183 128 -183q98 0 114 103l100 -20q-12 -87 -70.5 -132t-149.5 -45zM213 680q0 36 19.5 55.5t55.5 19.5q35 0 55 -20t20 -55
q0 -36 -20 -56t-55 -20q-36 0 -55.5 19.5t-19.5 56.5z" />
    <glyph glyph-name="Ccaron" unicode="&#x10c;" horiz-adv-x="693" 
d="M370 -12q-164 0 -244.5 94t-80.5 270q0 178 90 282q91 103 252 103q123 0 195.5 -64t80.5 -189l-108 -10q-9 84 -49 123t-120 39q-107 0 -164 -69.5t-57 -206.5q0 -141 52.5 -207t158.5 -66q77 0 120 35.5t59 108.5l104 -20q-12 -78 -58 -130q-82 -93 -231 -93zM215 904
l83 7l79 -76l81 78l82 -9l-112 -133h-103z" />
    <glyph glyph-name="ccaron" unicode="&#x10d;" horiz-adv-x="541" 
d="M285 -12q-120 0 -181 69.5t-61 194.5q0 133 67 204.5t189 71.5q88 0 142.5 -50t61.5 -139l-106 -15q-13 112 -103 112q-131 0 -131 -171q0 -183 128 -183q98 0 114 103l100 -20q-12 -87 -70.5 -132t-149.5 -45zM231 572l-109 164l85 6l81 -105l84 106l79 -7l-109 -164
h-111z" />
    <glyph glyph-name="Dcaron" unicode="&#x10e;" horiz-adv-x="726" 
d="M305 0h-218v724h235q180 0 269.5 -90t89.5 -261q0 -173 -94 -273t-282 -100zM204 629v-534h100q257 0 257 267q0 149 -61 207q-61 60 -187 60h-109zM168 904l83 7l79 -76l81 78l82 -9l-112 -133h-103z" />
    <glyph glyph-name="dcaron" unicode="&#x10f;" horiz-adv-x="669" 
d="M402 755h112v-755h-96l-8 52h-2q-67 -64 -163 -64t-148 65t-52 197q0 142 62 210t156 68q87 0 139 -45v272zM399 134v260q-52 40 -112 40q-123 0 -123 -183q0 -170 118 -170q66 0 117 53zM644 554l-82 9l33 192h112z" />
    <glyph glyph-name="Dcroat" unicode="&#x110;" horiz-adv-x="726" 
d="M305 0h-218v327h-73v91h73v306h235q180 0 269.5 -90t89.5 -261q0 -173 -94 -273t-282 -100zM204 327v-232h100q257 0 257 267q0 149 -61 207q-61 60 -187 60h-109v-211h196v-91h-196z" />
    <glyph glyph-name="dslash" unicode="&#x111;" horiz-adv-x="583" 
d="M579 659v-83h-65v-576h-96l-8 52h-2q-67 -64 -163 -64t-148 63.5t-52 192.5q0 136 62 204q63 67 156 67q87 0 139 -45v106h-184v83h184v96h112v-96h65zM399 134v247q-52 40 -112 40q-62 0 -92.5 -46.5t-30.5 -129.5q0 -164 118 -164q66 0 117 53z" />
    <glyph glyph-name="Emacron" unicode="&#x112;" horiz-adv-x="578" 
d="M505 315h-301v-217h336v-98h-453v724h438v-98h-321v-214h301v-97zM464 873v-83h-311v83h311z" />
    <glyph glyph-name="emacron" unicode="&#x113;" horiz-adv-x="547" 
d="M287 -12q-67 0 -116 21.5t-76 60t-39.5 85.5t-12.5 103q0 134 69 201q70 69 178 69q106 0 159 -60t53 -169q0 -33 -3 -69h-335q4 -148 130 -148q88 0 106 84l98 -24q-15 -73 -71 -113.5t-140 -40.5zM166 310h217q0 66 -24 96.5t-76 30.5q-50 0 -81.5 -32t-35.5 -95z
M434 699v-83h-299v83h299z" />
    <glyph glyph-name="Ebreve" unicode="&#x114;" horiz-adv-x="578" 
d="M505 315h-301v-217h336v-98h-453v724h438v-98h-321v-214h301v-97zM310 850q36 0 55 16t26 54l79 -6q-15 -139 -164 -139q-141 0 -152 137l80 8q7 -38 24.5 -54t51.5 -16z" />
    <glyph glyph-name="ebreve" unicode="&#x115;" horiz-adv-x="547" 
d="M287 -12q-67 0 -116 21.5t-76 60t-39.5 85.5t-12.5 103q0 134 69 201q70 69 178 69q106 0 159 -60t53 -169q0 -33 -3 -69h-335q4 -148 130 -148q88 0 106 84l98 -24q-15 -73 -71 -113.5t-140 -40.5zM166 310h217q0 66 -24 96.5t-76 30.5q-50 0 -81.5 -32t-35.5 -95z
M372 734l78 -6q-4 -77 -46.5 -117t-118.5 -40q-149 0 -155 155l80 9q4 -48 22 -68.5t57 -20.5q40 0 59.5 20t23.5 68z" />
    <glyph glyph-name="Edotaccent" unicode="&#x116;" horiz-adv-x="578" 
d="M505 315h-301v-217h336v-98h-453v724h438v-98h-321v-214h301v-97zM307 778q-36 0 -55.5 20t-19.5 56t19.5 55.5t55.5 19.5q35 0 55 -19.5t20 -55.5t-20 -56t-55 -20z" />
    <glyph glyph-name="edotaccent" unicode="&#x117;" horiz-adv-x="547" 
d="M287 -12q-67 0 -116 21.5t-76 60t-39.5 85.5t-12.5 103q0 134 69 201q70 69 178 69q106 0 159 -60t53 -169q0 -33 -3 -69h-335q4 -148 130 -148q88 0 106 84l98 -24q-15 -73 -71 -113.5t-140 -40.5zM166 310h217q0 66 -24 96.5t-76 30.5q-50 0 -81.5 -32t-35.5 -95z
M285 604q-36 0 -55.5 19.5t-19.5 56.5q0 36 19.5 55.5t55.5 19.5q35 0 55 -19.5t20 -55.5t-20 -56t-55 -20z" />
    <glyph glyph-name="Eogonek" unicode="&#x118;" horiz-adv-x="578" 
d="M490 -117l55 -27q-16 -41 -50 -64.5t-77 -23.5q-50 0 -78 24t-28 67q0 73 87 141h-312v724h438v-98h-321v-214h301v-97h-301v-217h336v-98h-55q-45 -42 -63 -67.5t-18 -53.5q0 -37 35 -37q31 0 51 41z" />
    <glyph glyph-name="eogonek" unicode="&#x119;" horiz-adv-x="547" 
d="M384 -117l55 -27q-16 -41 -50 -64.5t-77 -23.5q-50 0 -78 24t-28 67q0 67 72 129q-124 3 -180 78q-55 74 -55 192q0 134 69 201q70 69 178 69q106 0 159 -60t53 -169q0 -33 -3 -69h-335q4 -148 130 -148q88 0 106 84l98 -24q-18 -84 -105 -140q-95 -60 -95 -123
q0 -37 35 -37q31 0 51 41zM166 310h217q0 66 -24 96.5t-76 30.5q-50 0 -81.5 -32t-35.5 -95z" />
    <glyph glyph-name="Ecaron" unicode="&#x11a;" horiz-adv-x="578" 
d="M505 315h-301v-217h336v-98h-453v724h438v-98h-321v-214h301v-97zM145 904l83 7l79 -76l81 78l82 -9l-112 -133h-103z" />
    <glyph glyph-name="ecaron" unicode="&#x11b;" horiz-adv-x="547" 
d="M287 -12q-67 0 -116 21.5t-76 60t-39.5 85.5t-12.5 103q0 134 69 201q70 69 178 69q106 0 159 -60t53 -169q0 -33 -3 -69h-335q4 -148 130 -148q88 0 106 84l98 -24q-15 -73 -71 -113.5t-140 -40.5zM166 310h217q0 66 -24 96.5t-76 30.5q-50 0 -81.5 -32t-35.5 -95z
M229 572l-109 164l85 6l81 -105l84 106l79 -7l-109 -164h-111z" />
    <glyph glyph-name="Gcircumflex" unicode="&#x11c;" horiz-adv-x="737" 
d="M667 0h-86l-14 94q-21 -47 -81 -77q-61 -29 -133 -29q-155 0 -232 98q-76 97 -76 266q0 183 90 284t254 101q257 0 275 -247l-109 -12q-8 80 -49 120t-120 40q-107 0 -163.5 -71.5t-56.5 -203.5q0 -145 53 -211t160 -66q83 0 129 45q46 46 46 110v47h-169v88h282v-376z
M548 776l-83 -7l-79 76l-81 -78l-82 9l112 133h103z" />
    <glyph glyph-name="gcircumflex" unicode="&#x11d;" horiz-adv-x="555" 
d="M271 528q96 0 145 -41q30 71 86 71q23 0 41 -6v-85q-48 3 -90 -10q40 -46 40 -114q0 -87 -61 -136t-157 -49q-55 0 -88 10q-25 -19 -25 -39q0 -16 11.5 -24t41.5 -10l147 -9q89 -6 130.5 -37t41.5 -98q0 -49 -22 -84.5t-61 -55t-84.5 -28.5t-100.5 -9q-240 0 -240 129
q0 75 86 104v3q-61 21 -61 78q0 31 17 54t56 52q-76 43 -76 143q0 86 60.5 138.5t162.5 52.5zM385 342q0 97 -111 97q-53 0 -83.5 -24t-30.5 -71q0 -97 113 -97q51 0 81.5 25.5t30.5 69.5zM416 -72q0 27 -17 39t-61 14l-159 8q-42 -30 -42 -67q0 -61 140 -61q139 0 139 67z
M336 747l109 -165l-81 -5l-83 105l-83 -107l-82 7l109 165h111z" />
    <glyph glyph-name="Gbreve" unicode="&#x11e;" horiz-adv-x="737" 
d="M667 0h-86l-14 94q-21 -47 -81 -77q-61 -29 -133 -29q-155 0 -232 98q-76 97 -76 266q0 183 90 284t254 101q257 0 275 -247l-109 -12q-8 80 -49 120t-120 40q-107 0 -163.5 -71.5t-56.5 -203.5q0 -145 53 -211t160 -66q83 0 129 45q46 46 46 110v47h-169v88h282v-376z
M388 850q36 0 55 16t26 54l79 -6q-15 -139 -164 -139q-141 0 -152 137l80 8q7 -38 24.5 -54t51.5 -16z" />
    <glyph glyph-name="gbreve" unicode="&#x11f;" horiz-adv-x="555" 
d="M271 528q96 0 145 -41q30 71 86 71q23 0 41 -6v-85q-48 3 -90 -10q40 -46 40 -114q0 -87 -61 -136t-157 -49q-55 0 -88 10q-25 -19 -25 -39q0 -16 11.5 -24t41.5 -10l147 -9q89 -6 130.5 -37t41.5 -98q0 -49 -22 -84.5t-61 -55t-84.5 -28.5t-100.5 -9q-240 0 -240 129
q0 75 86 104v3q-61 21 -61 78q0 31 17 54t56 52q-76 43 -76 143q0 86 60.5 138.5t162.5 52.5zM385 342q0 97 -111 97q-53 0 -83.5 -24t-30.5 -71q0 -97 113 -97q51 0 81.5 25.5t30.5 69.5zM416 -72q0 27 -17 39t-61 14l-159 8q-42 -30 -42 -67q0 -61 140 -61q139 0 139 67z
M360 734l78 -6q-4 -77 -46.5 -117t-118.5 -40q-149 0 -155 155l80 9q4 -48 22 -68.5t57 -20.5q40 0 59.5 20t23.5 68z" />
    <glyph glyph-name="Gdotaccent" unicode="&#x120;" horiz-adv-x="737" 
d="M667 0h-86l-14 94q-21 -47 -81 -77q-61 -29 -133 -29q-155 0 -232 98q-76 97 -76 266q0 183 90 284t254 101q257 0 275 -247l-109 -12q-8 80 -49 120t-120 40q-107 0 -163.5 -71.5t-56.5 -203.5q0 -145 53 -211t160 -66q83 0 129 45q46 46 46 110v47h-169v88h282v-376z
M385 778q-36 0 -55.5 20t-19.5 56t19.5 55.5t55.5 19.5q35 0 55 -19.5t20 -55.5t-20 -56t-55 -20z" />
    <glyph glyph-name="gdotaccent" unicode="&#x121;" horiz-adv-x="555" 
d="M271 528q96 0 145 -41q30 71 86 71q23 0 41 -6v-85q-48 3 -90 -10q40 -46 40 -114q0 -87 -61 -136t-157 -49q-55 0 -88 10q-25 -19 -25 -39q0 -16 11.5 -24t41.5 -10l147 -9q89 -6 130.5 -37t41.5 -98q0 -49 -22 -84.5t-61 -55t-84.5 -28.5t-100.5 -9q-240 0 -240 129
q0 75 86 104v3q-61 21 -61 78q0 31 17 54t56 52q-76 43 -76 143q0 86 60.5 138.5t162.5 52.5zM385 342q0 97 -111 97q-53 0 -83.5 -24t-30.5 -71q0 -97 113 -97q51 0 81.5 25.5t30.5 69.5zM416 -72q0 27 -17 39t-61 14l-159 8q-42 -30 -42 -67q0 -61 140 -61q139 0 139 67z
M273 604q-36 0 -55.5 19.5t-19.5 56.5q0 36 19.5 55.5t55.5 19.5q35 0 55 -19.5t20 -55.5t-20 -56t-55 -20z" />
    <glyph glyph-name="Gcommaaccent" unicode="&#x122;" horiz-adv-x="737" 
d="M667 0h-86l-14 94q-21 -47 -81 -77q-61 -29 -133 -29q-155 0 -232 98q-76 97 -76 266q0 183 90 284t254 101q257 0 275 -247l-109 -12q-8 80 -49 120t-120 40q-107 0 -163.5 -71.5t-56.5 -203.5q0 -145 53 -211t160 -66q83 0 129 45q46 46 46 110v47h-169v88h282v-376z
M363 -255l-82 12l42 175h114z" />
    <glyph glyph-name="gcommaaccent" unicode="&#x123;" horiz-adv-x="555" 
d="M271 528q96 0 145 -41q30 71 86 71q23 0 41 -6v-85q-48 3 -90 -10q40 -46 40 -114q0 -87 -61 -136t-157 -49q-55 0 -88 10q-25 -19 -25 -39q0 -16 11.5 -24t41.5 -10l147 -9q89 -6 130.5 -37t41.5 -98q0 -49 -22 -84.5t-61 -55t-84.5 -28.5t-100.5 -9q-240 0 -240 129
q0 75 86 104v3q-61 21 -61 78q0 31 17 54t56 52q-76 43 -76 143q0 86 60.5 138.5t162.5 52.5zM385 342q0 97 -111 97q-53 0 -83.5 -24t-30.5 -71q0 -97 113 -97q51 0 81.5 25.5t30.5 69.5zM416 -72q0 27 -17 39t-61 14l-159 8q-42 -30 -42 -67q0 -61 140 -61q139 0 139 67z
M278 756l82 -12l-42 -174h-114z" />
    <glyph glyph-name="Hcircumflex" unicode="&#x124;" horiz-adv-x="730" 
d="M526 724h117v-724h-117v316h-322v-316h-117v724h117v-305h322v305zM528 776l-83 -7l-79 76l-81 -78l-82 9l112 133h103z" />
    <glyph glyph-name="hcircumflex" unicode="&#x125;" horiz-adv-x="583" 
d="M517 352v-352h-115v333q0 51 -20 75t-65 24q-34 0 -71 -16.5t-60 -38.5v-377h-115v755h114v-289q77 62 173 62q81 0 120 -43t39 -133zM293 798l-83 -7l-79 76l-81 -78l-82 9l112 133h103z" />
    <glyph glyph-name="Hbar" unicode="&#x126;" horiz-adv-x="730" 
d="M526 724h117v-114h73v-87h-73v-523h-117v316h-322v-316h-117v523h-73v87h73v114h117v-114h322v114zM204 523v-104h322v104h-322z" />
    <glyph glyph-name="hbar" unicode="&#x127;" horiz-adv-x="583" 
d="M517 339v-339h-115v320q0 51 -20 75t-65 24q-34 0 -71 -16.5t-60 -38.5v-364h-115v576h-63v83h63v96h114v-96h184v-83h-184v-123q77 62 173 62q81 0 120 -43t39 -133z" />
    <glyph glyph-name="Itilde" unicode="&#x128;" horiz-adv-x="291" 
d="M78 915q33 0 82 -23q47 -22 68 -22q19 0 26.5 10.5t7.5 37.5l64 -3q7 -61 -16.5 -95t-70.5 -34q-37 0 -85 22q-51 23 -68 23q-38 0 -33 -51l-66 3q-8 61 18 96.5t73 35.5zM95 724h117v-724h-117v724z" />
    <glyph glyph-name="itilde" unicode="&#x129;" horiz-adv-x="257" 
d="M60 722q33 0 82 -23q47 -22 68 -22q19 0 26.5 10t7.5 39l64 -4q7 -61 -16.5 -95t-70.5 -34q-34 0 -85 23t-68 23q-37 0 -33 -52l-66 3q-7 61 18.5 96.5t72.5 35.5zM80 517h115v-517h-115v517z" />
    <glyph glyph-name="Imacron" unicode="&#x12a;" horiz-adv-x="291" 
d="M87 724h117v-724h-117v724zM302 873v-83h-311v83h311z" />
    <glyph glyph-name="imacron" unicode="&#x12b;" horiz-adv-x="257" 
d="M73 517h115v-517h-115v517zM279 699v-83h-299v83h299z" />
    <glyph glyph-name="Ibreve" unicode="&#x12c;" horiz-adv-x="291" 
d="M148 850q36 0 55 16t26 54l79 -6q-15 -139 -164 -139q-141 0 -152 137l80 8q7 -38 24.5 -54t51.5 -16zM87 724h117v-724h-117v724z" />
    <glyph glyph-name="ibreve" unicode="&#x12d;" horiz-adv-x="257" 
d="M217 734l78 -6q-4 -77 -46.5 -117t-118.5 -40q-149 0 -155 155l80 9q4 -48 22 -68.5t57 -20.5q40 0 59.5 20t23.5 68zM73 517h115v-517h-115v517z" />
    <glyph glyph-name="Iogonek" unicode="&#x12e;" horiz-adv-x="291" 
d="M194 -117l55 -27q-16 -41 -50 -64.5t-77 -23.5q-50 0 -78 24t-28 67q0 76 71 141v724h117v-724q-52 -37 -74 -64t-22 -57q0 -37 35 -37q31 0 51 41z" />
    <glyph glyph-name="iogonek" unicode="&#x12f;" horiz-adv-x="257" 
d="M179 -117l55 -27q-16 -41 -50 -64.5t-77 -23.5q-50 0 -78 24t-28 67q0 39 17.5 70.5t54.5 70.5v517h115v-517q-52 -37 -73.5 -64t-21.5 -57q0 -37 35 -37q30 0 51 41zM206 680q0 -37 -19.5 -56.5t-55.5 -19.5q-35 0 -55 20t-20 56t20 55.5t55 19.5q36 0 55.5 -19.5
t19.5 -55.5z" />
    <glyph glyph-name="Idot" unicode="&#x130;" horiz-adv-x="291" 
d="M145 778q-36 0 -55.5 20t-19.5 56t19.5 55.5t55.5 19.5q35 0 55 -19.5t20 -55.5t-20 -56t-55 -20zM87 724h117v-724h-117v724z" />
    <glyph glyph-name="dotlessi" unicode="&#x131;" horiz-adv-x="257" 
d="M73 517h115v-517h-115v517z" />
    <glyph glyph-name="IJ" unicode="&#x132;" horiz-adv-x="802" 
d="M606 187v537h117v-534q0 -202 -211 -202q-192 0 -200 183l113 18q6 -57 24.5 -80.5t65.5 -23.5t69 23t22 79zM87 724h117v-724h-117v724z" />
    <glyph glyph-name="Jcircumflex" unicode="&#x134;" horiz-adv-x="511" 
d="M315 187v537h117v-534q0 -202 -211 -202q-193 0 -200 183l113 18q6 -57 24.5 -80.5t65.5 -23.5t69 23t22 79zM537 776l-83 -7l-79 76l-81 -78l-82 9l112 133h103z" />
    <glyph glyph-name="jcircumflex" unicode="&#x135;" horiz-adv-x="255" 
d="M25 -223q-70 0 -107 23l10 88q43 -17 78 -17q67 0 67 80v566h115v-573q0 -167 -163 -167zM186 747l109 -165l-81 -5l-83 105l-83 -107l-82 7l109 165h111z" />
    <glyph glyph-name="Kcommaaccent" unicode="&#x136;" horiz-adv-x="655" 
d="M87 724h117v-338l307 338h127l-276 -307l283 -417h-137l-228 327l-76 -82v-245h-117v724zM332 -255l-82 12l42 175h114z" />
    <glyph glyph-name="kcommaaccent" unicode="&#x137;" horiz-adv-x="544" 
d="M72 755h115v-447l201 209h129l-176 -186l189 -331h-126l-149 255l-68 -67v-188h-115v755zM276 -255l-82 12l42 175h114z" />
    <glyph glyph-name="kgreenlandic" unicode="&#x138;" horiz-adv-x="544" 
d="M72 517h115v-209l201 209h129l-176 -186l189 -331h-126l-149 255l-68 -67v-188h-115v517z" />
    <glyph glyph-name="Lacute" unicode="&#x139;" horiz-adv-x="558" 
d="M87 724h117v-625h320v-99h-437v724zM163 915h130l-142 -148l-84 11z" />
    <glyph glyph-name="lacute" unicode="&#x13a;" horiz-adv-x="257" 
d="M73 755h115v-755h-115v755zM140 936h130l-142 -148l-84 11z" />
    <glyph glyph-name="Lcommaaccent" unicode="&#x13b;" horiz-adv-x="558" 
d="M87 724h117v-625h320v-99h-437v724zM301 -255l-82 12l42 175h114z" />
    <glyph glyph-name="lcommaaccent" unicode="&#x13c;" horiz-adv-x="257" 
d="M73 755h115v-755h-115v755zM125 -255l-82 12l42 175h114z" />
    <glyph glyph-name="Lcaron" unicode="&#x13d;" horiz-adv-x="558" 
d="M87 724h117v-625h320v-99h-437v724zM380 523l-82 9l33 192h112z" />
    <glyph glyph-name="lcaron" unicode="&#x13e;" horiz-adv-x="343" 
d="M73 755h115v-755h-115v755zM318 554l-82 9l33 192h112z" />
    <glyph glyph-name="Ldot" unicode="&#x13f;" horiz-adv-x="558" 
d="M87 724h117v-625h320v-99h-437v724zM425 327q-36 0 -55.5 20t-19.5 56t19.5 55.5t55.5 19.5q35 0 55 -19.5t20 -55.5t-20 -56t-55 -20z" />
    <glyph glyph-name="ldot" unicode="&#x140;" horiz-adv-x="349" 
d="M73 755h115v-755h-115v755zM381 399q0 -37 -19.5 -56.5t-55.5 -19.5t-55.5 19.5t-19.5 56.5q0 36 19.5 55.5t55.5 19.5q35 0 55 -19.5t20 -55.5z" />
    <glyph glyph-name="Lslash" unicode="&#x141;" horiz-adv-x="558" 
d="M87 724h117v-306l217 89v-100l-217 -88v-220h320v-99h-437v271l-87 -35v98l87 36v354z" />
    <glyph glyph-name="lslash" unicode="&#x142;" horiz-adv-x="288" 
d="M84 755h115v-278l79 39v-100l-79 -39v-377h-115v331l-74 -36v100l74 35v325z" />
    <glyph glyph-name="Nacute" unicode="&#x143;" horiz-adv-x="745" 
d="M658 724v-724h-138l-325 569v-569h-108v724h147l317 -566v566h107zM420 915h130l-142 -148l-84 11z" />
    <glyph glyph-name="nacute" unicode="&#x144;" horiz-adv-x="583" 
d="M517 352v-352h-115v333q0 51 -20 75t-65 24q-34 0 -71 -16.5t-60 -38.5v-377h-115v517h102l5 -54q82 65 179 65q83 0 121.5 -43t38.5 -133zM334 746h130l-138 -174l-80 10z" />
    <glyph glyph-name="Ncommaaccent" unicode="&#x145;" horiz-adv-x="745" 
d="M658 724v-724h-138l-325 569v-569h-108v724h147l317 -566v566h107zM367 -255l-82 12l42 175h114z" />
    <glyph glyph-name="ncommaaccent" unicode="&#x146;" horiz-adv-x="583" 
d="M517 352v-352h-115v333q0 51 -20 75t-65 24q-34 0 -71 -16.5t-60 -38.5v-377h-115v517h102l5 -54q82 65 179 65q83 0 121.5 -43t38.5 -133zM285 -255l-82 12l42 175h114z" />
    <glyph glyph-name="Ncaron" unicode="&#x147;" horiz-adv-x="745" 
d="M658 724v-724h-138l-325 569v-569h-108v724h147l317 -566v566h107zM227 904l83 7l79 -76l81 78l82 -9l-112 -133h-103z" />
    <glyph glyph-name="ncaron" unicode="&#x148;" horiz-adv-x="583" 
d="M517 352v-352h-115v333q0 51 -20 75t-65 24q-34 0 -71 -16.5t-60 -38.5v-377h-115v517h102l5 -54q82 65 179 65q83 0 121.5 -43t38.5 -133zM254 572l-109 164l85 6l81 -105l84 106l79 -7l-109 -164h-111z" />
    <glyph glyph-name="napostrophe" unicode="&#x149;" horiz-adv-x="593" 
d="M527 352v-352h-115v333q0 51 -20 75t-65 24q-34 0 -71 -16.5t-60 -38.5v-377h-115v517h102l5 -54q82 65 179 65q83 0 121.5 -43t38.5 -133zM42 499l-78 11l40 169h110z" />
    <glyph glyph-name="Eng" unicode="&#x14a;" horiz-adv-x="745" 
d="M658 724v-773q0 -85 -41 -129.5t-112 -44.5q-85 0 -135 24l17 101q51 -17 89 -17q29 0 42.5 16t13.5 57v43l-337 568v-569h-108v724h147l317 -531v531h107z" />
    <glyph glyph-name="eng" unicode="&#x14b;" horiz-adv-x="583" 
d="M354 -223q-70 0 -107 23l10 88q45 -17 78 -17q67 0 67 80v382q0 51 -20 75t-65 24q-34 0 -71 -16.5t-60 -38.5v-377h-115v517h102l5 -54q82 65 179 65q83 0 121.5 -43t38.5 -133v-408q0 -167 -163 -167z" />
    <glyph glyph-name="Omacron" unicode="&#x14c;" horiz-adv-x="760" 
d="M375 -12q-165 0 -248 101q-82 100 -82 271q0 168 90 272q90 105 255 105q162 0 243 -101q82 -100 82 -261q0 -181 -87 -284q-85 -103 -253 -103zM380 88q101 0 158 70t57 207q0 133 -54 201.5t-154 68.5q-103 0 -162 -70.5t-59 -202.5q0 -135 56 -204.5t158 -69.5z
M545 873v-83h-311v83h311z" />
    <glyph glyph-name="omacron" unicode="&#x14d;" horiz-adv-x="582" 
d="M287 -12q-244 0 -244 268q0 128 66.5 200t190.5 72q120 0 179.5 -68t59.5 -192q0 -135 -62.5 -207.5t-189.5 -72.5zM293 77q126 0 126 185q0 92 -29.5 132.5t-93.5 40.5q-133 0 -133 -175q0 -95 31.5 -139t98.5 -44zM446 699v-83h-299v83h299z" />
    <glyph glyph-name="Obreve" unicode="&#x14e;" horiz-adv-x="760" 
d="M375 -12q-165 0 -248 101q-82 100 -82 271q0 168 90 272q90 105 255 105q162 0 243 -101q82 -100 82 -261q0 -181 -87 -284q-85 -103 -253 -103zM380 88q101 0 158 70t57 207q0 133 -54 201.5t-154 68.5q-103 0 -162 -70.5t-59 -202.5q0 -135 56 -204.5t158 -69.5z
M391 850q36 0 55 16t26 54l79 -6q-15 -139 -164 -139q-141 0 -152 137l80 8q7 -38 24.5 -54t51.5 -16z" />
    <glyph glyph-name="obreve" unicode="&#x14f;" horiz-adv-x="582" 
d="M287 -12q-244 0 -244 268q0 128 66.5 200t190.5 72q120 0 179.5 -68t59.5 -192q0 -135 -62.5 -207.5t-189.5 -72.5zM293 77q126 0 126 185q0 92 -29.5 132.5t-93.5 40.5q-133 0 -133 -175q0 -95 31.5 -139t98.5 -44zM384 734l78 -6q-4 -77 -46.5 -117t-118.5 -40
q-149 0 -155 155l80 9q4 -48 22 -68.5t57 -20.5q40 0 59.5 20t23.5 68z" />
    <glyph glyph-name="Ohungarumlaut" unicode="&#x150;" horiz-adv-x="760" 
d="M375 -12q-165 0 -248 101q-82 100 -82 271q0 168 90 272q90 105 255 105q162 0 243 -101q82 -100 82 -261q0 -181 -87 -284q-85 -103 -253 -103zM380 88q101 0 158 70t57 207q0 133 -54 201.5t-154 68.5q-103 0 -162 -70.5t-59 -202.5q0 -135 56 -204.5t158 -69.5z
M329 914h126l-107 -147l-79 13zM503 918h130l-146 -151l-81 11z" />
    <glyph glyph-name="ohungarumlaut" unicode="&#x151;" horiz-adv-x="582" 
d="M287 -12q-244 0 -244 268q0 128 66.5 200t190.5 72q120 0 179.5 -68t59.5 -192q0 -135 -62.5 -207.5t-189.5 -72.5zM293 77q126 0 126 185q0 92 -29.5 132.5t-93.5 40.5q-133 0 -133 -175q0 -95 31.5 -139t98.5 -44zM240 745h125l-110 -173l-77 13zM412 748h130
l-144 -176l-80 10z" />
    <glyph glyph-name="OE" unicode="&#x152;" horiz-adv-x="1082" 
d="M1044 98v-98h-440v94q-76 -106 -229 -106q-165 0 -248 101q-82 100 -82 272q0 167 89 271q90 105 252 105q143 0 218 -96v83h425v-98h-320v-214h301v-97h-301v-217h335zM380 88q101 0 157.5 68.5t57.5 203.5q0 136 -54 205.5t-154 69.5q-104 0 -162.5 -70t-58.5 -203
q0 -136 56 -205t158 -69z" />
    <glyph glyph-name="oe" unicode="&#x153;" horiz-adv-x="915" 
d="M662 -12q-136 0 -189 98q-57 -98 -191 -98q-239 0 -239 268q0 128 65.5 200t186.5 72q126 0 184 -97q58 97 186 97q101 0 153 -61t52 -169q0 -38 -3 -68h-335q4 -148 130 -148q46 0 71 20.5t35 63.5l98 -24q-15 -72 -70 -113t-134 -41zM293 77q126 0 126 185
q0 92 -29.5 132.5t-93.5 40.5q-133 0 -133 -175q0 -95 31 -139t99 -44zM534 310h217q0 65 -24 96t-76 31q-50 0 -81.5 -32t-35.5 -95z" />
    <glyph glyph-name="Racute" unicode="&#x154;" horiz-adv-x="639" 
d="M451 321l173 -321h-127l-156 291h-138v-291h-116v724h262q125 0 180 -57q56 -56 56 -143q0 -150 -134 -203zM203 628v-243h113q73 0 110.5 30.5t37.5 100.5q0 61 -37 86.5t-114 25.5h-110zM322 915h130l-142 -148l-84 11z" />
    <glyph glyph-name="racute" unicode="&#x155;" horiz-adv-x="376" 
d="M367 527v-115q-48 6 -98 -9t-83 -44v-359h-115v517h97l9 -77q61 88 169 88q2 0 10 -0.5t11 -0.5zM248 746h130l-138 -174l-80 10z" />
    <glyph glyph-name="Rcommaaccent" unicode="&#x156;" horiz-adv-x="639" 
d="M451 321l173 -321h-127l-156 291h-138v-291h-116v724h262q125 0 180 -57q56 -56 56 -143q0 -150 -134 -203zM203 628v-243h113q73 0 110.5 30.5t37.5 100.5q0 61 -37 86.5t-114 25.5h-110zM326 -255l-82 12l42 175h114z" />
    <glyph glyph-name="rcommaaccent" unicode="&#x157;" horiz-adv-x="376" 
d="M367 527v-115q-48 6 -98 -9t-83 -44v-359h-115v517h97l9 -77q61 88 169 88q2 0 10 -0.5t11 -0.5zM124 -255l-82 12l42 175h114z" />
    <glyph glyph-name="Rcaron" unicode="&#x158;" horiz-adv-x="639" 
d="M451 321l173 -321h-127l-156 291h-138v-291h-116v724h262q125 0 180 -57q56 -56 56 -143q0 -150 -134 -203zM203 628v-243h113q73 0 110.5 30.5t37.5 100.5q0 61 -37 86.5t-114 25.5h-110zM143 904l83 7l79 -76l81 78l82 -9l-112 -133h-103z" />
    <glyph glyph-name="rcaron" unicode="&#x159;" horiz-adv-x="376" 
d="M367 527v-115q-48 6 -98 -9t-83 -44v-359h-115v517h97l9 -77q61 88 169 88q2 0 10 -0.5t11 -0.5zM169 572l-109 164l85 6l81 -105l84 106l79 -7l-109 -164h-111z" />
    <glyph glyph-name="Sacute" unicode="&#x15a;" horiz-adv-x="599" 
d="M306 642q-134 0 -134 -98q0 -35 21.5 -59.5t55.5 -38.5t75.5 -25.5t82.5 -26.5t75 -36t55.5 -59.5t21.5 -91.5q0 -111 -76 -165q-75 -54 -188 -54q-249 0 -270 215l108 16q15 -71 51.5 -104.5t112.5 -33.5q66 0 105.5 27t39.5 83q0 37 -21.5 61.5t-55.5 38t-75.5 24
t-82.5 25t-75 35t-55.5 60t-21.5 95.5q0 95 71 151t181 56q228 0 246 -208l-108 -13q-10 64 -41 95t-98 31zM324 915h130l-142 -148l-84 11z" />
    <glyph glyph-name="sacute" unicode="&#x15b;" horiz-adv-x="493" 
d="M252 528q163 0 196 -147l-100 -26q-10 46 -32 66.5t-66 20.5t-66.5 -16.5t-22.5 -44.5q0 -32 26 -48t86 -26q65 -12 102 -28q77 -29 82 -127q0 -78 -57.5 -121t-155.5 -43q-187 0 -211 146l98 32q13 -48 38 -70t79 -22q97 0 97 62q0 25 -15 40q-14 14 -30 19.5t-63 14.5
l-37 7l-36 10q-27 8 -36 13q-42 25 -54 46q-21 36 -21 82q0 77 56 118q57 42 143 42zM271 746h130l-138 -174l-80 10z" />
    <glyph glyph-name="Scircumflex" unicode="&#x15c;" horiz-adv-x="599" 
d="M306 642q-134 0 -134 -98q0 -35 21.5 -59.5t55.5 -38.5t75.5 -25.5t82.5 -26.5t75 -36t55.5 -59.5t21.5 -91.5q0 -111 -76 -165q-75 -54 -188 -54q-249 0 -270 215l108 16q15 -71 51.5 -104.5t112.5 -33.5q66 0 105.5 27t39.5 83q0 37 -21.5 61.5t-55.5 38t-75.5 24
t-82.5 25t-75 35t-55.5 60t-21.5 95.5q0 95 71 151t181 56q228 0 246 -208l-108 -13q-10 64 -41 95t-98 31zM470 776l-83 -7l-79 76l-81 -78l-82 9l112 133h103z" />
    <glyph glyph-name="scircumflex" unicode="&#x15d;" horiz-adv-x="493" 
d="M252 528q163 0 196 -147l-100 -26q-10 46 -32 66.5t-66 20.5t-66.5 -16.5t-22.5 -44.5q0 -32 26 -48t86 -26q65 -12 102 -28q77 -29 82 -127q0 -78 -57.5 -121t-155.5 -43q-187 0 -211 146l98 32q13 -48 38 -70t79 -22q97 0 97 62q0 25 -15 40q-14 14 -30 19.5t-63 14.5
l-37 7l-36 10q-27 8 -36 13q-42 25 -54 46q-21 36 -21 82q0 77 56 118q57 42 143 42zM307 747l109 -165l-81 -5l-83 105l-83 -107l-82 7l109 165h111z" />
    <glyph glyph-name="Scedilla" unicode="&#x15e;" horiz-adv-x="599" 
d="M205 -214l17 59q27 -11 52 -11q50 0 50 41q0 23 -16.5 32.5t-53.5 10.5l10 71q-219 14 -239 214l108 16q15 -71 51.5 -104.5t112.5 -33.5q66 0 105.5 27t39.5 83q0 37 -21.5 61.5t-55.5 38t-75.5 24t-82.5 25t-75 35t-55.5 60t-21.5 95.5q0 95 71 151t181 56
q228 0 246 -208l-108 -13q-10 64 -41 95t-98 31q-134 0 -134 -98q0 -35 21.5 -59.5t55.5 -38.5t75.5 -25.5t82.5 -26.5t75 -36t55.5 -59.5t21.5 -91.5q0 -99 -62.5 -154t-168.5 -64l-4 -27q81 -15 81 -89q0 -48 -33 -76.5t-85 -28.5q-44 0 -82 18z" />
    <glyph glyph-name="scedilla" unicode="&#x15f;" horiz-adv-x="493" 
d="M150 -214l17 59q27 -11 52 -11q50 0 50 41q0 23 -16.5 32.5t-53.5 10.5l10 72q-155 14 -176 144l98 32q13 -48 38 -70t79 -22q97 0 97 62q0 25 -15 40q-14 14 -30 19.5t-63 14.5l-37 7l-36 10q-27 8 -36 13q-42 25 -54 46q-21 36 -21 82q0 77 56 118q57 42 143 42
q163 0 196 -147l-100 -26q-10 46 -32 66.5t-66 20.5t-66.5 -16.5t-22.5 -44.5q0 -32 26 -48t86 -26q65 -12 102 -28q77 -29 82 -127q0 -72 -49 -114.5t-135 -48.5l-4 -27q81 -15 81 -89q0 -48 -33 -76.5t-85 -28.5q-44 0 -82 18z" />
    <glyph glyph-name="Scaron" unicode="&#x160;" horiz-adv-x="599" 
d="M306 642q-134 0 -134 -98q0 -35 21.5 -59.5t55.5 -38.5t75.5 -25.5t82.5 -26.5t75 -36t55.5 -59.5t21.5 -91.5q0 -111 -76 -165q-75 -54 -188 -54q-249 0 -270 215l108 16q15 -71 51.5 -104.5t112.5 -33.5q66 0 105.5 27t39.5 83q0 37 -21.5 61.5t-55.5 38t-75.5 24
t-82.5 25t-75 35t-55.5 60t-21.5 95.5q0 95 71 151t181 56q228 0 246 -208l-108 -13q-10 64 -41 95t-98 31zM145 904l83 7l79 -76l81 78l82 -9l-112 -133h-103z" />
    <glyph glyph-name="scaron" unicode="&#x161;" horiz-adv-x="493" 
d="M252 528q163 0 196 -147l-100 -26q-10 46 -32 66.5t-66 20.5t-66.5 -16.5t-22.5 -44.5q0 -32 26 -48t86 -26q65 -12 102 -28q77 -29 82 -127q0 -78 -57.5 -121t-155.5 -43q-187 0 -211 146l98 32q13 -48 38 -70t79 -22q97 0 97 62q0 25 -15 40q-14 14 -30 19.5t-63 14.5
l-37 7l-36 10q-27 8 -36 13q-42 25 -54 46q-21 36 -21 82q0 77 56 118q57 42 143 42zM196 572l-109 164l85 6l81 -105l84 106l79 -7l-109 -164h-111z" />
    <glyph glyph-name="uni0162" unicode="&#x162;" horiz-adv-x="571" 
d="M193 -214l17 59q27 -11 52 -11q50 0 50 41q0 23 -16.5 32.5t-53.5 10.5l11 82h-25v626h-217v98h549v-98h-215v-626h-28l-5 -38q81 -15 81 -89q0 -48 -33 -76.5t-85 -28.5q-45 0 -82 18z" />
    <glyph glyph-name="uni0163" unicode="&#x163;" horiz-adv-x="392" 
d="M132 -214l17 59q27 -11 52 -11q50 0 50 41q0 23 -16.5 32.5t-53.5 10.5l11 76q-100 21 -100 150v288h-79v85h79v151l115 16v-167h140v-85h-140v-272q0 -42 15 -60t54 -18q46 0 88 24l19 -82q-53 -33 -128 -36l-4 -26q81 -15 81 -89q0 -48 -33 -76.5t-85 -28.5
q-44 0 -82 18z" />
    <glyph glyph-name="Tcaron" unicode="&#x164;" horiz-adv-x="571" 
d="M345 626v-626h-117v626h-217v98h549v-98h-215zM123 904l83 7l79 -76l81 78l82 -9l-112 -133h-103z" />
    <glyph glyph-name="tcaron" unicode="&#x165;" horiz-adv-x="392" 
d="M364 106l19 -82q-55 -36 -137 -36q-78 0 -116 38t-38 118v288h-79v85h79v151l115 16v-167h140v-85h-140v-272q0 -42 15 -60t54 -18q46 0 88 24zM338 562l-82 9l33 192h112z" />
    <glyph glyph-name="Tbar" unicode="&#x166;" horiz-adv-x="571" 
d="M345 315v-315h-117v315h-138v89h138v222h-217v98h549v-98h-215v-222h136v-89h-136z" />
    <glyph glyph-name="tbar" unicode="&#x167;" horiz-adv-x="392" 
d="M364 106l19 -82q-55 -36 -137 -36q-78 0 -116 38t-38 118v100h-79v84h79v104h-79v85h79v151l115 16v-167h140v-85h-140v-104h140v-84h-140v-84q0 -42 15 -60t54 -18q46 0 88 24z" />
    <glyph glyph-name="Utilde" unicode="&#x168;" horiz-adv-x="711" 
d="M280 915q33 0 82 -23q47 -22 68 -22q19 0 26.5 10.5t7.5 37.5l64 -3q7 -61 -16.5 -95t-70.5 -34q-37 0 -85 22q-51 23 -68 23q-38 0 -33 -51l-66 3q-8 61 18 96.5t73 35.5zM514 262v462h117v-474q0 -130 -72 -196t-208 -66q-140 0 -205.5 64.5t-65.5 200.5v471h117v-459
q0 -94 38 -136.5t122 -42.5t120.5 40t36.5 136z" />
    <glyph glyph-name="utilde" unicode="&#x169;" horiz-adv-x="580" 
d="M70 164v353h115v-333q0 -52 18.5 -75t62.5 -23q33 0 70 16t60 38v377h115v-517h-100l-8 57q-76 -68 -177 -68q-156 0 -156 175zM215 722q33 0 82 -23q47 -22 68 -22q19 0 26.5 10t7.5 39l64 -4q7 -61 -16.5 -95t-70.5 -34q-34 0 -85 23t-68 23q-37 0 -33 -52l-66 3
q-7 61 18.5 96.5t72.5 35.5z" />
    <glyph glyph-name="Umacron" unicode="&#x16a;" horiz-adv-x="711" 
d="M514 262v462h117v-474q0 -130 -72 -196t-208 -66q-140 0 -205.5 64.5t-65.5 200.5v471h117v-459q0 -94 38 -136.5t122 -42.5t120.5 40t36.5 136zM512 873v-83h-311v83h311z" />
    <glyph glyph-name="umacron" unicode="&#x16b;" horiz-adv-x="580" 
d="M70 164v353h115v-333q0 -52 18.5 -75t62.5 -23q33 0 70 16t60 38v377h115v-517h-100l-8 57q-76 -68 -177 -68q-156 0 -156 175zM441 699v-83h-299v83h299z" />
    <glyph glyph-name="Ubreve" unicode="&#x16c;" horiz-adv-x="711" 
d="M514 262v462h117v-474q0 -130 -72 -196t-208 -66q-140 0 -205.5 64.5t-65.5 200.5v471h117v-459q0 -94 38 -136.5t122 -42.5t120.5 40t36.5 136zM358 850q36 0 55 16t26 54l79 -6q-15 -139 -164 -139q-141 0 -152 137l80 8q7 -38 24.5 -54t51.5 -16z" />
    <glyph glyph-name="ubreve" unicode="&#x16d;" horiz-adv-x="580" 
d="M70 164v353h115v-333q0 -52 18.5 -75t62.5 -23q33 0 70 16t60 38v377h115v-517h-100l-8 57q-76 -68 -177 -68q-156 0 -156 175zM379 734l78 -6q-4 -77 -46.5 -117t-118.5 -40q-149 0 -155 155l80 9q4 -48 22 -68.5t57 -20.5q40 0 59.5 20t23.5 68z" />
    <glyph glyph-name="Uring" unicode="&#x16e;" horiz-adv-x="711" 
d="M246 830q0 50 30.5 78t79.5 28q48 0 79 -27q31 -25 31 -75q0 -48 -30 -77q-30 -27 -80 -27q-51 0 -80.5 26.5t-29.5 73.5zM355 784q49 0 49 51q0 48 -48 48q-24 0 -37.5 -13t-13.5 -37q0 -49 50 -49zM514 262v462h117v-474q0 -130 -72 -196t-208 -66q-140 0 -205.5 64.5
t-65.5 200.5v471h117v-459q0 -94 38 -136.5t122 -42.5t120.5 40t36.5 136z" />
    <glyph glyph-name="uring" unicode="&#x16f;" horiz-adv-x="580" 
d="M70 164v353h115v-333q0 -52 18.5 -75t62.5 -23q33 0 70 16t60 38v377h115v-517h-100l-8 57q-76 -68 -177 -68q-156 0 -156 175zM401 674q0 -48 -29 -75t-80 -27q-49 0 -79 26.5t-30 71.5q0 49 31 77.5t78 28.5q49 0 79 -26.5t30 -75.5zM338 674q0 46 -46 46
q-48 0 -48 -47t47 -47t47 48z" />
    <glyph glyph-name="Uhungarumlaut" unicode="&#x170;" horiz-adv-x="711" 
d="M514 262v462h117v-474q0 -130 -72 -196t-208 -66q-140 0 -205.5 64.5t-65.5 200.5v471h117v-459q0 -94 38 -136.5t122 -42.5t120.5 40t36.5 136zM296 914h126l-107 -147l-79 13zM470 918h130l-146 -151l-81 11z" />
    <glyph glyph-name="uhungarumlaut" unicode="&#x171;" horiz-adv-x="580" 
d="M70 164v353h115v-333q0 -52 18.5 -75t62.5 -23q33 0 70 16t60 38v377h115v-517h-100l-8 57q-76 -68 -177 -68q-156 0 -156 175zM235 745h125l-110 -173l-77 13zM407 748h130l-144 -176l-80 10z" />
    <glyph glyph-name="Uogonek" unicode="&#x172;" horiz-adv-x="711" 
d="M493 -117l55 -27q-16 -41 -50 -64.5t-77 -23.5q-50 0 -78 24t-28 67q0 68 74 131q-32 -2 -38 -2q-140 0 -205.5 64.5t-65.5 200.5v471h117v-459q0 -94 38 -136.5t122 -42.5t120.5 40t36.5 136v462h117v-474q0 -84 -30 -140t-91 -97q-103 -70 -103 -134q0 -37 35 -37
q30 0 51 41z" />
    <glyph glyph-name="uogonek" unicode="&#x173;" horiz-adv-x="580" 
d="M501 -117l55 -27q-16 -41 -50 -64.5t-77 -23.5q-50 0 -78 24t-28 67q0 75 88 141l-8 57q-76 -68 -177 -68q-156 0 -156 175v353h115v-333q0 -52 18.5 -75t62.5 -23q33 0 70 16t60 38v377h115v-517q-52 -37 -74 -64t-22 -57q0 -37 35 -37q30 0 51 41z" />
    <glyph glyph-name="Wcircumflex" unicode="&#x174;" horiz-adv-x="919" 
d="M905 724l-153 -724h-149l-140 557h-2l-141 -557h-149l-158 724h123l115 -594h2l147 594h127l150 -599h2l109 599h117zM626 776l-83 -7l-79 76l-81 -78l-82 9l112 133h103z" />
    <glyph glyph-name="wcircumflex" unicode="&#x175;" horiz-adv-x="781" 
d="M390 379l-93 -379h-137l-158 517h116l113 -398h1l104 398h116l104 -396h1l110 396h112l-158 -517h-132l-97 379h-2zM448 747l109 -165l-81 -5l-83 105l-83 -107l-82 7l109 165h111z" />
    <glyph glyph-name="Ycircumflex" unicode="&#x176;" horiz-adv-x="582" 
d="M592 724l-237 -445l1 -279h-118v277l-248 447h128l180 -336h2l174 336h118zM455 776l-83 -7l-79 76l-81 -78l-82 9l112 133h103z" />
    <glyph glyph-name="ycircumflex" unicode="&#x177;" horiz-adv-x="502" 
d="M176 -62l21 54l-194 525h124l127 -388h1l127 388h118l-216 -583q-32 -87 -72 -122t-108 -35q-61 0 -104 20l11 86q42 -16 81 -16q55 0 84 71zM310 747l109 -165l-81 -5l-83 105l-83 -107l-82 7l109 165h111z" />
    <glyph glyph-name="Ydieresis" unicode="&#x178;" horiz-adv-x="582" 
d="M592 724l-237 -445l1 -279h-118v277l-248 447h128l180 -336h2l174 336h118zM256 848q0 -33 -20 -51.5t-53 -18.5t-53.5 18.5t-20.5 51.5q0 32 20.5 51t53.5 19t53 -19t20 -51zM476 848q0 -33 -20 -51.5t-53 -18.5q-34 0 -54 18.5t-20 51.5q0 32 20 51t54 19q33 0 53 -19
t20 -51z" />
    <glyph glyph-name="Zacute" unicode="&#x179;" horiz-adv-x="589" 
d="M538 724v-87l-365 -539h380v-98h-522v84l369 542h-359v98h497zM301 915h130l-142 -148l-84 11z" />
    <glyph glyph-name="zacute" unicode="&#x17a;" horiz-adv-x="462" 
d="M426 517v-83l-267 -340h279v-94h-409v82l269 345h-265v90h393zM256 746h130l-138 -174l-80 10z" />
    <glyph glyph-name="Zdotaccent" unicode="&#x17b;" horiz-adv-x="589" 
d="M538 724v-87l-365 -539h380v-98h-522v84l369 542h-359v98h497zM284 778q-36 0 -55.5 20t-19.5 56t19.5 55.5t55.5 19.5q35 0 55 -19.5t20 -55.5t-20 -56t-55 -20z" />
    <glyph glyph-name="zdotaccent" unicode="&#x17c;" horiz-adv-x="462" 
d="M426 517v-83l-267 -340h279v-94h-409v82l269 345h-265v90h393zM231 604q-36 0 -55.5 19.5t-19.5 56.5q0 36 19.5 55.5t55.5 19.5q35 0 55 -19.5t20 -55.5t-20 -56t-55 -20z" />
    <glyph glyph-name="Zcaron" unicode="&#x17d;" horiz-adv-x="589" 
d="M538 724v-87l-365 -539h380v-98h-522v84l369 542h-359v98h497zM122 904l83 7l79 -76l81 78l82 -9l-112 -133h-103z" />
    <glyph glyph-name="zcaron" unicode="&#x17e;" horiz-adv-x="462" 
d="M426 517v-83l-267 -340h279v-94h-409v82l269 345h-265v90h393zM175 572l-109 164l85 6l81 -105l84 106l79 -7l-109 -164h-111z" />
    <glyph glyph-name="longs" unicode="&#x17f;" horiz-adv-x="291" 
d="M341 747l-4 -83q-36 13 -71 13q-41 0 -60.5 -20t-19.5 -69v-588h-115v591q0 86 43.5 130t124.5 44q65 0 102 -18z" />
    <glyph glyph-name="florin" unicode="&#x192;" horiz-adv-x="552" 
d="M571 621l-94 -34q-10 34 -25 49.5t-40 15.5q-31 0 -48.5 -17.5t-25.5 -58.5l-25 -130h138l-14 -80h-137l-75 -381q-17 -88 -59.5 -126.5t-123.5 -38.5q-123 0 -156 115l94 35q19 -64 69 -64q30 0 46 17t24 58l74 385h-86l14 80h87l25 126q17 87 60 126t124 39
q118 0 154 -116z" />
    <glyph glyph-name="Aringacute" unicode="&#x1fa;" horiz-adv-x="696" 
d="M459 801q0 -57 -39 -87l251 -714h-128l-68 198h-263l-66 -198h-119l238 716q-36 28 -36 81q0 52 32 81.5t83 29.5q52 0 83.5 -28t31.5 -79zM235 296h213l-105 320h-2zM350 1082h130l-142 -148l-84 11zM343 749q52 0 52 54q0 50 -51 50q-24 0 -38.5 -14.5t-14.5 -38.5
t14 -37.5t38 -13.5z" />
    <glyph glyph-name="aringacute" unicode="&#x1fb;" horiz-adv-x="550" 
d="M466 348v-239q0 -22 6.5 -31t24.5 -9q11 0 31 6l4 -68q-36 -17 -81 -17q-74 0 -87 61q-58 -63 -164 -63q-93 0 -126 51q-27 42 -27 88q0 91 66.5 134.5t186.5 43.5q15 0 53 -2v39q0 54 -19 76.5t-71 22.5q-44 0 -65 -18t-30 -62l-101 18q26 149 205 149
q101 0 147.5 -42.5t46.5 -137.5zM354 122v102q-26 2 -48 2q-142 0 -142 -83q0 -69 77 -69q67 0 113 48zM380 667q0 -48 -29 -75t-80 -27q-49 0 -79 26.5t-30 71.5q0 49 31 77.5t78 28.5q49 0 79 -26.5t30 -75.5zM317 667q0 46 -46 46q-48 0 -48 -47t47 -47t47 48zM286 944
h130l-142 -148l-84 11z" />
    <glyph glyph-name="AEacute" unicode="&#x1fc;" horiz-adv-x="1001" 
d="M922 307h-301v-209h335v-98h-453v305h-201l-159 -305h-120l378 724h540v-98h-320v-223h301v-96zM341 400h162v226h-41zM685 915h130l-142 -148l-84 11z" />
    <glyph glyph-name="aeacute" unicode="&#x1fd;" horiz-adv-x="851" 
d="M591 -12q-129 0 -188 78q-75 -78 -201 -78q-92 0 -127 51q-28 43 -28 89q0 91 63 133t187 45q16 0 56 -2v34q0 55 -19.5 79t-71.5 24q-45 0 -67.5 -19t-29.5 -61l-98 18q23 149 198 149q64 0 100.5 -18.5t57.5 -61.5q63 80 180 80q100 0 151.5 -61.5t51.5 -169.5
q0 -39 -3 -68h-335q2 -79 34 -112.5t96 -33.5q87 0 107 83l99 -23q-16 -73 -72 -114t-141 -41zM242 73q76 0 129 56q-15 41 -18 101h-48q-141 -2 -141 -87q0 -70 78 -70zM470 309h217q3 129 -100 129q-50 0 -83 -34t-34 -95zM443 746h130l-138 -174l-80 10z" />
    <glyph glyph-name="Oslashacute" unicode="&#x1fe;" horiz-adv-x="760" 
d="M375 -12q-48 0 -90 9l-28 -69h-113l45 107q-144 90 -144 325q0 168 90 272q90 105 255 105q44 0 87 -10l28 67h112l-44 -106q70 -44 106 -125.5t36 -187.5q0 -181 -87 -284q-85 -103 -253 -103zM380 88q101 0 158 70t57 207q0 147 -67 215l-202 -486q26 -6 54 -6z
M166 362q0 -147 68 -218l202 486q-28 5 -49 5q-103 0 -162 -70.5t-59 -202.5zM396 915h130l-142 -148l-84 11z" />
    <glyph glyph-name="oslashacute" unicode="&#x1ff;" horiz-adv-x="582" 
d="M287 -12q-35 0 -65 6l-29 -66h-106l45 102q-89 65 -89 226q0 128 66.5 200t190.5 72q32 0 51 -4l27 62h105l-42 -94q98 -62 98 -224q0 -135 -62.5 -207.5t-189.5 -72.5zM293 77q126 0 126 185q0 84 -24 124l-135 -306q15 -3 33 -3zM163 260q0 -76 19 -117l129 291
q-2 0 -8 0.5t-7 0.5q-133 0 -133 -175zM295 746h130l-138 -174l-80 10z" />
    <glyph glyph-name="Scommaaccent" unicode="&#x218;" horiz-adv-x="599" 
d="M306 642q-134 0 -134 -98q0 -35 21.5 -59.5t55.5 -38.5t75.5 -25.5t82.5 -26.5t75 -36t55.5 -59.5t21.5 -91.5q0 -111 -76 -165q-75 -54 -188 -54q-249 0 -270 215l108 16q15 -71 51.5 -104.5t112.5 -33.5q66 0 105.5 27t39.5 83q0 37 -21.5 61.5t-55.5 38t-75.5 24
t-82.5 25t-75 35t-55.5 60t-21.5 95.5q0 95 71 151t181 56q228 0 246 -208l-108 -13q-10 64 -41 95t-98 31zM292 -255l-82 12l42 175h114z" />
    <glyph glyph-name="scommaaccent" unicode="&#x219;" horiz-adv-x="493" 
d="M252 528q163 0 196 -147l-100 -26q-10 46 -32 66.5t-66 20.5t-66.5 -16.5t-22.5 -44.5q0 -32 26 -48t86 -26q65 -12 102 -28q77 -29 82 -127q0 -78 -57.5 -121t-155.5 -43q-187 0 -211 146l98 32q13 -48 38 -70t79 -22q97 0 97 62q0 25 -15 40q-14 14 -30 19.5t-63 14.5
l-37 7l-36 10q-27 8 -36 13q-42 25 -54 46q-21 36 -21 82q0 77 56 118q57 42 143 42zM241 -255l-82 12l42 175h114z" />
    <glyph glyph-name="uni021A" unicode="&#x21a;" horiz-adv-x="571" 
d="M345 626v-626h-117v626h-217v98h549v-98h-215zM277 -255l-82 12l42 175h114z" />
    <glyph glyph-name="uni021B" unicode="&#x21b;" horiz-adv-x="392" 
d="M364 106l19 -82q-55 -36 -137 -36q-78 0 -116 38t-38 118v288h-79v85h79v151l115 16v-167h140v-85h-140v-272q0 -42 15 -60t54 -18q46 0 88 24zM218 -255l-82 12l42 175h114z" />
    <glyph glyph-name="dotlessj" unicode="&#x237;" horiz-adv-x="255" 
d="M25 -223q-70 0 -107 23l10 88q43 -17 78 -17q67 0 67 80v566h115v-573q0 -167 -163 -167z" />
    <glyph glyph-name="apostrophe" unicode="&#x2bc;" horiz-adv-x="500" 
d="M249 516l-82 12l42 175h114z" />
    <glyph glyph-name="circumflex" unicode="&#x2c6;" horiz-adv-x="500" 
d="M305 747l109 -165l-81 -5l-83 105l-83 -107l-82 7l109 165h111z" />
    <glyph glyph-name="caron" unicode="&#x2c7;" horiz-adv-x="500" 
d="M194 572l-109 164l85 6l81 -105l84 106l79 -7l-109 -164h-111z" />
    <glyph glyph-name="uni02C9" unicode="&#x2c9;" horiz-adv-x="500" 
d="M398 693v-83h-299v83h299z" />
    <glyph glyph-name="breve" unicode="&#x2d8;" horiz-adv-x="500" 
d="M337 734l78 -6q-4 -77 -46.5 -117t-118.5 -40q-149 0 -155 155l80 9q4 -48 22 -68.5t57 -20.5q40 0 59.5 20t23.5 68z" />
    <glyph glyph-name="dotaccent" unicode="&#x2d9;" horiz-adv-x="500" 
d="M175 680q0 36 19.5 55.5t55.5 19.5q35 0 55 -20t20 -55q0 -36 -20 -56t-55 -20q-36 0 -55.5 19.5t-19.5 56.5z" />
    <glyph glyph-name="ring" unicode="&#x2da;" horiz-adv-x="500" 
d="M359 674q0 -48 -29 -75t-80 -27q-49 0 -79 26.5t-30 71.5q0 49 31 77.5t78 28.5q49 0 79 -26.5t30 -75.5zM296 674q0 46 -46 46q-48 0 -48 -47t47 -47t47 48z" />
    <glyph glyph-name="ogonek" unicode="&#x2db;" horiz-adv-x="500" 
d="M319 -117l55 -27q-16 -41 -50 -64.5t-77 -23.5q-50 0 -78 24t-28 67q0 82 118 163l63 -15l-48 -46q-41 -43 -41 -82q0 -37 35 -37q30 0 51 41z" />
    <glyph glyph-name="tilde" unicode="&#x2dc;" horiz-adv-x="500" 
d="M180 722q33 0 82 -23q47 -22 68 -22q19 0 26.5 10t7.5 39l64 -4q7 -61 -16.5 -95t-70.5 -34q-34 0 -85 23t-68 23q-37 0 -33 -52l-66 3q-7 61 18.5 96.5t72.5 35.5z" />
    <glyph glyph-name="hungarumlaut" unicode="&#x2dd;" horiz-adv-x="500" 
d="M193 745h125l-110 -173l-77 13zM365 748h130l-144 -176l-80 10z" />
    <glyph glyph-name="uni0394" unicode="&#x394;" horiz-adv-x="688" 
d="M412 724l258 -724h-652l253 724h141zM336 608h-4l-173 -511h345z" />
    <glyph glyph-name="uni03A9" unicode="&#x3a9;" horiz-adv-x="829" 
d="M563 132v-34h181v-98h-266v180q65 26 113 83q49 56 49 154q0 110 -55.5 165.5t-158.5 55.5t-162.5 -61t-59.5 -174q0 -159 153 -223v-180h-268v98h182v34q-90 34 -138.5 106t-48.5 171q0 147 93 237q92 91 251 91q163 0 247 -80.5t84 -226.5q0 -104 -55 -180
q-57 -78 -141 -118z" />
    <glyph glyph-name="uni03BC" unicode="&#x3bc;" horiz-adv-x="629" 
d="M211 -176h-118v693h115v-333q0 -55 15.5 -78t55.5 -23q69 0 135 68v366h115v-517h-98l-4 62h-2q-75 -69 -153 -69q-36 0 -68 16l-2 -1z" />
    <glyph glyph-name="pi" unicode="&#x3c0;" horiz-adv-x="668" 
d="M117 517h432v-517h-115v422h-202v-422h-115v517z" />
    <glyph glyph-name="Wgrave" unicode="&#x1e80;" horiz-adv-x="919" 
d="M905 724l-153 -724h-149l-140 557h-2l-141 -557h-149l-158 724h123l115 -594h2l147 594h127l150 -599h2l109 599h117zM542 778l-84 -11l-142 148h131z" />
    <glyph glyph-name="wgrave" unicode="&#x1e81;" horiz-adv-x="781" 
d="M390 379l-93 -379h-137l-158 517h116l113 -398h1l104 398h116l104 -396h1l110 396h112l-158 -517h-132l-97 379h-2zM483 582l-80 -10l-138 174h130z" />
    <glyph glyph-name="Wacute" unicode="&#x1e82;" horiz-adv-x="919" 
d="M905 724l-153 -724h-149l-140 557h-2l-141 -557h-149l-158 724h123l115 -594h2l147 594h127l150 -599h2l109 599h117zM480 915h130l-142 -148l-84 11z" />
    <glyph glyph-name="wacute" unicode="&#x1e83;" horiz-adv-x="781" 
d="M390 379l-93 -379h-137l-158 517h116l113 -398h1l104 398h116l104 -396h1l110 396h112l-158 -517h-132l-97 379h-2zM398 746h130l-138 -174l-80 10z" />
    <glyph glyph-name="Wdieresis" unicode="&#x1e84;" horiz-adv-x="919" 
d="M905 724l-153 -724h-149l-140 557h-2l-141 -557h-149l-158 724h123l115 -594h2l147 594h127l150 -599h2l109 599h117zM427 848q0 -33 -20 -51.5t-53 -18.5t-53.5 18.5t-20.5 51.5q0 32 20.5 51t53.5 19t53 -19t20 -51zM647 848q0 -33 -20 -51.5t-53 -18.5q-34 0 -54 18.5
t-20 51.5q0 32 20 51t54 19q33 0 53 -19t20 -51z" />
    <glyph glyph-name="wdieresis" unicode="&#x1e85;" horiz-adv-x="781" 
d="M390 379l-93 -379h-137l-158 517h116l113 -398h1l104 398h116l104 -396h1l110 396h112l-158 -517h-132l-97 379h-2zM357 675q0 -33 -20 -52t-53 -19t-53.5 19t-20.5 52q0 31 20.5 50.5t53.5 19.5q32 0 52.5 -19.5t20.5 -50.5zM577 675q0 -33 -20 -52t-53 -19
q-34 0 -54 19t-20 52q0 32 20 51t54 19q32 0 52.5 -19.5t20.5 -50.5z" />
    <glyph glyph-name="Ygrave" unicode="&#x1ef2;" horiz-adv-x="582" 
d="M592 724l-237 -445l1 -279h-118v277l-248 447h128l180 -336h2l174 336h118zM371 778l-84 -11l-142 148h131z" />
    <glyph glyph-name="ygrave" unicode="&#x1ef3;" horiz-adv-x="502" 
d="M176 -62l21 54l-194 525h124l127 -388h1l127 388h118l-216 -583q-32 -87 -72 -122t-108 -35q-61 0 -104 20l11 86q42 -16 81 -16q55 0 84 71zM328 582l-80 -10l-138 174h130z" />
    <glyph glyph-name="thinspace" unicode="&#x2009;" horiz-adv-x="125" 
 />
    <glyph glyph-name="endash" unicode="&#x2013;" horiz-adv-x="500" 
d="M499 325v-87h-499v87h499z" />
    <glyph glyph-name="emdash" unicode="&#x2014;" horiz-adv-x="1000" 
d="M999 325v-87h-999v87h999z" />
    <glyph glyph-name="quoteleft" unicode="&#x2018;" horiz-adv-x="215" 
d="M116 784l86 -10l-53 -224h-117z" />
    <glyph glyph-name="quoteright" unicode="&#x2019;" horiz-adv-x="215" 
d="M115 536l-86 10l53 224h117z" />
    <glyph glyph-name="quotesinglbase" unicode="&#x201a;" horiz-adv-x="202" 
d="M91 -143l-86 10l53 224h117z" />
    <glyph glyph-name="quotedblleft" unicode="&#x201c;" horiz-adv-x="381" 
d="M282 784l86 -10l-53 -224h-117zM116 784l86 -10l-53 -224h-117z" />
    <glyph glyph-name="quotedblright" unicode="&#x201d;" horiz-adv-x="381" 
d="M281 536l-86 10l53 224h117zM115 536l-86 10l53 224h117z" />
    <glyph glyph-name="quotedblbase" unicode="&#x201e;" horiz-adv-x="368" 
d="M91 -143l-86 10l53 224h117zM257 -143l-86 10l53 224h117z" />
    <glyph glyph-name="dagger" unicode="&#x2020;" horiz-adv-x="419" 
d="M399 563v-97l-154 13l20 -562h-111l15 561l-149 -12v97l149 -13l-12 174h105l-13 -173z" />
    <glyph glyph-name="daggerdbl" unicode="&#x2021;" horiz-adv-x="431" 
d="M405 563v-97l-153 11l2 -314l151 12v-97l-149 13l12 -174h-105l13 173l-150 -12v97l150 -11l-1 314l-149 -12v97l149 -13l-12 174h105l-13 -173z" />
    <glyph glyph-name="bullet" unicode="&#x2022;" horiz-adv-x="419" 
d="M352 280q0 -69 -36.5 -104.5t-106.5 -35.5q-69 0 -105.5 35.5t-36.5 104.5q0 139 142 139q143 0 143 -139z" />
    <glyph glyph-name="ellipsis" unicode="&#x2026;" horiz-adv-x="676" 
d="M414 63q0 -75 -78 -75t-78 75q0 76 78 76t78 -76zM200 63q0 -75 -78 -75t-78 75q0 76 78 76t78 -76zM632 63q0 -75 -78 -75t-78 75q0 76 78 76t78 -76z" />
    <glyph glyph-name="perthousand" unicode="&#x2030;" horiz-adv-x="1032" 
d="M187 412q-145 0 -145 158q0 79 40 123t112 44q145 0 145 -158q0 -78 -40 -122.5t-112 -44.5zM616 724l-438 -739h-104l439 739h103zM190 478q63 0 63 99q0 47 -14 70t-47 23q-63 0 -63 -95q0 -49 14 -73t47 -24zM507 -12q-145 0 -145 158q0 79 40 123t112 44
q145 0 145 -158q0 -78 -40 -122.5t-112 -44.5zM573 153q0 47 -14 70t-47 23q-63 0 -63 -95q0 -97 62 -97t62 99zM838 -12q-145 0 -145 158q0 79 40 123t112 44q145 0 145 -158q0 -78 -40 -122.5t-112 -44.5zM904 153q0 47 -14 70t-47 23q-63 0 -63 -95q0 -97 62 -97t62 99z
" />
    <glyph glyph-name="guilsinglleft" unicode="&#x2039;" horiz-adv-x="279" 
d="M150 261l83 -158h-97l-87 155l89 150h98z" />
    <glyph glyph-name="guilsinglright" unicode="&#x203a;" horiz-adv-x="279" 
d="M127 254l-85 154h98l88 -154l-87 -151h-98z" />
    <glyph glyph-name="fraction" unicode="&#x2044;" horiz-adv-x="163" 
d="M306 724l-354 -736h-107l356 736h105z" />
    <glyph glyph-name="zerosuperior" unicode="&#x2070;" horiz-adv-x="416" 
d="M206 342q-89 0 -129 57t-40 176q0 230 175 230q90 0 128.5 -54.5t38.5 -171.5q0 -122 -41 -179.5t-132 -57.5zM272 576q0 85 -13 117.5t-49 32.5q-39 0 -52 -34q-13 -32 -13 -118q0 -87 13 -120q13 -34 50 -34q36 0 50 34.5t14 121.5z" />
    <glyph glyph-name="foursuperior" unicode="&#x2074;" horiz-adv-x="404" 
d="M332 447v-98h-100v98h-208v70l183 280h125v-271h52v-79h-52zM233 709l-120 -183h120v183z" />
    <glyph glyph-name="fivesuperior" unicode="&#x2075;" horiz-adv-x="399" 
d="M122 534l-67 23l17 240h249v-83h-176l-12 -106v-7q38 34 92 34q57 0 90.5 -35t33.5 -102q0 -72 -46.5 -114t-122.5 -42q-138 0 -155 116l89 17q7 -57 65 -57q31 0 49.5 20t18.5 56q0 67 -60 67q-33 0 -65 -27z" />
    <glyph glyph-name="sixsuperior" unicode="&#x2076;" horiz-adv-x="421" 
d="M377 697l-90 -20q-5 29 -17.5 41.5t-34.5 12.5q-40 0 -61 -39.5t-21 -110.5q37 42 104 42q56 0 89 -32.5t33 -94.5q0 -75 -43.5 -114.5t-118.5 -39.5q-162 0 -162 220q0 87 36 160q44 83 151 83q114 0 135 -108zM157 522q2 -54 16 -79.5t48 -25.5q56 0 56 71q0 67 -51 67
q-40 0 -69 -33z" />
    <glyph glyph-name="sevensuperior" unicode="&#x2077;" horiz-adv-x="365" 
d="M342 722l-177 -373h-108l178 365h-202v83h309v-75z" />
    <glyph glyph-name="eightsuperior" unicode="&#x2078;" horiz-adv-x="403" 
d="M279 595q49 -20 72 -47t23 -73q0 -56 -49 -95q-49 -38 -129 -38q-78 0 -121.5 31.5t-43.5 85.5q0 77 94 116q-77 30 -77 107q0 57 45 90t115 33q72 0 112.5 -28t40.5 -76q0 -70 -82 -106zM181 543q-54 -29 -54 -71q0 -57 72 -57q31 0 49 14.5t18 38.5q0 26 -20 42.5
t-65 32.5zM220 623q49 28 49 68q0 45 -59 45q-27 0 -42 -12.5t-15 -33.5q0 -39 67 -67z" />
    <glyph glyph-name="ninesuperior" unicode="&#x2079;" horiz-adv-x="420" 
d="M41 451l90 24q12 -59 60 -59q79 0 81 144q-41 -38 -103 -38q-57 0 -91 34t-34 97q0 73 45 112.5t120 39.5q84 0 121.5 -56.5t37.5 -164.5q0 -242 -180 -242q-128 0 -147 109zM265 619q-4 54 -14 78q-11 34 -49 34q-55 0 -55 -72q0 -71 53 -71q37 0 65 31z" />
    <glyph glyph-name="plussuperior" unicode="&#x207a;" horiz-adv-x="439" 
d="M259 528v-89h-80v89h-87v76h87v86h80v-86h88v-76h-88z" />
    <glyph glyph-name="minussuperior" unicode="&#x207b;" horiz-adv-x="439" 
d="M345 607v-76h-250v76h250z" />
    <glyph glyph-name="equalsuperior" unicode="&#x207c;" horiz-adv-x="442" 
d="M346 524v-76h-250v76h250zM346 645v-77h-250v77h250z" />
    <glyph glyph-name="parenleftsuperior" unicode="&#x207d;" horiz-adv-x="270" 
d="M248 276h-103q-96 128 -96 268q0 138 103 274h102q-51 -71 -75.5 -134t-24.5 -138q0 -73 23 -134t71 -136z" />
    <glyph glyph-name="parenrightsuperior" unicode="&#x207e;" horiz-adv-x="305" 
d="M20 818h104q99 -130 99 -272q0 -136 -100 -270h-101q49 71 72.5 131.5t23.5 137.5q0 127 -98 273z" />
    <glyph glyph-name="zeroinferior" unicode="&#x2080;" horiz-adv-x="416" 
d="M206 -154q-89 0 -129 57t-40 176q0 230 175 230q90 0 128.5 -54.5t38.5 -171.5q0 -122 -41 -179.5t-132 -57.5zM272 80q0 85 -13 117.5t-49 32.5q-39 0 -52 -34q-13 -32 -13 -118t13 -119q14 -35 50 -35t50 34.5t14 121.5z" />
    <glyph glyph-name="oneinferior" unicode="&#x2081;" horiz-adv-x="305" 
d="M238 299v-448h-103v334q-13 -7 -48 -13q-37 -5 -51 -5l-5 80q93 6 136 52h71z" />
    <glyph glyph-name="twoinferior" unicode="&#x2082;" horiz-adv-x="393" 
d="M199 309q70 0 107 -30.5t37 -85.5q0 -49 -27 -89q-28 -40 -96 -104l-54 -59v-3h184v-85h-302v84l100 107q53 56 73 85q19 28 19 58q0 45 -50 45q-53 0 -62 -64l-88 13q7 62 49.5 95t109.5 33z" />
    <glyph glyph-name="threeinferior" unicode="&#x2083;" horiz-adv-x="384" 
d="M31 -38l90 16q5 -30 19.5 -43t43.5 -13q64 0 64 63t-72 63h-47v70h30q39 0 61 18.5t22 49.5q0 47 -51 47t-62 -53l-87 17q22 112 159 112q68 0 105 -28t37 -79q0 -80 -87 -108v-2q96 -20 96 -110q0 -62 -45.5 -99t-120.5 -37q-139 0 -155 116z" />
    <glyph glyph-name="fourinferior" unicode="&#x2084;" horiz-adv-x="404" 
d="M332 -49v-98h-100v98h-208v70l183 280h125v-271h52v-79h-52zM233 213l-120 -183h120v183z" />
    <glyph glyph-name="fiveinferior" unicode="&#x2085;" horiz-adv-x="399" 
d="M122 38l-67 23l17 240h249v-83h-176l-12 -106v-7q38 34 92 34q57 0 90.5 -35t33.5 -102q0 -72 -46.5 -114t-122.5 -42q-138 0 -155 116l89 17q8 -57 65 -57q31 0 49.5 20t18.5 56q0 67 -60 67q-33 0 -65 -27z" />
    <glyph glyph-name="sixinferior" unicode="&#x2086;" horiz-adv-x="421" 
d="M377 201l-90 -20q-5 29 -17.5 41.5t-34.5 12.5q-40 0 -61 -39.5t-21 -110.5q37 42 104 42q56 0 89 -32.5t33 -94.5q0 -75 -43.5 -114.5t-118.5 -39.5q-162 0 -162 220q0 87 36 160q44 83 151 83q114 0 135 -108zM157 26q2 -54 16 -79.5t48 -25.5q56 0 56 71q0 67 -51 67
q-40 0 -69 -33z" />
    <glyph glyph-name="seveninferior" unicode="&#x2087;" horiz-adv-x="365" 
d="M342 226l-177 -373h-108l178 365h-202v83h309v-75z" />
    <glyph glyph-name="eightinferior" unicode="&#x2088;" horiz-adv-x="403" 
d="M279 99q49 -20 72 -47t23 -73q0 -57 -49 -94q-48 -39 -129 -39q-78 0 -121.5 31.5t-43.5 85.5q0 77 94 116q-77 30 -77 107q0 57 45 90t115 33q72 0 112.5 -28t40.5 -76q0 -70 -82 -106zM181 47q-54 -28 -54 -71q0 -57 72 -57q31 0 49 14.5t18 38.5q0 26 -20 42.5
t-65 32.5zM220 127q49 28 49 68q0 45 -59 45q-27 0 -42 -12.5t-15 -33.5q0 -39 67 -67z" />
    <glyph glyph-name="nineinferior" unicode="&#x2089;" horiz-adv-x="420" 
d="M41 -45l90 24q12 -59 60 -59q79 0 81 144q-41 -38 -103 -38q-57 0 -91 34t-34 97q0 73 45 112.5t120 39.5q84 0 121.5 -56.5t37.5 -164.5q0 -242 -180 -242q-128 0 -147 109zM265 123q-4 54 -14 78q-11 34 -49 34q-55 0 -55 -72q0 -71 53 -71q37 0 65 31z" />
    <glyph glyph-name="parenleftinferior" unicode="&#x208d;" horiz-adv-x="270" 
d="M248 -220h-103q-96 127 -96 268q0 138 103 274h102q-51 -71 -75.5 -134t-24.5 -138q0 -73 23 -134t71 -136z" />
    <glyph glyph-name="parenrightinferior" unicode="&#x208e;" horiz-adv-x="305" 
d="M20 322h104q99 -130 99 -272q0 -136 -100 -270h-101q49 71 72.5 131.5t23.5 137.5q0 127 -98 273z" />
    <glyph glyph-name="Euro" unicode="&#x20ac;" horiz-adv-x="625" 
d="M361 -12q-224 0 -263 245h-90l16 84h66q-1 7 -1 35q0 31 1 40h-56l16 84h49q23 130 95 195.5t183 65.5q216 0 228 -225l-102 -11q-8 76 -36.5 107.5t-90.5 31.5q-134 0 -163 -164h217l-16 -84h-209v-34q0 -32 1 -41h198l-16 -84h-173q14 -76 51 -112t102 -36
q60 0 91.5 29.5t44.5 95.5l97 -19q-10 -73 -49 -120.5t-86.5 -65t-104.5 -17.5z" />
    <glyph glyph-name="afii61352" unicode="&#x2116;" horiz-adv-x="1079" 
d="M605 724v-724h-137l-272 565v-565h-108v724h147l264 -562v562h106zM1003 258h-310v79h310v-79zM843 378q-86 0 -129.5 46.5t-43.5 129.5t46 129.5t134 46.5q85 0 127.5 -44.5t42.5 -125.5q0 -87 -44.5 -134.5t-132.5 -47.5zM846 448q77 0 77 108q0 54 -18 78.5t-57 24.5
q-82 0 -82 -103q0 -108 80 -108z" />
    <glyph glyph-name="trademark" unicode="&#x2122;" horiz-adv-x="842" 
d="M776 724v-376h-62v256l-100 -256h-53l-97 257v-257h-63v376h80l109 -292l112 292h74zM350 665h-125v-317h-69v317h-124v59h318v-59z" />
    <glyph glyph-name="Omega" unicode="&#x2126;" horiz-adv-x="829" 
d="M563 132v-34h181v-98h-266v180q65 26 113 83q49 56 49 154q0 110 -55.5 165.5t-158.5 55.5t-162.5 -61t-59.5 -174q0 -159 153 -223v-180h-268v98h182v34q-90 34 -138.5 106t-48.5 171q0 147 93 237q92 91 251 91q163 0 247 -80.5t84 -226.5q0 -104 -55 -180
q-57 -78 -141 -118z" />
    <glyph glyph-name="onethird" unicode="&#x2153;" horiz-adv-x="945" 
d="M576 109l90 16q5 -30 19.5 -43t43.5 -13q64 0 64 63t-72 63h-47v70h30q39 0 61 18.5t22 49.5q0 47 -51 47t-62 -53l-87 17q22 112 159 112q68 0 105 -28t37 -79q0 -79 -87 -108v-2q96 -19 96 -110q0 -62 -45.5 -99t-120.5 -37q-139 0 -155 116zM261 727v-448h-103v334
q-13 -7 -48 -13q-37 -5 -51 -5l-5 80q93 6 136 52h71zM674 724l-354 -736h-107l356 736h105z" />
    <glyph glyph-name="twothirds" unicode="&#x2154;" horiz-adv-x="945" 
d="M194 737q70 0 107 -30.5t37 -85.5q0 -49 -27 -89q-28 -40 -96 -104l-54 -59v-3h184v-85h-302v84l100 107q53 56 73 85q19 28 19 58q0 45 -50 45q-53 0 -62 -64l-88 13q7 62 49.5 95t109.5 33zM599 109l90 16q5 -30 19.5 -43t43.5 -13q64 0 64 63t-72 63h-47v70h30
q39 0 61 18.5t22 49.5q0 47 -51 47t-62 -53l-87 17q22 112 159 112q68 0 105 -28t37 -79q0 -79 -87 -108v-2q96 -19 96 -110q0 -62 -45.5 -99t-120.5 -37q-139 0 -155 116zM715 724l-354 -736h-107l356 736h105z" />
    <glyph glyph-name="partialdiff" unicode="&#x2202;" horiz-adv-x="564" 
d="M395 363q3 33 3 39q0 181 -124 181q-78 0 -146 -52l-47 74q96 69 209 69q221 0 221 -294q0 -123 -30 -213q-60 -179 -230 -179q-100 0 -154.5 52.5t-54.5 147.5q0 102 54.5 163t147.5 61q89 0 151 -49zM390 276q-61 52 -124 52q-54 0 -80.5 -36.5t-26.5 -99.5
q0 -52 24.5 -83.5t70.5 -31.5q117 0 136 199z" />
    <glyph glyph-name="increment" unicode="&#x2206;" horiz-adv-x="688" 
d="M412 724l258 -724h-652l253 724h141zM336 608h-4l-173 -511h345z" />
    <glyph glyph-name="product" unicode="&#x220f;" horiz-adv-x="779" 
d="M114 724h550v-885h-117v787h-316v-787h-117v885z" />
    <glyph glyph-name="summation" unicode="&#x2211;" horiz-adv-x="627" 
d="M176 626l194 -346l-217 -350h415v-106h-550v79l230 371l-216 373v77h534v-98h-390z" />
    <glyph glyph-name="minus" unicode="&#x2212;" 
d="M476 371v-97h-381v97h381z" />
    <glyph glyph-name="uni2215" unicode="&#x2215;" horiz-adv-x="454" 
d="M435 631l-312 -648h-102l313 648h101z" />
    <glyph glyph-name="uni2219" unicode="&#x2219;" horiz-adv-x="289" 
d="M144 232q-81 0 -81 76t81 76q79 0 79 -76t-79 -76z" />
    <glyph glyph-name="radical" unicode="&#x221a;" 
d="M554 721l-192 -721h-111l-131 229q-2 3 -7 3l-67 -23l-30 71l149 71l127 -235l168 629z" />
    <glyph glyph-name="infinity" unicode="&#x221e;" horiz-adv-x="672" 
d="M336 262q-76 -79 -152 -79q-60 0 -99 36t-39 101q0 62 41 101t105 39q42 0 75.5 -19t72.5 -59q28 26 41 37q51 41 109 41q61 0 98.5 -36.5t37.5 -104.5q0 -60 -40 -98.5t-101 -38.5q-75 0 -149 80zM293 323q-53 62 -101 62q-28 0 -46 -18t-18 -44q0 -28 16.5 -47.5
t44.5 -19.5q44 0 104 67zM386 322l29 -32q34 -31 68 -31q27 0 44 18.5t17 45.5q0 29 -15.5 46t-43.5 17q-19 0 -38 -12q-19 -10 -30 -21q-10 -9 -31 -31z" />
    <glyph glyph-name="integral" unicode="&#x222b;" horiz-adv-x="422" 
d="M51 -168l12 85q37 -19 76 -19q56 0 50 70l-53 618q-6 75 36 108t100 33q54 0 108 -22l-11 -85q-43 20 -77 20q-57 0 -50 -70l53 -618q5 -53 -18 -86q-35 -55 -118 -55q-55 0 -108 21z" />
    <glyph glyph-name="approxequal" unicode="&#x2248;" 
d="M176 346q32 0 126 -23q89 -22 112 -22q19 0 27 10.5t8 37.5l67 -3q7 -61 -18 -96.5t-73 -35.5q-37 0 -129 22q-95 23 -112 23q-37 0 -33 -52l-70 3q-7 62 19.5 99t75.5 37zM176 528q32 0 126 -23q89 -22 112 -22q19 0 27 10.5t8 37.5l67 -3q7 -61 -18 -96.5t-73 -35.5
q-37 0 -129 22q-95 23 -112 23q-37 0 -33 -52l-70 3q-7 62 19.5 99t75.5 37z" />
    <glyph glyph-name="notequal" unicode="&#x2260;" 
d="M96 145v99h125l33 75h-158v99h198l41 92h90l-41 -92h90v-99h-129l-33 -75h162v-99h-201l-41 -90h-90l40 90h-86z" />
    <glyph glyph-name="lessequal" unicode="&#x2264;" 
d="M471 215v-100l-382 142v115l382 148v-97l-284 -104zM471 97v-97h-381v97h381z" />
    <glyph glyph-name="greaterequal" unicode="&#x2265;" 
d="M470 372v-112l-381 -141v96l284 103l-284 101v101zM470 97v-97h-381v97h381z" />
    <glyph glyph-name="triangle" unicode="&#x25b3;" horiz-adv-x="425" 
d="M150 434l185 -114l-185 -117v231z" />
    <glyph glyph-name="lozenge" unicode="&#x25ca;" 
d="M485 307l-156 -324h-88l-156 324l156 324h88zM178 307l107 -223l107 223l-107 219z" />
    <glyph glyph-name="circle" unicode="&#x25cb;" horiz-adv-x="610" 
d="M450 179q-60 -60 -145 -60t-145 60t-60 145t60 145t145 60t145 -60t60 -145t-60 -145z" />
    <glyph glyph-name="s_t" unicode="&#xfb06;" horiz-adv-x="854" 
d="M826 104l19 -80q-55 -36 -137 -36q-78 0 -116 38t-38 118v524l115 16v-167h140v-85h-140v-274q0 -42 15 -60t54 -18q46 0 88 24zM252 528q163 0 196 -147l-100 -26q-10 46 -32 66.5t-66 20.5t-66.5 -16.5t-22.5 -44.5q0 -32 26 -48t86 -26q65 -12 102 -28q77 -29 82 -127
q0 -78 -57.5 -121t-155.5 -43q-187 0 -211 146l98 32q13 -48 38 -70t79 -22q97 0 97 62q0 25 -15 40q-14 14 -30 19.5t-63 14.5l-37 7l-36 10q-27 8 -36 13q-42 25 -54 46q-21 36 -21 82q0 77 56 118q57 42 143 42z" />
    <glyph glyph-name="NULL" horiz-adv-x="0" 
 />
    <glyph glyph-name="CR" horiz-adv-x="333" 
 />
    <glyph glyph-name="CR.001" horiz-adv-x="500" 
 />
    <glyph glyph-name="j.calt" horiz-adv-x="255" 
d="M45 -223q-39 0 -62 10l8 90q25 -5 35 -5q26 0 36.5 17t10.5 57v571h115v-573q0 -167 -143 -167zM207 685q0 -36 -20 -56t-55 -20q-36 0 -55.5 20t-19.5 56q0 37 19.5 56.5t55.5 19.5t55.5 -19.5t19.5 -56.5z" />
    <glyph glyph-name="zero.osf" horiz-adv-x="615" 
d="M304 -12q-258 0 -258 299q0 135 66 218t203 83q254 0 254 -291q0 -309 -265 -309zM308 82q72 0 106 51.5t34 157.5q0 104 -32 153t-104 49q-75 0 -110 -52t-35 -158q0 -103 33.5 -152t107.5 -49z" />
    <glyph glyph-name="one.osf" horiz-adv-x="421" 
d="M316 575v-575h-114v431q-24 -14 -73 -23q-51 -9 -81 -9l-7 93q138 11 203 83h72z" />
    <glyph glyph-name="two.osf" horiz-adv-x="528" 
d="M272 588q93 0 145.5 -44.5t52.5 -125.5q0 -71 -35 -121q-34 -47 -122 -114l-108 -83v-2h274v-98h-422v91l142 119q97 82 126 116q31 37 31 86q0 85 -94 85q-55 0 -80 -26.5t-35 -86.5l-101 20q28 184 226 184z" />
    <glyph glyph-name="three.osf" horiz-adv-x="527" 
d="M22 93l103 20q9 -54 35.5 -78.5t83.5 -24.5q53 0 85 25.5t32 75.5q0 52 -31.5 75.5t-95.5 23.5h-72v90h48q65 0 103.5 30.5t38.5 79.5q0 85 -96 85q-53 0 -78.5 -22.5t-37.5 -75.5l-100 21q32 170 225 170q97 0 149.5 -42t52.5 -120q0 -60 -35.5 -99.5t-95.5 -57.5v-3
q142 -22 142 -158q0 -90 -64 -140.5t-172 -50.5q-94 0 -151.5 44t-68.5 132z" />
    <glyph glyph-name="four.osf" horiz-adv-x="556" 
d="M452 73v-140h-111v140h-318v83l288 419h142v-407h84v-95h-85zM342 470l-211 -302h211v302z" />
    <glyph glyph-name="five.osf" horiz-adv-x="540" 
d="M140 197l-76 34l23 341h360v-100h-273l-18 -175q64 47 142 47q84 0 136 -53t52 -149q0 -101 -65 -163t-173 -62q-92 0 -152.5 44t-72.5 131l103 21q18 -101 121 -101q56 0 89 31.5t33 95.5q0 55 -29 83.5t-81 28.5q-67 0 -119 -54z" />
    <glyph glyph-name="six.osf" horiz-adv-x="564" 
d="M516 495l-100 -27q-12 51 -36.5 72.5t-67.5 21.5q-76 0 -110 -64t-34 -162q64 67 169 67q86 0 135 -52t49 -143q0 -104 -62.5 -162t-169.5 -58q-134 0 -186 99q-45 89 -45 227q0 103 31 182q64 156 232 156q161 0 195 -157zM175 249q0 -59 21 -110q26 -63 101 -63
q52 0 81.5 33t29.5 92q0 114 -98 114q-36 0 -74.5 -19.5t-60.5 -46.5z" />
    <glyph glyph-name="seven.osf" horiz-adv-x="520" 
d="M491 482l-282 -549h-122l284 539h-332v100h452v-90z" />
    <glyph glyph-name="eight.osf" horiz-adv-x="542" 
d="M367 344q75 -32 109 -71t34 -105q0 -82 -69 -132q-67 -48 -178 -48q-112 0 -172.5 43.5t-60.5 120.5q0 62 33.5 104t103.5 73q-115 49 -115 152q0 77 65 124q67 47 168 47q96 0 150.5 -40.5t54.5 -109.5q0 -53 -29 -89t-94 -69zM249 285q-57 -27 -82.5 -55t-25.5 -69
t32.5 -63t92.5 -22q61 0 93 23.5t32 65.5q0 35 -30 63q-12 12 -33 22q-31 17 -79 35zM287 381q52 32 74 56.5t22 57.5q0 74 -104 74q-52 0 -81 -21t-29 -61q0 -35 29 -59.5t89 -46.5z" />
    <glyph glyph-name="nine.osf" horiz-adv-x="572" 
d="M54 78l101 25q23 -95 113 -95q141 0 143 224q-57 -63 -169 -63q-85 0 -134.5 54t-49.5 145q0 104 63 163.5t167 59.5q232 0 232 -324q0 -350 -259 -350q-85 0 -139 41t-68 120zM404 323q-5 179 -123 179q-52 0 -81 -32.5t-29 -91.5q0 -121 97 -121q38 0 76 19t60 47z" />
    <glyph glyph-name="dollar.osf" horiz-adv-x="530" 
d="M470 464l-99 -13q-14 82 -70 95v-184q79 -20 122 -51q58 -37 58 -123q0 -77 -46.5 -125t-130.5 -59v-85h-88v85q-170 17 -185 178l97 16q12 -57 32 -82.5t64 -32.5v192q-89 22 -130.5 61.5t-41.5 114.5q0 71 45.5 116.5t123.5 58.5v82h87v-80q147 -16 162 -164zM374 173
q0 57 -73 82v-170q73 16 73 88zM157 468q0 -56 67 -83v161q-32 -7 -49.5 -27.5t-17.5 -50.5z" />
    <glyph glyph-name="Euro.osf" horiz-adv-x="623" 
d="M29 336l14 76h55q21 114 92 177t182 63q101 0 161.5 -54.5t66.5 -162.5l-104 -10q-8 73 -36.5 103t-92.5 30q-125 0 -154 -146h210l-14 -76h-204v-17q0 -30 1 -38h196l-14 -76h-172q30 -122 146 -122q59 0 90 28t44 91l101 -19q-15 -102 -83 -149q-67 -46 -156 -46
q-222 0 -259 217h-91l14 76h68v55h-61z" />
    <glyph glyph-name="cent.osf" horiz-adv-x="512" 
d="M242 528v104h84v-102q69 -10 112.5 -55t48.5 -116l-103 -15q-9 78 -58 93v-309q51 13 66 89l96 -18q-10 -69 -53 -111.5t-109 -52.5v-108h-84v108q-90 14 -140.5 78.5t-50.5 163.5q0 103 51 168t140 83zM169 289q0 -134 73 -159v304q-73 -25 -73 -145z" />
    <glyph glyph-name="sterling.osf" horiz-adv-x="578" 
d="M29 0v93h57q55 56 55 120q0 27 -12 59h-102v85h71q-27 55 -27 103q0 84 64 138q65 54 169 54q100 0 153 -43.5t67 -140.5l-101 -20q-9 61 -35 87.5t-86 26.5q-56 0 -87.5 -25.5t-31.5 -77.5q0 -42 30 -102h215v-85h-190q10 -27 10 -55q0 -70 -51 -124h146q57 0 82 23
t34 81l98 -18q-9 -93 -58.5 -136t-147.5 -43h-322z" />
    <glyph glyph-name="yen.osf" horiz-adv-x="544" 
d="M465 291h-131v-67h131v-77h-131v-147h-115v147h-131v77h131v67h-131v77h93l-165 264h125l137 -230h2l132 230h117l-161 -264h97v-77z" />
    <glyph glyph-name="florin.osf" horiz-adv-x="530" 
d="M558 536l-94 -35q-18 66 -65 66q-31 0 -48.5 -17.5t-25.5 -58.5l-20 -108h137l-14 -80h-137l-52 -269q-17 -88 -60 -126.5t-125 -38.5q-121 0 -154 115l94 35q19 -64 69 -64q30 0 46 17t24 58l52 273h-86l13 80h87l21 103q17 87 60.5 126.5t123.5 39.5q118 0 154 -116z
" />
    <glyph glyph-name="afii61352.osf" horiz-adv-x="1017" 
d="M567 626v-626h-136l-233 462v-462h-110v626h148l223 -464v464h108zM624 451q0 83 46 129.5t133 46.5q86 0 128 -44t42 -125q0 -88 -44 -135t-132 -47q-87 0 -130 46t-43 129zM799 352q78 0 78 101q0 53 -18 76t-57 23q-82 0 -82 -99q0 -101 79 -101zM962 160h-325v77h325
v-77z" />
    <glyph glyph-name="percent.osf" horiz-adv-x="874" 
d="M184 258q-83 0 -123 47t-40 129q0 88 44 137.5t127 49.5q161 0 161 -174q0 -88 -44 -138.5t-125 -50.5zM261 443q0 53 -16.5 78.5t-55.5 25.5q-75 0 -75 -107q0 -55 17 -82t56 -27q74 0 74 112zM665 -12q-83 0 -123 47t-40 129q0 88 44 137.5t127 49.5q161 0 161 -174
q0 -88 -44 -138.5t-125 -50.5zM742 173q0 53 -16.5 78.5t-55.5 25.5q-75 0 -75 -107q0 -55 17 -82t56 -27q74 0 74 112zM662 623l-376 -640h-104l377 640h103z" />
    <glyph glyph-name="perthousand.osf" horiz-adv-x="1098" 
d="M185 295q-145 0 -145 158q0 79 40 123t112 44q145 0 145 -158q0 -78 -40 -122.5t-112 -44.5zM188 364q63 0 63 96q0 90 -61 90q-63 0 -63 -92q0 -94 61 -94zM575 -12q-145 0 -145 158q0 79 40 123t112 44q145 0 145 -158q0 -78 -40 -122.5t-112 -44.5zM578 57q63 0 63 96
q0 90 -61 90q-63 0 -63 -92q0 -94 61 -94zM906 -12q-145 0 -145 158q0 79 40 123t112 44q145 0 145 -158q0 -78 -40 -122.5t-112 -44.5zM909 57q63 0 63 96q0 90 -61 90q-63 0 -63 -92q0 -94 61 -94zM621 623l-376 -640h-104l377 640h103z" />
    <glyph glyph-name="zero.slash" 
d="M282 -12q-142 0 -197 103q-47 93 -47 271q0 182 57 278q57 97 197 97q113 0 170 -67q26 -30 42 -78q27 -82 27 -220q0 -190 -55 -287q-54 -97 -194 -97zM285 82q75 0 100 67q25 66 25 217q0 144 -21 203l-142 -482q20 -5 38 -5zM159 360q0 -145 22 -202l140 477
q-12 4 -32 4q-76 0 -103 -67q-27 -66 -27 -212z" />
    <glyph glyph-name="zero.tf" 
d="M283 -12q-142 0 -197 103q-47 93 -47 271q0 182 57 278q57 97 197 97q113 0 170 -67q25 -30 42 -78q27 -82 27 -220q0 -190 -55 -287q-54 -97 -194 -97zM411 366q0 137 -20 201q-23 72 -101 72q-76 0 -103 -67q-27 -66 -27 -212q0 -149 27 -213.5t99 -64.5q75 0 100 67
q25 66 25 217z" />
    <glyph glyph-name="one.tf" 
d="M495 0h-382v98h142v481q-20 -12 -75 -23q-51 -9 -80 -9l-7 93q139 12 204 84h72v-626h126v-98z" />
    <glyph glyph-name="two.tf" 
d="M283 737q99 0 152.5 -47t53.5 -136q0 -76 -36 -137q-33 -58 -121 -159l-138 -158v-2h305v-98h-436v96l163 194q64 77 84 103q63 84 63 157q0 93 -101 93q-56 0 -82.5 -28t-35.5 -88l-102 18q12 95 73.5 143.5t157.5 48.5z" />
    <glyph glyph-name="three.tf" 
d="M41 165l104 20q9 -54 35 -78.5t83 -24.5q56 0 89.5 32t33.5 95q0 124 -138 124h-67v91h46q70 0 109.5 33.5t39.5 91.5q0 95 -101 95q-53 0 -78.5 -22.5t-37.5 -74.5l-100 21q31 169 228 169q97 0 150 -45.5t53 -127.5q0 -67 -38 -111t-100 -63v-3q152 -30 152 -183
q0 -99 -67 -157q-67 -59 -175 -59q-95 0 -152.5 44t-68.5 133z" />
    <glyph glyph-name="four.tf" 
d="M454 172v-172h-112v172h-318v83l288 469h142v-457h80v-95h-80zM343 618l-216 -351h216v351z" />
    <glyph glyph-name="five.tf" 
d="M158 313l-77 33l28 378h360v-98h-274l-20 -214q59 48 141 48q84 0 140 -53t56 -168q0 -114 -69 -183q-68 -68 -182 -68q-90 0 -150.5 45t-72.5 132l103 21q18 -104 122 -104q58 0 95 39.5t37 113.5q0 131 -118 131q-63 0 -119 -53z" />
    <glyph glyph-name="six.tf" 
d="M512 577l-102 -29q-11 53 -35 75t-66 22q-53 0 -89 -43q-62 -74 -64 -229q29 30 75 50t95 20q91 0 142 -55t51 -153q0 -117 -63.5 -182t-171.5 -65t-168 68q-73 90 -71 285q0 114 33 209q65 187 242 187q159 0 192 -160zM162 287q5 -87 24 -140q26 -68 101 -68
q54 0 84.5 38t30.5 109q0 125 -105 125q-71 0 -135 -64z" />
    <glyph glyph-name="seven.tf" 
d="M520 637l-287 -637h-122l288 626h-343v98h464v-87z" />
    <glyph glyph-name="eight.tf" 
d="M377 385q76 -35 111 -79t35 -116q0 -86 -69 -145q-69 -57 -183 -57q-116 0 -177.5 51t-61.5 136q0 133 145 197q-120 56 -120 172q0 90 64 141q64 52 169 52q102 0 159.5 -44.5t57.5 -122.5q0 -112 -130 -185zM257 326q-56 -28 -83.5 -61t-27.5 -80q0 -50 32 -78.5
t96 -28.5q62 0 96 30.5t34 78.5q0 60 -49 91q-34 24 -98 48zM292 426q101 56 101 136q0 90 -107 90q-51 0 -81.5 -25t-30.5 -68q0 -82 118 -133z" />
    <glyph glyph-name="nine.tf" 
d="M38 153l102 30q12 -54 40.5 -79t76.5 -25q76 0 112 74q37 75 38 191q-28 -29 -75 -47.5t-97 -18.5q-91 0 -141.5 56.5t-50.5 157.5q0 116 65 181q64 64 171 64q68 0 116 -27t73.5 -78t36.5 -111t11 -137q0 -396 -266 -396q-182 0 -212 165zM399 433q-4 89 -26 145
q-24 67 -100 67q-54 0 -84 -38t-30 -109q0 -131 104 -131q75 0 136 66z" />
    <glyph glyph-name="dollar.tf" 
d="M505 522l-105 -14q-7 45 -23.5 69.5t-48.5 33.5v-211q83 -22 129 -58q58 -43 58 -139q0 -85 -48 -137t-134 -64v-83h-89v83q-184 16 -204 197l102 19q10 -62 34 -91.5t75 -35.5v216q-78 21 -127 57q-60 44 -60 143q0 79 50 131.5t131 67.5v86h88v-85q155 -17 172 -185z
M403 188q0 67 -75 97v-190q75 18 75 93zM177 523q0 -68 74 -100v189q-74 -17 -74 -89z" />
    <glyph glyph-name="Euro.tf" 
d="M313 -12q-218 0 -254 245h-82l16 84h58v35q0 31 1 40h-54l16 84h46q23 130 92 195.5t177 65.5q216 0 228 -225l-102 -11q-8 76 -35.5 107.5t-87.5 31.5q-71 0 -108.5 -40.5t-49.5 -123.5h208l-16 -84h-199v-75h189l-16 -84h-165q13 -76 47.5 -112t97.5 -36
q60 0 91.5 29.5t44.5 95.5l97 -19q-10 -73 -49 -120.5t-86.5 -65t-104.5 -17.5z" />
    <glyph glyph-name="cent.tf" 
d="M256 601v104h84v-102q69 -10 112.5 -55t48.5 -116l-103 -15q-9 78 -58 93v-309q51 13 66 89l96 -18q-10 -69 -53 -111.5t-109 -52.5v-108h-84v108q-90 14 -140.5 78.5t-50.5 163.5q0 103 51 168t140 83zM183 362q0 -134 73 -159v304q-73 -25 -73 -145z" />
    <glyph glyph-name="sterling.tf" 
d="M20 0v93h58q75 67 75 144q0 41 -21 81h-101v88h72q-42 80 -42 134q0 86 65 142q64 55 171 55q99 0 153.5 -45.5t67.5 -142.5l-103 -16q-9 59 -35 86t-83 27q-119 0 -119 -103q0 -46 44 -137h212v-88h-185q16 -39 16 -76q0 -84 -68 -149h143q57 0 82 24.5t35 84.5l98 -18
q-10 -94 -60.5 -139t-146.5 -45h-328z" />
    <glyph glyph-name="yen.tf" 
d="M420 724h117l-159 -296h95v-84h-131v-83h131v-84h-131v-177h-115v177h-131v84h131v83h-131v84h91l-163 296h125l137 -262h2z" />
    <glyph glyph-name="florin.tf" 
d="M583 621l-94 -34q-10 34 -25 49.5t-40 15.5q-31 0 -48.5 -17.5t-25.5 -58.5l-25 -130h138l-14 -80h-137l-75 -381q-17 -88 -59.5 -126.5t-123.5 -38.5q-123 0 -156 115l94 35q19 -64 69 -64q30 0 46 17t24 58l74 385h-86l14 80h87l25 126q17 87 60 126t124 39
q118 0 154 -116z" />
    <glyph glyph-name="zeroslash.tosf" 
d="M280 -12q-251 0 -251 299q0 137 62 219q61 82 201 82q71 0 120.5 -21.5t76.5 -62.5t39 -91.5t12 -115.5q0 -309 -260 -309zM150 283q0 -123 47 -170l115 374q-18 2 -23 2q-72 0 -105.5 -50t-33.5 -156zM272 83h13q70 0 102 51t32 157q0 110 -35 157z" />
    <glyph glyph-name="zero.tosf" 
d="M280 -12q-251 0 -251 299q0 137 62 219q61 82 201 82q71 0 120.5 -21.5t76.5 -62.5t39 -91.5t12 -115.5q0 -309 -260 -309zM285 83q70 0 102 51t32 157q0 103 -30 150.5t-100 47.5q-72 0 -105.5 -50t-33.5 -156q0 -103 31.5 -151.5t103.5 -48.5z" />
    <glyph glyph-name="one.tosf" 
d="M496 0h-377v98h142v333q-24 -14 -73 -23q-51 -9 -81 -9l-7 93q138 11 203 83h72v-477h121v-98z" />
    <glyph glyph-name="two.tosf" 
d="M295 588q93 0 145.5 -44.5t52.5 -125.5q0 -71 -35 -121q-34 -47 -122 -114l-108 -83v-2h274v-98h-422v91l142 119q97 82 126 116q31 37 31 86q0 85 -94 85q-55 0 -80 -26.5t-35 -86.5l-101 20q28 184 226 184z" />
    <glyph glyph-name="three.tosf" 
d="M50 93l103 20q9 -54 35.5 -78.5t83.5 -24.5q53 0 85 25.5t32 75.5q0 52 -31.5 75.5t-95.5 23.5h-72v90h48q65 0 103.5 30.5t38.5 79.5q0 85 -96 85q-53 0 -78.5 -22.5t-37.5 -75.5l-100 21q32 170 225 170q97 0 149.5 -42t52.5 -120q0 -60 -35.5 -99.5t-95.5 -57.5v-3
q142 -22 142 -158q0 -90 -64 -140.5t-172 -50.5q-94 0 -151.5 44t-68.5 132z" />
    <glyph glyph-name="four.tosf" 
d="M461 73v-140h-112v140h-310v83l280 419h142v-407h80v-95h-80zM350 471l-208 -303h208v303z" />
    <glyph glyph-name="five.tosf" 
d="M172 197l-76 34l23 341h360v-100h-273l-18 -175q64 47 142 47q84 0 136 -53t52 -149q0 -101 -65 -163t-173 -62q-92 0 -152.5 44t-72.5 131l103 21q18 -101 121 -101q56 0 89 31.5t33 95.5q0 55 -29 83.5t-81 28.5q-67 0 -119 -54z" />
    <glyph glyph-name="six.tosf" 
d="M521 495l-100 -27q-12 51 -36.5 72.5t-67.5 21.5q-76 0 -110 -64t-34 -162q64 67 169 67q86 0 135 -52t49 -143q0 -104 -62.5 -162t-169.5 -58q-134 0 -186 99q-45 89 -45 227q0 103 31 182q64 156 232 156q161 0 195 -157zM180 249q0 -59 21 -110q26 -63 101 -63
q52 0 81.5 33t29.5 92q0 114 -98 114q-36 0 -74.5 -19.5t-60.5 -46.5z" />
    <glyph glyph-name="seven.tosf" 
d="M519 482l-282 -549h-122l284 539h-332v100h452v-90z" />
    <glyph glyph-name="eight.tosf" 
d="M384 344q75 -32 109 -71t34 -105q0 -82 -69 -132q-68 -48 -178 -48q-112 0 -172.5 43.5t-60.5 120.5q0 62 33.5 104t103.5 73q-115 49 -115 152q0 77 65 124q67 47 168 47q96 0 150.5 -40.5t54.5 -109.5q0 -53 -29 -89t-94 -69zM266 285q-57 -27 -82.5 -55t-25.5 -69
t32.5 -63t92.5 -22q61 0 93 23.5t32 65.5q0 35 -30 63q-12 12 -33 22q-31 17 -79 35zM304 381q52 32 74 56.5t22 57.5q0 74 -104 74q-52 0 -81 -21t-29 -61q0 -35 29 -59.5t89 -46.5z" />
    <glyph glyph-name="nine.tosf" 
d="M45 78l101 25q23 -95 113 -95q141 0 143 224q-57 -63 -169 -63q-85 0 -134.5 54t-49.5 145q0 104 63 163.5t167 59.5q232 0 232 -324q0 -350 -259 -350q-85 0 -139 41t-68 120zM395 323q-5 179 -123 179q-52 0 -81 -32.5t-29 -91.5q0 -121 97 -121q38 0 76 19t60 47z" />
    <glyph glyph-name="dollar.tosf" 
d="M490 464l-99 -13q-14 82 -70 95v-184q79 -20 122 -51q58 -37 58 -123q0 -77 -46.5 -125t-130.5 -59v-85h-88v85q-170 17 -185 178l97 16q12 -57 32 -82.5t64 -32.5v192q-89 22 -130.5 61.5t-41.5 114.5q0 71 45.5 116.5t123.5 58.5v82h87v-80q147 -16 162 -164zM394 173
q0 57 -73 82v-170q73 16 73 88zM177 468q0 -56 67 -83v161q-32 -7 -49.5 -27.5t-17.5 -50.5z" />
    <glyph glyph-name="Euro.tosf" 
d="M-10 336l14 76h55q21 115 89.5 177.5t178.5 62.5q99 0 158.5 -54.5t65.5 -162.5l-104 -10q-8 72 -36 102.5t-88 30.5q-124 0 -150 -146h201l-14 -76h-194v-55h190l-15 -76h-166q26 -122 138 -122q59 0 90 28t44 91l101 -19q-15 -102 -83 -149q-67 -46 -156 -46
q-113 0 -172.5 54.5t-77.5 162.5h-88l15 76h65v55h-61z" />
    <glyph glyph-name="cent.tosf" 
d="M264 528v104h84v-102q69 -10 112.5 -55t48.5 -116l-103 -15q-9 78 -58 93v-309q51 13 66 89l96 -18q-10 -69 -53 -111.5t-109 -52.5v-108h-84v108q-90 14 -140.5 78.5t-50.5 163.5q0 103 51 168t140 83zM191 289q0 -134 73 -159v304q-73 -25 -73 -145z" />
    <glyph glyph-name="sterling.tosf" 
d="M29 0v93h57q55 56 55 120q0 27 -12 59h-102v85h71q-27 55 -27 103q0 84 64 138q65 54 169 54q100 0 153 -43.5t67 -140.5l-101 -20q-9 61 -35 87.5t-86 26.5q-56 0 -87.5 -25.5t-31.5 -77.5q0 -42 30 -102h215v-85h-190q10 -27 10 -55q0 -70 -51 -124h146q57 0 82 23
t34 81l98 -18q-9 -93 -58.5 -136t-147.5 -43h-322z" />
    <glyph glyph-name="yen.tosf" 
d="M483 291h-131v-67h131v-77h-131v-147h-115v147h-131v77h131v67h-131v77h93l-165 264h125l137 -230h2l132 230h117l-161 -264h97v-77z" />
    <glyph glyph-name="florin.tosf" 
d="M595 536l-94 -35q-18 66 -65 66q-31 0 -48.5 -17.5t-25.5 -58.5l-20 -108h137l-14 -80h-137l-52 -269q-17 -88 -60 -126.5t-125 -38.5q-121 0 -154 115l94 35q19 -64 69 -64q30 0 46 17t24 58l52 273h-86l13 80h87l21 103q17 87 60.5 126.5t123.5 39.5q118 0 154 -116z
" />
    <glyph glyph-name="hyphen.case" horiz-adv-x="315" 
d="M291 407v-103h-271v103h271z" />
    <glyph glyph-name="idotaccent" horiz-adv-x="257" 
d="M73 517h115v-517h-115v517zM206 680q0 -37 -19.5 -56.5t-55.5 -19.5q-35 0 -55 20t-20 56t20 55.5t55 19.5q36 0 55.5 -19.5t19.5 -55.5z" />
    <glyph glyph-name="jcircumflex.calt" horiz-adv-x="255" 
d="M45 -223q-39 0 -62 10l8 90q25 -5 35 -5q26 0 36.5 17t10.5 57v571h115v-573q0 -167 -143 -167zM186 747l109 -165l-81 -5l-83 105l-83 -107l-82 7l109 165h111z" />
    <glyph glyph-name="s_p" horiz-adv-x="1062" 
d="M660 -212h-111v729h99l6 -55q70 66 173 66q91 0 141 -63.5t50 -193.5q0 -144 -60 -214q-60 -69 -154 -69q-82 0 -144 50v-250zM663 379v-251q56 -46 116 -46q119 0 119 187q0 87 -26 126t-83 39q-68 0 -126 -55zM252 528q163 0 196 -147l-100 -26q-10 46 -32 66.5
t-66 20.5t-66.5 -16.5t-22.5 -44.5q0 -32 26 -48t86 -26q65 -12 102 -28q77 -29 82 -127q0 -78 -57.5 -121t-155.5 -43q-187 0 -211 146l98 32q13 -48 38 -70t79 -22q97 0 97 62q0 25 -15 40q-14 14 -30 19.5t-63 14.5l-37 7l-36 10q-27 8 -36 13q-42 25 -54 46
q-21 36 -21 82q0 77 56 118q57 42 143 42z" />
    <glyph glyph-name="c_t" horiz-adv-x="904" 
d="M876 104l19 -80q-55 -36 -137 -36q-78 0 -116 38t-38 118v524l115 16v-167h140v-85h-140v-274q0 -42 15 -60t54 -18q46 0 88 24zM285 -12q-120 0 -181 69.5t-61 194.5q0 133 67 204.5t189 71.5q88 0 142.5 -50t61.5 -139l-106 -15q-13 112 -103 112q-131 0 -131 -171
q0 -183 128 -183q98 0 114 103l100 -20q-12 -87 -70.5 -132t-149.5 -45z" />
    <glyph glyph-name="c_h" horiz-adv-x="1112" 
d="M1046 352v-352h-115v333q0 51 -20 75t-65 24q-34 0 -71 -16.5t-60 -38.5v-377h-115v755h114v-289q79 62 173 62q81 0 120 -43t39 -133zM285 -12q-120 0 -181 69.5t-61 194.5q0 133 67 204.5t189 71.5q88 0 142.5 -50t61.5 -139l-106 -15q-13 112 -103 112
q-131 0 -131 -171q0 -183 128 -183q98 0 114 103l100 -20q-12 -87 -70.5 -132t-149.5 -45z" />
    <glyph glyph-name="c_k" horiz-adv-x="1070" 
d="M598 755h115v-447l201 209h129l-176 -186l189 -331h-126l-149 255l-68 -67v-188h-115v755zM285 -12q-120 0 -181 69.5t-61 194.5q0 133 67 204.5t189 71.5q88 0 142.5 -50t61.5 -139l-106 -15q-13 112 -103 112q-131 0 -131 -171q0 -183 128 -183q98 0 114 103l100 -20
q-12 -87 -70.5 -132t-149.5 -45z" />
    <glyph glyph-name="T_h" horiz-adv-x="1061" 
d="M995 352v-352h-115v333q0 51 -20 75t-65 24q-34 0 -71 -16.5t-60 -38.5v-377h-115v626h-204v-626h-117v626h-217v98h538v31h114v-289q77 62 173 62q81 0 120 -43t39 -133z" />
    <glyph glyph-name="a.smcp" horiz-adv-x="577" 
d="M22 0l190 556h143l203 -556h-125l-50 136h-198l-46 -136h-117zM207 229h151l-74 224h-2z" />
    <glyph glyph-name="b.smcp" horiz-adv-x="522" 
d="M275 0h-205v556h224q175 0 175 -136q0 -51 -30.5 -83.5t-81.5 -45.5v-2q135 -17 135 -136q0 -153 -217 -153zM184 237v-149h70q63 0 89.5 16t26.5 62q0 48 -37 60q-31 11 -84 11h-65zM184 470v-148h52q120 0 120 78q0 38 -21 54q-6 6 -26 11q-23 5 -69 5h-56z" />
    <glyph glyph-name="c.smcp" horiz-adv-x="569" 
d="M303 -9q-263 0 -263 281q0 137 72.5 215.5t203.5 78.5q101 0 160 -51t65 -149l-104 -10q-6 61 -35 89t-87 28q-157 0 -157 -195q0 -101 37 -147.5t114 -46.5q56 0 86.5 25t42.5 77l101 -17q-13 -91 -81 -135q-67 -43 -155 -43z" />
    <glyph glyph-name="d.smcp" horiz-adv-x="593" 
d="M254 0h-184v556h198q144 0 215 -69.5t71 -200.5q0 -135 -76.5 -210.5t-223.5 -75.5zM184 465v-375h67q186 0 186 189q0 103 -42 144.5t-137 41.5h-74z" />
    <glyph glyph-name="e.smcp" horiz-adv-x="480" 
d="M416 233h-232v-138h261v-95h-375v556h361v-95h-247v-139h232v-89z" />
    <glyph glyph-name="f.smcp" horiz-adv-x="456" 
d="M409 221h-225v-221h-114v556h359v-95h-245v-148h225v-92z" />
    <glyph glyph-name="g.smcp" horiz-adv-x="604" 
d="M547 0h-83l-13 69q-19 -35 -65.5 -56.5t-101.5 -21.5q-121 0 -182.5 73.5t-61.5 204.5q0 139 72 218t205 79q101 0 159.5 -48.5t66.5 -146.5l-107 -10q-10 112 -121 112q-156 0 -156 -194q0 -104 36.5 -151t114.5 -47q55 0 90 32q34 31 34 69v24h-113v83h226v-289z" />
    <glyph glyph-name="h.smcp" horiz-adv-x="599" 
d="M415 556h114v-556h-114v231h-231v-231h-114v556h114v-228h231v228z" />
    <glyph glyph-name="i.smcp" horiz-adv-x="254" 
d="M70 556h114v-556h-114v556z" />
    <glyph glyph-name="j.smcp" horiz-adv-x="434" 
d="M255 150v406h115v-403q0 -80 -46 -121t-132 -41q-164 0 -171 151l110 17q4 -43 17 -60.5t46 -17.5q31 0 46 16t15 53z" />
    <glyph glyph-name="k.smcp" horiz-adv-x="548" 
d="M70 556h114v-246l229 246h123l-214 -233l213 -323h-134l-160 238l-57 -60v-178h-114v556z" />
    <glyph glyph-name="l.smcp" horiz-adv-x="466" 
d="M70 556h114v-461h249v-95h-363v556z" />
    <glyph glyph-name="m.smcp" horiz-adv-x="743" 
d="M503 556h170v-556h-107v444h-3l-142 -444h-105l-138 445h-3v-445h-105v556h171l130 -418h3z" />
    <glyph glyph-name="n.smcp" horiz-adv-x="610" 
d="M540 556v-556h-133l-232 406v-406h-105v556h139l227 -406v406h104z" />
    <glyph glyph-name="o.smcp" horiz-adv-x="621" 
d="M40 276q0 130 72 209q74 81 207 81t197 -78q66 -78 66 -202q0 -140 -70.5 -217.5t-204.5 -77.5q-133 0 -200 75t-67 210zM464 280q0 192 -147 192q-76 0 -117.5 -48.5t-41.5 -145.5q0 -193 153 -193t153 195z" />
    <glyph glyph-name="p.smcp" horiz-adv-x="510" 
d="M250 181h-67v-181h-113v556h213q98 0 145 -46.5t47 -125.5q0 -100 -57 -151.5t-168 -51.5zM183 464v-191h56q60 0 89 23t29 80q0 52 -28 70t-95 18h-51z" />
    <glyph glyph-name="q.smcp" horiz-adv-x="621" 
d="M315 -9q-133 0 -200 75t-67 210q0 130 72 209q74 81 207 81t197 -78q66 -78 66 -202q0 -138 -71 -218l59 -62l-62 -55l-65 67q-55 -27 -136 -27zM319 85q36 0 60 10l-90 94l63 58l92 -98q28 46 28 131q0 192 -147 192q-76 0 -117.5 -48.5t-41.5 -145.5q0 -193 153 -193z
" />
    <glyph glyph-name="r.smcp" horiz-adv-x="525" 
d="M379 241l132 -241h-123l-117 213h-88v-213h-113v556h220q96 0 143 -42t47 -113q0 -118 -101 -160zM183 463v-161h72q107 0 107 85q0 43 -24.5 59.5t-80.5 16.5h-74z" />
    <glyph glyph-name="s.smcp" horiz-adv-x="488" 
d="M246 477q-91 0 -91 -62q0 -15 6.5 -27.5t15 -20t26 -15t30 -11.5t36.5 -10.5t36 -10.5q70 -18 110 -52t41 -103q0 -87 -62 -131q-61 -43 -156 -43q-206 0 -220 176l105 14q10 -51 36 -76t82 -25q103 0 103 73q0 13 -3.5 23.5t-13.5 19t-17.5 13.5t-26 11t-27 8.5t-32.5 8
t-32 7.5q-33 8 -56 18t-46.5 27.5t-36 45.5t-12.5 66q0 78 58 121q59 44 149 44q190 0 202 -165l-105 -12q-4 44 -27 66t-72 22z" />
    <glyph glyph-name="t.smcp" horiz-adv-x="485" 
d="M301 461v-461h-115v461h-171v95h455v-95h-169z" />
    <glyph glyph-name="u.smcp" horiz-adv-x="580" 
d="M402 215v341h115v-358q0 -103 -59.5 -155t-170.5 -52q-116 0 -170 50.5t-54 158.5v356h115v-338q0 -70 26 -101t87 -31q62 0 86.5 28.5t24.5 100.5z" />
    <glyph glyph-name="v.smcp" horiz-adv-x="537" 
d="M530 556l-180 -556h-155l-187 556h128l137 -448h4l135 448h118z" />
    <glyph glyph-name="w.smcp" horiz-adv-x="774" 
d="M758 556l-123 -556h-146l-98 396h-3l-98 -396h-150l-124 556h120l83 -436h3l107 436h123l109 -439h4l78 439h115z" />
    <glyph glyph-name="x.smcp" horiz-adv-x="531" 
d="M389 556h122l-178 -274l188 -282h-133l-128 193l-125 -193h-126l187 281l-178 275h130l120 -194z" />
    <glyph glyph-name="y.smcp" horiz-adv-x="493" 
d="M497 556l-187 -345v-211h-115v210l-199 346h125l131 -244h3l127 244h115z" />
    <glyph glyph-name="z.smcp" horiz-adv-x="486" 
d="M443 556v-85l-275 -376h285v-95h-422v82l278 379h-271v95h405z" />
    <glyph glyph-name="thorn.smcp" horiz-adv-x="500" 
d="M250 116h-67v-116h-113v556h113v-85h91q191 0 191 -175q0 -87 -55 -133.5t-160 -46.5zM183 379v-171h56q55 0 81.5 20.5t26.5 72.5q0 43 -27.5 60.5t-85.5 17.5h-51z" />
    <glyph glyph-name="agrave.smcp" horiz-adv-x="577" 
d="M22 0l190 556h143l203 -556h-125l-50 136h-198l-46 -136h-117zM207 229h151l-74 224h-2zM356 617l-80 -10l-138 174h130z" />
    <glyph glyph-name="aacute.smcp" horiz-adv-x="577" 
d="M22 0l190 556h143l203 -556h-125l-50 136h-198l-46 -136h-117zM207 229h151l-74 224h-2zM304 781h130l-138 -174l-80 10z" />
    <glyph glyph-name="acircumflex.smcp" horiz-adv-x="577" 
d="M22 0l190 556h143l203 -556h-125l-50 136h-198l-46 -136h-117zM207 229h151l-74 224h-2zM338 782l109 -165l-81 -5l-83 105l-83 -107l-82 7l109 165h111z" />
    <glyph glyph-name="atilde.smcp" horiz-adv-x="577" 
d="M22 0l190 556h143l203 -556h-125l-50 136h-198l-46 -136h-117zM207 229h151l-74 224h-2zM206 757q33 0 82 -23q47 -22 68 -22q19 0 26.5 10t7.5 39l64 -4q7 -61 -16.5 -95t-70.5 -34q-34 0 -85 23t-68 23q-37 0 -33 -52l-66 3q-7 61 18.5 96.5t72.5 35.5z" />
    <glyph glyph-name="adieresis.smcp" horiz-adv-x="577" 
d="M22 0l190 556h143l203 -556h-125l-50 136h-198l-46 -136h-117zM207 229h151l-74 224h-2zM247 710q0 -33 -20 -52t-53 -19t-53.5 19t-20.5 52q0 31 20.5 50.5t53.5 19.5q32 0 52.5 -19.5t20.5 -50.5zM467 710q0 -33 -20 -52t-53 -19q-34 0 -54 19t-20 52q0 32 20 51t54 19
q32 0 52.5 -19.5t20.5 -50.5z" />
    <glyph glyph-name="aring.smcp" horiz-adv-x="577" 
d="M387 628q0 -47 -31 -75l202 -553h-125l-50 136h-198l-46 -136h-117l187 547q-37 25 -37 77q0 49 30.5 77t77.5 28q48 0 77.5 -26.5t29.5 -74.5zM207 229h151l-74 224h-2zM279 581q22 0 34 12.5t12 34.5q0 45 -45 45q-48 0 -48 -46t47 -46z" />
    <glyph glyph-name="aringacute.smcp" horiz-adv-x="577" 
d="M387 628q0 -47 -31 -75l202 -553h-125l-50 136h-198l-46 -136h-117l187 547q-37 25 -37 77q0 49 30.5 77t77.5 28q48 0 77.5 -26.5t29.5 -74.5zM207 229h151l-74 224h-2zM312 889h130l-142 -148l-84 11zM279 581q22 0 34 12.5t12 34.5q0 45 -45 45q-48 0 -48 -46t47 -46z
" />
    <glyph glyph-name="ccedilla.smcp" horiz-adv-x="569" 
d="M199 -214l17 59q27 -11 52 -11q50 0 50 41q0 23 -16.5 32.5t-53.5 10.5l11 76q-219 21 -219 278q0 137 72.5 215.5t203.5 78.5q101 0 160 -51t65 -149l-104 -10q-6 61 -35 89t-87 28q-157 0 -157 -195q0 -101 37 -147.5t114 -46.5q56 0 86.5 25t42.5 77l101 -17
q-12 -83 -71.5 -128t-145.5 -49l-4 -30q81 -15 81 -89q0 -48 -33 -76.5t-85 -28.5q-45 0 -82 18z" />
    <glyph glyph-name="egrave.smcp" horiz-adv-x="480" 
d="M416 233h-232v-138h261v-95h-375v556h361v-95h-247v-139h232v-89zM345 617l-80 -10l-138 174h130z" />
    <glyph glyph-name="eacute.smcp" horiz-adv-x="480" 
d="M416 233h-232v-138h261v-95h-375v556h361v-95h-247v-139h232v-89zM253 781h130l-138 -174l-80 10z" />
    <glyph glyph-name="ecircumflex.smcp" horiz-adv-x="480" 
d="M416 233h-232v-138h261v-95h-375v556h361v-95h-247v-139h232v-89zM310 782l109 -165l-81 -5l-83 105l-83 -107l-82 7l109 165h111z" />
    <glyph glyph-name="edieresis.smcp" horiz-adv-x="480" 
d="M219 710q0 -33 -20 -52t-53 -19t-53.5 19t-20.5 52q0 31 20.5 50.5t53.5 19.5q32 0 52.5 -19.5t20.5 -50.5zM439 710q0 -33 -20 -52t-53 -19q-34 0 -54 19t-20 52q0 32 20 51t54 19q32 0 52.5 -19.5t20.5 -50.5zM416 233h-232v-138h261v-95h-375v556h361v-95h-247v-139
h232v-89z" />
    <glyph glyph-name="igrave.smcp" horiz-adv-x="254" 
d="M70 556h114v-556h-114v556zM191 617l-80 -10l-138 174h130z" />
    <glyph glyph-name="iacute.smcp" horiz-adv-x="254" 
d="M70 556h114v-556h-114v556zM159 781h130l-138 -174l-80 10z" />
    <glyph glyph-name="icircumflex.smcp" horiz-adv-x="254" 
d="M182 782l109 -165l-81 -5l-83 105l-83 -107l-82 7l109 165h111zM70 556h114v-556h-114v556z" />
    <glyph glyph-name="idieresis.smcp" horiz-adv-x="254" 
d="M91 710q0 -33 -20 -52t-53 -19t-53.5 19t-20.5 52q0 31 20.5 50.5t53.5 19.5q32 0 52.5 -19.5t20.5 -50.5zM311 710q0 -33 -20 -52t-53 -19q-34 0 -54 19t-20 52q0 32 20 51t54 19q32 0 52.5 -19.5t20.5 -50.5zM70 556h114v-556h-114v556z" />
    <glyph glyph-name="eth.smcp" horiz-adv-x="593" 
d="M254 0h-184v237h-56v91h56v228h198q144 0 215 -69.5t71 -200.5q0 -135 -76.5 -210.5t-223.5 -75.5zM184 237v-147h67q186 0 186 189q0 103 -42 144.5t-137 41.5h-74v-137h145v-91h-145z" />
    <glyph glyph-name="ntilde.smcp" horiz-adv-x="610" 
d="M233 757q33 0 82 -23q47 -22 68 -22q19 0 26.5 10t7.5 39l64 -4q7 -61 -16.5 -95t-70.5 -34q-34 0 -85 23t-68 23q-37 0 -33 -52l-66 3q-7 61 18.5 96.5t72.5 35.5zM540 556v-556h-133l-232 406v-406h-105v556h139l227 -406v406h104z" />
    <glyph glyph-name="ograve.smcp" horiz-adv-x="621" 
d="M40 276q0 130 72 209q74 81 207 81t197 -78q66 -78 66 -202q0 -140 -70.5 -217.5t-204.5 -77.5q-133 0 -200 75t-67 210zM464 280q0 192 -147 192q-76 0 -117.5 -48.5t-41.5 -145.5q0 -193 153 -193t153 195zM407 617l-80 -10l-138 174h130z" />
    <glyph glyph-name="oacute.smcp" horiz-adv-x="621" 
d="M40 276q0 130 72 209q74 81 207 81t197 -78q66 -78 66 -202q0 -140 -70.5 -217.5t-204.5 -77.5q-133 0 -200 75t-67 210zM464 280q0 192 -147 192q-76 0 -117.5 -48.5t-41.5 -145.5q0 -193 153 -193t153 195zM315 781h130l-138 -174l-80 10z" />
    <glyph glyph-name="ocircumflex.smcp" horiz-adv-x="621" 
d="M40 276q0 130 72 209q74 81 207 81t197 -78q66 -78 66 -202q0 -140 -70.5 -217.5t-204.5 -77.5q-133 0 -200 75t-67 210zM464 280q0 192 -147 192q-76 0 -117.5 -48.5t-41.5 -145.5q0 -193 153 -193t153 195zM372 782l109 -165l-81 -5l-83 105l-83 -107l-82 7l109 165
h111z" />
    <glyph glyph-name="otilde.smcp" horiz-adv-x="621" 
d="M240 757q33 0 82 -23q47 -22 68 -22q19 0 26.5 10t7.5 39l64 -4q7 -61 -16.5 -95t-70.5 -34q-34 0 -85 23t-68 23q-37 0 -33 -52l-66 3q-7 61 18.5 96.5t72.5 35.5zM40 276q0 130 72 209q74 81 207 81t197 -78q66 -78 66 -202q0 -140 -70.5 -217.5t-204.5 -77.5
q-133 0 -200 75t-67 210zM464 280q0 192 -147 192q-76 0 -117.5 -48.5t-41.5 -145.5q0 -193 153 -193t153 195z" />
    <glyph glyph-name="odieresis.smcp" horiz-adv-x="621" 
d="M40 276q0 130 72 209q74 81 207 81t197 -78q66 -78 66 -202q0 -140 -70.5 -217.5t-204.5 -77.5q-133 0 -200 75t-67 210zM464 280q0 192 -147 192q-76 0 -117.5 -48.5t-41.5 -145.5q0 -193 153 -193t153 195zM281 710q0 -33 -20 -52t-53 -19t-53.5 19t-20.5 52
q0 31 20.5 50.5t53.5 19.5q32 0 52.5 -19.5t20.5 -50.5zM501 710q0 -33 -20 -52t-53 -19q-34 0 -54 19t-20 52q0 32 20 51t54 19q32 0 52.5 -19.5t20.5 -50.5z" />
    <glyph glyph-name="oslash.smcp" horiz-adv-x="621" 
d="M307 -9q-45 0 -83 9l-34 -67h-113l56 109q-93 72 -93 234q0 130 72 209q74 81 207 81q36 0 76 -8l30 58h112l-51 -100q96 -73 96 -230q0 -140 -70.5 -217.5t-204.5 -77.5zM311 85q153 0 153 195q0 84 -30 133l-165 -324q15 -4 42 -4zM158 278q0 -84 28 -131l164 322
q-16 3 -33 3q-76 0 -117.5 -48.5t-41.5 -145.5z" />
    <glyph glyph-name="oslashacute.smcp" horiz-adv-x="621" 
d="M307 -9q-45 0 -83 9l-34 -67h-113l56 109q-93 72 -93 234q0 130 72 209q74 81 207 81q36 0 76 -8l30 58h112l-51 -100q96 -73 96 -230q0 -140 -70.5 -217.5t-204.5 -77.5zM311 85q153 0 153 195q0 84 -30 133l-165 -324q15 -4 42 -4zM158 278q0 -84 28 -131l164 322
q-16 3 -33 3q-76 0 -117.5 -48.5t-41.5 -145.5zM315 781h130l-138 -174l-80 10z" />
    <glyph glyph-name="ugrave.smcp" horiz-adv-x="580" 
d="M402 215v341h115v-358q0 -103 -59.5 -155t-170.5 -52q-116 0 -170 50.5t-54 158.5v356h115v-338q0 -70 26 -101t87 -31q62 0 86.5 28.5t24.5 100.5zM364 617l-80 -10l-138 174h130z" />
    <glyph glyph-name="uacute.smcp" horiz-adv-x="580" 
d="M402 215v341h115v-358q0 -103 -59.5 -155t-170.5 -52q-116 0 -170 50.5t-54 158.5v356h115v-338q0 -70 26 -101t87 -31q62 0 86.5 28.5t24.5 100.5zM303 781h130l-138 -174l-80 10z" />
    <glyph glyph-name="ucircumflex.smcp" horiz-adv-x="580" 
d="M402 215v341h115v-358q0 -103 -59.5 -155t-170.5 -52q-116 0 -170 50.5t-54 158.5v356h115v-338q0 -70 26 -101t87 -31q62 0 86.5 28.5t24.5 100.5zM344 782l109 -165l-81 -5l-83 105l-83 -107l-82 7l109 165h111z" />
    <glyph glyph-name="udieresis.smcp" horiz-adv-x="580" 
d="M253 710q0 -33 -20 -52t-53 -19t-53.5 19t-20.5 52q0 31 20.5 50.5t53.5 19.5q32 0 52.5 -19.5t20.5 -50.5zM473 710q0 -33 -20 -52t-53 -19q-34 0 -54 19t-20 52q0 32 20 51t54 19q32 0 52.5 -19.5t20.5 -50.5zM402 215v341h115v-358q0 -103 -59.5 -155t-170.5 -52
q-116 0 -170 50.5t-54 158.5v356h115v-338q0 -70 26 -101t87 -31q62 0 86.5 28.5t24.5 100.5z" />
    <glyph glyph-name="yacute.smcp" horiz-adv-x="493" 
d="M497 556l-187 -345v-211h-115v210l-199 346h125l131 -244h3l127 244h115zM278 781h130l-138 -174l-80 10z" />
    <glyph glyph-name="ydieresis.smcp" horiz-adv-x="493" 
d="M497 556l-187 -345v-211h-115v210l-199 346h125l131 -244h3l127 244h115zM214 710q0 -33 -20 -52t-53 -19t-53.5 19t-20.5 52q0 31 20.5 50.5t53.5 19.5q32 0 52.5 -19.5t20.5 -50.5zM434 710q0 -33 -20 -52t-53 -19q-34 0 -54 19t-20 52q0 32 20 51t54 19
q32 0 52.5 -19.5t20.5 -50.5z" />
    <glyph glyph-name="amacron.smcp" horiz-adv-x="577" 
d="M22 0l190 556h143l203 -556h-125l-50 136h-198l-46 -136h-117zM207 229h151l-74 224h-2zM432 734v-83h-299v83h299z" />
    <glyph glyph-name="abreve.smcp" horiz-adv-x="577" 
d="M22 0l190 556h143l203 -556h-125l-50 136h-198l-46 -136h-117zM207 229h151l-74 224h-2zM370 769l78 -6q-4 -77 -46.5 -117t-118.5 -40q-149 0 -155 155l80 9q4 -48 22 -68.5t57 -20.5q40 0 59.5 20t23.5 68z" />
    <glyph glyph-name="aogonek.smcp" horiz-adv-x="577" 
d="M534 -117l55 -27q-16 -41 -50 -64.5t-77 -23.5q-50 0 -78 24t-28 67q0 70 77 141l-50 136h-198l-46 -136h-117l190 556h143l203 -556q-47 -20 -78.5 -54.5t-31.5 -66.5q0 -37 35 -37q31 0 51 41zM207 229h151l-74 224h-2z" />
    <glyph glyph-name="cacute.smcp" horiz-adv-x="569" 
d="M303 -9q-263 0 -263 281q0 137 72.5 215.5t203.5 78.5q101 0 160 -51t65 -149l-104 -10q-6 61 -35 89t-87 28q-157 0 -157 -195q0 -101 37 -147.5t114 -46.5q56 0 86.5 25t42.5 77l101 -17q-13 -91 -81 -135q-67 -43 -155 -43zM313 781h130l-138 -174l-80 10z" />
    <glyph glyph-name="ccircumflex.smcp" horiz-adv-x="569" 
d="M303 -9q-263 0 -263 281q0 137 72.5 215.5t203.5 78.5q101 0 160 -51t65 -149l-104 -10q-6 61 -35 89t-87 28q-157 0 -157 -195q0 -101 37 -147.5t114 -46.5q56 0 86.5 25t42.5 77l101 -17q-13 -91 -81 -135q-67 -43 -155 -43zM370 782l109 -165l-81 -5l-83 105l-83 -107
l-82 7l109 165h111z" />
    <glyph glyph-name="cdotaccent.smcp" horiz-adv-x="569" 
d="M303 -9q-263 0 -263 281q0 137 72.5 215.5t203.5 78.5q101 0 160 -51t65 -149l-104 -10q-6 61 -35 89t-87 28q-157 0 -157 -195q0 -101 37 -147.5t114 -46.5q56 0 86.5 25t42.5 77l101 -17q-13 -91 -81 -135q-67 -43 -155 -43zM390 715q0 -37 -20 -56.5t-55 -19.5
q-36 0 -55.5 19.5t-19.5 56.5q0 36 19.5 55.5t55.5 19.5q35 0 55 -19.5t20 -55.5z" />
    <glyph glyph-name="ccaron.smcp" horiz-adv-x="569" 
d="M303 -9q-263 0 -263 281q0 137 72.5 215.5t203.5 78.5q101 0 160 -51t65 -149l-104 -10q-6 61 -35 89t-87 28q-157 0 -157 -195q0 -101 37 -147.5t114 -46.5q56 0 86.5 25t42.5 77l101 -17q-13 -91 -81 -135q-67 -43 -155 -43zM259 607l-109 164l85 6l81 -105l84 106
l79 -7l-109 -164h-111z" />
    <glyph glyph-name="dcaron.smcp" horiz-adv-x="593" 
d="M254 0h-184v556h198q144 0 215 -69.5t71 -200.5q0 -135 -76.5 -210.5t-223.5 -75.5zM184 465v-375h67q186 0 186 189q0 103 -42 144.5t-137 41.5h-74zM205 607l-109 164l85 6l81 -105l84 106l79 -7l-109 -164h-111z" />
    <glyph glyph-name="dcroat.smcp" horiz-adv-x="593" 
d="M254 0h-184v237h-56v91h56v228h198q144 0 215 -69.5t71 -200.5q0 -135 -76.5 -210.5t-223.5 -75.5zM184 237v-147h67q186 0 186 189q0 103 -42 144.5t-137 41.5h-74v-137h145v-91h-145z" />
    <glyph glyph-name="emacron.smcp" horiz-adv-x="480" 
d="M416 233h-232v-138h261v-95h-375v556h361v-95h-247v-139h232v-89zM404 734v-83h-299v83h299z" />
    <glyph glyph-name="ebreve.smcp" horiz-adv-x="480" 
d="M342 769l78 -6q-4 -77 -46.5 -117t-118.5 -40q-149 0 -155 155l80 9q4 -48 22 -68.5t57 -20.5q40 0 59.5 20t23.5 68zM416 233h-232v-138h261v-95h-375v556h361v-95h-247v-139h232v-89z" />
    <glyph glyph-name="edotaccent.smcp" horiz-adv-x="480" 
d="M416 233h-232v-138h261v-95h-375v556h361v-95h-247v-139h232v-89zM330 715q0 -37 -20 -56.5t-55 -19.5q-36 0 -55.5 19.5t-19.5 56.5q0 36 19.5 55.5t55.5 19.5q35 0 55 -19.5t20 -55.5z" />
    <glyph glyph-name="eogonek.smcp" horiz-adv-x="480" 
d="M402 -117l55 -27q-16 -41 -50 -64.5t-77 -23.5q-50 0 -78 24t-28 67q0 73 87 141h-241v556h361v-95h-247v-139h232v-89h-232v-138h261v-95h-48q-45 -42 -63 -67.5t-18 -53.5q0 -37 35 -37q31 0 51 41z" />
    <glyph glyph-name="ecaron.smcp" horiz-adv-x="480" 
d="M416 233h-232v-138h261v-95h-375v556h361v-95h-247v-139h232v-89zM199 607l-109 164l85 6l81 -105l84 106l79 -7l-109 -164h-111z" />
    <glyph glyph-name="gcircumflex.smcp" horiz-adv-x="604" 
d="M547 0h-83l-13 69q-19 -35 -65.5 -56.5t-101.5 -21.5q-121 0 -182.5 73.5t-61.5 204.5q0 139 72 218t205 79q101 0 159.5 -48.5t66.5 -146.5l-107 -10q-10 112 -121 112q-156 0 -156 -194q0 -104 36.5 -151t114.5 -47q55 0 90 32q34 31 34 69v24h-113v83h226v-289z
M369 782l109 -165l-81 -5l-83 105l-83 -107l-82 7l109 165h111z" />
    <glyph glyph-name="gbreve.smcp" horiz-adv-x="604" 
d="M547 0h-83l-13 69q-19 -35 -65.5 -56.5t-101.5 -21.5q-121 0 -182.5 73.5t-61.5 204.5q0 139 72 218t205 79q101 0 159.5 -48.5t66.5 -146.5l-107 -10q-10 112 -121 112q-156 0 -156 -194q0 -104 36.5 -151t114.5 -47q55 0 90 32q34 31 34 69v24h-113v83h226v-289z
M401 769l78 -6q-4 -77 -46.5 -117t-118.5 -40q-149 0 -155 155l80 9q4 -48 22 -68.5t57 -20.5q40 0 59.5 20t23.5 68z" />
    <glyph glyph-name="gdotaccent.smcp" horiz-adv-x="604" 
d="M547 0h-83l-13 69q-19 -35 -65.5 -56.5t-101.5 -21.5q-121 0 -182.5 73.5t-61.5 204.5q0 139 72 218t205 79q101 0 159.5 -48.5t66.5 -146.5l-107 -10q-10 112 -121 112q-156 0 -156 -194q0 -104 36.5 -151t114.5 -47q55 0 90 32q34 31 34 69v24h-113v83h226v-289z
M389 715q0 -37 -19.5 -56.5t-55.5 -19.5t-55.5 19.5t-19.5 56.5q0 36 19.5 55.5t55.5 19.5q35 0 55 -19.5t20 -55.5z" />
    <glyph glyph-name="gcommaaccent.smcp" horiz-adv-x="604" 
d="M547 0h-83l-13 69q-19 -35 -65.5 -56.5t-101.5 -21.5q-121 0 -182.5 73.5t-61.5 204.5q0 139 72 218t205 79q101 0 159.5 -48.5t66.5 -146.5l-107 -10q-10 112 -121 112q-156 0 -156 -194q0 -104 36.5 -151t114.5 -47q55 0 90 32q34 31 34 69v24h-113v83h226v-289z
M294 -255l-82 12l42 175h114z" />
    <glyph glyph-name="hcircumflex.smcp" horiz-adv-x="599" 
d="M415 556h114v-556h-114v231h-231v-231h-114v556h114v-228h231v228zM354 782l109 -165l-81 -5l-83 105l-83 -107l-82 7l109 165h111z" />
    <glyph glyph-name="hbar.smcp" horiz-adv-x="599" 
d="M415 556h114v-76h57v-77h-57v-403h-114v231h-231v-231h-114v403h-57v77h57v76h114v-76h231v76zM184 403v-75h231v75h-231z" />
    <glyph glyph-name="itilde.smcp" horiz-adv-x="254" 
d="M57 757q33 0 82 -23q47 -22 68 -22q19 0 26.5 10t7.5 39l64 -4q7 -61 -16.5 -95t-70.5 -34q-34 0 -85 23t-68 23q-37 0 -33 -52l-66 3q-7 61 18.5 96.5t72.5 35.5zM77 556h114v-556h-114v556z" />
    <glyph glyph-name="imacron.smcp" horiz-adv-x="254" 
d="M276 734v-83h-299v83h299zM70 556h114v-556h-114v556z" />
    <glyph glyph-name="ibreve.smcp" horiz-adv-x="254" 
d="M214 769l78 -6q-4 -77 -46.5 -117t-118.5 -40q-149 0 -155 155l80 9q4 -48 22 -68.5t57 -20.5q40 0 59.5 20t23.5 68zM70 556h114v-556h-114v556z" />
    <glyph glyph-name="iogonek.smcp" horiz-adv-x="254" 
d="M173 -117l55 -27q-16 -41 -50 -64.5t-77 -23.5q-50 0 -78 24t-28 67q0 71 75 141v556h114v-556q-53 -37 -75 -64t-22 -57q0 -37 35 -37q30 0 51 41z" />
    <glyph glyph-name="idotaccent.smcp" horiz-adv-x="254" 
d="M70 556h114v-556h-114v556zM202 715q0 -37 -20 -56.5t-55 -19.5q-36 0 -55.5 19.5t-19.5 56.5q0 36 19.5 55.5t55.5 19.5q35 0 55 -19.5t20 -55.5z" />
    <glyph glyph-name="dotlessi.smcp" horiz-adv-x="254" 
d="M70 556h114v-556h-114v556z" />
    <glyph glyph-name="jcircumflex.smcp" horiz-adv-x="434" 
d="M255 150v406h115v-403q0 -80 -46 -121t-132 -41q-164 0 -171 151l110 17q4 -43 17 -60.5t46 -17.5q31 0 46 16t15 53zM366 782l109 -165l-81 -5l-83 105l-83 -107l-82 7l109 165h111z" />
    <glyph glyph-name="kcommaaccent.smcp" horiz-adv-x="548" 
d="M70 556h114v-246l229 246h123l-214 -233l213 -323h-134l-160 238l-57 -60v-178h-114v556zM268 -255l-82 12l42 175h114z" />
    <glyph glyph-name="kgreenlandic.smcp" horiz-adv-x="548" 
d="M70 556h114v-246l229 246h123l-214 -233l213 -323h-134l-160 238l-57 -60v-178h-114v556z" />
    <glyph glyph-name="lacute.smcp" horiz-adv-x="466" 
d="M70 556h114v-461h249v-95h-363v556zM146 781h130l-138 -174l-80 10z" />
    <glyph glyph-name="lcommaaccent.smcp" horiz-adv-x="466" 
d="M70 556h114v-461h249v-95h-363v556zM237 -255l-82 12l42 175h114z" />
    <glyph glyph-name="lcaron.smcp" horiz-adv-x="466" 
d="M70 556h114v-461h249v-95h-363v556zM340 355l-82 9l33 192h112z" />
    <glyph glyph-name="ldot.smcp" horiz-adv-x="466" 
d="M70 556h114v-461h249v-95h-363v556zM351 259q-73 0 -73 73t73 73q34 0 53 -19t19 -54t-19 -54t-53 -19z" />
    <glyph glyph-name="nacute.smcp" horiz-adv-x="610" 
d="M540 556v-556h-133l-232 406v-406h-105v556h139l227 -406v406h104zM339 781h130l-138 -174l-80 10z" />
    <glyph glyph-name="ncommaaccent.smcp" horiz-adv-x="610" 
d="M540 556v-556h-133l-232 406v-406h-105v556h139l227 -406v406h104zM296 -255l-82 12l42 175h114z" />
    <glyph glyph-name="ncaron.smcp" horiz-adv-x="610" 
d="M540 556v-556h-133l-232 406v-406h-105v556h139l227 -406v406h104zM255 607l-109 164l85 6l81 -105l84 106l79 -7l-109 -164h-111z" />
    <glyph glyph-name="napostrophe.smcp" horiz-adv-x="653" 
d="M583 556v-556h-133l-232 406v-406h-105v556h139l227 -406v406h104zM63 523l-78 11l40 169h110z" />
    <glyph glyph-name="eng.smcp" horiz-adv-x="583" 
d="M367 -223q-66 0 -117 25l14 88q48 -19 84 -19q77 0 77 80v46l-250 409v-406h-105v556h139l227 -377v377h104v-612q0 -167 -173 -167z" />
    <glyph glyph-name="omacron.smcp" horiz-adv-x="621" 
d="M40 276q0 130 72 209q74 81 207 81t197 -78q66 -78 66 -202q0 -140 -70.5 -217.5t-204.5 -77.5q-133 0 -200 75t-67 210zM464 280q0 192 -147 192q-76 0 -117.5 -48.5t-41.5 -145.5q0 -193 153 -193t153 195zM466 734v-83h-299v83h299z" />
    <glyph glyph-name="obreve.smcp" horiz-adv-x="621" 
d="M40 276q0 130 72 209q74 81 207 81t197 -78q66 -78 66 -202q0 -140 -70.5 -217.5t-204.5 -77.5q-133 0 -200 75t-67 210zM464 280q0 192 -147 192q-76 0 -117.5 -48.5t-41.5 -145.5q0 -193 153 -193t153 195zM404 769l78 -6q-4 -77 -46.5 -117t-118.5 -40
q-149 0 -155 155l80 9q4 -48 22 -68.5t57 -20.5q40 0 59.5 20t23.5 68z" />
    <glyph glyph-name="ohungarumlaut.smcp" horiz-adv-x="621" 
d="M40 276q0 130 72 209q74 81 207 81t197 -78q66 -78 66 -202q0 -140 -70.5 -217.5t-204.5 -77.5q-133 0 -200 75t-67 210zM464 280q0 192 -147 192q-76 0 -117.5 -48.5t-41.5 -145.5q0 -193 153 -193t153 195zM260 780h125l-110 -173l-77 13zM432 783h130l-144 -176
l-80 10z" />
    <glyph glyph-name="racute.smcp" horiz-adv-x="525" 
d="M379 241l132 -241h-123l-117 213h-88v-213h-113v556h220q96 0 143 -42t47 -113q0 -118 -101 -160zM183 463v-161h72q107 0 107 85q0 43 -24.5 59.5t-80.5 16.5h-74zM257 781h130l-138 -174l-80 10z" />
    <glyph glyph-name="rcommaaccent.smcp" horiz-adv-x="525" 
d="M379 241l132 -241h-123l-117 213h-88v-213h-113v556h220q96 0 143 -42t47 -113q0 -118 -101 -160zM183 463v-161h72q107 0 107 85q0 43 -24.5 59.5t-80.5 16.5h-74zM266 -255l-82 12l42 175h114z" />
    <glyph glyph-name="rcaron.smcp" horiz-adv-x="525" 
d="M379 241l132 -241h-123l-117 213h-88v-213h-113v556h220q96 0 143 -42t47 -113q0 -118 -101 -160zM183 463v-161h72q107 0 107 85q0 43 -24.5 59.5t-80.5 16.5h-74zM203 607l-109 164l85 6l81 -105l84 106l79 -7l-109 -164h-111z" />
    <glyph glyph-name="sacute.smcp" horiz-adv-x="488" 
d="M246 477q-91 0 -91 -62q0 -15 6.5 -27.5t15 -20t26 -15t30 -11.5t36.5 -10.5t36 -10.5q70 -18 110 -52t41 -103q0 -87 -62 -131q-61 -43 -156 -43q-206 0 -220 176l105 14q10 -51 36 -76t82 -25q103 0 103 73q0 13 -3.5 23.5t-13.5 19t-17.5 13.5t-26 11t-27 8.5t-32.5 8
t-32 7.5q-33 8 -56 18t-46.5 27.5t-36 45.5t-12.5 66q0 78 58 121q59 44 149 44q190 0 202 -165l-105 -12q-4 44 -27 66t-72 22zM251 781h130l-138 -174l-80 10z" />
    <glyph glyph-name="scircumflex.smcp" horiz-adv-x="488" 
d="M246 477q-91 0 -91 -62q0 -15 6.5 -27.5t15 -20t26 -15t30 -11.5t36.5 -10.5t36 -10.5q70 -18 110 -52t41 -103q0 -87 -62 -131q-61 -43 -156 -43q-206 0 -220 176l105 14q10 -51 36 -76t82 -25q103 0 103 73q0 13 -3.5 23.5t-13.5 19t-17.5 13.5t-26 11t-27 8.5t-32.5 8
t-32 7.5q-33 8 -56 18t-46.5 27.5t-36 45.5t-12.5 66q0 78 58 121q59 44 149 44q190 0 202 -165l-105 -12q-4 44 -27 66t-72 22zM301 782l109 -165l-81 -5l-83 105l-83 -107l-82 7l109 165h111z" />
    <glyph glyph-name="scedilla.smcp" horiz-adv-x="488" 
d="M146 -214l17 59q27 -11 52 -11q50 0 50 41q0 23 -16.5 32.5t-53.5 10.5l10 74q-174 15 -187 175l105 14q10 -51 36 -76t82 -25q103 0 103 73q0 13 -3.5 23.5t-13.5 19t-17.5 13.5t-26 11t-27 8.5t-32.5 8t-32 7.5q-33 8 -56 18t-46.5 27.5t-36 45.5t-12.5 66q0 78 58 121
q59 44 149 44q190 0 202 -165l-105 -12q-4 44 -27 66t-72 22q-91 0 -91 -62q0 -15 6.5 -27.5t15 -20t26 -15t30 -11.5t36.5 -10.5t36 -10.5q70 -18 110 -52t41 -103q0 -78 -50 -121.5t-137 -50.5l-4 -31q81 -15 81 -89q0 -48 -33 -76.5t-85 -28.5q-44 0 -82 18z" />
    <glyph glyph-name="tcaron.smcp" horiz-adv-x="485" 
d="M301 461v-461h-115v461h-171v95h455v-95h-169zM186 607l-109 164l85 6l81 -105l84 106l79 -7l-109 -164h-111z" />
    <glyph glyph-name="tbar.smcp" horiz-adv-x="485" 
d="M301 224v-224h-115v224h-117v91h117v146h-171v95h455v-95h-169v-146h115v-91h-115z" />
    <glyph glyph-name="utilde.smcp" horiz-adv-x="580" 
d="M212 757q33 0 82 -23q47 -22 68 -22q19 0 26.5 10t7.5 39l64 -4q7 -61 -16.5 -95t-70.5 -34q-34 0 -85 23t-68 23q-37 0 -33 -52l-66 3q-7 61 18.5 96.5t72.5 35.5zM402 215v341h115v-358q0 -103 -59.5 -155t-170.5 -52q-116 0 -170 50.5t-54 158.5v356h115v-338
q0 -70 26 -101t87 -31q62 0 86.5 28.5t24.5 100.5z" />
    <glyph glyph-name="umacron.smcp" horiz-adv-x="580" 
d="M402 215v341h115v-358q0 -103 -59.5 -155t-170.5 -52q-116 0 -170 50.5t-54 158.5v356h115v-338q0 -70 26 -101t87 -31q62 0 86.5 28.5t24.5 100.5zM438 734v-83h-299v83h299z" />
    <glyph glyph-name="ubreve.smcp" horiz-adv-x="580" 
d="M376 769l78 -6q-4 -77 -46.5 -117t-118.5 -40q-149 0 -155 155l80 9q4 -48 22 -68.5t57 -20.5q40 0 59.5 20t23.5 68zM402 215v341h115v-358q0 -103 -59.5 -155t-170.5 -52q-116 0 -170 50.5t-54 158.5v356h115v-338q0 -70 26 -101t87 -31q62 0 86.5 28.5t24.5 100.5z
" />
    <glyph glyph-name="uring.smcp" horiz-adv-x="580" 
d="M408 709q0 -48 -29 -75t-80 -27q-49 0 -79 26.5t-30 71.5q0 49 31 77.5t78 28.5q49 0 79 -26.5t30 -75.5zM345 709q0 46 -46 46q-48 0 -48 -47t47 -47t47 48zM402 215v341h115v-358q0 -103 -59.5 -155t-170.5 -52q-116 0 -170 50.5t-54 158.5v356h115v-338q0 -70 26 -101
t87 -31q62 0 86.5 28.5t24.5 100.5z" />
    <glyph glyph-name="uhungarumlaut.smcp" horiz-adv-x="580" 
d="M402 215v341h115v-358q0 -103 -59.5 -155t-170.5 -52q-116 0 -170 50.5t-54 158.5v356h115v-338q0 -70 26 -101t87 -31q62 0 86.5 28.5t24.5 100.5zM232 780h125l-110 -173l-77 13zM404 783h130l-144 -176l-80 10z" />
    <glyph glyph-name="uogonek.smcp" horiz-adv-x="580" 
d="M406 -117l55 -27q-16 -41 -50 -64.5t-77 -23.5q-50 0 -78 24t-28 67q0 70 76 133q-1 0 -8 -0.5t-9 -0.5q-116 0 -170 50.5t-54 158.5v356h115v-338q0 -70 26 -101t87 -31q62 0 86.5 28.5t24.5 100.5v341h115v-358q0 -64 -23 -107t-70 -76q-104 -72 -104 -136
q0 -37 35 -37q31 0 51 41z" />
    <glyph glyph-name="wcircumflex.smcp" horiz-adv-x="774" 
d="M758 556l-123 -556h-146l-98 396h-3l-98 -396h-150l-124 556h120l83 -436h3l107 436h123l109 -439h4l78 439h115zM446 782l109 -165l-81 -5l-83 105l-83 -107l-82 7l109 165h111z" />
    <glyph glyph-name="ycircumflex.smcp" horiz-adv-x="493" 
d="M497 556l-187 -345v-211h-115v210l-199 346h125l131 -244h3l127 244h115zM305 782l109 -165l-81 -5l-83 105l-83 -107l-82 7l109 165h111z" />
    <glyph glyph-name="zacute.smcp" horiz-adv-x="486" 
d="M443 556v-85l-275 -376h285v-95h-422v82l278 379h-271v95h405zM235 781h130l-138 -174l-80 10z" />
    <glyph glyph-name="zdotaccent.smcp" horiz-adv-x="486" 
d="M443 556v-85l-275 -376h285v-95h-422v82l278 379h-271v95h405zM312 715q0 -37 -20 -56.5t-55 -19.5q-36 0 -55.5 19.5t-19.5 56.5q0 36 19.5 55.5t55.5 19.5q35 0 55 -19.5t20 -55.5z" />
    <glyph glyph-name="scommaaccent.smcp" horiz-adv-x="488" 
d="M246 477q-91 0 -91 -62q0 -15 6.5 -27.5t15 -20t26 -15t30 -11.5t36.5 -10.5t36 -10.5q70 -18 110 -52t41 -103q0 -87 -62 -131q-61 -43 -156 -43q-206 0 -220 176l105 14q10 -51 36 -76t82 -25q103 0 103 73q0 13 -3.5 23.5t-13.5 19t-17.5 13.5t-26 11t-27 8.5t-32.5 8
t-32 7.5q-33 8 -56 18t-46.5 27.5t-36 45.5t-12.5 66q0 78 58 121q59 44 149 44q190 0 202 -165l-105 -12q-4 44 -27 66t-72 22zM236 -255l-82 12l42 175h114z" />
    <glyph glyph-name="uni021B.smcp" horiz-adv-x="485" 
d="M301 461v-461h-115v461h-171v95h455v-95h-169zM233 -255l-82 12l42 175h114z" />
    <glyph glyph-name="wgrave.smcp" horiz-adv-x="774" 
d="M758 556l-123 -556h-146l-98 396h-3l-98 -396h-150l-124 556h120l83 -436h3l107 436h123l109 -439h4l78 439h115zM481 617l-80 -10l-138 174h130z" />
    <glyph glyph-name="wacute.smcp" horiz-adv-x="774" 
d="M758 556l-123 -556h-146l-98 396h-3l-98 -396h-150l-124 556h120l83 -436h3l107 436h123l109 -439h4l78 439h115zM389 781h130l-138 -174l-80 10z" />
    <glyph glyph-name="wdieresis.smcp" horiz-adv-x="774" 
d="M758 556l-123 -556h-146l-98 396h-3l-98 -396h-150l-124 556h120l83 -436h3l107 436h123l109 -439h4l78 439h115zM355 710q0 -33 -20 -52t-53 -19t-53.5 19t-20.5 52q0 31 20.5 50.5t53.5 19.5q32 0 52.5 -19.5t20.5 -50.5zM575 710q0 -33 -20 -52t-53 -19q-34 0 -54 19
t-20 52q0 32 20 51t54 19q32 0 52.5 -19.5t20.5 -50.5z" />
    <glyph glyph-name="ygrave.smcp" horiz-adv-x="493" 
d="M497 556l-187 -345v-211h-115v210l-199 346h125l131 -244h3l127 244h115zM324 617l-80 -10l-138 174h130z" />
    <glyph glyph-name="uni0163.smcp" horiz-adv-x="485" 
d="M151 -214l17 59q27 -11 52 -11q50 0 50 41q0 23 -16.5 32.5t-53.5 10.5l11 82h-25v461h-171v95h455v-95h-169v-461h-26l-5 -38q81 -15 81 -89q0 -48 -33 -76.5t-85 -28.5q-45 0 -82 18z" />
    <glyph glyph-name="lslash.smcp" horiz-adv-x="466" 
d="M70 556h114v-218l154 57v-90l-154 -57v-153h249v-95h-363v207l-68 -25v90l68 25v259z" />
    <glyph glyph-name="scaron.smcp" horiz-adv-x="488" 
d="M246 477q-91 0 -91 -62q0 -15 6.5 -27.5t15 -20t26 -15t30 -11.5t36.5 -10.5t36 -10.5q70 -18 110 -52t41 -103q0 -87 -62 -131q-61 -43 -156 -43q-206 0 -220 176l105 14q10 -51 36 -76t82 -25q103 0 103 73q0 13 -3.5 23.5t-13.5 19t-17.5 13.5t-26 11t-27 8.5t-32.5 8
t-32 7.5q-33 8 -56 18t-46.5 27.5t-36 45.5t-12.5 66q0 78 58 121q59 44 149 44q190 0 202 -165l-105 -12q-4 44 -27 66t-72 22zM190 607l-109 164l85 6l81 -105l84 106l79 -7l-109 -164h-111z" />
    <glyph glyph-name="zcaron.smcp" horiz-adv-x="486" 
d="M443 556v-85l-275 -376h285v-95h-422v82l278 379h-271v95h405zM181 607l-109 164l85 6l81 -105l84 106l79 -7l-109 -164h-111z" />
    <glyph glyph-name="oe.smcp" horiz-adv-x="872" 
d="M837 95v-95h-359v66q-55 -75 -179 -75q-127 0 -193 75.5t-66 209.5q0 127 71 209q72 81 202 81q107 0 165 -69v59h345v-95h-247v-139h232v-89h-232v-138h261zM310 85q154 0 154 194q0 193 -148 193q-76 0 -117 -49t-41 -145q0 -193 152 -193z" />
    <glyph glyph-name="ae.smcp" horiz-adv-x="804" 
d="M742 228h-232v-137h260v-91h-374v229h-148l-115 -229h-116l280 556h460v-91h-247v-149h232v-88zM282 316h114v154h-33z" />
    <glyph glyph-name="aeacute.smcp" horiz-adv-x="804" 
d="M742 228h-232v-137h260v-91h-374v229h-148l-115 -229h-116l280 556h460v-91h-247v-149h232v-88zM282 316h114v154h-33zM542 781h130l-138 -174l-80 10z" />
    <glyph glyph-name="germandbls.smcp" horiz-adv-x="976" 
d="M734 477q-91 0 -91 -62q0 -15 6.5 -27.5t15 -20t26 -15t30 -11.5t36.5 -10.5t36 -10.5q70 -18 110 -52t41 -103q0 -87 -62 -131q-61 -43 -156 -43q-206 0 -220 176l105 14q10 -51 36 -76t82 -25q103 0 103 73q0 13 -3.5 23.5t-13.5 19t-17.5 13.5t-26 11t-27 8.5t-32.5 8
t-32 7.5q-33 8 -56 18t-46.5 27.5t-36 45.5t-12.5 66q0 78 58 121q59 44 149 44q190 0 202 -165l-105 -12q-4 44 -27 66t-72 22zM246 477q-91 0 -91 -62q0 -15 6.5 -27.5t15 -20t26 -15t30 -11.5t36.5 -10.5t36 -10.5q70 -18 110 -52t41 -103q0 -87 -62 -131
q-61 -43 -156 -43q-206 0 -220 176l105 14q10 -51 36 -76t82 -25q103 0 103 73q0 13 -3.5 23.5t-13.5 19t-17.5 13.5t-26 11t-27 8.5t-32.5 8t-32 7.5q-33 8 -56 18t-46.5 27.5t-36 45.5t-12.5 66q0 78 58 121q59 44 149 44q190 0 202 -165l-105 -12q-4 44 -27 66t-72 22z
" />
    <glyph glyph-name="question.smcp" horiz-adv-x="433" 
d="M236 228v-75h-109v139q82 6 121 32t39 84q0 33 -21 51.5t-58 18.5q-72 0 -90 -78l-104 15q10 72 61.5 112t138.5 40q82 0 136 -39q54 -37 54 -122q0 -146 -168 -178zM247 49q0 -59 -68 -59q-67 0 -67 59q0 60 67 60q68 0 68 -60z" />
    <glyph glyph-name="exclam.smcp" horiz-adv-x="254" 
d="M188 556l-14 -402h-93l-15 402h122zM195 49q0 -59 -67 -59q-69 0 -69 59q0 60 69 60q67 0 67 -60z" />
    <glyph glyph-name="questiondown.smcp" horiz-adv-x="433" 
d="M197 329v75h109v-139q-82 -6 -121 -32t-39 -84q0 -33 21 -51.5t58 -18.5q72 0 90 78l104 -15q-10 -72 -61.5 -112t-138.5 -40q-81 0 -136 38q-54 39 -54 123q0 147 168 178zM186 508q0 59 68 59q67 0 67 -59q0 -60 -67 -60q-68 0 -68 60z" />
    <glyph glyph-name="exclamdown.smcp" horiz-adv-x="254" 
d="M66 0l14 402h93l15 -402h-122zM59 507q0 59 67 59q69 0 69 -59q0 -60 -69 -60q-67 0 -67 60z" />
    <glyph glyph-name="ordmasculine.smcp" horiz-adv-x="406" 
d="M199 245q-85 0 -127 46t-42 129q0 84 46 130t133 46q83 0 124.5 -44t41.5 -125q0 -182 -176 -182zM202 319q77 0 77 104q0 54 -17 77t-56 23q-79 0 -79 -101q0 -54 17.5 -78.5t57.5 -24.5z" />
    <glyph glyph-name="ordfeminine.smcp" horiz-adv-x="385" 
d="M326 479v-142q0 -18 8 -23.5t27 -2.5l3 -53q-28 -12 -54 -12q-27 0 -45.5 12t-21.5 30q-40 -43 -107 -43q-54 0 -78.5 27t-24.5 67q0 112 169 112q27 0 34 -1v17q0 34 -11.5 48t-43.5 14q-27 0 -40.5 -11t-18.5 -38l-77 13q16 103 144 103q71 0 104 -27.5t33 -89.5z
M237 337v57q-5 1 -30 1q-80 0 -80 -46q0 -38 43 -38q38 0 67 26z" />
    <glyph glyph-name="at.smcp" horiz-adv-x="678" 
d="M501 58l25 -61q-59 -41 -177 -41q-139 0 -227 75q-87 75 -87 218q0 141 90 229q91 89 237 89q134 0 213 -72q80 -72 80 -198q0 -95 -41.5 -145.5t-112.5 -50.5q-33 0 -59 12t-36 31q-33 -42 -91 -42q-54 0 -85.5 39t-31.5 105q0 76 38 125t98 49q42 0 69 -27l6 22h63
v-208q0 -23 7 -34t27 -11q36 0 52 39q17 42 17 93q0 97 -54 150.5t-158 53.5q-123 0 -185 -71q-61 -70 -61 -174q0 -113 63 -170.5t175 -57.5q82 0 146 33zM398 195v149q-22 18 -48 18q-71 0 -71 -106q0 -94 57 -94q34 0 62 33z" />
    <glyph glyph-name="copyright.smcp" horiz-adv-x="757" 
d="M712 289q0 -149 -93 -241q-92 -92 -241 -92q-160 0 -247 89q-86 89 -86 230q0 152 96 242q95 91 239 91q154 0 243 -87q89 -86 89 -232zM380 19q121 0 192 71q70 70 70 193q0 125 -72 193q-73 68 -190 68q-116 0 -189 -72q-73 -70 -73 -196q0 -120 69.5 -188.5
t192.5 -68.5zM472 233l64 -11q-5 -37 -21.5 -63.5t-39.5 -40t-45.5 -19.5t-46.5 -6q-88 0 -133 51t-45 141q0 86 48 138t132 52q63 0 102.5 -33t43.5 -97l-67 -8q-4 41 -23 59t-58 18q-47 0 -74.5 -33t-27.5 -98q0 -59 25.5 -93.5t74.5 -34.5q41 0 62 18t29 60z" />
    <glyph glyph-name="ampersand.smcp" horiz-adv-x="594" 
d="M426 451q0 -95 -138 -150q46 -84 110 -152q30 54 31 142h93q2 -116 -50 -191q29 -20 54 -20q16 0 33 6l13 -81q-24 -11 -64 -11q-61 0 -117 38q-56 -41 -150 -41q-97 0 -149.5 45.5t-52.5 124.5q0 108 119 161q-30 48 -30 105q0 62 45 100.5t117 38.5q62 0 99 -29.5
t37 -85.5zM249 67q45 0 74 19q-61 61 -128 170q-51 -30 -51 -90q0 -45 29.5 -72t75.5 -27zM226 434q0 -35 25 -81l24 12q62 32 62 80q0 49 -52 49q-27 0 -43 -15.5t-16 -44.5z" />
    <glyph glyph-name="parenleft.smcp" horiz-adv-x="298" 
d="M281 -71l-116 -1q-241 335 8 674h116q-62 -89 -92 -168.5t-30 -170.5q0 -90 27.5 -165.5t86.5 -168.5z" />
    <glyph glyph-name="parenright.smcp" horiz-adv-x="298" 
d="M17 601l116 1q241 -335 -8 -674h-116q62 89 92 168.5t30 170.5q0 90 -27.5 165.5t-86.5 168.5z" />
    <glyph glyph-name="bracketleft.smcp" horiz-adv-x="256" 
d="M227 -16v-64h-171v700h171v-63l-64 -3v-567z" />
    <glyph glyph-name="bracketright.smcp" horiz-adv-x="256" 
d="M29 556v64h171v-700h-171v63l64 3v567z" />
    <glyph glyph-name="braceleft.smcp" horiz-adv-x="280" 
d="M238 -12h15v-73h-46q-65 0 -95 20.5t-34 67.5q-1 5 -1 26q0 20 6 71t6 71q0 63 -54 63h-16v67h16q28 0 41 15t13 50q0 18 -6 71t-6 72q0 21 1 26q4 47 34 67t95 20h46v-73q-40 0 -52 -8t-12 -36q0 -16 6 -73t6 -78q0 -37 -14.5 -54.5t-51.5 -32.5q37 -13 51.5 -30.5
t14.5 -55.5q0 -21 -6 -77t-6 -70q0 -25 11 -35.5t38 -10.5z" />
    <glyph glyph-name="braceright.smcp" horiz-adv-x="280" 
d="M42 549h-15v73h46q65 0 95 -20.5t34 -67.5q1 -5 1 -26q0 -20 -6 -71t-6 -71q0 -63 54 -63h16v-67h-16q-28 0 -41 -15t-13 -50q0 -19 6 -71t6 -72q0 -21 -1 -26q-4 -47 -34 -67t-95 -20h-46v73q40 0 52 8t12 36q0 16 -6 73t-6 78q0 37 14.5 54.5t51.5 32.5
q-37 13 -51.5 30.5t-14.5 55.5q0 21 6 76q6 56 6 71q0 25 -11 35.5t-38 10.5z" />
    <glyph glyph-name="quoteleft.smcp" horiz-adv-x="216" 
d="M110 614l85 -10l-49 -212h-117z" />
    <glyph glyph-name="quoteright.smcp" horiz-adv-x="216" 
d="M119 384l-85 10l49 212h117z" />
    <glyph glyph-name="quotedblleft.smcp" horiz-adv-x="389" 
d="M115 614l85 -10l-49 -212h-117zM281 614l86 -10l-50 -212h-117z" />
    <glyph glyph-name="quotedblright.smcp" horiz-adv-x="381" 
d="M121 389l-86 10l50 212h117zM286 389l-86 10l50 212h117z" />
    <glyph glyph-name="asterisk.smcp" horiz-adv-x="473" 
d="M208 636h54l19 -131l120 30l17 -55l-114 -57l76 -116l-44 -34l-102 96l-101 -99l-44 36l75 116l-116 57l17 55l121 -27z" />
    <glyph glyph-name="hyphen.smcp" horiz-adv-x="319" 
d="M295 322v-103h-271v103h271z" />
    <glyph glyph-name="endash.smcp" horiz-adv-x="500" 
d="M499 315v-87h-499v87h499z" />
    <glyph glyph-name="emdash.smcp" horiz-adv-x="1000" 
d="M999 315v-87h-999v87h999z" />
    <glyph glyph-name="slash.smcp" horiz-adv-x="375" 
d="M339 575l-201 -610h-105l202 610h104z" />
    <glyph glyph-name="backslash.smcp" horiz-adv-x="379" 
d="M142 575l202 -610h-105l-201 610h104z" />
    <glyph glyph-name="zero.smcp" horiz-adv-x="493" 
d="M33 279q0 287 220 287q116 0 161 -74q46 -73 46 -206q0 -149 -50.5 -222.5t-165.5 -73.5q-119 0 -165 73t-46 216zM247 75q55 0 75 47t20 159q0 107 -19.5 153t-72.5 46q-55 0 -76.5 -47.5t-21.5 -155.5q0 -110 20 -156t75 -46z" />
    <glyph glyph-name="one.smcp" horiz-adv-x="387" 
d="M279 556v-556h-112v427q-23 -12 -62 -19t-67 -7l-6 88q118 9 173 67h74z" />
    <glyph glyph-name="two.smcp" horiz-adv-x="461" 
d="M235 566q84 0 131 -37.5t47 -104.5q0 -53 -35 -106q-34 -51 -114 -129l-90 -95v-3h248v-91h-376v88l133 146l66 74q18 21 35 51q18 31 18 58q0 65 -73 65q-41 0 -62 -20.5t-28 -63.5l-99 15q11 77 63 115t136 38z" />
    <glyph glyph-name="three.smcp" horiz-adv-x="475" 
d="M26 130l102 19q12 -76 88 -76q45 0 71 23.5t26 66.5q0 83 -107 83h-61v83h42q56 0 85.5 23.5t29.5 65.5q0 66 -75 66q-39 0 -58.5 -18t-28.5 -58l-98 19q29 140 196 140q82 0 129 -36t47 -97q0 -51 -31.5 -85t-82.5 -49v-3q127 -25 127 -138q0 -77 -58 -123t-152 -46
q-79 0 -130.5 35t-60.5 105z" />
    <glyph glyph-name="four.smcp" horiz-adv-x="487" 
d="M400 119v-119h-109v119h-270v76l242 361h137v-350h69v-87h-69zM292 458l-169 -252h169v252z" />
    <glyph glyph-name="five.smcp" horiz-adv-x="473" 
d="M132 230l-73 30l21 296h311v-95h-228l-16 -144q49 39 118 39q71 0 116.5 -44t45.5 -122q0 -90 -59 -146q-58 -54 -155 -54q-79 0 -129.5 35t-61.5 107l102 20q12 -77 91 -77q44 0 72 28t28 78q0 44 -23.5 67t-62.5 23q-53 0 -97 -41z" />
    <glyph glyph-name="six.smcp" horiz-adv-x="495" 
d="M450 434l-102 -22q-11 72 -72 72q-112 0 -117 -195q59 54 136 54q73 0 116 -44.5t43 -121.5q0 -89 -55 -138t-147 -49q-202 0 -202 264q0 115 45 205q53 107 188 107q143 0 167 -132zM164 212q1 -56 17 -94q19 -46 74 -46q41 0 63.5 26.5t22.5 73.5q0 89 -77 89
q-55 0 -100 -49z" />
    <glyph glyph-name="seven.smcp" horiz-adv-x="433" 
d="M414 472l-227 -472h-119l228 461h-267v95h385v-84z" />
    <glyph glyph-name="eight.smcp" horiz-adv-x="466" 
d="M326 297q60 -26 88 -57.5t28 -83.5q0 -74 -59.5 -119.5t-160.5 -45.5q-94 0 -146 39.5t-52 105.5q0 96 118 145q-97 45 -97 135q0 69 56 110t145 41q82 0 131 -35.5t49 -95.5q0 -84 -100 -139zM224 237l-9 3q-44 -25 -64 -46t-20 -50q0 -34 25.5 -54t70.5 -20t71.5 21.5
t26.5 54.5q0 23 -17 43q-10 12 -24.5 21t-23.5 12.5zM251 332q74 44 74 96q0 29 -23 44q-22 16 -60 16t-61 -17t-23 -46q0 -28 22 -49.5t71 -43.5z" />
    <glyph glyph-name="nine.smcp" horiz-adv-x="494" 
d="M38 120l99 27q18 -77 87 -77q58 0 84.5 46t28.5 141q-55 -51 -135 -51q-75 0 -117.5 43.5t-42.5 123.5q0 91 55 142t147 51q58 0 99 -20.5t62.5 -59.5t30.5 -85t9 -107q0 -101 -24 -168q-49 -136 -207 -136q-152 0 -176 130zM332 336q-1 57 -19 100q-18 49 -75 49
q-40 0 -62.5 -27t-22.5 -77q0 -94 80 -94q56 0 99 49z" />
    <glyph glyph-name="dollar.smcp" horiz-adv-x="447" 
d="M405 405l-99 -12q-8 53 -44 68v-143q45 -11 81 -31q68 -35 72 -128q0 -67 -40 -108.5t-110 -53.5v-62h-83v60q-67 7 -111 45.5t-52 109.5l97 15q12 -77 73 -87v156q-67 19 -101 43q-50 35 -50 112q0 121 144 159v64h84v-65q130 -13 139 -142zM262 211v-128q45 17 45 61
t-45 67zM145 403q0 -41 44 -61v121q-44 -14 -44 -60z" />
    <glyph glyph-name="Euro.smcp" horiz-adv-x="515" 
d="M32 298l12 70h30q20 100 80 149t153 49q86 0 135 -43.5t53 -129.5l-97 -10q-11 99 -91 99q-97 0 -121 -114h159l-12 -70h-156v-49h149l-13 -70h-129q20 -104 115 -104q40 0 62 22.5t36 69.5l96 -22q-31 -154 -200 -154q-189 0 -222 188h-59l13 70h40v15q0 27 1 34h-34z
" />
    <glyph glyph-name="cent.smcp" horiz-adv-x="431" 
d="M184 488v82h98v-80q112 -19 121 -133l-98 -14q-5 36 -20.5 52.5t-47.5 16.5q-42 0 -63 -27t-21 -93q0 -127 87 -127q63 0 74 65l91 -16q-8 -54 -41.5 -88t-87.5 -43v-83h-97v83q-139 28 -139 200q0 173 144 205z" />
    <glyph glyph-name="sterling.smcp" horiz-adv-x="475" 
d="M29 0v80h44q59 50 59 105q0 24 -15 54h-77v82h53q-29 47 -29 93q0 67 52 109.5t141 42.5q159 0 175 -147l-97 -12q-5 41 -23.5 60.5t-56.5 19.5q-40 0 -63 -20t-23 -54q0 -37 31 -92h162v-82h-138q9 -26 9 -44q0 -68 -53 -115h100q46 0 66 18.5t27 63.5l91 -16
q-7 -76 -49 -111t-127 -35h-259z" />
    <glyph glyph-name="yen.smcp" horiz-adv-x="451" 
d="M82 106v73h92v59h-92v73h52l-139 245h125l111 -234h3l107 234h115l-130 -245h57v-73h-94v-59h94v-73h-94v-106h-115v106h-92z" />
    <glyph glyph-name="florin.smcp" horiz-adv-x="454" 
d="M87 344h71l17 84q15 71 52 104.5t106 33.5q106 0 136 -101l-86 -24q-14 50 -48 50q-23 0 -35.5 -13.5t-19.5 -46.5l-16 -87h107l-16 -80h-104l-55 -277q-14 -70 -49.5 -101.5t-103.5 -31.5q-57 0 -93 25.5t-47 70.5l87 29q8 -27 19 -38t32 -11t32 14t18 49l53 271h-71z
" />
    <glyph glyph-name="afii61352.smcp" horiz-adv-x="836" 
d="M476 556v-556h-119l-194 421v-421h-93v556h125l188 -420v420h93zM784 192h-237v66h237v-66zM529 424q0 62 36.5 98.5t101.5 36.5t97.5 -34t32.5 -96q0 -67 -34 -103.5t-101 -36.5t-100 35.5t-33 99.5zM664 351q53 0 53 75q0 73 -51 73q-57 0 -57 -74t55 -74z" />
    <glyph glyph-name="percent.smcp" horiz-adv-x="756" 
d="M178 208q-70 0 -104 37.5t-34 104.5q0 71 37 111t107 40q138 0 138 -140q0 -72 -37.5 -112.5t-106.5 -40.5zM584 502l-314 -514h-101l314 514h101zM237 357q0 44 -12.5 63t-42.5 19q-56 0 -56 -84q0 -46 12.5 -66t42.5 -20q31 0 43.5 20t12.5 68zM572 -10q-70 0 -104 38
t-34 104q0 72 37 112t108 40q138 0 138 -141q0 -72 -38 -112.5t-107 -40.5zM576 51q30 0 42.5 20.5t12.5 68.5q0 44 -12.5 63t-42.5 19q-56 0 -56 -84q0 -46 13 -66.5t43 -20.5z" />
    <glyph glyph-name="perthousand.smcp" horiz-adv-x="1065" 
d="M178 208q-70 0 -104 37.5t-34 104.5q0 71 37 111t107 40q138 0 138 -140q0 -72 -37.5 -112.5t-106.5 -40.5zM584 502l-314 -514h-101l314 514h101zM237 357q0 44 -12.5 63t-42.5 19q-56 0 -56 -84q0 -46 12.5 -66t42.5 -20q31 0 43.5 20t12.5 68zM572 -10q-70 0 -104 38
t-34 104q0 72 37 112t108 40q138 0 138 -141q0 -72 -38 -112.5t-107 -40.5zM576 51q30 0 42.5 20.5t12.5 68.5q0 44 -12.5 63t-42.5 19q-56 0 -56 -84q0 -46 13 -66.5t43 -20.5zM881 -10q-70 0 -104 38t-34 104q0 72 37 112t108 40q138 0 138 -141q0 -72 -38 -112.5
t-107 -40.5zM885 51q30 0 42.5 20.5t12.5 68.5q0 43 -12.5 62.5t-41.5 19.5q-57 0 -57 -84q0 -46 13 -66.5t43 -20.5z" />
    <glyph glyph-name="hyphensuperior" horiz-adv-x="219" 
d="M195 579v-83h-175v83h175z" />
    <glyph glyph-name="commasuperior" horiz-adv-x="191" 
d="M84 269l-80 8l42 161h102z" />
    <glyph glyph-name="periodsuperior" horiz-adv-x="204" 
d="M164 398q0 -56 -61 -56q-63 0 -63 56q0 57 63 57q61 0 61 -57z" />
    <glyph glyph-name="a.sup" horiz-adv-x="385" 
d="M326 576v-142q0 -18 8 -23.5t27 -2.5l3 -53q-28 -12 -54 -12q-27 0 -45.5 12t-21.5 30q-40 -43 -107 -43q-54 0 -78.5 27t-24.5 67q0 112 169 112q27 0 34 -1v17q0 34 -11.5 48t-43.5 14q-27 0 -40.5 -11t-18.5 -38l-77 13q16 103 144 103q71 0 104 -27.5t33 -89.5z
M237 434v57q-5 1 -30 1q-80 0 -80 -46q0 -38 43 -38q38 0 67 26z" />
    <glyph glyph-name="b.sup" horiz-adv-x="409" 
d="M131 378l-4 -28h-79v489h91v-181q47 35 109 35q60 0 94.5 -41.5t34.5 -125.5q0 -91 -39 -137.5t-107 -46.5q-59 0 -98 36h-2zM140 592v-153q35 -26 69 -26q71 0 71 111q0 97 -67 97q-39 0 -73 -29z" />
    <glyph glyph-name="c.sup" horiz-adv-x="377" 
d="M197 342q-82 0 -124.5 45.5t-42.5 125.5q0 87 46.5 133.5t131.5 46.5q62 0 100 -34t43 -95l-84 -12q-3 36 -17.5 52.5t-44.5 16.5q-78 0 -78 -102q0 -55 18.5 -79t56.5 -24q62 0 73 65l77 -14q-9 -59 -50.5 -92t-104.5 -33z" />
    <glyph glyph-name="d.sup" horiz-adv-x="407" 
d="M272 839h88v-489h-77l-6 33l-1 1q-40 -42 -106 -42q-65 0 -101.5 43.5t-36.5 126.5q0 89 41 135t107 46q56 0 92 -30v176zM269 440v162q-29 20 -64 20q-77 0 -77 -108q0 -101 72 -101q39 0 69 27z" />
    <glyph glyph-name="e.sup" horiz-adv-x="380" 
d="M200 342q-86 0 -128 47.5t-42 128.5q0 84 46.5 129.5t123.5 45.5q74 0 111.5 -40t37.5 -113q0 -11 -2 -43h-219q1 -46 19.5 -66t56.5 -20q55 0 66 50l76 -17q-10 -48 -48 -75t-98 -27zM129 553h124q3 72 -58 72q-29 0 -47 -18.5t-19 -53.5z" />
    <glyph glyph-name="f.sup" horiz-adv-x="251" 
d="M257 834l-4 -64q-22 9 -47 9q-28 0 -41 -12.5t-13 -43.5v-36h93v-65h-93v-272h-93v272h-48v65h48v43q0 57 32 86.5t91 29.5q46 0 75 -12z" />
    <glyph glyph-name="g.sup" horiz-adv-x="387" 
d="M189 693q63 0 95 -23q22 49 63 49q17 0 34 -6v-59q-32 3 -67 -6q28 -28 28 -75q0 -56 -41.5 -88.5t-108.5 -32.5q-30 0 -60 8q-16 -16 -16 -24q0 -18 35 -20l100 -5q61 -3 89.5 -25t28.5 -70q0 -112 -183 -112q-166 0 -166 82q0 50 55 65v1q-40 12 -40 52q0 36 51 73
q-50 29 -50 95q0 55 41 88t112 33zM258 573q0 56 -65 56q-70 0 -70 -55t68 -55q67 0 67 54zM279 300q0 30 -48 31l-102 6q-25 -16 -25 -38q0 -34 90 -34q85 0 85 35z" />
    <glyph glyph-name="h.sup" horiz-adv-x="404" 
d="M360 572v-222h-92v211q0 57 -52 57q-44 0 -76 -30v-238h-93v489h92v-184q47 38 112 38q109 0 109 -121z" />
    <glyph glyph-name="i.sup" horiz-adv-x="188" 
d="M49 687h92v-337h-92v337zM153 791q0 -26 -15.5 -40.5t-42.5 -14.5t-42 14.5t-15 40.5q0 54 57 54q27 0 42.5 -14.5t15.5 -39.5z" />
    <glyph glyph-name="j.sup" horiz-adv-x="187" 
d="M22 205q-50 0 -79 17l7 73q25 -12 55 -12q44 0 44 51v353h93v-368q0 -114 -120 -114zM96 739q-57 0 -57 55q0 54 57 54t57 -54q0 -26 -15 -40.5t-42 -14.5z" />
    <glyph glyph-name="k.sup" horiz-adv-x="386" 
d="M48 839h93v-279l123 127h103l-117 -121l126 -216h-101l-96 159l-38 -37v-122h-93v489z" />
    <glyph glyph-name="l.sup" horiz-adv-x="188" 
d="M49 839h93v-489h-93v489z" />
    <glyph glyph-name="m.sup" horiz-adv-x="590" 
d="M140 588v-238h-93v337h79l5 -35q53 41 109 41q66 0 89 -44q49 44 112 44q104 0 104 -112v-231h-92v212q0 55 -43 55q-39 0 -67 -28v-239h-92v212q0 29 -9.5 42t-32.5 13q-40 0 -69 -29z" />
    <glyph glyph-name="n.sup" horiz-adv-x="404" 
d="M360 579v-229h-92v210q0 58 -52 58q-44 0 -76 -31v-237h-93v337h82l5 -37q49 43 115 43q111 0 111 -114z" />
    <glyph glyph-name="o.sup" horiz-adv-x="406" 
d="M199 342q-85 0 -127 46t-42 129q0 84 46 130t133 46q83 0 124.5 -44t41.5 -125q0 -182 -176 -182zM202 416q77 0 77 104q0 54 -17 77t-56 23q-79 0 -79 -101q0 -54 17.5 -78.5t57.5 -24.5z" />
    <glyph glyph-name="p.sup" horiz-adv-x="408" 
d="M138 212h-90v475h79l5 -38q47 44 113 44q131 0 131 -167q0 -91 -39 -137.5t-104 -46.5q-58 0 -95 30v-160zM139 589v-151q32 -25 69 -25q72 0 72 111q0 53 -15.5 74.5t-51.5 21.5q-40 0 -74 -31z" />
    <glyph glyph-name="q.sup" horiz-adv-x="407" 
d="M284 687h76v-475h-88v165q-47 -35 -104 -35q-136 0 -136 171q0 89 41 134.5t108 45.5q61 0 94 -38zM269 440v158q-33 24 -66 24q-75 0 -75 -107q0 -99 72 -99q40 0 69 24z" />
    <glyph glyph-name="r.sup" horiz-adv-x="271" 
d="M261 693v-86q-72 8 -121 -32v-225h-93v337h79l7 -53q44 62 128 59z" />
    <glyph glyph-name="s.sup" horiz-adv-x="346" 
d="M177 693q113 0 137 -92l-74 -20q-7 26 -21.5 37.5t-42.5 11.5q-49 0 -49 -32q0 -19 13.5 -26.5t56.5 -14.5q57 -11 85 -27q39 -22 39 -77q0 -53 -41.5 -82t-109.5 -29q-126 0 -146 96l75 24q15 -54 74 -54q55 0 55 33q-4 21 -16.5 28t-50.5 13q-41 7 -68 19
q-55 25 -55 85q0 50 38.5 78.5t100.5 28.5z" />
    <glyph glyph-name="t.sup" horiz-adv-x="283" 
d="M259 433l13 -66q-38 -25 -99 -25q-109 0 -109 105v177h-53v63h53v98l92 12v-110h95v-63h-95v-159q0 -25 10 -36.5t34 -11.5q31 0 59 16z" />
    <glyph glyph-name="u.sup" horiz-adv-x="402" 
d="M46 456v231h93v-213q0 -30 11 -44t37 -14q43 0 75 31v240h93v-337h-79l-7 38q-47 -45 -115 -45q-108 0 -108 113z" />
    <glyph glyph-name="v.sup" horiz-adv-x="367" 
d="M363 687l-126 -337h-107l-126 337h100l81 -253h2l82 253h94z" />
    <glyph glyph-name="w.sup" horiz-adv-x="551" 
d="M275 583l-57 -233h-109l-105 337h93l68 -248h2l65 248h92l65 -246h1l67 246h90l-106 -337h-104l-61 233h-1z" />
    <glyph glyph-name="x.sup" horiz-adv-x="363" 
d="M259 687h89l-115 -165l119 -172h-99l-76 110l-72 -110h-92l116 170l-118 167h101l72 -110z" />
    <glyph glyph-name="y.sup" horiz-adv-x="359" 
d="M137 344l-132 343h99l78 -242h2l76 242h96l-137 -360q-26 -68 -54 -95q-29 -27 -80 -27q-44 0 -75 14l9 69q31 -9 54 -9q24 0 37.5 13.5t26.5 51.5z" />
    <glyph glyph-name="z.sup" horiz-adv-x="324" 
d="M295 687v-64l-167 -201h176v-72h-280v64l170 204h-168v69h269z" />
    <glyph glyph-name="hypheninferior" horiz-adv-x="219" 
d="M195 83v-83h-175v83h175z" />
    <glyph glyph-name="commainferior" horiz-adv-x="191" 
d="M84 -227l-80 8l42 161h102z" />
    <glyph glyph-name="periodinferior" horiz-adv-x="204" 
d="M164 -98q0 -56 -61 -56q-63 0 -63 56q0 57 63 57q61 0 61 -57z" />
    <glyph glyph-name="minusinferior" horiz-adv-x="439" 
d="M345 111v-76h-250v76h250z" />
    <glyph glyph-name="plusinferior" horiz-adv-x="439" 
d="M259 32v-89h-80v89h-87v76h87v86h80v-86h88v-76h-88z" />
    <glyph glyph-name="equalinferior" horiz-adv-x="442" 
d="M346 28v-76h-250v76h250zM346 149v-77h-250v77h250z" />
    <glyph glyph-name="a.sinf" horiz-adv-x="385" 
d="M326 80v-142q0 -18 8 -23.5t27 -2.5l3 -53q-28 -12 -54 -12q-27 0 -45.5 12t-21.5 30q-40 -43 -107 -43q-54 0 -78.5 27t-24.5 67q0 112 169 112q27 0 34 -1v17q0 34 -11.5 48t-43.5 14q-27 0 -40.5 -11t-18.5 -38l-77 13q16 103 144 103q71 0 104 -27.5t33 -89.5z
M237 -62v57q-5 1 -30 1q-80 0 -80 -46q0 -38 43 -38q38 0 67 26z" />
    <glyph glyph-name="b.sinf" horiz-adv-x="409" 
d="M131 -118l-4 -28h-79v489h91v-181q47 35 109 35q60 0 94.5 -41.5t34.5 -125.5q0 -91 -39 -137.5t-107 -46.5q-59 0 -98 36h-2zM140 96v-153q35 -26 69 -26q71 0 71 111q0 97 -67 97q-39 0 -73 -29z" />
    <glyph glyph-name="c.sinf" horiz-adv-x="377" 
d="M197 -154q-82 0 -124.5 45.5t-42.5 125.5q0 87 46.5 133.5t131.5 46.5q62 0 100 -34t43 -95l-84 -12q-3 36 -17.5 52.5t-44.5 16.5q-78 0 -78 -102q0 -55 18.5 -79t56.5 -24q62 0 73 65l77 -14q-9 -59 -50.5 -92t-104.5 -33z" />
    <glyph glyph-name="d.sinf" horiz-adv-x="407" 
d="M272 343h88v-489h-77l-6 33l-1 1q-40 -42 -106 -42q-65 0 -101.5 43.5t-36.5 126.5q0 89 41 135t107 46q56 0 92 -30v176zM269 -56v162q-29 20 -64 20q-77 0 -77 -108q0 -101 72 -101q39 0 69 27z" />
    <glyph glyph-name="e.sinf" horiz-adv-x="380" 
d="M200 -154q-86 0 -128 47.5t-42 128.5q0 84 46.5 129.5t123.5 45.5q74 0 111.5 -40t37.5 -113q0 -11 -2 -43h-219q1 -46 19.5 -66t56.5 -20q55 0 66 50l76 -17q-10 -48 -48 -75t-98 -27zM129 57h124q3 72 -58 72q-29 0 -47 -18.5t-19 -53.5z" />
    <glyph glyph-name="f.sinf" horiz-adv-x="251" 
d="M257 338l-4 -64q-22 9 -47 9q-28 0 -41 -12.5t-13 -43.5v-36h93v-65h-93v-272h-93v272h-48v65h48v43q0 57 32 86.5t91 29.5q46 0 75 -12z" />
    <glyph glyph-name="g.sinf" horiz-adv-x="387" 
d="M189 197q63 0 95 -23q22 49 63 49q17 0 34 -6v-59q-32 3 -67 -6q28 -28 28 -75q0 -56 -41.5 -88.5t-108.5 -32.5q-30 0 -60 8q-16 -16 -16 -24q0 -18 35 -20l100 -5q61 -3 89.5 -25t28.5 -70q0 -112 -183 -112q-166 0 -166 82q0 50 55 65v1q-40 12 -40 52q0 36 51 73
q-50 29 -50 95q0 55 41 88t112 33zM258 77q0 56 -65 56q-70 0 -70 -55t68 -55q67 0 67 54zM279 -196q0 30 -48 31l-102 6q-25 -16 -25 -38q0 -34 90 -34q85 0 85 35z" />
    <glyph glyph-name="h.sinf" horiz-adv-x="404" 
d="M360 76v-222h-92v211q0 57 -52 57q-44 0 -76 -30v-238h-93v489h92v-184q47 38 112 38q109 0 109 -121z" />
    <glyph glyph-name="i.sinf" horiz-adv-x="188" 
d="M49 191h92v-337h-92v337zM153 295q0 -26 -15.5 -40.5t-42.5 -14.5t-42 14.5t-15 40.5q0 54 57 54q27 0 42.5 -14.5t15.5 -39.5z" />
    <glyph glyph-name="j.sinf" horiz-adv-x="187" 
d="M22 -291q-50 0 -79 17l7 73q25 -12 55 -12q44 0 44 51v353h93v-368q0 -114 -120 -114zM96 243q-57 0 -57 55q0 54 57 54t57 -54q0 -26 -15 -40.5t-42 -14.5z" />
    <glyph glyph-name="k.sinf" horiz-adv-x="386" 
d="M48 343h93v-279l123 127h103l-117 -121l126 -216h-101l-96 159l-38 -37v-122h-93v489z" />
    <glyph glyph-name="l.sinf" horiz-adv-x="188" 
d="M49 343h93v-489h-93v489z" />
    <glyph glyph-name="m.sinf" horiz-adv-x="590" 
d="M140 92v-238h-93v337h79l5 -35q53 41 109 41q66 0 89 -44q49 44 112 44q104 0 104 -112v-231h-92v212q0 55 -43 55q-39 0 -67 -28v-239h-92v212q0 29 -9.5 42t-32.5 13q-40 0 -69 -29z" />
    <glyph glyph-name="n.sinf" horiz-adv-x="404" 
d="M360 83v-229h-92v210q0 58 -52 58q-44 0 -76 -31v-237h-93v337h82l5 -37q49 43 115 43q111 0 111 -114z" />
    <glyph glyph-name="o.sinf" horiz-adv-x="406" 
d="M199 -154q-85 0 -127 46t-42 129q0 84 46 130t133 46q83 0 124.5 -44t41.5 -125q0 -182 -176 -182zM202 -80q77 0 77 104q0 54 -17 77t-56 23q-79 0 -79 -101q0 -54 17.5 -78.5t57.5 -24.5z" />
    <glyph glyph-name="p.sinf" horiz-adv-x="408" 
d="M138 -284h-90v475h79l5 -38q47 44 113 44q131 0 131 -167q0 -91 -39 -137.5t-104 -46.5q-58 0 -95 30v-160zM139 93v-151q32 -25 69 -25q72 0 72 111q0 53 -15.5 74.5t-51.5 21.5q-40 0 -74 -31z" />
    <glyph glyph-name="q.sinf" horiz-adv-x="407" 
d="M284 191h76v-475h-88v165q-47 -35 -104 -35q-136 0 -136 171q0 89 41 134.5t108 45.5q61 0 94 -38zM269 -56v158q-33 24 -66 24q-75 0 -75 -107q0 -99 72 -99q40 0 69 24z" />
    <glyph glyph-name="r.sinf" horiz-adv-x="271" 
d="M261 197v-86q-72 8 -121 -32v-225h-93v337h79l7 -53q44 62 128 59z" />
    <glyph glyph-name="s.sinf" horiz-adv-x="346" 
d="M177 197q113 0 137 -92l-74 -20q-7 26 -21.5 37.5t-42.5 11.5q-49 0 -49 -32q0 -19 13.5 -26.5t56.5 -14.5q57 -11 85 -27q39 -22 39 -77q0 -53 -41.5 -82t-109.5 -29q-126 0 -146 96l75 24q15 -54 74 -54q55 0 55 33q-4 21 -16.5 28t-50.5 13q-41 7 -68 19
q-55 25 -55 85q0 50 38.5 78.5t100.5 28.5z" />
    <glyph glyph-name="t.sinf" horiz-adv-x="283" 
d="M259 -63l13 -66q-38 -25 -99 -25q-109 0 -109 105v177h-53v63h53v98l92 12v-110h95v-63h-95v-159q0 -25 10 -36.5t34 -11.5q31 0 59 16z" />
    <glyph glyph-name="u.sinf" horiz-adv-x="402" 
d="M46 -40v231h93v-213q0 -30 11 -44t37 -14q43 0 75 31v240h93v-337h-79l-7 38q-47 -45 -115 -45q-108 0 -108 113z" />
    <glyph glyph-name="v.sinf" horiz-adv-x="367" 
d="M363 191l-126 -337h-107l-126 337h100l81 -253h2l82 253h94z" />
    <glyph glyph-name="w.sinf" horiz-adv-x="551" 
d="M275 87l-57 -233h-109l-105 337h93l68 -248h2l65 248h92l65 -246h1l67 246h90l-106 -337h-104l-61 233h-1z" />
    <glyph glyph-name="x.sinf" horiz-adv-x="363" 
d="M259 191h89l-115 -165l119 -172h-99l-76 110l-72 -110h-92l116 170l-118 167h101l72 -110z" />
    <glyph glyph-name="y.sinf" horiz-adv-x="359" 
d="M137 -152l-132 343h99l78 -242h2l76 242h96l-137 -360q-26 -68 -54 -95q-29 -27 -80 -27q-44 0 -75 14l9 69q31 -9 54 -9q24 0 37.5 13.5t26.5 51.5z" />
    <glyph glyph-name="z.sinf" horiz-adv-x="324" 
d="M295 191v-64l-167 -201h176v-72h-280v64l170 204h-168v69h269z" />
    <glyph glyph-name="zero.num" horiz-adv-x="416" 
d="M206 274q-89 0 -129 57t-40 176q0 230 175 230q90 0 128.5 -54.5t38.5 -171.5q0 -122 -41 -179.5t-132 -57.5zM272 508q0 85 -13 117.5t-49 32.5q-39 0 -52 -34q-13 -32 -13 -118q0 -87 13 -120q13 -34 50 -34q36 0 50 34.5t14 121.5z" />
    <glyph glyph-name="one.num" horiz-adv-x="305" 
d="M238 727v-448h-103v334q-13 -7 -48 -13q-37 -5 -51 -5l-5 80q93 6 136 52h71z" />
    <glyph glyph-name="two.num" horiz-adv-x="393" 
d="M199 737q70 0 107 -30.5t37 -85.5q0 -49 -27 -89q-28 -40 -96 -104l-54 -59v-3h184v-85h-302v84l100 107q53 56 73 85q19 28 19 58q0 45 -50 45q-53 0 -62 -64l-88 13q7 62 49.5 95t109.5 33z" />
    <glyph glyph-name="three.num" horiz-adv-x="384" 
d="M31 390l90 16q5 -30 19.5 -43t43.5 -13q64 0 64 63t-72 63h-47v70h30q39 0 61 18.5t22 49.5q0 47 -51 47t-62 -53l-87 17q22 112 159 112q68 0 105 -28t37 -79q0 -80 -87 -108v-2q96 -20 96 -110q0 -62 -45.5 -99t-120.5 -37q-139 0 -155 116z" />
    <glyph glyph-name="four.num" horiz-adv-x="404" 
d="M332 379v-98h-100v98h-208v70l183 280h125v-271h52v-79h-52zM233 641l-120 -183h120v183z" />
    <glyph glyph-name="five.num" horiz-adv-x="399" 
d="M122 466l-67 23l17 240h249v-83h-176l-12 -106v-7q38 34 92 34q57 0 90.5 -35t33.5 -102q0 -72 -46.5 -114t-122.5 -42q-138 0 -155 116l89 17q7 -57 65 -57q31 0 49.5 20t18.5 56q0 67 -60 67q-33 0 -65 -27z" />
    <glyph glyph-name="six.num" horiz-adv-x="421" 
d="M377 629l-90 -20q-5 29 -17.5 41.5t-34.5 12.5q-40 0 -61 -39.5t-21 -110.5q37 42 104 42q56 0 89 -32.5t33 -94.5q0 -75 -43.5 -114.5t-118.5 -39.5q-162 0 -162 220q0 87 36 160q44 83 151 83q114 0 135 -108zM157 454q2 -54 16 -79.5t48 -25.5q56 0 56 71q0 67 -51 67
q-40 0 -69 -33z" />
    <glyph glyph-name="seven.num" horiz-adv-x="365" 
d="M342 654l-177 -373h-108l178 365h-202v83h309v-75z" />
    <glyph glyph-name="eight.num" horiz-adv-x="403" 
d="M279 527q49 -20 72 -47t23 -73q0 -56 -49 -95q-49 -38 -129 -38q-78 0 -121.5 31.5t-43.5 85.5q0 77 94 116q-77 30 -77 107q0 57 45 90t115 33q72 0 112.5 -28t40.5 -76q0 -70 -82 -106zM181 475q-54 -29 -54 -71q0 -57 72 -57q31 0 49 14.5t18 38.5q0 26 -20 42.5
t-65 32.5zM220 555q49 28 49 68q0 45 -59 45q-27 0 -42 -12.5t-15 -33.5q0 -39 67 -67z" />
    <glyph glyph-name="nine.num" horiz-adv-x="420" 
d="M41 383l90 24q12 -59 60 -59q79 0 81 144q-41 -38 -103 -38q-57 0 -91 34t-34 97q0 73 45 112.5t120 39.5q84 0 121.5 -56.5t37.5 -164.5q0 -242 -180 -242q-128 0 -147 109zM265 551q-4 54 -14 78q-11 34 -49 34q-55 0 -55 -72q0 -71 53 -71q37 0 65 31z" />
    <glyph glyph-name="parenleft.ordn" horiz-adv-x="270" 
d="M248 208h-103q-96 127 -96 268q0 138 103 274h102q-51 -71 -75.5 -134t-24.5 -138q0 -73 23 -134t71 -136z" />
    <glyph glyph-name="parenright.ordn" horiz-adv-x="305" 
d="M20 750h104q99 -130 99 -272q0 -136 -100 -270h-101q49 71 72.5 131.5t23.5 137.5q0 127 -98 273z" />
    <glyph glyph-name="hyphen.ordn" horiz-adv-x="219" 
d="M195 511v-83h-175v83h175z" />
    <glyph glyph-name="comma.ordn" horiz-adv-x="191" 
d="M84 201l-80 8l42 161h102z" />
    <glyph glyph-name="period.ordn" horiz-adv-x="204" 
d="M164 330q0 -56 -61 -56q-63 0 -63 56q0 57 63 57q61 0 61 -57z" />
    <glyph glyph-name="minus.ordn" horiz-adv-x="439" 
d="M345 539v-76h-250v76h250z" />
    <glyph glyph-name="plus.ordn" horiz-adv-x="439" 
d="M259 460v-89h-80v89h-87v76h87v86h80v-86h88v-76h-88z" />
    <glyph glyph-name="equal.ordn" horiz-adv-x="442" 
d="M346 456v-76h-250v76h250zM346 577v-77h-250v77h250z" />
    <glyph glyph-name="a.ordn" horiz-adv-x="385" 
d="M326 508v-142q0 -18 8 -23.5t27 -2.5l3 -53q-28 -12 -54 -12q-27 0 -45.5 12t-21.5 30q-40 -43 -107 -43q-54 0 -78.5 27t-24.5 67q0 112 169 112q27 0 34 -1v17q0 34 -11.5 48t-43.5 14q-27 0 -40.5 -11t-18.5 -38l-77 13q16 103 144 103q71 0 104 -27.5t33 -89.5z
M237 366v57q-5 1 -30 1q-80 0 -80 -46q0 -38 43 -38q38 0 67 26z" />
    <glyph glyph-name="b.ordn" horiz-adv-x="409" 
d="M131 310l-4 -28h-79v489h91v-181q47 35 109 35q60 0 94.5 -41.5t34.5 -125.5q0 -91 -39 -137.5t-107 -46.5q-59 0 -98 36h-2zM140 524v-153q35 -26 69 -26q71 0 71 111q0 97 -67 97q-39 0 -73 -29z" />
    <glyph glyph-name="c.ordn" horiz-adv-x="377" 
d="M197 274q-82 0 -124.5 45.5t-42.5 125.5q0 87 46.5 133.5t131.5 46.5q62 0 100 -34t43 -95l-84 -12q-3 36 -17.5 52.5t-44.5 16.5q-78 0 -78 -102q0 -55 18.5 -79t56.5 -24q62 0 73 65l77 -14q-9 -59 -50.5 -92t-104.5 -33z" />
    <glyph glyph-name="d.ordn" horiz-adv-x="407" 
d="M272 771h88v-489h-77l-6 33l-1 1q-40 -42 -106 -42q-65 0 -101.5 43.5t-36.5 126.5q0 89 41 135t107 46q56 0 92 -30v176zM269 372v162q-29 20 -64 20q-77 0 -77 -108q0 -101 72 -101q39 0 69 27z" />
    <glyph glyph-name="e.ordn" horiz-adv-x="380" 
d="M200 274q-86 0 -128 47.5t-42 128.5q0 84 46.5 129.5t123.5 45.5q74 0 111.5 -40t37.5 -113q0 -11 -2 -43h-219q1 -46 19.5 -66t56.5 -20q55 0 66 50l76 -17q-10 -48 -48 -75t-98 -27zM129 485h124q3 72 -58 72q-29 0 -47 -18.5t-19 -53.5z" />
    <glyph glyph-name="f.ordn" horiz-adv-x="251" 
d="M257 766l-4 -64q-22 9 -47 9q-28 0 -41 -12.5t-13 -43.5v-36h93v-65h-93v-272h-93v272h-48v65h48v43q0 57 32 86.5t91 29.5q46 0 75 -12z" />
    <glyph glyph-name="g.ordn" horiz-adv-x="387" 
d="M189 625q63 0 95 -23q22 49 63 49q17 0 34 -6v-59q-32 3 -67 -6q28 -28 28 -75q0 -56 -41.5 -88.5t-108.5 -32.5q-30 0 -60 8q-16 -16 -16 -24q0 -18 35 -20l100 -5q61 -3 89.5 -25t28.5 -70q0 -112 -183 -112q-166 0 -166 82q0 50 55 65v1q-40 12 -40 52q0 36 51 73
q-50 29 -50 95q0 55 41 88t112 33zM258 505q0 56 -65 56q-70 0 -70 -55t68 -55q67 0 67 54zM279 232q0 30 -48 31l-102 6q-25 -16 -25 -38q0 -34 90 -34q85 0 85 35z" />
    <glyph glyph-name="h.ordn" horiz-adv-x="404" 
d="M360 504v-222h-92v211q0 57 -52 57q-44 0 -76 -30v-238h-93v489h92v-184q47 38 112 38q109 0 109 -121z" />
    <glyph glyph-name="i.ordn" horiz-adv-x="188" 
d="M49 619h92v-337h-92v337zM153 723q0 -26 -15.5 -40.5t-42.5 -14.5t-42 14.5t-15 40.5q0 54 57 54q27 0 42.5 -14.5t15.5 -39.5z" />
    <glyph glyph-name="j.ordn" horiz-adv-x="187" 
d="M22 137q-50 0 -79 17l7 73q25 -12 55 -12q44 0 44 51v353h93v-368q0 -114 -120 -114zM96 671q-57 0 -57 55q0 54 57 54t57 -54q0 -26 -15 -40.5t-42 -14.5z" />
    <glyph glyph-name="k.ordn" horiz-adv-x="386" 
d="M48 771h93v-279l123 127h103l-117 -121l126 -216h-101l-96 159l-38 -37v-122h-93v489z" />
    <glyph glyph-name="l.ordn" horiz-adv-x="188" 
d="M49 771h93v-489h-93v489z" />
    <glyph glyph-name="m.ordn" horiz-adv-x="590" 
d="M140 520v-238h-93v337h79l5 -35q53 41 109 41q66 0 89 -44q49 44 112 44q104 0 104 -112v-231h-92v212q0 55 -43 55q-39 0 -67 -28v-239h-92v212q0 29 -9.5 42t-32.5 13q-40 0 -69 -29z" />
    <glyph glyph-name="n.ordn" horiz-adv-x="404" 
d="M360 511v-229h-92v210q0 58 -52 58q-44 0 -76 -31v-237h-93v337h82l5 -37q49 43 115 43q111 0 111 -114z" />
    <glyph glyph-name="o.ordn" horiz-adv-x="406" 
d="M199 274q-85 0 -127 46t-42 129q0 84 46 130t133 46q83 0 124.5 -44t41.5 -125q0 -182 -176 -182zM202 348q77 0 77 104q0 54 -17 77t-56 23q-79 0 -79 -101q0 -54 17.5 -78.5t57.5 -24.5z" />
    <glyph glyph-name="p.ordn" horiz-adv-x="408" 
d="M138 144h-90v475h79l5 -38q47 44 113 44q131 0 131 -167q0 -91 -39 -137.5t-104 -46.5q-58 0 -95 30v-160zM139 521v-151q32 -25 69 -25q72 0 72 111q0 53 -15.5 74.5t-51.5 21.5q-40 0 -74 -31z" />
    <glyph glyph-name="q.ordn" horiz-adv-x="407" 
d="M284 619h76v-475h-88v165q-47 -35 -104 -35q-136 0 -136 171q0 89 41 134.5t108 45.5q61 0 94 -38zM269 372v158q-33 24 -66 24q-75 0 -75 -107q0 -99 72 -99q40 0 69 24z" />
    <glyph glyph-name="r.ordn" horiz-adv-x="271" 
d="M261 625v-86q-72 8 -121 -32v-225h-93v337h79l7 -53q44 62 128 59z" />
    <glyph glyph-name="s.ordn" horiz-adv-x="346" 
d="M177 625q113 0 137 -92l-74 -20q-7 26 -21.5 37.5t-42.5 11.5q-49 0 -49 -32q0 -19 13.5 -26.5t56.5 -14.5q57 -11 85 -27q39 -22 39 -77q0 -53 -41.5 -82t-109.5 -29q-126 0 -146 96l75 24q15 -54 74 -54q55 0 55 33q-4 21 -16.5 28t-50.5 13q-41 7 -68 19
q-55 25 -55 85q0 50 38.5 78.5t100.5 28.5z" />
    <glyph glyph-name="t.ordn" horiz-adv-x="283" 
d="M259 365l13 -66q-38 -25 -99 -25q-109 0 -109 105v177h-53v63h53v98l92 12v-110h95v-63h-95v-159q0 -25 10 -36.5t34 -11.5q31 0 59 16z" />
    <glyph glyph-name="u.ordn" horiz-adv-x="402" 
d="M46 388v231h93v-213q0 -30 11 -44t37 -14q43 0 75 31v240h93v-337h-79l-7 38q-47 -45 -115 -45q-108 0 -108 113z" />
    <glyph glyph-name="v.ordn" horiz-adv-x="367" 
d="M363 619l-126 -337h-107l-126 337h100l81 -253h2l82 253h94z" />
    <glyph glyph-name="w.ordn" horiz-adv-x="551" 
d="M275 515l-57 -233h-109l-105 337h93l68 -248h2l65 248h92l65 -246h1l67 246h90l-106 -337h-104l-61 233h-1z" />
    <glyph glyph-name="x.ordn" horiz-adv-x="363" 
d="M259 619h89l-115 -165l119 -172h-99l-76 110l-72 -110h-92l116 170l-118 167h101l72 -110z" />
    <glyph glyph-name="y.ordn" horiz-adv-x="359" 
d="M137 276l-132 343h99l78 -242h2l76 242h96l-137 -360q-26 -68 -54 -95q-29 -27 -80 -27q-44 0 -75 14l9 69q31 -9 54 -9q24 0 37.5 13.5t26.5 51.5z" />
    <glyph glyph-name="z.ordn" horiz-adv-x="324" 
d="M295 619v-64l-167 -201h176v-72h-280v64l170 204h-168v69h269z" />
    <glyph glyph-name="zero.denom" horiz-adv-x="416" 
d="M206 -7q-89 0 -129 57t-40 176q0 230 175 230q90 0 128.5 -54.5t38.5 -171.5q0 -122 -41 -179.5t-132 -57.5zM272 227q0 85 -13 117.5t-49 32.5q-39 0 -52 -34q-13 -32 -13 -118q0 -87 13 -120q13 -34 50 -34q36 0 50 34.5t14 121.5z" />
    <glyph glyph-name="one.denom" horiz-adv-x="305" 
d="M238 446v-448h-103v334q-13 -7 -48 -13q-37 -5 -51 -5l-5 80q93 6 136 52h71z" />
    <glyph glyph-name="two.denom" horiz-adv-x="393" 
d="M199 456q70 0 107 -30.5t37 -85.5q0 -48 -27 -89q-28 -40 -96 -104l-54 -59v-3h184v-85h-302v84l100 107q53 56 73 85q19 28 19 58q0 45 -50 45q-53 0 -62 -64l-88 13q7 62 49.5 95t109.5 33z" />
    <glyph glyph-name="three.denom" horiz-adv-x="384" 
d="M31 109l90 16q5 -30 19.5 -43t43.5 -13q64 0 64 63t-72 63h-47v70h30q39 0 61 18.5t22 49.5q0 47 -51 47t-62 -53l-87 17q22 112 159 112q68 0 105 -28t37 -79q0 -79 -87 -108v-2q96 -19 96 -110q0 -62 -45.5 -99t-120.5 -37q-139 0 -155 116z" />
    <glyph glyph-name="four.denom" horiz-adv-x="404" 
d="M332 98v-98h-100v98h-208v70l183 280h125v-271h52v-79h-52zM233 360l-120 -183h120v183z" />
    <glyph glyph-name="five.denom" horiz-adv-x="399" 
d="M122 185l-67 23l17 240h249v-83h-176l-12 -106v-7q38 34 92 34q57 0 90.5 -35t33.5 -102q0 -72 -46.5 -114t-122.5 -42q-138 0 -155 116l89 17q8 -57 65 -57q31 0 49.5 20t18.5 56q0 67 -60 67q-33 0 -65 -27z" />
    <glyph glyph-name="six.denom" horiz-adv-x="421" 
d="M377 348l-90 -20q-5 29 -17.5 41.5t-34.5 12.5q-40 0 -61 -39.5t-21 -110.5q37 42 104 42q56 0 89 -32.5t33 -94.5q0 -75 -43.5 -114.5t-118.5 -39.5q-162 0 -162 220q0 87 36 160q44 83 151 83q114 0 135 -108zM157 173q2 -54 16 -79.5t48 -25.5q56 0 56 71q0 67 -51 67
q-40 0 -69 -33z" />
    <glyph glyph-name="seven.denom" horiz-adv-x="365" 
d="M342 373l-177 -373h-108l178 365h-202v83h309v-75z" />
    </font>
</defs>
</svg>
