<svg xmlns="http://www.w3.org/2000/svg" width="16" height="11.428" viewBox="0 0 16 11.428">
  <path id="_" data-name=" " d="M1461.4,84.139,1456.824,87a.51.51,0,0,1-.3.089.615.615,0,0,1-.277-.072.531.531,0,0,1-.295-.5V80.8a.533.533,0,0,1,.295-.5.54.54,0,0,1,.58.018l4.572,2.857a.568.568,0,0,1,0,.964Zm4.754-3.039a11.05,11.05,0,0,0-.192-1.318,2.075,2.075,0,0,0-.62-1.1,1.9,1.9,0,0,0-1.112-.518,80.661,80.661,0,0,0-11.982,0,1.882,1.882,0,0,0-1.107.518,2.085,2.085,0,0,0-.616,1.1,9.843,9.843,0,0,0-.2,1.318q-.067.735-.076,1.218t-.009,1.339q0,.858.009,1.34c.006.322.031.727.076,1.219a11.014,11.014,0,0,0,.192,1.317,2.079,2.079,0,0,0,.62,1.1,1.9,1.9,0,0,0,1.112.517,80.518,80.518,0,0,0,11.982,0,1.885,1.885,0,0,0,1.107-.517,2.1,2.1,0,0,0,.616-1.1,9.915,9.915,0,0,0,.2-1.317c.045-.492.07-.9.076-1.219s.009-.768.009-1.34,0-1.017-.009-1.339S1466.194,81.59,1466.15,81.1Z" transform="translate(-1450.234 -77.943)"/>
</svg>
