<svg xmlns="http://www.w3.org/2000/svg" width="417.464" height="345.767" viewBox="0 0 417.464 345.767">
  <g id="shape_arrow" transform="translate(0.514 0.508)">
    <g id="Group_468" data-name="Group 468" transform="translate(596.222 596.262) rotate(90)">
      <g id="Group_443" data-name="Group 443" transform="translate(-535.66 202.569)">
        <path id="Path_291" data-name="Path 291" d="M-275.167,399.107c-69.264-1-97.131-2.014-145.077,45.932-20.3,20.3-35.109,47.974-39.4,76.114-2.185,14.336-1.921,29.483,4,42.723,9.265,20.742,32.6,33.952,55.25,32.188,22.027-1.716,42.651-17.607,48.618-38.881,6.746-24.051-5.058-49.928-22.15-68.146-32.956-35.128-80.98-47.716-120.619-72.97-94.683-60.323-102.5-186.567-101.657-236.786" transform="translate(535.66 -202.569)" fill="none" stroke="#000" stroke-miterlimit="10" stroke-width="1"/>
      </g>
      <g id="Group_444" data-name="Group 444" transform="translate(-274.704 392.099)">
        <path id="Path_292" data-name="Path 292" d="M-378.225,296.706l-23.7-7.32.032,14.592Z" transform="translate(401.926 -289.386)" fill="#2ee68a"/>
      </g>
    </g>
  </g>
</svg>
