<svg xmlns="http://www.w3.org/2000/svg" width="316.312" height="394.665" viewBox="0 0 316.312 394.665">
  <g id="shape_arrow1" transform="translate(0.655 0.5)">
    <g id="Group_443" data-name="Group 443" transform="translate(0 -0.002)">
      <path id="Path_291" data-name="Path 291" d="M-242.611,399.4c-37.975,0-122.837-9.151-177.633,45.644-20.3,20.3-35.109,47.974-39.4,76.114-2.185,14.336-1.921,29.483,4,42.723,9.265,20.742,32.6,33.952,55.25,32.188,22.027-1.716,42.651-17.607,48.618-38.881,6.746-24.051-5.058-49.928-22.15-68.146-32.956-35.128-80.98-47.716-120.619-72.97-36.918-23.521-48.9-71.595-36.229-112.065q1.542-4.925,3.55-9.686c12.509-29.631,38.257-51.061,65.681-66.489a196.071,196.071,0,0,1,94.48-25.256" transform="translate(535.66 -202.569)" fill="none" stroke="#161615" stroke-miterlimit="10" stroke-width="1"/>
    </g>
    <g id="Group_444" data-name="Group 444" transform="translate(291.956 189.528)">
      <path id="Path_292" data-name="Path 292" d="M-378.225,296.706l-23.7-7.32.032,14.592Z" transform="translate(401.926 -289.386)" fill="#161615"/>
    </g>
  </g>
</svg>
