<svg xmlns="http://www.w3.org/2000/svg" width="1149.252" height="631.578" viewBox="0 0 1149.252 631.578">
  <path id="shape_metodateczowki" d="M-343.44-55.968-407.994-254.4h-79.818v7.632c29.574,0,34.026,5.724,34.026,25.122V-32.754c0,19.4-4.452,25.122-34.026,25.122V0h81.09V-7.632c-29.892,0-34.026-5.724-34.026-25.122l-.636-200.022h.954l76.638,240.09h15.9l77.592-243.27h.954v203.2c0,19.4-4.452,25.122-34.026,25.122V0H-199.7V-7.632c-29.574,0-34.026-5.724-34.026-25.122V-221.646c0-19.4,4.452-25.122,34.026-25.122V-254.4h-78.228L-342.486-55.968ZM-95.082-66.78c-8.9,37.524-23.532,49.608-38.8,49.608-25.122,0-38.16-31.164-38.16-74.412v-1.272h84.27c0-46.428-17.808-81.408-54.06-81.408-38.8,0-61.056,42.612-61.056,91.584,0,54.378,21.942,89.04,58.194,89.04,29.574,0,50.562-24.168,57.24-73.14ZM-143.1-160.908c19.08,0,24.8,24.486,24.8,55.014H-171.72C-170.13-138.012-161.862-160.908-143.1-160.908ZM12.084-69.96C11.448-27.984,5.724-12.4-8.9-12.4c-17.49,0-19.4-19.08-19.4-50.244v-91.9H8.586V-167.9H-28.3v-45.474H-38.16c-2.862,33.072-15.264,44.52-44.52,45.474v13.356h24.8V-52.47c0,42.612,14.946,58.83,40.068,58.83C12.4,6.36,19.08-20.352,19.4-69.96ZM102.078,6.36c44.2,0,71.55-38.8,71.55-90.312,0-51.2-27.348-90.312-71.55-90.312-44.52,0-71.868,39.114-71.868,90.312C30.21-32.436,57.558,6.36,102.078,6.36ZM108.756-7c-24.486,1.908-39.432-22.9-44.2-73.458-4.134-50.88,6.36-77.91,30.528-80.136,24.486-2.226,39.75,22.578,44.2,73.458C143.418-36.252,132.924-9.222,108.756-7Zm229.6-16.218c-17.172,8.586-16.536,4.452-16.536-15.9V-256.308l-4.452-4.452-45.474,22.9,3.5,6.678c17.172-8.586,16.536-4.77,16.536,15.9v61.374h-.636c-7.632-10.176-20.352-20.352-38.16-20.352-40.068,0-63.6,42.294-63.6,96.99,0,51.2,21.306,83.634,55.332,83.634,20.67,0,33.39-12.084,45.792-32.118h1.272V1.908l4.452,4.452,45.474-22.9ZM291.924-40.7c-8.9,14.31-18.126,28.3-34.98,28.3-23.85,0-33.072-32.754-33.072-74.412,0-38.478,7.95-74.094,35.934-74.094,18.444,0,32.118,20.034,32.118,58.194Zm191.754,19.08c-3.816,10.176-6.042,14.946-11.448,14.946-6.042,0-7-5.088-7-14.946V-123.7c0-34.662-20.034-50.562-51.834-50.562-30.846,0-53.424,13.992-53.424,36.888,0,13.992,6.36,21.942,17.49,21.942,10.176,0,16.854-5.088,16.854-12.72,0-8.586-5.088-12.084-5.088-19.716,0-9.54,9.54-15.264,21.942-15.264,21.306,0,24.168,14.946,24.168,38.8v14.946l-14.946,7c-33.708,15.264-69.324,27.984-69.324,68.688,0,24.486,13.674,40.068,35.934,40.068,27.666,0,41.658-22.9,47.7-32.754h.636v1.272c0,19.716,8.268,31.482,27.03,31.482,18.444,0,24.168-11.766,28.62-27.984ZM401.634-15.9c-12.4,0-20.988-8.586-20.988-25.758,0-22.578,16.218-37.842,40.7-49.29l13.992-6.678V-38.8C423.258-23.214,414.036-15.9,401.634-15.9ZM-386.529,45.186l-.636-8.586H-568.107l-.636,8.586-4.134,51.834,7.314.636c3.5-41.34,9.858-48.018,29.256-48.018h41.022V258.246c0,19.4-4.452,25.122-34.026,25.122V291h103.668v-7.632c-29.574,0-34.026-5.724-34.026-25.122V49.638h40.7c19.4,0,25.758,6.678,29.256,48.018l7.632-.636Zm41.658,311.322c-13.992,0-21.306-8.268-21.306-20.67,0-21.942,18.762-27.03,32.118-41.658h-.636c20.352-7.95,34.344-31.164,39.75-69.96h-7.632c-8.9,37.524-23.532,49.608-38.8,49.608-25.122,0-38.16-31.164-38.16-74.412v-1.272h84.27c0-46.428-17.808-81.408-54.06-81.408-38.8,0-61.056,42.612-61.056,91.584,0,54.378,21.942,89.04,58.194,89.04a29.1,29.1,0,0,0,5.406-.318c-14.946,8.268-42.93,14.628-42.93,42.93,0,20.352,16.536,30.846,35.3,30.846,14.946,0,26.712-5.406,37.524-13.992l-1.908-7.632C-330.561,354.6-337.239,356.508-344.871,356.508ZM-350.6,130.092c19.08,0,24.8,24.486,24.8,55.014h-53.424C-377.625,152.988-369.357,130.092-350.6,130.092Zm153.276,27.984c.954,11.766,7.632,17.49,18.444,17.49s16.218-6.36,16.218-17.172c0-20.988-20.67-41.658-48.972-41.658-39.432,0-67.1,35.934-67.1,93.492,0,52.47,22.9,87.132,62.328,87.132,32.436,0,52.152-24.168,58.83-72.5H-165.2c-9.54,39.432-21.624,52.47-38.16,52.47-25.44,0-41.022-28.62-41.022-75.048,0-43.248,9.54-72.186,30.846-72.186C-202.089,130.092-198.591,140.9-197.319,158.076ZM-67.893,277.962h-46.428l79.182-147.234V123.1H-146.757v51.516h7.632c0-33.072,4.77-38.16,25.122-38.16h39.114l-79.5,146.916V291h119.25V233.124h-7.314C-42.453,271.6-47.223,277.962-67.893,277.962ZM36.093,91.3H48.177L89.2,33.1H57.4ZM49.449,297.36c44.2,0,71.55-38.8,71.55-90.312,0-51.2-27.348-90.312-71.55-90.312-44.52,0-71.868,39.114-71.868,90.312C-22.419,258.564,4.929,297.36,49.449,297.36ZM56.127,284c-24.486,1.908-39.432-22.9-44.2-73.458-4.134-50.88,6.36-77.91,30.528-80.136,24.486-2.226,39.75,22.578,44.2,73.458C90.789,254.748,80.295,281.778,56.127,284ZM347.733,123.1H295.581v7.632c20.352,0,20.034,4.452,14.31,24.168L283.5,247.116h-.954L256.467,154.9c-5.724-19.716-6.042-24.168,13.038-24.168V123.1H196.683v7.632c13.674,0,19.4,4.134,25.122,24.168l7.95,26.712-22.578,70.914h-.954l-31.8-97.944c-6.678-19.716-7-23.85,13.356-23.85V123.1H113.367v7.632c13.356,0,19.4,4.134,26.076,23.85l47.382,143.736h18.444L235.8,202.278l28.3,96.036h18.126L323.247,154.9c5.406-19.716,11.13-24.168,24.486-24.168Zm39.75,135.15V34.692l-4.452-4.452L360.453,41.37,336.6,53.454l3.5,6.678c17.808-8.9,17.49-5.088,17.49,15.582V258.246c0,20.352-3.18,25.122-22.578,25.122V291h74.73v-7.632C390.345,283.368,387.483,278.6,387.483,258.246Zm81.09,4.134-44.52-80.136L454.581,147.9c13.674-15.582,23.85-17.172,37.524-17.172V123.1H432v7.632c23.214,0,18.762,1.59,4.77,16.854l-42.93,47.382,37.524,67.416c9.858,17.808,12.4,20.988-9.222,20.988V291h78.228v-7.632C487.017,283.368,478.749,280.188,468.573,262.38ZM537.579,67.446A18.6,18.6,0,1,0,519.135,49,18.528,18.528,0,0,0,537.579,67.446Zm16.536,190.8V121.188l-4.452-4.452-22.578,11.448-23.85,11.766,3.5,6.678c17.808-8.9,17.49-4.77,17.49,15.9v95.718c0,20.352-3.18,25.122-22.578,25.122V291h74.73v-7.632C556.977,283.368,554.115,278.6,554.115,258.246Z" transform="translate(572.877 260.76)"/>
</svg>
